G04 #@! TF.GenerationSoftware,KiCad,Pcbnew,(6.0.0)*
G04 #@! TF.CreationDate,2022-01-07T15:37:39-06:00*
G04 #@! TF.ProjectId,2.0,322e302e-6b69-4636-9164-5f7063625858,2.0*
G04 #@! TF.SameCoordinates,Original*
G04 #@! TF.FileFunction,Legend,Bot*
G04 #@! TF.FilePolarity,Positive*
%FSLAX46Y46*%
G04 Gerber Fmt 4.6, Leading zero omitted, Abs format (unit mm)*
G04 Created by KiCad (PCBNEW (6.0.0)) date 2022-01-07 15:37:39*
%MOMM*%
%LPD*%
G01*
G04 APERTURE LIST*
%ADD10C,0.150000*%
%ADD11C,0.254000*%
%ADD12C,0.100000*%
%ADD13C,0.120000*%
%ADD14C,0.200000*%
%ADD15C,0.127000*%
G04 APERTURE END LIST*
D10*
X88378571Y-122402380D02*
X88378571Y-121402380D01*
X87807142Y-122402380D02*
X88235714Y-121830952D01*
X87807142Y-121402380D02*
X88378571Y-121973809D01*
X87045238Y-121878571D02*
X87378571Y-121878571D01*
X87378571Y-122402380D02*
X87378571Y-121402380D01*
X86902380Y-121402380D01*
X86330952Y-121402380D02*
X86235714Y-121402380D01*
X86140476Y-121450000D01*
X86092857Y-121497619D01*
X86045238Y-121592857D01*
X85997619Y-121783333D01*
X85997619Y-122021428D01*
X86045238Y-122211904D01*
X86092857Y-122307142D01*
X86140476Y-122354761D01*
X86235714Y-122402380D01*
X86330952Y-122402380D01*
X86426190Y-122354761D01*
X86473809Y-122307142D01*
X86521428Y-122211904D01*
X86569047Y-122021428D01*
X86569047Y-121783333D01*
X86521428Y-121592857D01*
X86473809Y-121497619D01*
X86426190Y-121450000D01*
X86330952Y-121402380D01*
X85378571Y-121402380D02*
X85283333Y-121402380D01*
X85188095Y-121450000D01*
X85140476Y-121497619D01*
X85092857Y-121592857D01*
X85045238Y-121783333D01*
X85045238Y-122021428D01*
X85092857Y-122211904D01*
X85140476Y-122307142D01*
X85188095Y-122354761D01*
X85283333Y-122402380D01*
X85378571Y-122402380D01*
X85473809Y-122354761D01*
X85521428Y-122307142D01*
X85569047Y-122211904D01*
X85616666Y-122021428D01*
X85616666Y-121783333D01*
X85569047Y-121592857D01*
X85521428Y-121497619D01*
X85473809Y-121450000D01*
X85378571Y-121402380D01*
X84188095Y-121735714D02*
X84188095Y-122402380D01*
X84426190Y-121354761D02*
X84664285Y-122069047D01*
X84045238Y-122069047D01*
X82902380Y-122021428D02*
X82140476Y-122021428D01*
X80950000Y-122354761D02*
X80807142Y-122402380D01*
X80569047Y-122402380D01*
X80473809Y-122354761D01*
X80426190Y-122307142D01*
X80378571Y-122211904D01*
X80378571Y-122116666D01*
X80426190Y-122021428D01*
X80473809Y-121973809D01*
X80569047Y-121926190D01*
X80759523Y-121878571D01*
X80854761Y-121830952D01*
X80902380Y-121783333D01*
X80950000Y-121688095D01*
X80950000Y-121592857D01*
X80902380Y-121497619D01*
X80854761Y-121450000D01*
X80759523Y-121402380D01*
X80521428Y-121402380D01*
X80378571Y-121450000D01*
X79807142Y-122402380D02*
X79902380Y-122354761D01*
X79950000Y-122259523D01*
X79950000Y-121402380D01*
X79045238Y-122354761D02*
X79140476Y-122402380D01*
X79330952Y-122402380D01*
X79426190Y-122354761D01*
X79473809Y-122259523D01*
X79473809Y-121878571D01*
X79426190Y-121783333D01*
X79330952Y-121735714D01*
X79140476Y-121735714D01*
X79045238Y-121783333D01*
X78997619Y-121878571D01*
X78997619Y-121973809D01*
X79473809Y-122069047D01*
X78188095Y-122354761D02*
X78283333Y-122402380D01*
X78473809Y-122402380D01*
X78569047Y-122354761D01*
X78616666Y-122259523D01*
X78616666Y-121878571D01*
X78569047Y-121783333D01*
X78473809Y-121735714D01*
X78283333Y-121735714D01*
X78188095Y-121783333D01*
X78140476Y-121878571D01*
X78140476Y-121973809D01*
X78616666Y-122069047D01*
X77711904Y-121735714D02*
X77711904Y-122735714D01*
X77711904Y-121783333D02*
X77616666Y-121735714D01*
X77426190Y-121735714D01*
X77330952Y-121783333D01*
X77283333Y-121830952D01*
X77235714Y-121926190D01*
X77235714Y-122211904D01*
X77283333Y-122307142D01*
X77330952Y-122354761D01*
X77426190Y-122402380D01*
X77616666Y-122402380D01*
X77711904Y-122354761D01*
X76045238Y-121402380D02*
X76045238Y-122211904D01*
X75997619Y-122307142D01*
X75950000Y-122354761D01*
X75854761Y-122402380D01*
X75664285Y-122402380D01*
X75569047Y-122354761D01*
X75521428Y-122307142D01*
X75473809Y-122211904D01*
X75473809Y-121402380D01*
X74997619Y-121735714D02*
X74997619Y-122402380D01*
X74997619Y-121830952D02*
X74950000Y-121783333D01*
X74854761Y-121735714D01*
X74711904Y-121735714D01*
X74616666Y-121783333D01*
X74569047Y-121878571D01*
X74569047Y-122402380D01*
X74092857Y-122402380D02*
X74092857Y-121735714D01*
X74092857Y-121402380D02*
X74140476Y-121450000D01*
X74092857Y-121497619D01*
X74045238Y-121450000D01*
X74092857Y-121402380D01*
X74092857Y-121497619D01*
X73759523Y-121735714D02*
X73378571Y-121735714D01*
X73616666Y-121402380D02*
X73616666Y-122259523D01*
X73569047Y-122354761D01*
X73473809Y-122402380D01*
X73378571Y-122402380D01*
D11*
G04 #@! TO.C,SW15*
X94928333Y-39074523D02*
X94928333Y-37804523D01*
X94928333Y-38409285D02*
X94202619Y-38409285D01*
X94202619Y-39074523D02*
X94202619Y-37804523D01*
X93416428Y-39074523D02*
X93537380Y-39014047D01*
X93597857Y-38953571D01*
X93658333Y-38832619D01*
X93658333Y-38469761D01*
X93597857Y-38348809D01*
X93537380Y-38288333D01*
X93416428Y-38227857D01*
X93235000Y-38227857D01*
X93114047Y-38288333D01*
X93053571Y-38348809D01*
X92993095Y-38469761D01*
X92993095Y-38832619D01*
X93053571Y-38953571D01*
X93114047Y-39014047D01*
X93235000Y-39074523D01*
X93416428Y-39074523D01*
X92448809Y-39074523D02*
X92448809Y-38227857D01*
X92448809Y-38348809D02*
X92388333Y-38288333D01*
X92267380Y-38227857D01*
X92085952Y-38227857D01*
X91965000Y-38288333D01*
X91904523Y-38409285D01*
X91904523Y-39074523D01*
X91904523Y-38409285D02*
X91844047Y-38288333D01*
X91723095Y-38227857D01*
X91541666Y-38227857D01*
X91420714Y-38288333D01*
X91360238Y-38409285D01*
X91360238Y-39074523D01*
X90271666Y-39014047D02*
X90392619Y-39074523D01*
X90634523Y-39074523D01*
X90755476Y-39014047D01*
X90815952Y-38893095D01*
X90815952Y-38409285D01*
X90755476Y-38288333D01*
X90634523Y-38227857D01*
X90392619Y-38227857D01*
X90271666Y-38288333D01*
X90211190Y-38409285D01*
X90211190Y-38530238D01*
X90815952Y-38651190D01*
G04 #@! TO.C,SW6*
X112411666Y-38874523D02*
X113016428Y-38874523D01*
X113016428Y-37604523D01*
X112109285Y-37604523D02*
X111323095Y-37604523D01*
X111746428Y-38088333D01*
X111565000Y-38088333D01*
X111444047Y-38148809D01*
X111383571Y-38209285D01*
X111323095Y-38330238D01*
X111323095Y-38632619D01*
X111383571Y-38753571D01*
X111444047Y-38814047D01*
X111565000Y-38874523D01*
X111927857Y-38874523D01*
X112048809Y-38814047D01*
X112109285Y-38753571D01*
G04 #@! TO.C,SW16*
X146198333Y-39114047D02*
X146016904Y-39174523D01*
X145714523Y-39174523D01*
X145593571Y-39114047D01*
X145533095Y-39053571D01*
X145472619Y-38932619D01*
X145472619Y-38811666D01*
X145533095Y-38690714D01*
X145593571Y-38630238D01*
X145714523Y-38569761D01*
X145956428Y-38509285D01*
X146077380Y-38448809D01*
X146137857Y-38388333D01*
X146198333Y-38267380D01*
X146198333Y-38146428D01*
X146137857Y-38025476D01*
X146077380Y-37965000D01*
X145956428Y-37904523D01*
X145654047Y-37904523D01*
X145472619Y-37965000D01*
X144444523Y-39114047D02*
X144565476Y-39174523D01*
X144807380Y-39174523D01*
X144928333Y-39114047D01*
X144988809Y-38993095D01*
X144988809Y-38509285D01*
X144928333Y-38388333D01*
X144807380Y-38327857D01*
X144565476Y-38327857D01*
X144444523Y-38388333D01*
X144384047Y-38509285D01*
X144384047Y-38630238D01*
X144988809Y-38751190D01*
X144021190Y-38327857D02*
X143537380Y-38327857D01*
X143839761Y-37904523D02*
X143839761Y-38993095D01*
X143779285Y-39114047D01*
X143658333Y-39174523D01*
X143537380Y-39174523D01*
X143295476Y-38327857D02*
X142811666Y-38327857D01*
X143114047Y-37904523D02*
X143114047Y-38993095D01*
X143053571Y-39114047D01*
X142932619Y-39174523D01*
X142811666Y-39174523D01*
X142388333Y-39174523D02*
X142388333Y-38327857D01*
X142388333Y-37904523D02*
X142448809Y-37965000D01*
X142388333Y-38025476D01*
X142327857Y-37965000D01*
X142388333Y-37904523D01*
X142388333Y-38025476D01*
X141783571Y-38327857D02*
X141783571Y-39174523D01*
X141783571Y-38448809D02*
X141723095Y-38388333D01*
X141602142Y-38327857D01*
X141420714Y-38327857D01*
X141299761Y-38388333D01*
X141239285Y-38509285D01*
X141239285Y-39174523D01*
X140090238Y-38327857D02*
X140090238Y-39355952D01*
X140150714Y-39476904D01*
X140211190Y-39537380D01*
X140332142Y-39597857D01*
X140513571Y-39597857D01*
X140634523Y-39537380D01*
X140090238Y-39114047D02*
X140211190Y-39174523D01*
X140453095Y-39174523D01*
X140574047Y-39114047D01*
X140634523Y-39053571D01*
X140695000Y-38932619D01*
X140695000Y-38569761D01*
X140634523Y-38448809D01*
X140574047Y-38388333D01*
X140453095Y-38327857D01*
X140211190Y-38327857D01*
X140090238Y-38388333D01*
X139545952Y-39114047D02*
X139425000Y-39174523D01*
X139183095Y-39174523D01*
X139062142Y-39114047D01*
X139001666Y-38993095D01*
X139001666Y-38932619D01*
X139062142Y-38811666D01*
X139183095Y-38751190D01*
X139364523Y-38751190D01*
X139485476Y-38690714D01*
X139545952Y-38569761D01*
X139545952Y-38509285D01*
X139485476Y-38388333D01*
X139364523Y-38327857D01*
X139183095Y-38327857D01*
X139062142Y-38388333D01*
D10*
G04 #@! TO.C,Stemma QT*
X82704761Y-45938571D02*
X82752380Y-46081428D01*
X82752380Y-46319523D01*
X82704761Y-46414761D01*
X82657142Y-46462380D01*
X82561904Y-46510000D01*
X82466666Y-46510000D01*
X82371428Y-46462380D01*
X82323809Y-46414761D01*
X82276190Y-46319523D01*
X82228571Y-46129047D01*
X82180952Y-46033809D01*
X82133333Y-45986190D01*
X82038095Y-45938571D01*
X81942857Y-45938571D01*
X81847619Y-45986190D01*
X81800000Y-46033809D01*
X81752380Y-46129047D01*
X81752380Y-46367142D01*
X81800000Y-46510000D01*
X82085714Y-46795714D02*
X82085714Y-47176666D01*
X81752380Y-46938571D02*
X82609523Y-46938571D01*
X82704761Y-46986190D01*
X82752380Y-47081428D01*
X82752380Y-47176666D01*
X82704761Y-47890952D02*
X82752380Y-47795714D01*
X82752380Y-47605238D01*
X82704761Y-47510000D01*
X82609523Y-47462380D01*
X82228571Y-47462380D01*
X82133333Y-47510000D01*
X82085714Y-47605238D01*
X82085714Y-47795714D01*
X82133333Y-47890952D01*
X82228571Y-47938571D01*
X82323809Y-47938571D01*
X82419047Y-47462380D01*
X82752380Y-48367142D02*
X82085714Y-48367142D01*
X82180952Y-48367142D02*
X82133333Y-48414761D01*
X82085714Y-48510000D01*
X82085714Y-48652857D01*
X82133333Y-48748095D01*
X82228571Y-48795714D01*
X82752380Y-48795714D01*
X82228571Y-48795714D02*
X82133333Y-48843333D01*
X82085714Y-48938571D01*
X82085714Y-49081428D01*
X82133333Y-49176666D01*
X82228571Y-49224285D01*
X82752380Y-49224285D01*
X82752380Y-49700476D02*
X82085714Y-49700476D01*
X82180952Y-49700476D02*
X82133333Y-49748095D01*
X82085714Y-49843333D01*
X82085714Y-49986190D01*
X82133333Y-50081428D01*
X82228571Y-50129047D01*
X82752380Y-50129047D01*
X82228571Y-50129047D02*
X82133333Y-50176666D01*
X82085714Y-50271904D01*
X82085714Y-50414761D01*
X82133333Y-50510000D01*
X82228571Y-50557619D01*
X82752380Y-50557619D01*
X82752380Y-51462380D02*
X82228571Y-51462380D01*
X82133333Y-51414761D01*
X82085714Y-51319523D01*
X82085714Y-51129047D01*
X82133333Y-51033809D01*
X82704761Y-51462380D02*
X82752380Y-51367142D01*
X82752380Y-51129047D01*
X82704761Y-51033809D01*
X82609523Y-50986190D01*
X82514285Y-50986190D01*
X82419047Y-51033809D01*
X82371428Y-51129047D01*
X82371428Y-51367142D01*
X82323809Y-51462380D01*
X82847619Y-53367142D02*
X82800000Y-53271904D01*
X82704761Y-53176666D01*
X82561904Y-53033809D01*
X82514285Y-52938571D01*
X82514285Y-52843333D01*
X82752380Y-52890952D02*
X82704761Y-52795714D01*
X82609523Y-52700476D01*
X82419047Y-52652857D01*
X82085714Y-52652857D01*
X81895238Y-52700476D01*
X81800000Y-52795714D01*
X81752380Y-52890952D01*
X81752380Y-53081428D01*
X81800000Y-53176666D01*
X81895238Y-53271904D01*
X82085714Y-53319523D01*
X82419047Y-53319523D01*
X82609523Y-53271904D01*
X82704761Y-53176666D01*
X82752380Y-53081428D01*
X82752380Y-52890952D01*
X81752380Y-53605238D02*
X81752380Y-54176666D01*
X82752380Y-53890952D02*
X81752380Y-53890952D01*
D11*
G04 #@! TO.C,SW11*
X122411666Y-39074523D02*
X122835000Y-38469761D01*
X123137380Y-39074523D02*
X123137380Y-37804523D01*
X122653571Y-37804523D01*
X122532619Y-37865000D01*
X122472142Y-37925476D01*
X122411666Y-38046428D01*
X122411666Y-38227857D01*
X122472142Y-38348809D01*
X122532619Y-38409285D01*
X122653571Y-38469761D01*
X123137380Y-38469761D01*
X121988333Y-37804523D02*
X121202142Y-37804523D01*
X121625476Y-38288333D01*
X121444047Y-38288333D01*
X121323095Y-38348809D01*
X121262619Y-38409285D01*
X121202142Y-38530238D01*
X121202142Y-38832619D01*
X121262619Y-38953571D01*
X121323095Y-39014047D01*
X121444047Y-39074523D01*
X121806904Y-39074523D01*
X121927857Y-39014047D01*
X121988333Y-38953571D01*
G04 #@! TO.C,SW5*
X73856190Y-39014047D02*
X73674761Y-39074523D01*
X73372380Y-39074523D01*
X73251428Y-39014047D01*
X73190952Y-38953571D01*
X73130476Y-38832619D01*
X73130476Y-38711666D01*
X73190952Y-38590714D01*
X73251428Y-38530238D01*
X73372380Y-38469761D01*
X73614285Y-38409285D01*
X73735238Y-38348809D01*
X73795714Y-38288333D01*
X73856190Y-38167380D01*
X73856190Y-38046428D01*
X73795714Y-37925476D01*
X73735238Y-37865000D01*
X73614285Y-37804523D01*
X73311904Y-37804523D01*
X73130476Y-37865000D01*
X72767619Y-38227857D02*
X72283809Y-38227857D01*
X72586190Y-37804523D02*
X72586190Y-38893095D01*
X72525714Y-39014047D01*
X72404761Y-39074523D01*
X72283809Y-39074523D01*
X71316190Y-39074523D02*
X71316190Y-38409285D01*
X71376666Y-38288333D01*
X71497619Y-38227857D01*
X71739523Y-38227857D01*
X71860476Y-38288333D01*
X71316190Y-39014047D02*
X71437142Y-39074523D01*
X71739523Y-39074523D01*
X71860476Y-39014047D01*
X71920952Y-38893095D01*
X71920952Y-38772142D01*
X71860476Y-38651190D01*
X71739523Y-38590714D01*
X71437142Y-38590714D01*
X71316190Y-38530238D01*
X70711428Y-39074523D02*
X70711428Y-38227857D01*
X70711428Y-38469761D02*
X70650952Y-38348809D01*
X70590476Y-38288333D01*
X70469523Y-38227857D01*
X70348571Y-38227857D01*
X70106666Y-38227857D02*
X69622857Y-38227857D01*
X69925238Y-37804523D02*
X69925238Y-38893095D01*
X69864761Y-39014047D01*
X69743809Y-39074523D01*
X69622857Y-39074523D01*
G04 #@! TO.C,SW10*
X85091190Y-38914047D02*
X84909761Y-38974523D01*
X84607380Y-38974523D01*
X84486428Y-38914047D01*
X84425952Y-38853571D01*
X84365476Y-38732619D01*
X84365476Y-38611666D01*
X84425952Y-38490714D01*
X84486428Y-38430238D01*
X84607380Y-38369761D01*
X84849285Y-38309285D01*
X84970238Y-38248809D01*
X85030714Y-38188333D01*
X85091190Y-38067380D01*
X85091190Y-37946428D01*
X85030714Y-37825476D01*
X84970238Y-37765000D01*
X84849285Y-37704523D01*
X84546904Y-37704523D01*
X84365476Y-37765000D01*
X83337380Y-38914047D02*
X83458333Y-38974523D01*
X83700238Y-38974523D01*
X83821190Y-38914047D01*
X83881666Y-38793095D01*
X83881666Y-38309285D01*
X83821190Y-38188333D01*
X83700238Y-38127857D01*
X83458333Y-38127857D01*
X83337380Y-38188333D01*
X83276904Y-38309285D01*
X83276904Y-38430238D01*
X83881666Y-38551190D01*
X82551190Y-38974523D02*
X82672142Y-38914047D01*
X82732619Y-38793095D01*
X82732619Y-37704523D01*
X81583571Y-38914047D02*
X81704523Y-38974523D01*
X81946428Y-38974523D01*
X82067380Y-38914047D01*
X82127857Y-38793095D01*
X82127857Y-38309285D01*
X82067380Y-38188333D01*
X81946428Y-38127857D01*
X81704523Y-38127857D01*
X81583571Y-38188333D01*
X81523095Y-38309285D01*
X81523095Y-38430238D01*
X82127857Y-38551190D01*
X80434523Y-38914047D02*
X80555476Y-38974523D01*
X80797380Y-38974523D01*
X80918333Y-38914047D01*
X80978809Y-38853571D01*
X81039285Y-38732619D01*
X81039285Y-38369761D01*
X80978809Y-38248809D01*
X80918333Y-38188333D01*
X80797380Y-38127857D01*
X80555476Y-38127857D01*
X80434523Y-38188333D01*
X80071666Y-38127857D02*
X79587857Y-38127857D01*
X79890238Y-37704523D02*
X79890238Y-38793095D01*
X79829761Y-38914047D01*
X79708809Y-38974523D01*
X79587857Y-38974523D01*
G04 #@! TO.C,SW19*
X105030714Y-38753571D02*
X105091190Y-38814047D01*
X105272619Y-38874523D01*
X105393571Y-38874523D01*
X105575000Y-38814047D01*
X105695952Y-38693095D01*
X105756428Y-38572142D01*
X105816904Y-38330238D01*
X105816904Y-38148809D01*
X105756428Y-37906904D01*
X105695952Y-37785952D01*
X105575000Y-37665000D01*
X105393571Y-37604523D01*
X105272619Y-37604523D01*
X105091190Y-37665000D01*
X105030714Y-37725476D01*
X103942142Y-38874523D02*
X103942142Y-38209285D01*
X104002619Y-38088333D01*
X104123571Y-38027857D01*
X104365476Y-38027857D01*
X104486428Y-38088333D01*
X103942142Y-38814047D02*
X104063095Y-38874523D01*
X104365476Y-38874523D01*
X104486428Y-38814047D01*
X104546904Y-38693095D01*
X104546904Y-38572142D01*
X104486428Y-38451190D01*
X104365476Y-38390714D01*
X104063095Y-38390714D01*
X103942142Y-38330238D01*
X103337380Y-38027857D02*
X103337380Y-39297857D01*
X103337380Y-38088333D02*
X103216428Y-38027857D01*
X102974523Y-38027857D01*
X102853571Y-38088333D01*
X102793095Y-38148809D01*
X102732619Y-38269761D01*
X102732619Y-38632619D01*
X102793095Y-38753571D01*
X102853571Y-38814047D01*
X102974523Y-38874523D01*
X103216428Y-38874523D01*
X103337380Y-38814047D01*
X102369761Y-38027857D02*
X101885952Y-38027857D01*
X102188333Y-37604523D02*
X102188333Y-38693095D01*
X102127857Y-38814047D01*
X102006904Y-38874523D01*
X101885952Y-38874523D01*
X100918333Y-38027857D02*
X100918333Y-38874523D01*
X101462619Y-38027857D02*
X101462619Y-38693095D01*
X101402142Y-38814047D01*
X101281190Y-38874523D01*
X101099761Y-38874523D01*
X100978809Y-38814047D01*
X100918333Y-38753571D01*
X100313571Y-38874523D02*
X100313571Y-38027857D01*
X100313571Y-38269761D02*
X100253095Y-38148809D01*
X100192619Y-38088333D01*
X100071666Y-38027857D01*
X99950714Y-38027857D01*
X99043571Y-38814047D02*
X99164523Y-38874523D01*
X99406428Y-38874523D01*
X99527380Y-38814047D01*
X99587857Y-38693095D01*
X99587857Y-38209285D01*
X99527380Y-38088333D01*
X99406428Y-38027857D01*
X99164523Y-38027857D01*
X99043571Y-38088333D01*
X98983095Y-38209285D01*
X98983095Y-38330238D01*
X99587857Y-38451190D01*
D12*
G04 #@! TO.C,D7*
X236085000Y-82760001D02*
X236985000Y-81860001D01*
X236985000Y-81860001D02*
X236085000Y-81860001D01*
X236085000Y-81860001D02*
X236085000Y-82760001D01*
G36*
X236085000Y-82760001D02*
G01*
X236085000Y-81860001D01*
X236985000Y-81860001D01*
X236085000Y-82760001D01*
G37*
X236085000Y-82760001D02*
X236085000Y-81860001D01*
X236985000Y-81860001D01*
X236085000Y-82760001D01*
G04 #@! TO.C,D4*
X91155000Y-70460001D02*
X92055000Y-69560001D01*
X92055000Y-69560001D02*
X91155000Y-69560001D01*
X91155000Y-69560001D02*
X91155000Y-70460001D01*
G36*
X91155000Y-70460001D02*
G01*
X91155000Y-69560001D01*
X92055000Y-69560001D01*
X91155000Y-70460001D01*
G37*
X91155000Y-70460001D02*
X91155000Y-69560001D01*
X92055000Y-69560001D01*
X91155000Y-70460001D01*
G04 #@! TO.C,D1*
X154085000Y-91660001D02*
X154985000Y-90760001D01*
X154985000Y-90760001D02*
X154085000Y-90760001D01*
X154085000Y-90760001D02*
X154085000Y-91660001D01*
G36*
X154085000Y-91660001D02*
G01*
X154085000Y-90760001D01*
X154985000Y-90760001D01*
X154085000Y-91660001D01*
G37*
X154085000Y-91660001D02*
X154085000Y-90760001D01*
X154985000Y-90760001D01*
X154085000Y-91660001D01*
D10*
G04 #@! TO.C,SW14*
X209020838Y-71725000D02*
X207294000Y-71725000D01*
X216565000Y-69820000D02*
X211485000Y-69820000D01*
X207675000Y-65375000D02*
X216565000Y-65375000D01*
X205516000Y-71725000D02*
X205135000Y-71725000D01*
X216565000Y-65375000D02*
X216565000Y-65756000D01*
X205135000Y-67915000D02*
X205135000Y-68296000D01*
X205135000Y-71344000D02*
X205135000Y-71725000D01*
X216565000Y-68804000D02*
X216565000Y-69820000D01*
X207675000Y-65375000D02*
G75*
G03*
X205135000Y-67915000I1J-2540001D01*
G01*
X211485000Y-69819999D02*
G75*
G03*
X209020838Y-71743960I0J-2540000D01*
G01*
D12*
G04 #@! TO.C,D2*
X62520000Y-70460001D02*
X63420000Y-69560001D01*
X63420000Y-69560001D02*
X62520000Y-69560001D01*
X62520000Y-69560001D02*
X62520000Y-70460001D01*
G36*
X62520000Y-70460001D02*
G01*
X62520000Y-69560001D01*
X63420000Y-69560001D01*
X62520000Y-70460001D01*
G37*
X62520000Y-70460001D02*
X62520000Y-69560001D01*
X63420000Y-69560001D01*
X62520000Y-70460001D01*
D10*
G04 #@! TO.C,SW20*
X128580000Y-115405000D02*
X137470000Y-115405000D01*
X126040000Y-121374000D02*
X126040000Y-121755000D01*
X126421000Y-121755000D02*
X126040000Y-121755000D01*
X137470000Y-118834000D02*
X137470000Y-119850000D01*
X129925838Y-121755000D02*
X128199000Y-121755000D01*
X137470000Y-115405000D02*
X137470000Y-115786000D01*
X137470000Y-119850000D02*
X132390000Y-119850000D01*
X126040000Y-117945000D02*
X126040000Y-118326000D01*
X132390000Y-119849999D02*
G75*
G03*
X129925838Y-121773960I0J-2540000D01*
G01*
X128580000Y-115405000D02*
G75*
G03*
X126040000Y-117945000I1J-2540001D01*
G01*
D12*
G04 #@! TO.C,D12*
X178485000Y-44460001D02*
X179385000Y-43560001D01*
X179385000Y-43560001D02*
X178485000Y-43560001D01*
X178485000Y-43560001D02*
X178485000Y-44460001D01*
G36*
X178485000Y-44460001D02*
G01*
X178485000Y-43560001D01*
X179385000Y-43560001D01*
X178485000Y-44460001D01*
G37*
X178485000Y-44460001D02*
X178485000Y-43560001D01*
X179385000Y-43560001D01*
X178485000Y-44460001D01*
G04 #@! TO.C,D15*
X76629999Y-41860000D02*
X77529999Y-42760000D01*
X77529999Y-42760000D02*
X77529999Y-41860000D01*
X77529999Y-41860000D02*
X76629999Y-41860000D01*
G36*
X77529999Y-42760000D02*
G01*
X76629999Y-41860000D01*
X77529999Y-41860000D01*
X77529999Y-42760000D01*
G37*
X77529999Y-42760000D02*
X76629999Y-41860000D01*
X77529999Y-41860000D01*
X77529999Y-42760000D01*
G04 #@! TO.C,D14*
X207285000Y-44360001D02*
X208185000Y-43460001D01*
X208185000Y-43460001D02*
X207285000Y-43460001D01*
X207285000Y-43460001D02*
X207285000Y-44360001D01*
G36*
X207285000Y-44360001D02*
G01*
X207285000Y-43460001D01*
X208185000Y-43460001D01*
X207285000Y-44360001D01*
G37*
X207285000Y-44360001D02*
X207285000Y-43460001D01*
X208185000Y-43460001D01*
X207285000Y-44360001D01*
D10*
G04 #@! TO.C,SW2*
X163365000Y-50175000D02*
X163365000Y-50556000D01*
X163365000Y-54620000D02*
X158285000Y-54620000D01*
X151935000Y-52715000D02*
X151935000Y-53096000D01*
X152316000Y-56525000D02*
X151935000Y-56525000D01*
X163365000Y-53604000D02*
X163365000Y-54620000D01*
X154475000Y-50175000D02*
X163365000Y-50175000D01*
X155820838Y-56525000D02*
X154094000Y-56525000D01*
X151935000Y-56144000D02*
X151935000Y-56525000D01*
X154475000Y-50175000D02*
G75*
G03*
X151935000Y-52715000I1J-2540001D01*
G01*
X158285000Y-54619999D02*
G75*
G03*
X155820838Y-56543960I0J-2540000D01*
G01*
G04 #@! TO.C,SW18*
X245365000Y-72475000D02*
X245365000Y-72856000D01*
X234316000Y-78825000D02*
X233935000Y-78825000D01*
X233935000Y-75015000D02*
X233935000Y-75396000D01*
X245365000Y-75904000D02*
X245365000Y-76920000D01*
X233935000Y-78444000D02*
X233935000Y-78825000D01*
X236475000Y-72475000D02*
X245365000Y-72475000D01*
X245365000Y-76920000D02*
X240285000Y-76920000D01*
X237820838Y-78825000D02*
X236094000Y-78825000D01*
X236475000Y-72475000D02*
G75*
G03*
X233935000Y-75015000I1J-2540001D01*
G01*
X240285000Y-76919999D02*
G75*
G03*
X237820838Y-78843960I0J-2540000D01*
G01*
G04 #@! TO.C,SW4*
X151935000Y-83915000D02*
X151935000Y-84296000D01*
X163365000Y-85820000D02*
X158285000Y-85820000D01*
X152316000Y-87725000D02*
X151935000Y-87725000D01*
X154475000Y-81375000D02*
X163365000Y-81375000D01*
X163365000Y-81375000D02*
X163365000Y-81756000D01*
X163365000Y-84804000D02*
X163365000Y-85820000D01*
X155820838Y-87725000D02*
X154094000Y-87725000D01*
X151935000Y-87344000D02*
X151935000Y-87725000D01*
X154475000Y-81375000D02*
G75*
G03*
X151935000Y-83915000I1J-2540001D01*
G01*
X158285000Y-85819999D02*
G75*
G03*
X155820838Y-87743960I0J-2540000D01*
G01*
G04 #@! TO.C,SW12*
X121125838Y-73725000D02*
X119399000Y-73725000D01*
X128670000Y-71820000D02*
X123590000Y-71820000D01*
X128670000Y-67375000D02*
X128670000Y-67756000D01*
X117240000Y-73344000D02*
X117240000Y-73725000D01*
X128670000Y-70804000D02*
X128670000Y-71820000D01*
X117240000Y-69915000D02*
X117240000Y-70296000D01*
X119780000Y-67375000D02*
X128670000Y-67375000D01*
X117621000Y-73725000D02*
X117240000Y-73725000D01*
X119780000Y-67375000D02*
G75*
G03*
X117240000Y-69915000I1J-2540001D01*
G01*
X123590000Y-71819999D02*
G75*
G03*
X121125838Y-73743960I0J-2540000D01*
G01*
G04 #@! TO.C,SW7*
X100435000Y-64620000D02*
X95355000Y-64620000D01*
X100435000Y-60175000D02*
X100435000Y-60556000D01*
X100435000Y-63604000D02*
X100435000Y-64620000D01*
X89005000Y-66144000D02*
X89005000Y-66525000D01*
X92890838Y-66525000D02*
X91164000Y-66525000D01*
X91545000Y-60175000D02*
X100435000Y-60175000D01*
X89386000Y-66525000D02*
X89005000Y-66525000D01*
X89005000Y-62715000D02*
X89005000Y-63096000D01*
X91545000Y-60175000D02*
G75*
G03*
X89005000Y-62715000I1J-2540001D01*
G01*
X95355000Y-64619999D02*
G75*
G03*
X92890838Y-66543960I0J-2540000D01*
G01*
D12*
G04 #@! TO.C,D8*
X128190000Y-125690001D02*
X129090000Y-124790001D01*
X129090000Y-124790001D02*
X128190000Y-124790001D01*
X128190000Y-124790001D02*
X128190000Y-125690001D01*
G36*
X128190000Y-125690001D02*
G01*
X128190000Y-124790001D01*
X129090000Y-124790001D01*
X128190000Y-125690001D01*
G37*
X128190000Y-125690001D02*
X128190000Y-124790001D01*
X129090000Y-124790001D01*
X128190000Y-125690001D01*
G04 #@! TO.C,D5*
X207285000Y-75660001D02*
X208185000Y-74760001D01*
X208185000Y-74760001D02*
X207285000Y-74760001D01*
X207285000Y-74760001D02*
X207285000Y-75660001D01*
G36*
X207285000Y-75660001D02*
G01*
X207285000Y-74760001D01*
X208185000Y-74760001D01*
X207285000Y-75660001D01*
G37*
X207285000Y-75660001D02*
X207285000Y-74760001D01*
X208185000Y-74760001D01*
X207285000Y-75660001D01*
G04 #@! TO.C,D3*
X178485000Y-75660001D02*
X179385000Y-74760001D01*
X179385000Y-74760001D02*
X178485000Y-74760001D01*
X178485000Y-74760001D02*
X178485000Y-75660001D01*
G36*
X178485000Y-75660001D02*
G01*
X178485000Y-74760001D01*
X179385000Y-74760001D01*
X178485000Y-75660001D01*
G37*
X178485000Y-75660001D02*
X178485000Y-74760001D01*
X179385000Y-74760001D01*
X178485000Y-75660001D01*
D10*
G04 #@! TO.C,SW3*
X71800000Y-60175000D02*
X71800000Y-60556000D01*
X60370000Y-66144000D02*
X60370000Y-66525000D01*
X62910000Y-60175000D02*
X71800000Y-60175000D01*
X64255838Y-66525000D02*
X62529000Y-66525000D01*
X60751000Y-66525000D02*
X60370000Y-66525000D01*
X71800000Y-64620000D02*
X66720000Y-64620000D01*
X71800000Y-63604000D02*
X71800000Y-64620000D01*
X60370000Y-62715000D02*
X60370000Y-63096000D01*
X66720000Y-64619999D02*
G75*
G03*
X64255838Y-66543960I0J-2540000D01*
G01*
X62910000Y-60175000D02*
G75*
G03*
X60370000Y-62715000I1J-2540001D01*
G01*
D12*
G04 #@! TO.C,D6*
X119390000Y-77660001D02*
X120290000Y-76760001D01*
X120290000Y-76760001D02*
X119390000Y-76760001D01*
X119390000Y-76760001D02*
X119390000Y-77660001D01*
G36*
X119390000Y-77660001D02*
G01*
X119390000Y-76760001D01*
X120290000Y-76760001D01*
X119390000Y-77660001D01*
G37*
X119390000Y-77660001D02*
X119390000Y-76760001D01*
X120290000Y-76760001D01*
X119390000Y-77660001D01*
D10*
G04 #@! TO.C,SW8*
X187765000Y-34175000D02*
X187765000Y-34556000D01*
X178875000Y-34175000D02*
X187765000Y-34175000D01*
X187765000Y-37604000D02*
X187765000Y-38620000D01*
X180220838Y-40525000D02*
X178494000Y-40525000D01*
X176335000Y-36715000D02*
X176335000Y-37096000D01*
X176716000Y-40525000D02*
X176335000Y-40525000D01*
X187765000Y-38620000D02*
X182685000Y-38620000D01*
X176335000Y-40144000D02*
X176335000Y-40525000D01*
X178875000Y-34175000D02*
G75*
G03*
X176335000Y-36715000I1J-2540001D01*
G01*
X182685000Y-38619999D02*
G75*
G03*
X180220838Y-40543960I0J-2540000D01*
G01*
D12*
G04 #@! TO.C,D10*
X154085000Y-60460001D02*
X154985000Y-59560001D01*
X154985000Y-59560001D02*
X154085000Y-59560001D01*
X154085000Y-59560001D02*
X154085000Y-60460001D01*
G36*
X154085000Y-60460001D02*
G01*
X154085000Y-59560001D01*
X154985000Y-59560001D01*
X154085000Y-60460001D01*
G37*
X154085000Y-60460001D02*
X154085000Y-59560001D01*
X154985000Y-59560001D01*
X154085000Y-60460001D01*
G04 #@! TO.C,D16*
X235685000Y-51560001D02*
X236585000Y-50660001D01*
X236585000Y-50660001D02*
X235685000Y-50660001D01*
X235685000Y-50660001D02*
X235685000Y-51560001D01*
G36*
X235685000Y-51560001D02*
G01*
X235685000Y-50660001D01*
X236585000Y-50660001D01*
X235685000Y-51560001D01*
G37*
X235685000Y-51560001D02*
X235685000Y-50660001D01*
X236585000Y-50660001D01*
X235685000Y-51560001D01*
G04 #@! TO.C,D11*
X66629999Y-41860000D02*
X67529999Y-42760000D01*
X67529999Y-42760000D02*
X67529999Y-41860000D01*
X67529999Y-41860000D02*
X66629999Y-41860000D01*
G36*
X67529999Y-42760000D02*
G01*
X66629999Y-41860000D01*
X67529999Y-41860000D01*
X67529999Y-42760000D01*
G37*
X67529999Y-42760000D02*
X66629999Y-41860000D01*
X67529999Y-41860000D01*
X67529999Y-42760000D01*
D10*
G04 #@! TO.C,SW17*
X244965000Y-45720000D02*
X239885000Y-45720000D01*
X236075000Y-41275000D02*
X244965000Y-41275000D01*
X233535000Y-43815000D02*
X233535000Y-44196000D01*
X233916000Y-47625000D02*
X233535000Y-47625000D01*
X233535000Y-47244000D02*
X233535000Y-47625000D01*
X244965000Y-44704000D02*
X244965000Y-45720000D01*
X237420838Y-47625000D02*
X235694000Y-47625000D01*
X244965000Y-41275000D02*
X244965000Y-41656000D01*
X239885000Y-45719999D02*
G75*
G03*
X237420838Y-47643960I0J-2540000D01*
G01*
X236075000Y-41275000D02*
G75*
G03*
X233535000Y-43815000I1J-2540001D01*
G01*
D12*
G04 #@! TO.C,D13*
X71629999Y-41860000D02*
X72529999Y-42760000D01*
X72529999Y-42760000D02*
X72529999Y-41860000D01*
X72529999Y-41860000D02*
X71629999Y-41860000D01*
G36*
X72529999Y-42760000D02*
G01*
X71629999Y-41860000D01*
X72529999Y-41860000D01*
X72529999Y-42760000D01*
G37*
X72529999Y-42760000D02*
X71629999Y-41860000D01*
X72529999Y-41860000D01*
X72529999Y-42760000D01*
G04 #@! TO.C,D9*
X61629999Y-41860000D02*
X62529999Y-42760000D01*
X62529999Y-42760000D02*
X62529999Y-41860000D01*
X62529999Y-41860000D02*
X61629999Y-41860000D01*
G36*
X62529999Y-42760000D02*
G01*
X61629999Y-41860000D01*
X62529999Y-41860000D01*
X62529999Y-42760000D01*
G37*
X62529999Y-42760000D02*
X61629999Y-41860000D01*
X62529999Y-41860000D01*
X62529999Y-42760000D01*
D10*
G04 #@! TO.C,SW13*
X209020838Y-40425000D02*
X207294000Y-40425000D01*
X205135000Y-36615000D02*
X205135000Y-36996000D01*
X216565000Y-38520000D02*
X211485000Y-38520000D01*
X207675000Y-34075000D02*
X216565000Y-34075000D01*
X205516000Y-40425000D02*
X205135000Y-40425000D01*
X205135000Y-40044000D02*
X205135000Y-40425000D01*
X216565000Y-34075000D02*
X216565000Y-34456000D01*
X216565000Y-37504000D02*
X216565000Y-38520000D01*
X211485000Y-38519999D02*
G75*
G03*
X209020838Y-40443960I0J-2540000D01*
G01*
X207675000Y-34075000D02*
G75*
G03*
X205135000Y-36615000I1J-2540001D01*
G01*
G04 #@! TO.C,SW9*
X187765000Y-68804000D02*
X187765000Y-69820000D01*
X176335000Y-67915000D02*
X176335000Y-68296000D01*
X176716000Y-71725000D02*
X176335000Y-71725000D01*
X187765000Y-69820000D02*
X182685000Y-69820000D01*
X187765000Y-65375000D02*
X187765000Y-65756000D01*
X180220838Y-71725000D02*
X178494000Y-71725000D01*
X178875000Y-65375000D02*
X187765000Y-65375000D01*
X176335000Y-71344000D02*
X176335000Y-71725000D01*
X178875000Y-65375000D02*
G75*
G03*
X176335000Y-67915000I1J-2540001D01*
G01*
X182685000Y-69819999D02*
G75*
G03*
X180220838Y-71743960I0J-2540000D01*
G01*
D13*
G04 #@! TO.C,C4*
X192462164Y-42640000D02*
X192677836Y-42640000D01*
X192462164Y-43360000D02*
X192677836Y-43360000D01*
G04 #@! TO.C,U2*
X140875000Y-85125000D02*
X140875000Y-84865000D01*
X143600000Y-79675000D02*
X140875000Y-79675000D01*
X146325000Y-85125000D02*
X146325000Y-84865000D01*
X140875000Y-79675000D02*
X140875000Y-79935000D01*
X143600000Y-85125000D02*
X140875000Y-85125000D01*
X143600000Y-79675000D02*
X146325000Y-79675000D01*
X143600000Y-85125000D02*
X146325000Y-85125000D01*
X146325000Y-79935000D02*
X148000000Y-79935000D01*
X146325000Y-79675000D02*
X146325000Y-79935000D01*
G04 #@! TO.C,R3*
X137100000Y-85559420D02*
X137100000Y-85840580D01*
X136080000Y-85559420D02*
X136080000Y-85840580D01*
G04 #@! TO.C,C1*
X193577836Y-37660000D02*
X193362164Y-37660000D01*
X193577836Y-36940000D02*
X193362164Y-36940000D01*
G04 #@! TO.C,U3*
X134270000Y-91790000D02*
X134270000Y-92440000D01*
X141490000Y-99010000D02*
X141490000Y-98360000D01*
X134270000Y-99010000D02*
X134270000Y-98360000D01*
X134920000Y-99010000D02*
X134270000Y-99010000D01*
X134920000Y-91790000D02*
X134270000Y-91790000D01*
X140840000Y-99010000D02*
X141490000Y-99010000D01*
X140840000Y-91790000D02*
X141490000Y-91790000D01*
G04 #@! TO.C,R4*
X134580000Y-85559420D02*
X134580000Y-85840580D01*
X135600000Y-85559420D02*
X135600000Y-85840580D01*
G04 #@! TO.C,C19*
X90230000Y-71587836D02*
X90230000Y-71372164D01*
X90950000Y-71587836D02*
X90950000Y-71372164D01*
G04 #@! TO.C,C21*
X60582164Y-50040000D02*
X60797836Y-50040000D01*
X60582164Y-50760000D02*
X60797836Y-50760000D01*
G04 #@! TO.C,C23*
X70482164Y-50760000D02*
X70697836Y-50760000D01*
X70482164Y-50040000D02*
X70697836Y-50040000D01*
D12*
G04 #@! TO.C,SW15*
X93890000Y-36550000D02*
X90340000Y-36550000D01*
D14*
X94990000Y-34200000D02*
X94990000Y-34200000D01*
D12*
X93840000Y-33650000D02*
X90340000Y-33650000D01*
D14*
X94990000Y-34400000D02*
X94990000Y-34400000D01*
X94990000Y-34400000D02*
G75*
G03*
X94990000Y-34200000I0J100000D01*
G01*
X94990000Y-34200000D02*
G75*
G03*
X94990000Y-34400000I0J-100000D01*
G01*
D13*
G04 #@! TO.C,C20*
X178250000Y-76827836D02*
X178250000Y-76612164D01*
X177530000Y-76827836D02*
X177530000Y-76612164D01*
D14*
G04 #@! TO.C,SW1*
X149540000Y-75250000D02*
X144440000Y-75250000D01*
X149540000Y-70150000D02*
X144440000Y-70150000D01*
X149540000Y-71700000D02*
X149540000Y-73700000D01*
X144440000Y-71700000D02*
X144440000Y-73700000D01*
G04 #@! TO.C,SW6*
X114990000Y-34200000D02*
X114990000Y-34200000D01*
D12*
X113840000Y-33650000D02*
X110340000Y-33650000D01*
D14*
X114990000Y-34400000D02*
X114990000Y-34400000D01*
D12*
X113890000Y-36550000D02*
X110340000Y-36550000D01*
D14*
X114990000Y-34200000D02*
G75*
G03*
X114990000Y-34400000I0J-100000D01*
G01*
X114990000Y-34400000D02*
G75*
G03*
X114990000Y-34200000I0J100000D01*
G01*
D12*
G04 #@! TO.C,SW16*
X143890000Y-36550000D02*
X140340000Y-36550000D01*
D14*
X144990000Y-34400000D02*
X144990000Y-34400000D01*
D12*
X143840000Y-33650000D02*
X140340000Y-33650000D01*
D14*
X144990000Y-34200000D02*
X144990000Y-34200000D01*
X144990000Y-34200000D02*
G75*
G03*
X144990000Y-34400000I0J-100000D01*
G01*
X144990000Y-34400000D02*
G75*
G03*
X144990000Y-34200000I0J100000D01*
G01*
D15*
G04 #@! TO.C,U1*
X194569000Y-39100000D02*
X194569000Y-40900000D01*
X191411000Y-39100000D02*
X191411000Y-40900000D01*
D14*
X192090000Y-37600000D02*
G75*
G03*
X192090000Y-37600000I-100000J0D01*
G01*
D13*
G04 #@! TO.C,C27*
X62350000Y-71607836D02*
X62350000Y-71392164D01*
X61630000Y-71607836D02*
X61630000Y-71392164D01*
G04 #@! TO.C,C17*
X235550000Y-83827836D02*
X235550000Y-83612164D01*
X234830000Y-83827836D02*
X234830000Y-83612164D01*
G04 #@! TO.C,C29*
X205930000Y-76907836D02*
X205930000Y-76692164D01*
X206650000Y-76907836D02*
X206650000Y-76692164D01*
G04 #@! TO.C,C25*
X127430000Y-126887836D02*
X127430000Y-126672164D01*
X128150000Y-126887836D02*
X128150000Y-126672164D01*
G04 #@! TO.C,C18*
X75482164Y-50040000D02*
X75697836Y-50040000D01*
X75482164Y-50760000D02*
X75697836Y-50760000D01*
G04 #@! TO.C,C22*
X207150000Y-45507836D02*
X207150000Y-45292164D01*
X206430000Y-45507836D02*
X206430000Y-45292164D01*
G04 #@! TO.C,C32*
X234630000Y-52627836D02*
X234630000Y-52412164D01*
X235350000Y-52627836D02*
X235350000Y-52412164D01*
G04 #@! TO.C,C30*
X119150000Y-78807836D02*
X119150000Y-78592164D01*
X118430000Y-78807836D02*
X118430000Y-78592164D01*
G04 #@! TO.C,R7*
X194762164Y-35040000D02*
X194977836Y-35040000D01*
X194762164Y-35760000D02*
X194977836Y-35760000D01*
G04 #@! TO.C,C31*
X178350000Y-45587836D02*
X178350000Y-45372164D01*
X177630000Y-45587836D02*
X177630000Y-45372164D01*
G04 #@! TO.C,C28*
X153650000Y-61627836D02*
X153650000Y-61412164D01*
X152930000Y-61627836D02*
X152930000Y-61412164D01*
G04 #@! TO.C,Stemma QT*
X84495000Y-46900000D02*
X84495000Y-47950000D01*
X86995000Y-53120000D02*
X84495000Y-53120000D01*
X84495000Y-47950000D02*
X83505000Y-47950000D01*
X88965000Y-48070000D02*
X88965000Y-51950000D01*
X84495000Y-53120000D02*
X84495000Y-52070000D01*
X86995000Y-46900000D02*
X84495000Y-46900000D01*
G04 #@! TO.C,C24*
X65482164Y-50040000D02*
X65697836Y-50040000D01*
X65482164Y-50760000D02*
X65697836Y-50760000D01*
D12*
G04 #@! TO.C,SW11*
X123840000Y-33650000D02*
X120340000Y-33650000D01*
X123890000Y-36550000D02*
X120340000Y-36550000D01*
D14*
X124990000Y-34400000D02*
X124990000Y-34400000D01*
X124990000Y-34200000D02*
X124990000Y-34200000D01*
X124990000Y-34400000D02*
G75*
G03*
X124990000Y-34200000I0J100000D01*
G01*
X124990000Y-34200000D02*
G75*
G03*
X124990000Y-34400000I0J-100000D01*
G01*
G04 #@! TO.C,SW5*
X74740000Y-34400000D02*
X74740000Y-34400000D01*
D12*
X73640000Y-36550000D02*
X70090000Y-36550000D01*
X73590000Y-33650000D02*
X70090000Y-33650000D01*
D14*
X74740000Y-34200000D02*
X74740000Y-34200000D01*
X74740000Y-34400000D02*
G75*
G03*
X74740000Y-34200000I0J100000D01*
G01*
X74740000Y-34200000D02*
G75*
G03*
X74740000Y-34400000I0J-100000D01*
G01*
D13*
G04 #@! TO.C,J1*
X192390000Y-25200000D02*
X201790000Y-25200000D01*
X192390000Y-31000000D02*
X192390000Y-29000000D01*
X201790000Y-31000000D02*
X201790000Y-29000000D01*
X201790000Y-27100000D02*
X201790000Y-25200000D01*
X192390000Y-27100000D02*
X192390000Y-25200000D01*
G04 #@! TO.C,C26*
X153850000Y-92827836D02*
X153850000Y-92612164D01*
X153130000Y-92827836D02*
X153130000Y-92612164D01*
D12*
G04 #@! TO.C,SW10*
X83890000Y-36550000D02*
X80340000Y-36550000D01*
D14*
X84990000Y-34400000D02*
X84990000Y-34400000D01*
D12*
X83840000Y-33650000D02*
X80340000Y-33650000D01*
D14*
X84990000Y-34200000D02*
X84990000Y-34200000D01*
X84990000Y-34200000D02*
G75*
G03*
X84990000Y-34400000I0J-100000D01*
G01*
X84990000Y-34400000D02*
G75*
G03*
X84990000Y-34200000I0J100000D01*
G01*
D13*
G04 #@! TO.C,Y1*
X138745000Y-109500000D02*
X138745000Y-105500000D01*
X142045000Y-109500000D02*
X138745000Y-109500000D01*
G04 #@! TO.C,R6*
X199617836Y-35860000D02*
X199402164Y-35860000D01*
X199617836Y-35140000D02*
X199402164Y-35140000D01*
D12*
G04 #@! TO.C,SW19*
X103890000Y-36550000D02*
X100340000Y-36550000D01*
D14*
X104990000Y-34200000D02*
X104990000Y-34200000D01*
D12*
X103840000Y-33650000D02*
X100340000Y-33650000D01*
D14*
X104990000Y-34400000D02*
X104990000Y-34400000D01*
X104990000Y-34400000D02*
G75*
G03*
X104990000Y-34200000I0J100000D01*
G01*
X104990000Y-34200000D02*
G75*
G03*
X104990000Y-34400000I0J-100000D01*
G01*
G04 #@! TD*
M02*
