M48
; DRILL file {KiCad (6.0.0)} date Fri Jan  7 15:37:39 2022
; FORMAT={-:-/ absolute / metric / decimal}
; #@! TF.CreationDate,2022-01-07T15:37:39-06:00
; #@! TF.GenerationSoftware,Kicad,Pcbnew,(6.0.0)
; #@! TF.FileFunction,MixedPlating,1,2
FMAT,2
METRIC
; #@! TA.AperFunction,Plated,PTH,ViaDrill
T1C0.350
; #@! TA.AperFunction,Plated,PTH,ComponentDrill
T2C0.350
; #@! TA.AperFunction,Plated,PTH,ComponentDrill
T3C0.600
; #@! TA.AperFunction,NonPlated,NPTH,ComponentDrill
T4C0.650
; #@! TA.AperFunction,NonPlated,NPTH,ComponentDrill
T5C0.900
; #@! TA.AperFunction,NonPlated,NPTH,ComponentDrill
T6C1.702
; #@! TA.AperFunction,NonPlated,NPTH,ComponentDrill
T7C3.000
; #@! TA.AperFunction,NonPlated,NPTH,ComponentDrill
T8C3.988
; #@! TA.AperFunction,NonPlated,NPTH,ComponentDrill
T9C4.400
%
G90
G05
T1
X60.19Y-51.7
X61.2Y-71.5
X63.2Y-69.1
X63.9Y-40.5
X65.09Y-51.6
X70.09Y-51.6
X70.8Y-72.2
X71.7Y-70.7
X74.3Y-37.1
X75.09Y-51.6
X82.924Y-49.509
X86.7Y-36.2
X88.7Y-70.7
X96.5Y-36.0
X99.2Y-72.2
X106.5Y-36.2
X111.9Y-76.5
X115.7Y-77.2
X116.2Y-36.4
X123.9Y-37.4
X124.4Y-84.9
X126.1Y-124.7
X126.69Y-79.791
X129.88Y-96.705
X130.404Y-90.251
X130.404Y-91.234
X133.79Y-88.8
X134.88Y-87.6
X135.3Y-90.9
X135.6Y-97.8
X136.38Y-103.182
X136.8Y-127.4
X137.0Y-89.3
X137.08Y-100.6
X137.118Y-104.388
X137.499Y-103.182
X137.7Y-97.8
X137.88Y-86.6
X138.08Y-90.6
X138.88Y-86.6
X139.6Y-77.0
X140.801Y-102.23
X141.1Y-120.6
X141.7Y-91.9
X142.706Y-104.4
X143.4Y-94.4
X144.8Y-95.7
X145.88Y-92.4
X145.88Y-96.6
X146.6Y-36.2
X147.2Y-85.2
X147.8Y-88.8
X149.3Y-63.2
X149.85Y-76.3
X149.85Y-89.9
X150.8Y-91.6
X162.4Y-62.2
X162.6Y-93.4
X167.8Y-52.0
X176.7Y-76.7
X177.1Y-45.9
X178.1Y-74.7
X178.5Y-43.2
X180.5Y-81.7
X187.1Y-46.2
X187.1Y-77.4
X187.3Y-44.7
X188.1Y-75.1
X189.1Y-52.1
X191.7Y-75.0
X192.128Y-44.151
X205.3Y-75.6
X205.7Y-43.6
X208.6Y-75.0
X215.6Y-46.1
X216.0Y-77.4
X216.5Y-44.6
X217.0Y-76.2
X234.0Y-50.6
X235.4Y-81.9
X244.2Y-51.9
X244.3Y-53.3
X244.5Y-81.8
X244.5Y-84.5
T2
X136.605Y-94.125
X136.605Y-95.4
X136.605Y-96.675
X137.88Y-94.125
X137.88Y-95.4
X137.88Y-96.675
X139.155Y-94.125
X139.155Y-95.4
X139.155Y-96.675
T4
X194.2Y-31.7
X199.98Y-31.7
T5
X71.84Y-34.2
X71.84Y-36.0
X82.09Y-34.2
X82.09Y-36.0
X92.09Y-34.2
X92.09Y-36.0
X102.09Y-34.2
X102.09Y-36.0
X112.09Y-34.2
X112.09Y-36.0
X122.09Y-34.2
X122.09Y-36.0
X142.09Y-34.2
X142.09Y-36.0
T6
X61.64Y-67.16
X71.8Y-67.16
X90.275Y-67.16
X100.435Y-67.16
X118.51Y-74.36
X127.31Y-122.39
X128.67Y-74.36
X137.47Y-122.39
X153.205Y-57.16
X153.205Y-88.36
X163.365Y-57.16
X163.365Y-88.36
X177.605Y-41.16
X177.605Y-72.36
X187.765Y-41.16
X187.765Y-72.36
X206.405Y-41.06
X206.405Y-72.36
X216.565Y-41.06
X216.565Y-72.36
X234.805Y-48.26
X235.205Y-79.46
X244.965Y-48.26
X245.365Y-79.46
T7
X62.91Y-64.62
X69.26Y-62.08
X91.545Y-64.62
X97.895Y-62.08
X119.78Y-71.82
X126.13Y-69.28
X128.58Y-119.85
X134.93Y-117.31
X154.475Y-54.62
X154.475Y-85.82
X160.825Y-52.08
X160.825Y-83.28
X178.875Y-38.62
X178.875Y-69.82
X185.225Y-36.08
X185.225Y-67.28
X207.675Y-38.52
X207.675Y-69.82
X214.025Y-35.98
X214.025Y-67.28
X236.075Y-45.72
X236.475Y-76.92
X242.425Y-43.18
X242.825Y-74.38
T8
X66.72Y-67.16
X95.355Y-67.16
X123.59Y-74.36
X132.39Y-122.39
X158.285Y-57.16
X158.285Y-88.36
X182.685Y-41.16
X182.685Y-72.36
X211.485Y-41.06
X211.485Y-72.36
X239.885Y-48.26
X240.285Y-79.46
T9
X58.99Y-38.0
X58.99Y-127.1
X160.0Y-38.0
X160.0Y-73.1
X160.0Y-127.1
X249.99Y-38.0
X249.99Y-127.1
T3
X192.77Y-27.75G85X192.77Y-28.35
G05
X192.77Y-31.68G85X192.77Y-32.78
G05
X201.41Y-27.75G85X201.41Y-28.35
G05
X201.41Y-31.68G85X201.41Y-32.78
G05
T0
M30
