M48
METRIC,TZ
T1C0.650
T2C0.900
T3C1.702
T4C3.000
T5C3.988
T6C4.400
%
G90
G05
T1
X194200Y-31700
X199980Y-31700
T2
X71840Y-34200
X71840Y-36000
X82090Y-34200
X82090Y-36000
X92090Y-34200
X92090Y-36000
X102090Y-34200
X102090Y-36000
X112090Y-34200
X112090Y-36000
X122090Y-34200
X122090Y-36000
X142090Y-34200
X142090Y-36000
T3
X61640Y-67160
X71800Y-67160
X90275Y-67160
X100435Y-67160
X118510Y-74360
X127310Y-122390
X128670Y-74360
X137470Y-122390
X153205Y-57160
X153205Y-88360
X163365Y-57160
X163365Y-88360
X177605Y-41160
X177605Y-72360
X187765Y-41160
X187765Y-72360
X206405Y-41060
X206405Y-72360
X216565Y-41060
X216565Y-72360
X234805Y-48260
X235205Y-79460
X244965Y-48260
X245365Y-79460
T4
X62910Y-64620
X69260Y-62080
X91545Y-64620
X97895Y-62080
X119780Y-71820
X126130Y-69280
X128580Y-119850
X134930Y-117310
X154475Y-54620
X154475Y-85820
X160825Y-52080
X160825Y-83280
X178875Y-38620
X178875Y-69820
X185225Y-36080
X185225Y-67280
X207675Y-38520
X207675Y-69820
X214025Y-35980
X214025Y-67280
X236075Y-45720
X236475Y-76920
X242425Y-43180
X242825Y-74380
T5
X66720Y-67160
X95355Y-67160
X123590Y-74360
X132390Y-122390
X158285Y-57160
X158285Y-88360
X182685Y-41160
X182685Y-72360
X211485Y-41060
X211485Y-72360
X239885Y-48260
X240285Y-79460
T6
X58990Y-38000
X58990Y-127100
X160000Y-38000
X160000Y-73100
X160000Y-127100
X249990Y-38000
X249990Y-127100
T0
M30
