M48
METRIC,TZ
T1C0.350
T2C0.350
T3C0.600
%
G90
G05
T1
X60190Y-51700
X61200Y-71500
X63200Y-69100
X63900Y-40500
X65090Y-51600
X70090Y-51600
X70800Y-72200
X71700Y-70700
X74300Y-37100
X75090Y-51600
X82924Y-49509
X86700Y-36200
X88700Y-70700
X96500Y-36000
X99200Y-72200
X106500Y-36200
X111900Y-76500
X115700Y-77200
X116200Y-36400
X123900Y-37400
X124400Y-84900
X126100Y-124700
X126690Y-79791
X129880Y-96705
X130404Y-90251
X130404Y-91234
X133790Y-88800
X134880Y-87600
X135300Y-90900
X135600Y-97800
X136380Y-103182
X136800Y-127400
X137000Y-89300
X137080Y-100600
X137118Y-104389
X137499Y-103182
X137700Y-97800
X137880Y-86600
X138080Y-90600
X138880Y-86600
X139600Y-77000
X140801Y-102230
X141100Y-120600
X141700Y-91900
X142706Y-104400
X143400Y-94400
X144800Y-95700
X145880Y-92400
X145880Y-96600
X146600Y-36200
X147200Y-85200
X147800Y-88800
X149300Y-63200
X149850Y-76300
X149850Y-89900
X150800Y-91600
X162400Y-62200
X162600Y-93400
X167800Y-52000
X176700Y-76700
X177100Y-45900
X178100Y-74700
X178500Y-43200
X180500Y-81700
X187100Y-46200
X187100Y-77400
X187300Y-44700
X188100Y-75100
X189100Y-52100
X191700Y-75000
X192128Y-44151
X205300Y-75600
X205700Y-43600
X208600Y-75000
X215600Y-46100
X216000Y-77400
X216500Y-44600
X217000Y-76200
X234000Y-50600
X235400Y-81900
X244200Y-51900
X244300Y-53300
X244500Y-81800
X244500Y-84500
T2
X136605Y-94125
X136605Y-95400
X136605Y-96675
X137880Y-94125
X137880Y-95400
X137880Y-96675
X139155Y-94125
X139155Y-95400
X139155Y-96675
T3
X192770Y-27750G85X192770Y-28350
G05
X192770Y-31680G85X192770Y-32780
G05
X201410Y-27750G85X201410Y-28350
G05
X201410Y-31680G85X201410Y-32780
G05
T0
M30
