G04 #@! TF.GenerationSoftware,KiCad,Pcbnew,(6.0.0)*
G04 #@! TF.CreationDate,2022-01-08T23:18:35-06:00*
G04 #@! TF.ProjectId,2.0,322e302e-6b69-4636-9164-5f7063625858,2.0*
G04 #@! TF.SameCoordinates,Original*
G04 #@! TF.FileFunction,Profile,NP*
%FSLAX46Y46*%
G04 Gerber Fmt 4.6, Leading zero omitted, Abs format (unit mm)*
G04 Created by KiCad (PCBNEW (6.0.0)) date 2022-01-08 23:18:35*
%MOMM*%
%LPD*%
G01*
G04 APERTURE LIST*
G04 #@! TA.AperFunction,Profile*
%ADD10C,0.050000*%
G04 #@! TD*
G04 #@! TA.AperFunction,Profile*
%ADD11C,0.100000*%
G04 #@! TD*
G04 APERTURE END LIST*
D10*
X206390000Y-33000000D02*
X252092494Y-33000000D01*
X53990000Y-35939072D02*
X53990000Y-129097918D01*
X254990001Y-36019211D02*
G75*
G03*
X252092494Y-33000000I-2945243J73440D01*
G01*
X96130000Y-54900000D02*
X96130000Y-46290000D01*
X53989999Y-129097918D02*
G75*
G03*
X56929072Y-132099999I2957537J-44271D01*
G01*
X251987919Y-132100001D02*
G75*
G03*
X254990000Y-129160928I44271J2957537D01*
G01*
X106250000Y-54900000D02*
X96130000Y-54900000D01*
X57003501Y-33000000D02*
X187676595Y-33000000D01*
X190690000Y-26500000D02*
X190687506Y-29922086D01*
X57003501Y-33000000D02*
G75*
G03*
X53990000Y-35939072I-49980J-2963198D01*
G01*
X254990000Y-129160928D02*
X254990000Y-36019211D01*
X251987919Y-132100000D02*
X56929072Y-132099999D01*
X203490000Y-26500000D02*
X190690000Y-26500000D01*
X203492493Y-29980789D02*
G75*
G03*
X206390000Y-33000000I2945243J-73440D01*
G01*
X187676595Y-33000000D02*
G75*
G03*
X190687506Y-29922086I-20131J3031333D01*
G01*
X106250000Y-54900000D02*
X106250000Y-46290000D01*
X106250000Y-46290000D02*
X96130000Y-46290000D01*
X203490000Y-26500000D02*
X203492494Y-29980789D01*
D11*
G04 #@! TO.C,D7*
X239490548Y-82260001D02*
X241079452Y-82260001D01*
X238585001Y-84462843D02*
X238585001Y-83057159D01*
X241079452Y-85260000D02*
X239490547Y-85260000D01*
X241984999Y-83057159D02*
X241984999Y-84462843D01*
X239238289Y-82191702D02*
G75*
G03*
X238535516Y-82840282I-252259J-431700D01*
G01*
X238585001Y-83057159D02*
G75*
G03*
X238535516Y-82840281I-499990J2D01*
G01*
X239238289Y-82191702D02*
G75*
G03*
X239490548Y-82260001I252261J431710D01*
G01*
X241079452Y-82260001D02*
G75*
G03*
X241331710Y-82191702I-3J500009D01*
G01*
X238535516Y-84679721D02*
G75*
G03*
X238585001Y-84462844I-450505J216876D01*
G01*
X241331711Y-85328300D02*
G75*
G03*
X242034484Y-84679721I252258J431701D01*
G01*
X242034484Y-82840281D02*
G75*
G03*
X241984999Y-83057158I450505J-216876D01*
G01*
X241984999Y-84462843D02*
G75*
G03*
X242034484Y-84679721I499990J-2D01*
G01*
X238535515Y-84679721D02*
G75*
G03*
X239238289Y-85328299I450516J-216877D01*
G01*
X242034484Y-82840281D02*
G75*
G03*
X241331711Y-82191704I-450515J216877D01*
G01*
X239490547Y-85260000D02*
G75*
G03*
X239238289Y-85328299I3J-500009D01*
G01*
X241331711Y-85328300D02*
G75*
G03*
X241079453Y-85260001I-252261J-431710D01*
G01*
G04 #@! TO.C,D4*
X94560548Y-69960001D02*
X96149452Y-69960001D01*
X96149452Y-72960000D02*
X94560547Y-72960000D01*
X93655001Y-72162843D02*
X93655001Y-70757159D01*
X97054999Y-70757159D02*
X97054999Y-72162843D01*
X96401711Y-73028300D02*
G75*
G03*
X97104484Y-72379721I252258J431701D01*
G01*
X93655001Y-70757159D02*
G75*
G03*
X93605516Y-70540281I-499990J2D01*
G01*
X97054999Y-72162843D02*
G75*
G03*
X97104484Y-72379721I499990J-2D01*
G01*
X96401711Y-73028300D02*
G75*
G03*
X96149453Y-72960001I-252261J-431710D01*
G01*
X96149452Y-69960001D02*
G75*
G03*
X96401710Y-69891702I-3J500009D01*
G01*
X94308289Y-69891702D02*
G75*
G03*
X93605516Y-70540282I-252259J-431700D01*
G01*
X94560547Y-72960000D02*
G75*
G03*
X94308289Y-73028299I3J-500009D01*
G01*
X97104484Y-70540281D02*
G75*
G03*
X97054999Y-70757158I450505J-216876D01*
G01*
X93605515Y-72379721D02*
G75*
G03*
X94308289Y-73028299I450516J-216877D01*
G01*
X94308289Y-69891702D02*
G75*
G03*
X94560548Y-69960001I252261J431710D01*
G01*
X97104484Y-70540281D02*
G75*
G03*
X96401711Y-69891704I-450515J216877D01*
G01*
X93605516Y-72379721D02*
G75*
G03*
X93655001Y-72162844I-450505J216876D01*
G01*
G04 #@! TO.C,D1*
X156585001Y-93362843D02*
X156585001Y-91957159D01*
X159079452Y-94160000D02*
X157490547Y-94160000D01*
X159984999Y-91957159D02*
X159984999Y-93362843D01*
X157490548Y-91160001D02*
X159079452Y-91160001D01*
X159331711Y-94228300D02*
G75*
G03*
X159079453Y-94160001I-252261J-431710D01*
G01*
X159331711Y-94228300D02*
G75*
G03*
X160034484Y-93579721I252258J431701D01*
G01*
X156535515Y-93579721D02*
G75*
G03*
X157238289Y-94228299I450516J-216877D01*
G01*
X159984999Y-93362843D02*
G75*
G03*
X160034484Y-93579721I499990J-2D01*
G01*
X156535516Y-93579721D02*
G75*
G03*
X156585001Y-93362844I-450505J216876D01*
G01*
X156585001Y-91957159D02*
G75*
G03*
X156535516Y-91740281I-499990J2D01*
G01*
X160034484Y-91740281D02*
G75*
G03*
X159331711Y-91091704I-450515J216877D01*
G01*
X159079452Y-91160001D02*
G75*
G03*
X159331710Y-91091702I-3J500009D01*
G01*
X157238289Y-91091702D02*
G75*
G03*
X157490548Y-91160001I252261J431710D01*
G01*
X157490547Y-94160000D02*
G75*
G03*
X157238289Y-94228299I3J-500009D01*
G01*
X157238289Y-91091702D02*
G75*
G03*
X156535516Y-91740282I-252259J-431700D01*
G01*
X160034484Y-91740281D02*
G75*
G03*
X159984999Y-91957158I450505J-216876D01*
G01*
G04 #@! TO.C,D2*
X67514452Y-72960000D02*
X65925547Y-72960000D01*
X68419999Y-70757159D02*
X68419999Y-72162843D01*
X65020001Y-72162843D02*
X65020001Y-70757159D01*
X65925548Y-69960001D02*
X67514452Y-69960001D01*
X68469484Y-70540281D02*
G75*
G03*
X68419999Y-70757158I450505J-216876D01*
G01*
X65673289Y-69891702D02*
G75*
G03*
X65925548Y-69960001I252261J431710D01*
G01*
X65673289Y-69891702D02*
G75*
G03*
X64970516Y-70540282I-252259J-431700D01*
G01*
X65925547Y-72960000D02*
G75*
G03*
X65673289Y-73028299I3J-500009D01*
G01*
X67766711Y-73028300D02*
G75*
G03*
X67514453Y-72960001I-252261J-431710D01*
G01*
X68419999Y-72162843D02*
G75*
G03*
X68469484Y-72379721I499990J-2D01*
G01*
X68469484Y-70540281D02*
G75*
G03*
X67766711Y-69891704I-450515J216877D01*
G01*
X64970516Y-72379721D02*
G75*
G03*
X65020001Y-72162844I-450505J216876D01*
G01*
X67766711Y-73028300D02*
G75*
G03*
X68469484Y-72379721I252258J431701D01*
G01*
X65020001Y-70757159D02*
G75*
G03*
X64970516Y-70540281I-499990J2D01*
G01*
X67514452Y-69960001D02*
G75*
G03*
X67766710Y-69891702I-3J500009D01*
G01*
X64970515Y-72379721D02*
G75*
G03*
X65673289Y-73028299I450516J-216877D01*
G01*
G04 #@! TO.C,D12*
X184384999Y-44757159D02*
X184384999Y-46162843D01*
X180985001Y-46162843D02*
X180985001Y-44757159D01*
X181890548Y-43960001D02*
X183479452Y-43960001D01*
X183479452Y-46960000D02*
X181890547Y-46960000D01*
X180935515Y-46379721D02*
G75*
G03*
X181638289Y-47028299I450516J-216877D01*
G01*
X184384999Y-46162843D02*
G75*
G03*
X184434484Y-46379721I499990J-2D01*
G01*
X184434484Y-44540281D02*
G75*
G03*
X184384999Y-44757158I450505J-216876D01*
G01*
X183731711Y-47028300D02*
G75*
G03*
X183479453Y-46960001I-252261J-431710D01*
G01*
X183731711Y-47028300D02*
G75*
G03*
X184434484Y-46379721I252258J431701D01*
G01*
X181638289Y-43891702D02*
G75*
G03*
X180935516Y-44540282I-252259J-431700D01*
G01*
X181638289Y-43891702D02*
G75*
G03*
X181890548Y-43960001I252261J431710D01*
G01*
X184434484Y-44540281D02*
G75*
G03*
X183731711Y-43891704I-450515J216877D01*
G01*
X180985001Y-44757159D02*
G75*
G03*
X180935516Y-44540281I-499990J2D01*
G01*
X183479452Y-43960001D02*
G75*
G03*
X183731710Y-43891702I-3J500009D01*
G01*
X180935516Y-46379721D02*
G75*
G03*
X180985001Y-46162844I-450505J216876D01*
G01*
X181890547Y-46960000D02*
G75*
G03*
X181638289Y-47028299I3J-500009D01*
G01*
G04 #@! TO.C,D15*
X77129999Y-45265548D02*
X77129999Y-46854452D01*
X74927157Y-44360001D02*
X76332841Y-44360001D01*
X76332841Y-47759999D02*
X74927157Y-47759999D01*
X74130000Y-46854452D02*
X74130000Y-45265547D01*
X76332841Y-44360001D02*
G75*
G03*
X76549719Y-44310516I2J499990D01*
G01*
X74061700Y-47106711D02*
G75*
G03*
X74129999Y-46854453I-431710J252261D01*
G01*
X76549719Y-47809484D02*
G75*
G03*
X76332842Y-47759999I-216876J-450505D01*
G01*
X74710279Y-44310515D02*
G75*
G03*
X74061701Y-45013289I-216877J-450516D01*
G01*
X74927157Y-47759999D02*
G75*
G03*
X74710279Y-47809484I-2J-499990D01*
G01*
X74130000Y-45265547D02*
G75*
G03*
X74061701Y-45013289I-500009J-3D01*
G01*
X77198298Y-45013289D02*
G75*
G03*
X76549718Y-44310516I-431700J252259D01*
G01*
X74061700Y-47106711D02*
G75*
G03*
X74710279Y-47809484I431701J-252258D01*
G01*
X76549719Y-47809484D02*
G75*
G03*
X77198296Y-47106711I216877J450515D01*
G01*
X77129999Y-46854452D02*
G75*
G03*
X77198298Y-47106710I500009J3D01*
G01*
X77198298Y-45013289D02*
G75*
G03*
X77129999Y-45265548I431710J-252261D01*
G01*
X74710279Y-44310516D02*
G75*
G03*
X74927156Y-44360001I216876J450505D01*
G01*
G04 #@! TO.C,D14*
X209785001Y-46062843D02*
X209785001Y-44657159D01*
X210690548Y-43860001D02*
X212279452Y-43860001D01*
X213184999Y-44657159D02*
X213184999Y-46062843D01*
X212279452Y-46860000D02*
X210690547Y-46860000D01*
X209735516Y-46279721D02*
G75*
G03*
X209785001Y-46062844I-450505J216876D01*
G01*
X210438289Y-43791702D02*
G75*
G03*
X210690548Y-43860001I252261J431710D01*
G01*
X213234484Y-44440281D02*
G75*
G03*
X212531711Y-43791704I-450515J216877D01*
G01*
X210438289Y-43791702D02*
G75*
G03*
X209735516Y-44440282I-252259J-431700D01*
G01*
X212279452Y-43860001D02*
G75*
G03*
X212531710Y-43791702I-3J500009D01*
G01*
X212531711Y-46928300D02*
G75*
G03*
X212279453Y-46860001I-252261J-431710D01*
G01*
X213234484Y-44440281D02*
G75*
G03*
X213184999Y-44657158I450505J-216876D01*
G01*
X209735515Y-46279721D02*
G75*
G03*
X210438289Y-46928299I450516J-216877D01*
G01*
X210690547Y-46860000D02*
G75*
G03*
X210438289Y-46928299I3J-500009D01*
G01*
X209785001Y-44657159D02*
G75*
G03*
X209735516Y-44440281I-499990J2D01*
G01*
X213184999Y-46062843D02*
G75*
G03*
X213234484Y-46279721I499990J-2D01*
G01*
X212531711Y-46928300D02*
G75*
G03*
X213234484Y-46279721I252258J431701D01*
G01*
G04 #@! TO.C,D8*
X130690001Y-127392843D02*
X130690001Y-125987159D01*
X134089999Y-125987159D02*
X134089999Y-127392843D01*
X131595548Y-125190001D02*
X133184452Y-125190001D01*
X133184452Y-128190000D02*
X131595547Y-128190000D01*
X134139484Y-125770281D02*
G75*
G03*
X133436711Y-125121704I-450515J216877D01*
G01*
X130640515Y-127609721D02*
G75*
G03*
X131343289Y-128258299I450516J-216877D01*
G01*
X133436711Y-128258300D02*
G75*
G03*
X134139484Y-127609721I252258J431701D01*
G01*
X133184452Y-125190001D02*
G75*
G03*
X133436710Y-125121702I-3J500009D01*
G01*
X133436711Y-128258300D02*
G75*
G03*
X133184453Y-128190001I-252261J-431710D01*
G01*
X131343289Y-125121702D02*
G75*
G03*
X131595548Y-125190001I252261J431710D01*
G01*
X134139484Y-125770281D02*
G75*
G03*
X134089999Y-125987158I450505J-216876D01*
G01*
X131343289Y-125121702D02*
G75*
G03*
X130640516Y-125770282I-252259J-431700D01*
G01*
X130640516Y-127609721D02*
G75*
G03*
X130690001Y-127392844I-450505J216876D01*
G01*
X131595547Y-128190000D02*
G75*
G03*
X131343289Y-128258299I3J-500009D01*
G01*
X130690001Y-125987159D02*
G75*
G03*
X130640516Y-125770281I-499990J2D01*
G01*
X134089999Y-127392843D02*
G75*
G03*
X134139484Y-127609721I499990J-2D01*
G01*
G04 #@! TO.C,D5*
X213184999Y-75957159D02*
X213184999Y-77362843D01*
X210690548Y-75160001D02*
X212279452Y-75160001D01*
X209785001Y-77362843D02*
X209785001Y-75957159D01*
X212279452Y-78160000D02*
X210690547Y-78160000D01*
X210438289Y-75091702D02*
G75*
G03*
X209735516Y-75740282I-252259J-431700D01*
G01*
X213234484Y-75740281D02*
G75*
G03*
X213184999Y-75957158I450505J-216876D01*
G01*
X212531711Y-78228300D02*
G75*
G03*
X213234484Y-77579721I252258J431701D01*
G01*
X209735516Y-77579721D02*
G75*
G03*
X209785001Y-77362844I-450505J216876D01*
G01*
X212279452Y-75160001D02*
G75*
G03*
X212531710Y-75091702I-3J500009D01*
G01*
X209785001Y-75957159D02*
G75*
G03*
X209735516Y-75740281I-499990J2D01*
G01*
X209735515Y-77579721D02*
G75*
G03*
X210438289Y-78228299I450516J-216877D01*
G01*
X210690547Y-78160000D02*
G75*
G03*
X210438289Y-78228299I3J-500009D01*
G01*
X213234484Y-75740281D02*
G75*
G03*
X212531711Y-75091704I-450515J216877D01*
G01*
X212531711Y-78228300D02*
G75*
G03*
X212279453Y-78160001I-252261J-431710D01*
G01*
X210438289Y-75091702D02*
G75*
G03*
X210690548Y-75160001I252261J431710D01*
G01*
X213184999Y-77362843D02*
G75*
G03*
X213234484Y-77579721I499990J-2D01*
G01*
G04 #@! TO.C,D3*
X183479452Y-78160000D02*
X181890547Y-78160000D01*
X184384999Y-75957159D02*
X184384999Y-77362843D01*
X181890548Y-75160001D02*
X183479452Y-75160001D01*
X180985001Y-77362843D02*
X180985001Y-75957159D01*
X180985001Y-75957159D02*
G75*
G03*
X180935516Y-75740281I-499990J2D01*
G01*
X181638289Y-75091702D02*
G75*
G03*
X181890548Y-75160001I252261J431710D01*
G01*
X181638289Y-75091702D02*
G75*
G03*
X180935516Y-75740282I-252259J-431700D01*
G01*
X184434484Y-75740281D02*
G75*
G03*
X184384999Y-75957158I450505J-216876D01*
G01*
X183731711Y-78228300D02*
G75*
G03*
X183479453Y-78160001I-252261J-431710D01*
G01*
X183731711Y-78228300D02*
G75*
G03*
X184434484Y-77579721I252258J431701D01*
G01*
X180935516Y-77579721D02*
G75*
G03*
X180985001Y-77362844I-450505J216876D01*
G01*
X184384999Y-77362843D02*
G75*
G03*
X184434484Y-77579721I499990J-2D01*
G01*
X181890547Y-78160000D02*
G75*
G03*
X181638289Y-78228299I3J-500009D01*
G01*
X180935515Y-77579721D02*
G75*
G03*
X181638289Y-78228299I450516J-216877D01*
G01*
X184434484Y-75740281D02*
G75*
G03*
X183731711Y-75091704I-450515J216877D01*
G01*
X183479452Y-75160001D02*
G75*
G03*
X183731710Y-75091702I-3J500009D01*
G01*
G04 #@! TO.C,D6*
X122795548Y-77160001D02*
X124384452Y-77160001D01*
X124384452Y-80160000D02*
X122795547Y-80160000D01*
X125289999Y-77957159D02*
X125289999Y-79362843D01*
X121890001Y-79362843D02*
X121890001Y-77957159D01*
X121890001Y-77957159D02*
G75*
G03*
X121840516Y-77740281I-499990J2D01*
G01*
X124384452Y-77160001D02*
G75*
G03*
X124636710Y-77091702I-3J500009D01*
G01*
X125339484Y-77740281D02*
G75*
G03*
X125289999Y-77957158I450505J-216876D01*
G01*
X125289999Y-79362843D02*
G75*
G03*
X125339484Y-79579721I499990J-2D01*
G01*
X125339484Y-77740281D02*
G75*
G03*
X124636711Y-77091704I-450515J216877D01*
G01*
X124636711Y-80228300D02*
G75*
G03*
X124384453Y-80160001I-252261J-431710D01*
G01*
X122795547Y-80160000D02*
G75*
G03*
X122543289Y-80228299I3J-500009D01*
G01*
X122543289Y-77091702D02*
G75*
G03*
X121840516Y-77740282I-252259J-431700D01*
G01*
X122543289Y-77091702D02*
G75*
G03*
X122795548Y-77160001I252261J431710D01*
G01*
X121840515Y-79579721D02*
G75*
G03*
X122543289Y-80228299I450516J-216877D01*
G01*
X124636711Y-80228300D02*
G75*
G03*
X125339484Y-79579721I252258J431701D01*
G01*
X121840516Y-79579721D02*
G75*
G03*
X121890001Y-79362844I-450505J216876D01*
G01*
G04 #@! TO.C,D10*
X159079452Y-62960000D02*
X157490547Y-62960000D01*
X159984999Y-60757159D02*
X159984999Y-62162843D01*
X157490548Y-59960001D02*
X159079452Y-59960001D01*
X156585001Y-62162843D02*
X156585001Y-60757159D01*
X157490547Y-62960000D02*
G75*
G03*
X157238289Y-63028299I3J-500009D01*
G01*
X159331711Y-63028300D02*
G75*
G03*
X160034484Y-62379721I252258J431701D01*
G01*
X159984999Y-62162843D02*
G75*
G03*
X160034484Y-62379721I499990J-2D01*
G01*
X160034484Y-60540281D02*
G75*
G03*
X159984999Y-60757158I450505J-216876D01*
G01*
X156535515Y-62379721D02*
G75*
G03*
X157238289Y-63028299I450516J-216877D01*
G01*
X157238289Y-59891702D02*
G75*
G03*
X157490548Y-59960001I252261J431710D01*
G01*
X159079452Y-59960001D02*
G75*
G03*
X159331710Y-59891702I-3J500009D01*
G01*
X157238289Y-59891702D02*
G75*
G03*
X156535516Y-60540282I-252259J-431700D01*
G01*
X156535516Y-62379721D02*
G75*
G03*
X156585001Y-62162844I-450505J216876D01*
G01*
X156585001Y-60757159D02*
G75*
G03*
X156535516Y-60540281I-499990J2D01*
G01*
X160034484Y-60540281D02*
G75*
G03*
X159331711Y-59891704I-450515J216877D01*
G01*
X159331711Y-63028300D02*
G75*
G03*
X159079453Y-62960001I-252261J-431710D01*
G01*
G04 #@! TO.C,D16*
X239090548Y-51060001D02*
X240679452Y-51060001D01*
X240679452Y-54060000D02*
X239090547Y-54060000D01*
X238185001Y-53262843D02*
X238185001Y-51857159D01*
X241584999Y-51857159D02*
X241584999Y-53262843D01*
X239090547Y-54060000D02*
G75*
G03*
X238838289Y-54128299I3J-500009D01*
G01*
X240679452Y-51060001D02*
G75*
G03*
X240931710Y-50991702I-3J500009D01*
G01*
X238135515Y-53479721D02*
G75*
G03*
X238838289Y-54128299I450516J-216877D01*
G01*
X238838289Y-50991702D02*
G75*
G03*
X239090548Y-51060001I252261J431710D01*
G01*
X241634484Y-51640281D02*
G75*
G03*
X241584999Y-51857158I450505J-216876D01*
G01*
X238185001Y-51857159D02*
G75*
G03*
X238135516Y-51640281I-499990J2D01*
G01*
X241634484Y-51640281D02*
G75*
G03*
X240931711Y-50991704I-450515J216877D01*
G01*
X238135516Y-53479721D02*
G75*
G03*
X238185001Y-53262844I-450505J216876D01*
G01*
X240931711Y-54128300D02*
G75*
G03*
X240679453Y-54060001I-252261J-431710D01*
G01*
X240931711Y-54128300D02*
G75*
G03*
X241634484Y-53479721I252258J431701D01*
G01*
X238838289Y-50991702D02*
G75*
G03*
X238135516Y-51640282I-252259J-431700D01*
G01*
X241584999Y-53262843D02*
G75*
G03*
X241634484Y-53479721I499990J-2D01*
G01*
G04 #@! TO.C,D11*
X66332841Y-47759999D02*
X64927157Y-47759999D01*
X67129999Y-45265548D02*
X67129999Y-46854452D01*
X64130000Y-46854452D02*
X64130000Y-45265547D01*
X64927157Y-44360001D02*
X66332841Y-44360001D01*
X64061700Y-47106711D02*
G75*
G03*
X64710279Y-47809484I431701J-252258D01*
G01*
X67129999Y-46854452D02*
G75*
G03*
X67198298Y-47106710I500009J3D01*
G01*
X66549719Y-47809484D02*
G75*
G03*
X66332842Y-47759999I-216876J-450505D01*
G01*
X64130000Y-45265547D02*
G75*
G03*
X64061701Y-45013289I-500009J-3D01*
G01*
X66332841Y-44360001D02*
G75*
G03*
X66549719Y-44310516I2J499990D01*
G01*
X64927157Y-47759999D02*
G75*
G03*
X64710279Y-47809484I-2J-499990D01*
G01*
X67198298Y-45013289D02*
G75*
G03*
X67129999Y-45265548I431710J-252261D01*
G01*
X64061700Y-47106711D02*
G75*
G03*
X64129999Y-46854453I-431710J252261D01*
G01*
X64710279Y-44310515D02*
G75*
G03*
X64061701Y-45013289I-216877J-450516D01*
G01*
X64710279Y-44310516D02*
G75*
G03*
X64927156Y-44360001I216876J450505D01*
G01*
X67198298Y-45013289D02*
G75*
G03*
X66549718Y-44310516I-431700J252259D01*
G01*
X66549719Y-47809484D02*
G75*
G03*
X67198296Y-47106711I216877J450515D01*
G01*
G04 #@! TO.C,D13*
X72129999Y-45265548D02*
X72129999Y-46854452D01*
X69130000Y-46854452D02*
X69130000Y-45265547D01*
X71332841Y-47759999D02*
X69927157Y-47759999D01*
X69927157Y-44360001D02*
X71332841Y-44360001D01*
X72198298Y-45013289D02*
G75*
G03*
X72129999Y-45265548I431710J-252261D01*
G01*
X71549719Y-47809484D02*
G75*
G03*
X71332842Y-47759999I-216876J-450505D01*
G01*
X71332841Y-44360001D02*
G75*
G03*
X71549719Y-44310516I2J499990D01*
G01*
X69927157Y-47759999D02*
G75*
G03*
X69710279Y-47809484I-2J-499990D01*
G01*
X71549719Y-47809484D02*
G75*
G03*
X72198296Y-47106711I216877J450515D01*
G01*
X72129999Y-46854452D02*
G75*
G03*
X72198298Y-47106710I500009J3D01*
G01*
X69130000Y-45265547D02*
G75*
G03*
X69061701Y-45013289I-500009J-3D01*
G01*
X69061700Y-47106711D02*
G75*
G03*
X69129999Y-46854453I-431710J252261D01*
G01*
X69061700Y-47106711D02*
G75*
G03*
X69710279Y-47809484I431701J-252258D01*
G01*
X69710279Y-44310515D02*
G75*
G03*
X69061701Y-45013289I-216877J-450516D01*
G01*
X69710279Y-44310516D02*
G75*
G03*
X69927156Y-44360001I216876J450505D01*
G01*
X72198298Y-45013289D02*
G75*
G03*
X71549718Y-44310516I-431700J252259D01*
G01*
G04 #@! TO.C,D9*
X61332841Y-47759999D02*
X59927157Y-47759999D01*
X62129999Y-45265548D02*
X62129999Y-46854452D01*
X59927157Y-44360001D02*
X61332841Y-44360001D01*
X59130000Y-46854452D02*
X59130000Y-45265547D01*
X59710279Y-44310516D02*
G75*
G03*
X59927156Y-44360001I216876J450505D01*
G01*
X62198298Y-45013289D02*
G75*
G03*
X62129999Y-45265548I431710J-252261D01*
G01*
X61549719Y-47809484D02*
G75*
G03*
X62198296Y-47106711I216877J450515D01*
G01*
X61332841Y-44360001D02*
G75*
G03*
X61549719Y-44310516I2J499990D01*
G01*
X62129999Y-46854452D02*
G75*
G03*
X62198298Y-47106710I500009J3D01*
G01*
X61549719Y-47809484D02*
G75*
G03*
X61332842Y-47759999I-216876J-450505D01*
G01*
X59130000Y-45265547D02*
G75*
G03*
X59061701Y-45013289I-500009J-3D01*
G01*
X59927157Y-47759999D02*
G75*
G03*
X59710279Y-47809484I-2J-499990D01*
G01*
X62198298Y-45013289D02*
G75*
G03*
X61549718Y-44310516I-431700J252259D01*
G01*
X59061700Y-47106711D02*
G75*
G03*
X59710279Y-47809484I431701J-252258D01*
G01*
X59710279Y-44310515D02*
G75*
G03*
X59061701Y-45013289I-216877J-450516D01*
G01*
X59061700Y-47106711D02*
G75*
G03*
X59129999Y-46854453I-431710J252261D01*
G01*
G04 #@! TD*
M02*
