M48
METRIC
T1C1.500
T2C1.702
T3C1.800
T4C3.000
T5C3.988
%
G90
G05
T1
X59.07Y-97.545
X59.07Y-102.395
T2
X61.64Y-67.16
X71.8Y-67.16
X90.275Y-67.16
X100.435Y-67.16
X118.51Y-74.36
X127.31Y-122.39
X128.67Y-74.36
X137.47Y-122.39
X153.205Y-57.16
X153.205Y-88.36
X163.365Y-57.16
X163.365Y-88.36
X177.605Y-41.16
X177.605Y-72.36
X187.765Y-41.16
X187.765Y-72.36
X206.405Y-41.06
X206.405Y-72.36
X216.565Y-41.06
X216.565Y-72.36
X234.805Y-48.26
X235.205Y-79.46
X244.965Y-48.26
X245.365Y-79.46
T3
X56.04Y-97.245
X56.04Y-102.695
T4
X62.91Y-64.62
X69.26Y-62.08
X91.545Y-64.62
X97.895Y-62.08
X119.78Y-71.82
X126.13Y-69.28
X128.58Y-119.85
X134.93Y-117.31
X154.475Y-54.62
X154.475Y-85.82
X160.825Y-52.08
X160.825Y-83.28
X178.875Y-38.62
X178.875Y-69.82
X185.225Y-36.08
X185.225Y-67.28
X207.675Y-38.52
X207.675Y-69.82
X214.025Y-35.98
X214.025Y-67.28
X236.075Y-45.72
X236.475Y-76.92
X242.425Y-43.18
X242.825Y-74.38
T5
X66.72Y-67.16
X95.355Y-67.16
X123.59Y-74.36
X132.39Y-122.39
X158.285Y-57.16
X158.285Y-88.36
X182.685Y-41.16
X182.685Y-72.36
X211.485Y-41.06
X211.485Y-72.36
X239.885Y-48.26
X240.285Y-79.46
T0
M30
