  0
SECTION
  2
HEADER
  9
$ANGBASE
  50
0.0
  9
$ANGDIR
  70
1
  9
$MEASUREMENT
  70
0
  0
ENDSEC
  0
SECTION
  2
TABLES
  0
TABLE
  2
LTYPE
  70
4
  0
LTYPE
  5
40F
  2
CONTINUOUS
  70
0
  3
Solid line
  72
65
  73
0
  40
0.0
  0
LTYPE
  5
410
  2
DASHDOT
 70
0
  3
Dash Dot ____ _ ____ _
 72
65
 73
4
 40
2.0
 49
1.25
 49
-0.25
 49
0.25
 49
-0.25
  0
LTYPE
  5
411
  2
DASHED
 70
0
  3
Dashed __ __ __ __ __
 72
65
 73
2
 40
0.75
 49
0.5
 49
-0.25
  0
LTYPE
  5
43B
  2
DOTTED
 70
0
  3
Dotted .  .  .  .
 72
65
 73
2
 40
0.2
 49
0.0
 49
-0.2
  0
ENDTAB
  0
TABLE
  2
STYLE
  70
4
  0
STYLE
  2
KICAD
  70
0
  40
0
  41
1
  42
1
  50
0
  71
0
  3
isocp.shx
  0
STYLE
  2
KICADB
  70
0
  40
0
  41
1
  42
1
  50
0
  71
0
  3
isocp.shx
  0
STYLE
  2
KICADI
  70
0
  40
0
  41
1
  42
1
  50
15
  71
0
  3
isocp.shx
  0
STYLE
  2
KICADBI
  70
0
  40
0
  41
1
  42
1
  50
15
  71
0
  3
isocp.shx
  0
ENDTAB
  0
TABLE
  2
LAYER
  70
1
  0
LAYER
  2
BLACK
  70
0
  62
7
  6
CONTINUOUS
  0
ENDTAB
  0
ENDSEC
  0
SECTION
  2
ENTITIES
0
LINE
8
BLACK
6
CONTINUOUS
10
2.18494
20
-5.20177
11
2.18494
21
-5.20177
0
LINE
8
BLACK
6
CONTINUOUS
10
2.18494
20
-5.20177
11
2.17347
21
-5.20064
0
LINE
8
BLACK
6
CONTINUOUS
10
2.17347
20
-5.20064
11
2.17346
21
-5.20064
0
LINE
8
BLACK
6
CONTINUOUS
10
2.17346
20
-5.20064
11
2.17337
21
-5.20062
0
LINE
8
BLACK
6
CONTINUOUS
10
2.17337
20
-5.20062
11
2.17328
21
-5.2006
0
LINE
8
BLACK
6
CONTINUOUS
10
2.17328
20
-5.2006
11
2.16225
21
-5.19727
0
LINE
8
BLACK
6
CONTINUOUS
10
2.16225
20
-5.19727
11
2.16224
21
-5.19727
0
LINE
8
BLACK
6
CONTINUOUS
10
2.16224
20
-5.19727
11
2.16216
21
-5.19723
0
LINE
8
BLACK
6
CONTINUOUS
10
2.16216
20
-5.19723
11
2.16207
21
-5.1972
0
LINE
8
BLACK
6
CONTINUOUS
10
2.16207
20
-5.1972
11
2.1519
21
-5.19179
0
LINE
8
BLACK
6
CONTINUOUS
10
2.1519
20
-5.19179
11
2.15188
21
-5.19178
0
LINE
8
BLACK
6
CONTINUOUS
10
2.15188
20
-5.19178
11
2.15181
21
-5.19173
0
LINE
8
BLACK
6
CONTINUOUS
10
2.15181
20
-5.19173
11
2.15174
21
-5.19168
0
LINE
8
BLACK
6
CONTINUOUS
10
2.15174
20
-5.19168
11
2.14281
21
-5.1844
0
LINE
8
BLACK
6
CONTINUOUS
10
2.14281
20
-5.1844
11
2.14279
21
-5.18439
0
LINE
8
BLACK
6
CONTINUOUS
10
2.14279
20
-5.18439
11
2.14273
21
-5.18433
0
LINE
8
BLACK
6
CONTINUOUS
10
2.14273
20
-5.18433
11
2.14267
21
-5.18426
0
LINE
8
BLACK
6
CONTINUOUS
10
2.14267
20
-5.18426
11
2.13532
21
-5.17538
0
LINE
8
BLACK
6
CONTINUOUS
10
2.13532
20
-5.17538
11
2.13531
21
-5.17537
0
LINE
8
BLACK
6
CONTINUOUS
10
2.13531
20
-5.17537
11
2.13526
21
-5.1753
0
LINE
8
BLACK
6
CONTINUOUS
10
2.13526
20
-5.1753
11
2.13521
21
-5.17522
0
LINE
8
BLACK
6
CONTINUOUS
10
2.13521
20
-5.17522
11
2.12973
21
-5.16509
0
LINE
8
BLACK
6
CONTINUOUS
10
2.12973
20
-5.16509
11
2.12973
21
-5.16507
0
LINE
8
BLACK
6
CONTINUOUS
10
2.12973
20
-5.16507
11
2.12969
21
-5.16499
0
LINE
8
BLACK
6
CONTINUOUS
10
2.12969
20
-5.16499
11
2.12966
21
-5.16491
0
LINE
8
BLACK
6
CONTINUOUS
10
2.12966
20
-5.16491
11
2.12625
21
-5.1539
0
LINE
8
BLACK
6
CONTINUOUS
10
2.12625
20
-5.1539
11
2.12625
21
-5.15388
0
LINE
8
BLACK
6
CONTINUOUS
10
2.12625
20
-5.15388
11
2.12623
21
-5.1538
0
LINE
8
BLACK
6
CONTINUOUS
10
2.12623
20
-5.1538
11
2.12621
21
-5.15371
0
LINE
8
BLACK
6
CONTINUOUS
10
2.12621
20
-5.15371
11
2.12501
21
-5.14225
0
LINE
8
BLACK
6
CONTINUOUS
10
2.12501
20
-5.14225
11
2.12501
21
-5.14223
0
LINE
8
BLACK
6
CONTINUOUS
10
2.12501
20
-5.14223
11
2.12501
21
-5.14219
0
LINE
8
BLACK
6
CONTINUOUS
10
2.12501
20
-5.14219
11
2.125
21
-5.14215
0
LINE
8
BLACK
6
CONTINUOUS
10
2.125
20
-5.14215
11
2.125
21
-5.14178
0
LINE
8
BLACK
6
CONTINUOUS
10
2.125
20
-5.14178
11
2.125
21
-5.14178
0
LINE
8
BLACK
6
CONTINUOUS
10
2.125
20
-5.14178
11
2.125
21
-1.35822
0
LINE
8
BLACK
6
CONTINUOUS
10
2.125
20
-1.35822
11
2.125
21
-1.35817
0
LINE
8
BLACK
6
CONTINUOUS
10
2.125
20
-1.35817
11
2.125
21
-1.35817
0
LINE
8
BLACK
6
CONTINUOUS
10
2.125
20
-1.35817
11
2.12613
21
-1.3467
0
LINE
8
BLACK
6
CONTINUOUS
10
2.12613
20
-1.3467
11
2.12613
21
-1.34669
0
LINE
8
BLACK
6
CONTINUOUS
10
2.12613
20
-1.34669
11
2.12615
21
-1.3466
0
LINE
8
BLACK
6
CONTINUOUS
10
2.12615
20
-1.3466
11
2.12617
21
-1.34651
0
LINE
8
BLACK
6
CONTINUOUS
10
2.12617
20
-1.34651
11
2.1295
21
-1.33548
0
LINE
8
BLACK
6
CONTINUOUS
10
2.1295
20
-1.33548
11
2.1295
21
-1.33547
0
LINE
8
BLACK
6
CONTINUOUS
10
2.1295
20
-1.33547
11
2.12954
21
-1.33538
0
LINE
8
BLACK
6
CONTINUOUS
10
2.12954
20
-1.33538
11
2.12957
21
-1.3353
0
LINE
8
BLACK
6
CONTINUOUS
10
2.12957
20
-1.3353
11
2.13498
21
-1.32513
0
LINE
8
BLACK
6
CONTINUOUS
10
2.13498
20
-1.32513
11
2.13499
21
-1.32511
0
LINE
8
BLACK
6
CONTINUOUS
10
2.13499
20
-1.32511
11
2.13504
21
-1.32504
0
LINE
8
BLACK
6
CONTINUOUS
10
2.13504
20
-1.32504
11
2.13509
21
-1.32497
0
LINE
8
BLACK
6
CONTINUOUS
10
2.13509
20
-1.32497
11
2.14237
21
-1.31603
0
LINE
8
BLACK
6
CONTINUOUS
10
2.14237
20
-1.31603
11
2.14238
21
-1.31602
0
LINE
8
BLACK
6
CONTINUOUS
10
2.14238
20
-1.31602
11
2.14244
21
-1.31596
0
LINE
8
BLACK
6
CONTINUOUS
10
2.14244
20
-1.31596
11
2.14251
21
-1.3159
0
LINE
8
BLACK
6
CONTINUOUS
10
2.14251
20
-1.3159
11
2.15139
21
-1.30855
0
LINE
8
BLACK
6
CONTINUOUS
10
2.15139
20
-1.30855
11
2.15139
21
-1.30855
0
LINE
8
BLACK
6
CONTINUOUS
10
2.15139
20
-1.30855
11
2.15139
21
-1.30855
0
LINE
8
BLACK
6
CONTINUOUS
10
2.15139
20
-1.30855
11
2.1514
21
-1.30854
0
LINE
8
BLACK
6
CONTINUOUS
10
2.1514
20
-1.30854
11
2.15147
21
-1.30849
0
LINE
8
BLACK
6
CONTINUOUS
10
2.15147
20
-1.30849
11
2.15155
21
-1.30844
0
LINE
8
BLACK
6
CONTINUOUS
10
2.15155
20
-1.30844
11
2.16169
21
-1.30296
0
LINE
8
BLACK
6
CONTINUOUS
10
2.16169
20
-1.30296
11
2.1617
21
-1.30295
0
LINE
8
BLACK
6
CONTINUOUS
10
2.1617
20
-1.30295
11
2.16178
21
-1.30292
0
LINE
8
BLACK
6
CONTINUOUS
10
2.16178
20
-1.30292
11
2.16186
21
-1.30289
0
LINE
8
BLACK
6
CONTINUOUS
10
2.16186
20
-1.30289
11
2.17287
21
-1.29948
0
LINE
8
BLACK
6
CONTINUOUS
10
2.17287
20
-1.29948
11
2.17289
21
-1.29947
0
LINE
8
BLACK
6
CONTINUOUS
10
2.17289
20
-1.29947
11
2.17297
21
-1.29946
0
LINE
8
BLACK
6
CONTINUOUS
10
2.17297
20
-1.29946
11
2.17306
21
-1.29944
0
LINE
8
BLACK
6
CONTINUOUS
10
2.17306
20
-1.29944
11
2.18452
21
-1.29824
0
LINE
8
BLACK
6
CONTINUOUS
10
2.18452
20
-1.29824
11
2.18454
21
-1.29823
0
LINE
8
BLACK
6
CONTINUOUS
10
2.18454
20
-1.29823
11
2.18458
21
-1.29823
0
LINE
8
BLACK
6
CONTINUOUS
10
2.18458
20
-1.29823
11
2.18462
21
-1.29823
0
LINE
8
BLACK
6
CONTINUOUS
10
2.18462
20
-1.29823
11
2.18499
21
-1.29823
0
LINE
8
BLACK
6
CONTINUOUS
10
2.18499
20
-1.29823
11
2.18499
21
-1.29823
0
LINE
8
BLACK
6
CONTINUOUS
10
2.18499
20
-1.29823
11
9.98036
21
-1.29823
0
LINE
8
BLACK
6
CONTINUOUS
10
9.98036
20
-1.29823
11
9.98041
21
-1.29823
0
LINE
8
BLACK
6
CONTINUOUS
10
9.98041
20
-1.29823
11
9.98041
21
-1.29823
0
LINE
8
BLACK
6
CONTINUOUS
10
9.98041
20
-1.29823
11
9.99188
21
-1.29936
0
LINE
8
BLACK
6
CONTINUOUS
10
9.99188
20
-1.29936
11
9.9919
21
-1.29936
0
LINE
8
BLACK
6
CONTINUOUS
10
9.9919
20
-1.29936
11
9.99198
21
-1.29938
0
LINE
8
BLACK
6
CONTINUOUS
10
9.99198
20
-1.29938
11
9.99207
21
-1.2994
0
LINE
8
BLACK
6
CONTINUOUS
10
9.99207
20
-1.2994
11
10.0031
21
-1.30273
0
LINE
8
BLACK
6
CONTINUOUS
10
10.0031
20
-1.30273
11
10.0031
21
-1.30273
0
LINE
8
BLACK
6
CONTINUOUS
10
10.0031
20
-1.30273
11
10.0032
21
-1.30277
0
LINE
8
BLACK
6
CONTINUOUS
10
10.0032
20
-1.30277
11
10.0033
21
-1.3028
0
LINE
8
BLACK
6
CONTINUOUS
10
10.0033
20
-1.3028
11
10.0135
21
-1.30821
0
LINE
8
BLACK
6
CONTINUOUS
10
10.0135
20
-1.30821
11
10.0135
21
-1.30822
0
LINE
8
BLACK
6
CONTINUOUS
10
10.0135
20
-1.30822
11
10.0135
21
-1.30827
0
LINE
8
BLACK
6
CONTINUOUS
10
10.0135
20
-1.30827
11
10.0136
21
-1.30832
0
LINE
8
BLACK
6
CONTINUOUS
10
10.0136
20
-1.30832
11
10.0225
21
-1.3156
0
LINE
8
BLACK
6
CONTINUOUS
10
10.0225
20
-1.3156
11
10.0226
21
-1.31561
0
LINE
8
BLACK
6
CONTINUOUS
10
10.0226
20
-1.31561
11
10.0226
21
-1.31567
0
LINE
8
BLACK
6
CONTINUOUS
10
10.0226
20
-1.31567
11
10.0227
21
-1.31574
0
LINE
8
BLACK
6
CONTINUOUS
10
10.0227
20
-1.31574
11
10.03
21
-1.32462
0
LINE
8
BLACK
6
CONTINUOUS
10
10.03
20
-1.32462
11
10.03
21
-1.32462
0
LINE
8
BLACK
6
CONTINUOUS
10
10.03
20
-1.32462
11
10.03
21
-1.32462
0
LINE
8
BLACK
6
CONTINUOUS
10
10.03
20
-1.32462
11
10.03
21
-1.32463
0
LINE
8
BLACK
6
CONTINUOUS
10
10.03
20
-1.32463
11
10.0301
21
-1.3247
0
LINE
8
BLACK
6
CONTINUOUS
10
10.0301
20
-1.3247
11
10.0301
21
-1.32478
0
LINE
8
BLACK
6
CONTINUOUS
10
10.0301
20
-1.32478
11
10.0356
21
-1.33491
0
LINE
8
BLACK
6
CONTINUOUS
10
10.0356
20
-1.33491
11
10.0356
21
-1.33493
0
LINE
8
BLACK
6
CONTINUOUS
10
10.0356
20
-1.33493
11
10.0357
21
-1.33501
0
LINE
8
BLACK
6
CONTINUOUS
10
10.0357
20
-1.33501
11
10.0357
21
-1.33509
0
LINE
8
BLACK
6
CONTINUOUS
10
10.0357
20
-1.33509
11
10.0391
21
-1.3461
0
LINE
8
BLACK
6
CONTINUOUS
10
10.0391
20
-1.3461
11
10.0391
21
-1.34612
0
LINE
8
BLACK
6
CONTINUOUS
10
10.0391
20
-1.34612
11
10.0391
21
-1.3462
0
LINE
8
BLACK
6
CONTINUOUS
10
10.0391
20
-1.3462
11
10.0391
21
-1.34629
0
LINE
8
BLACK
6
CONTINUOUS
10
10.0391
20
-1.34629
11
10.0403
21
-1.35775
0
LINE
8
BLACK
6
CONTINUOUS
10
10.0403
20
-1.35775
11
10.0403
21
-1.35777
0
LINE
8
BLACK
6
CONTINUOUS
10
10.0403
20
-1.35777
11
10.0403
21
-1.35781
0
LINE
8
BLACK
6
CONTINUOUS
10
10.0403
20
-1.35781
11
10.0404
21
-1.35785
0
LINE
8
BLACK
6
CONTINUOUS
10
10.0404
20
-1.35785
11
10.0404
21
-1.35822
0
LINE
8
BLACK
6
CONTINUOUS
10
10.0404
20
-1.35822
11
10.0404
21
-1.35822
0
LINE
8
BLACK
6
CONTINUOUS
10
10.0404
20
-1.35822
11
10.0404
21
-5.14178
0
LINE
8
BLACK
6
CONTINUOUS
10
10.0404
20
-5.14178
11
10.0403
21
-5.14183
0
LINE
8
BLACK
6
CONTINUOUS
10
10.0403
20
-5.14183
11
10.0403
21
-5.14183
0
LINE
8
BLACK
6
CONTINUOUS
10
10.0403
20
-5.14183
11
10.0392
21
-5.1533
0
LINE
8
BLACK
6
CONTINUOUS
10
10.0392
20
-5.1533
11
10.0392
21
-5.15331
0
LINE
8
BLACK
6
CONTINUOUS
10
10.0392
20
-5.15331
11
10.0392
21
-5.1534
0
LINE
8
BLACK
6
CONTINUOUS
10
10.0392
20
-5.1534
11
10.0392
21
-5.15349
0
LINE
8
BLACK
6
CONTINUOUS
10
10.0392
20
-5.15349
11
10.0359
21
-5.16452
0
LINE
8
BLACK
6
CONTINUOUS
10
10.0359
20
-5.16452
11
10.0359
21
-5.16453
0
LINE
8
BLACK
6
CONTINUOUS
10
10.0359
20
-5.16453
11
10.0358
21
-5.16462
0
LINE
8
BLACK
6
CONTINUOUS
10
10.0358
20
-5.16462
11
10.0358
21
-5.1647
0
LINE
8
BLACK
6
CONTINUOUS
10
10.0358
20
-5.1647
11
10.0304
21
-5.17487
0
LINE
8
BLACK
6
CONTINUOUS
10
10.0304
20
-5.17487
11
10.0304
21
-5.17489
0
LINE
8
BLACK
6
CONTINUOUS
10
10.0304
20
-5.17489
11
10.0303
21
-5.17496
0
LINE
8
BLACK
6
CONTINUOUS
10
10.0303
20
-5.17496
11
10.0303
21
-5.17503
0
LINE
8
BLACK
6
CONTINUOUS
10
10.0303
20
-5.17503
11
10.023
21
-5.18397
0
LINE
8
BLACK
6
CONTINUOUS
10
10.023
20
-5.18397
11
10.023
21
-5.18398
0
LINE
8
BLACK
6
CONTINUOUS
10
10.023
20
-5.18398
11
10.0229
21
-5.18404
0
LINE
8
BLACK
6
CONTINUOUS
10
10.0229
20
-5.18404
11
10.0228
21
-5.1841
0
LINE
8
BLACK
6
CONTINUOUS
10
10.0228
20
-5.1841
11
10.014
21
-5.19145
0
LINE
8
BLACK
6
CONTINUOUS
10
10.014
20
-5.19145
11
10.014
21
-5.19146
0
LINE
8
BLACK
6
CONTINUOUS
10
10.014
20
-5.19146
11
10.0139
21
-5.19151
0
LINE
8
BLACK
6
CONTINUOUS
10
10.0139
20
-5.19151
11
10.0138
21
-5.19156
0
LINE
8
BLACK
6
CONTINUOUS
10
10.0138
20
-5.19156
11
10.0037
21
-5.19704
0
LINE
8
BLACK
6
CONTINUOUS
10
10.0037
20
-5.19704
11
10.0037
21
-5.19705
0
LINE
8
BLACK
6
CONTINUOUS
10
10.0037
20
-5.19705
11
10.0036
21
-5.19708
0
LINE
8
BLACK
6
CONTINUOUS
10
10.0036
20
-5.19708
11
10.0035
21
-5.19711
0
LINE
8
BLACK
6
CONTINUOUS
10
10.0035
20
-5.19711
11
9.99248
21
-5.20052
0
LINE
8
BLACK
6
CONTINUOUS
10
9.99248
20
-5.20052
11
9.99247
21
-5.20053
0
LINE
8
BLACK
6
CONTINUOUS
10
9.99247
20
-5.20053
11
9.99238
21
-5.20054
0
LINE
8
BLACK
6
CONTINUOUS
10
9.99238
20
-5.20054
11
9.99229
21
-5.20056
0
LINE
8
BLACK
6
CONTINUOUS
10
9.99229
20
-5.20056
11
9.98083
21
-5.20176
0
LINE
8
BLACK
6
CONTINUOUS
10
9.98083
20
-5.20176
11
9.98082
21
-5.20177
0
LINE
8
BLACK
6
CONTINUOUS
10
9.98082
20
-5.20177
11
9.98077
21
-5.20177
0
LINE
8
BLACK
6
CONTINUOUS
10
9.98077
20
-5.20177
11
9.98073
21
-5.20177
0
LINE
8
BLACK
6
CONTINUOUS
10
9.98073
20
-5.20177
11
9.98036
21
-5.20177
0
LINE
8
BLACK
6
CONTINUOUS
10
9.98036
20
-5.20177
11
9.98036
21
-5.20177
0
LINE
8
BLACK
6
CONTINUOUS
10
9.98036
20
-5.20177
11
2.18499
21
-5.20177
0
LINE
8
BLACK
6
CONTINUOUS
10
2.18499
20
-5.20177
11
2.18494
21
-5.20177
0
LINE
8
BLACK
6
CONTINUOUS
10
2.18504
20
-1.3002
11
2.18468
21
-1.3002
0
LINE
8
BLACK
6
CONTINUOUS
10
2.18468
20
-1.3002
11
2.17336
21
-1.30139
0
LINE
8
BLACK
6
CONTINUOUS
10
2.17336
20
-1.30139
11
2.16254
21
-1.30474
0
LINE
8
BLACK
6
CONTINUOUS
10
2.16254
20
-1.30474
11
2.15257
21
-1.31013
0
LINE
8
BLACK
6
CONTINUOUS
10
2.15257
20
-1.31013
11
2.14384
21
-1.31735
0
LINE
8
BLACK
6
CONTINUOUS
10
2.14384
20
-1.31735
11
2.13667
21
-1.32613
0
LINE
8
BLACK
6
CONTINUOUS
10
2.13667
20
-1.32613
11
2.13135
21
-1.33614
0
LINE
8
BLACK
6
CONTINUOUS
10
2.13135
20
-1.33614
11
2.12808
21
-1.34699
0
LINE
8
BLACK
6
CONTINUOUS
10
2.12808
20
-1.34699
11
2.12697
21
-1.35832
0
LINE
8
BLACK
6
CONTINUOUS
10
2.12697
20
-1.35832
11
2.12697
21
-5.14173
0
LINE
8
BLACK
6
CONTINUOUS
10
2.12697
20
-5.14173
11
2.12697
21
-5.14209
0
LINE
8
BLACK
6
CONTINUOUS
10
2.12697
20
-5.14209
11
2.12816
21
-5.15341
0
LINE
8
BLACK
6
CONTINUOUS
10
2.12816
20
-5.15341
11
2.13151
21
-5.16423
0
LINE
8
BLACK
6
CONTINUOUS
10
2.13151
20
-5.16423
11
2.1369
21
-5.1742
0
LINE
8
BLACK
6
CONTINUOUS
10
2.1369
20
-5.1742
11
2.14412
21
-5.18293
0
LINE
8
BLACK
6
CONTINUOUS
10
2.14412
20
-5.18293
11
2.15291
21
-5.1901
0
LINE
8
BLACK
6
CONTINUOUS
10
2.15291
20
-5.1901
11
2.16291
21
-5.19542
0
LINE
8
BLACK
6
CONTINUOUS
10
2.16291
20
-5.19542
11
2.17376
21
-5.19869
0
LINE
8
BLACK
6
CONTINUOUS
10
2.17376
20
-5.19869
11
2.18509
21
-5.1998
0
LINE
8
BLACK
6
CONTINUOUS
10
2.18509
20
-5.1998
11
9.98031
21
-5.1998
0
LINE
8
BLACK
6
CONTINUOUS
10
9.98031
20
-5.1998
11
9.98067
21
-5.1998
0
LINE
8
BLACK
6
CONTINUOUS
10
9.98067
20
-5.1998
11
9.99199
21
-5.19861
0
LINE
8
BLACK
6
CONTINUOUS
10
9.99199
20
-5.19861
11
10.0028
21
-5.19526
0
LINE
8
BLACK
6
CONTINUOUS
10
10.0028
20
-5.19526
11
10.0128
21
-5.18987
0
LINE
8
BLACK
6
CONTINUOUS
10
10.0128
20
-5.18987
11
10.0215
21
-5.18265
0
LINE
8
BLACK
6
CONTINUOUS
10
10.0215
20
-5.18265
11
10.0287
21
-5.17387
0
LINE
8
BLACK
6
CONTINUOUS
10
10.0287
20
-5.17387
11
10.034
21
-5.16386
0
LINE
8
BLACK
6
CONTINUOUS
10
10.034
20
-5.16386
11
10.0373
21
-5.15301
0
LINE
8
BLACK
6
CONTINUOUS
10
10.0373
20
-5.15301
11
10.0384
21
-5.14168
0
LINE
8
BLACK
6
CONTINUOUS
10
10.0384
20
-5.14168
11
10.0384
21
-1.35827
0
LINE
8
BLACK
6
CONTINUOUS
10
10.0384
20
-1.35827
11
10.0384
21
-1.35791
0
LINE
8
BLACK
6
CONTINUOUS
10
10.0384
20
-1.35791
11
10.0372
21
-1.34659
0
LINE
8
BLACK
6
CONTINUOUS
10
10.0372
20
-1.34659
11
10.0338
21
-1.33577
0
LINE
8
BLACK
6
CONTINUOUS
10
10.0338
20
-1.33577
11
10.0285
21
-1.3258
0
LINE
8
BLACK
6
CONTINUOUS
10
10.0285
20
-1.3258
11
10.0212
21
-1.31707
0
LINE
8
BLACK
6
CONTINUOUS
10
10.0212
20
-1.31707
11
10.0124
21
-1.3099
0
LINE
8
BLACK
6
CONTINUOUS
10
10.0124
20
-1.3099
11
10.0024
21
-1.30458
0
LINE
8
BLACK
6
CONTINUOUS
10
10.0024
20
-1.30458
11
9.99159
21
-1.30131
0
LINE
8
BLACK
6
CONTINUOUS
10
9.99159
20
-1.30131
11
9.98027
21
-1.3002
0
LINE
8
BLACK
6
CONTINUOUS
10
9.98027
20
-1.3002
11
2.18504
21
-1.3002
0
LINE
8
BLACK
6
CONTINUOUS
10
5.27925
20
-4.93425
11
5.2796
21
-4.93429
0
LINE
8
BLACK
6
CONTINUOUS
10
5.2796
20
-4.93429
11
5.28004
21
-4.93442
0
LINE
8
BLACK
6
CONTINUOUS
10
5.28004
20
-4.93442
11
5.28045
21
-4.93464
0
LINE
8
BLACK
6
CONTINUOUS
10
5.28045
20
-4.93464
11
5.28081
21
-4.93494
0
LINE
8
BLACK
6
CONTINUOUS
10
5.28081
20
-4.93494
11
5.28111
21
-4.9353
0
LINE
8
BLACK
6
CONTINUOUS
10
5.28111
20
-4.9353
11
5.28133
21
-4.93571
0
LINE
8
BLACK
6
CONTINUOUS
10
5.28133
20
-4.93571
11
5.28146
21
-4.93615
0
LINE
8
BLACK
6
CONTINUOUS
10
5.28146
20
-4.93615
11
5.28151
21
-4.93661
0
LINE
8
BLACK
6
CONTINUOUS
10
5.28151
20
-4.93661
11
5.2815
21
-4.93673
0
LINE
8
BLACK
6
CONTINUOUS
10
5.2815
20
-4.93673
11
5.2815
21
-5.05461
0
LINE
8
BLACK
6
CONTINUOUS
10
5.2815
20
-5.05461
11
5.28151
21
-5.05472
0
LINE
8
BLACK
6
CONTINUOUS
10
5.28151
20
-5.05472
11
5.28146
21
-5.05519
0
LINE
8
BLACK
6
CONTINUOUS
10
5.28146
20
-5.05519
11
5.28133
21
-5.05563
0
LINE
8
BLACK
6
CONTINUOUS
10
5.28133
20
-5.05563
11
5.28111
21
-5.05604
0
LINE
8
BLACK
6
CONTINUOUS
10
5.28111
20
-5.05604
11
5.28081
21
-5.0564
0
LINE
8
BLACK
6
CONTINUOUS
10
5.28081
20
-5.0564
11
5.28045
21
-5.0567
0
LINE
8
BLACK
6
CONTINUOUS
10
5.28045
20
-5.0567
11
5.28004
21
-5.05692
0
LINE
8
BLACK
6
CONTINUOUS
10
5.28004
20
-5.05692
11
5.2796
21
-5.05705
0
LINE
8
BLACK
6
CONTINUOUS
10
5.2796
20
-5.05705
11
5.27925
21
-5.05709
0
LINE
8
BLACK
6
CONTINUOUS
10
5.27925
20
-5.05709
11
5.27925
21
-5.05709
0
LINE
8
BLACK
6
CONTINUOUS
10
5.27925
20
-5.05709
11
5.27913
21
-5.0571
0
LINE
8
BLACK
6
CONTINUOUS
10
5.27913
20
-5.0571
11
5.27902
21
-5.05709
0
LINE
8
BLACK
6
CONTINUOUS
10
5.27902
20
-5.05709
11
5.14539
21
-5.05709
0
LINE
8
BLACK
6
CONTINUOUS
10
5.14539
20
-5.05709
11
5.14528
21
-5.0571
0
LINE
8
BLACK
6
CONTINUOUS
10
5.14528
20
-5.0571
11
5.14516
21
-5.05709
0
LINE
8
BLACK
6
CONTINUOUS
10
5.14516
20
-5.05709
11
5.14516
21
-5.05709
0
LINE
8
BLACK
6
CONTINUOUS
10
5.14516
20
-5.05709
11
5.14481
21
-5.05705
0
LINE
8
BLACK
6
CONTINUOUS
10
5.14481
20
-5.05705
11
5.14437
21
-5.05692
0
LINE
8
BLACK
6
CONTINUOUS
10
5.14437
20
-5.05692
11
5.14396
21
-5.0567
0
LINE
8
BLACK
6
CONTINUOUS
10
5.14396
20
-5.0567
11
5.1436
21
-5.0564
0
LINE
8
BLACK
6
CONTINUOUS
10
5.1436
20
-5.0564
11
5.1433
21
-5.05604
0
LINE
8
BLACK
6
CONTINUOUS
10
5.1433
20
-5.05604
11
5.14308
21
-5.05563
0
LINE
8
BLACK
6
CONTINUOUS
10
5.14308
20
-5.05563
11
5.14295
21
-5.05519
0
LINE
8
BLACK
6
CONTINUOUS
10
5.14295
20
-5.05519
11
5.1429
21
-5.05472
0
LINE
8
BLACK
6
CONTINUOUS
10
5.1429
20
-5.05472
11
5.14291
21
-5.05461
0
LINE
8
BLACK
6
CONTINUOUS
10
5.14291
20
-5.05461
11
5.14291
21
-4.93673
0
LINE
8
BLACK
6
CONTINUOUS
10
5.14291
20
-4.93673
11
5.1429
21
-4.93661
0
LINE
8
BLACK
6
CONTINUOUS
10
5.1429
20
-4.93661
11
5.14295
21
-4.93615
0
LINE
8
BLACK
6
CONTINUOUS
10
5.14295
20
-4.93615
11
5.14308
21
-4.93571
0
LINE
8
BLACK
6
CONTINUOUS
10
5.14308
20
-4.93571
11
5.1433
21
-4.9353
0
LINE
8
BLACK
6
CONTINUOUS
10
5.1433
20
-4.9353
11
5.1436
21
-4.93494
0
LINE
8
BLACK
6
CONTINUOUS
10
5.1436
20
-4.93494
11
5.14396
21
-4.93464
0
LINE
8
BLACK
6
CONTINUOUS
10
5.14396
20
-4.93464
11
5.14437
21
-4.93442
0
LINE
8
BLACK
6
CONTINUOUS
10
5.14437
20
-4.93442
11
5.14481
21
-4.93429
0
LINE
8
BLACK
6
CONTINUOUS
10
5.14481
20
-4.93429
11
5.14516
21
-4.93425
0
LINE
8
BLACK
6
CONTINUOUS
10
5.14516
20
-4.93425
11
5.14528
21
-4.93424
0
LINE
8
BLACK
6
CONTINUOUS
10
5.14528
20
-4.93424
11
5.14539
21
-4.93425
0
LINE
8
BLACK
6
CONTINUOUS
10
5.14539
20
-4.93425
11
5.27902
21
-4.93425
0
LINE
8
BLACK
6
CONTINUOUS
10
5.27902
20
-4.93425
11
5.27913
21
-4.93424
0
LINE
8
BLACK
6
CONTINUOUS
10
5.27913
20
-4.93424
11
5.27925
21
-4.93425
0
LINE
8
BLACK
6
CONTINUOUS
10
5.14764
20
-4.93898
11
5.14764
21
-5.05236
0
LINE
8
BLACK
6
CONTINUOUS
10
5.14764
20
-5.05236
11
5.27677
21
-5.05236
0
LINE
8
BLACK
6
CONTINUOUS
10
5.27677
20
-5.05236
11
5.27677
21
-4.93898
0
LINE
8
BLACK
6
CONTINUOUS
10
5.27677
20
-4.93898
11
5.14764
21
-4.93898
0
LINE
8
BLACK
6
CONTINUOUS
10
6.29874
20
-3.59449
11
6.29909
21
-3.59452
0
LINE
8
BLACK
6
CONTINUOUS
10
6.29909
20
-3.59452
11
6.29953
21
-3.59466
0
LINE
8
BLACK
6
CONTINUOUS
10
6.29953
20
-3.59466
11
6.29994
21
-3.59488
0
LINE
8
BLACK
6
CONTINUOUS
10
6.29994
20
-3.59488
11
6.3003
21
-3.59517
0
LINE
8
BLACK
6
CONTINUOUS
10
6.3003
20
-3.59517
11
6.3006
21
-3.59553
0
LINE
8
BLACK
6
CONTINUOUS
10
6.3006
20
-3.59553
11
6.30082
21
-3.59594
0
LINE
8
BLACK
6
CONTINUOUS
10
6.30082
20
-3.59594
11
6.30095
21
-3.59639
0
LINE
8
BLACK
6
CONTINUOUS
10
6.30095
20
-3.59639
11
6.301
21
-3.59685
0
LINE
8
BLACK
6
CONTINUOUS
10
6.301
20
-3.59685
11
6.30098
21
-3.59697
0
LINE
8
BLACK
6
CONTINUOUS
10
6.30098
20
-3.59697
11
6.30098
21
-3.71484
0
LINE
8
BLACK
6
CONTINUOUS
10
6.30098
20
-3.71484
11
6.301
21
-3.71496
0
LINE
8
BLACK
6
CONTINUOUS
10
6.301
20
-3.71496
11
6.30095
21
-3.71542
0
LINE
8
BLACK
6
CONTINUOUS
10
6.30095
20
-3.71542
11
6.30082
21
-3.71587
0
LINE
8
BLACK
6
CONTINUOUS
10
6.30082
20
-3.71587
11
6.3006
21
-3.71628
0
LINE
8
BLACK
6
CONTINUOUS
10
6.3006
20
-3.71628
11
6.3003
21
-3.71664
0
LINE
8
BLACK
6
CONTINUOUS
10
6.3003
20
-3.71664
11
6.29994
21
-3.71693
0
LINE
8
BLACK
6
CONTINUOUS
10
6.29994
20
-3.71693
11
6.29953
21
-3.71715
0
LINE
8
BLACK
6
CONTINUOUS
10
6.29953
20
-3.71715
11
6.29909
21
-3.71729
0
LINE
8
BLACK
6
CONTINUOUS
10
6.29909
20
-3.71729
11
6.29874
21
-3.71732
0
LINE
8
BLACK
6
CONTINUOUS
10
6.29874
20
-3.71732
11
6.29874
21
-3.71732
0
LINE
8
BLACK
6
CONTINUOUS
10
6.29874
20
-3.71732
11
6.29862
21
-3.71733
0
LINE
8
BLACK
6
CONTINUOUS
10
6.29862
20
-3.71733
11
6.29851
21
-3.71732
0
LINE
8
BLACK
6
CONTINUOUS
10
6.29851
20
-3.71732
11
6.16488
21
-3.71732
0
LINE
8
BLACK
6
CONTINUOUS
10
6.16488
20
-3.71732
11
6.16476
21
-3.71733
0
LINE
8
BLACK
6
CONTINUOUS
10
6.16476
20
-3.71733
11
6.16465
21
-3.71732
0
LINE
8
BLACK
6
CONTINUOUS
10
6.16465
20
-3.71732
11
6.16465
21
-3.71732
0
LINE
8
BLACK
6
CONTINUOUS
10
6.16465
20
-3.71732
11
6.1643
21
-3.71729
0
LINE
8
BLACK
6
CONTINUOUS
10
6.1643
20
-3.71729
11
6.16386
21
-3.71715
0
LINE
8
BLACK
6
CONTINUOUS
10
6.16386
20
-3.71715
11
6.16345
21
-3.71693
0
LINE
8
BLACK
6
CONTINUOUS
10
6.16345
20
-3.71693
11
6.16309
21
-3.71664
0
LINE
8
BLACK
6
CONTINUOUS
10
6.16309
20
-3.71664
11
6.16279
21
-3.71628
0
LINE
8
BLACK
6
CONTINUOUS
10
6.16279
20
-3.71628
11
6.16257
21
-3.71587
0
LINE
8
BLACK
6
CONTINUOUS
10
6.16257
20
-3.71587
11
6.16244
21
-3.71542
0
LINE
8
BLACK
6
CONTINUOUS
10
6.16244
20
-3.71542
11
6.16239
21
-3.71496
0
LINE
8
BLACK
6
CONTINUOUS
10
6.16239
20
-3.71496
11
6.1624
21
-3.71484
0
LINE
8
BLACK
6
CONTINUOUS
10
6.1624
20
-3.71484
11
6.1624
21
-3.59697
0
LINE
8
BLACK
6
CONTINUOUS
10
6.1624
20
-3.59697
11
6.16239
21
-3.59685
0
LINE
8
BLACK
6
CONTINUOUS
10
6.16239
20
-3.59685
11
6.16244
21
-3.59639
0
LINE
8
BLACK
6
CONTINUOUS
10
6.16244
20
-3.59639
11
6.16257
21
-3.59594
0
LINE
8
BLACK
6
CONTINUOUS
10
6.16257
20
-3.59594
11
6.16279
21
-3.59553
0
LINE
8
BLACK
6
CONTINUOUS
10
6.16279
20
-3.59553
11
6.16309
21
-3.59517
0
LINE
8
BLACK
6
CONTINUOUS
10
6.16309
20
-3.59517
11
6.16345
21
-3.59488
0
LINE
8
BLACK
6
CONTINUOUS
10
6.16345
20
-3.59488
11
6.16386
21
-3.59466
0
LINE
8
BLACK
6
CONTINUOUS
10
6.16386
20
-3.59466
11
6.1643
21
-3.59452
0
LINE
8
BLACK
6
CONTINUOUS
10
6.1643
20
-3.59452
11
6.16465
21
-3.59449
0
LINE
8
BLACK
6
CONTINUOUS
10
6.16465
20
-3.59449
11
6.16476
21
-3.59448
0
LINE
8
BLACK
6
CONTINUOUS
10
6.16476
20
-3.59448
11
6.16488
21
-3.59449
0
LINE
8
BLACK
6
CONTINUOUS
10
6.16488
20
-3.59449
11
6.29851
21
-3.59449
0
LINE
8
BLACK
6
CONTINUOUS
10
6.29851
20
-3.59449
11
6.29862
21
-3.59448
0
LINE
8
BLACK
6
CONTINUOUS
10
6.29862
20
-3.59448
11
6.29874
21
-3.59449
0
LINE
8
BLACK
6
CONTINUOUS
10
6.16713
20
-3.59921
11
6.16713
21
-3.7126
0
LINE
8
BLACK
6
CONTINUOUS
10
6.16713
20
-3.7126
11
6.29626
21
-3.7126
0
LINE
8
BLACK
6
CONTINUOUS
10
6.29626
20
-3.7126
11
6.29626
21
-3.59921
0
LINE
8
BLACK
6
CONTINUOUS
10
6.29626
20
-3.59921
11
6.16713
21
-3.59921
0
LINE
8
BLACK
6
CONTINUOUS
10
9.52708
20
-3.24409
11
9.52743
21
-3.24413
0
LINE
8
BLACK
6
CONTINUOUS
10
9.52743
20
-3.24413
11
9.52788
21
-3.24426
0
LINE
8
BLACK
6
CONTINUOUS
10
9.52788
20
-3.24426
11
9.52829
21
-3.24448
0
LINE
8
BLACK
6
CONTINUOUS
10
9.52829
20
-3.24448
11
9.52865
21
-3.24478
0
LINE
8
BLACK
6
CONTINUOUS
10
9.52865
20
-3.24478
11
9.52894
21
-3.24514
0
LINE
8
BLACK
6
CONTINUOUS
10
9.52894
20
-3.24514
11
9.52916
21
-3.24555
0
LINE
8
BLACK
6
CONTINUOUS
10
9.52916
20
-3.24555
11
9.5293
21
-3.24599
0
LINE
8
BLACK
6
CONTINUOUS
10
9.5293
20
-3.24599
11
9.52934
21
-3.24646
0
LINE
8
BLACK
6
CONTINUOUS
10
9.52934
20
-3.24646
11
9.52933
21
-3.24657
0
LINE
8
BLACK
6
CONTINUOUS
10
9.52933
20
-3.24657
11
9.52933
21
-3.36445
0
LINE
8
BLACK
6
CONTINUOUS
10
9.52933
20
-3.36445
11
9.52934
21
-3.36457
0
LINE
8
BLACK
6
CONTINUOUS
10
9.52934
20
-3.36457
11
9.5293
21
-3.36503
0
LINE
8
BLACK
6
CONTINUOUS
10
9.5293
20
-3.36503
11
9.52916
21
-3.36548
0
LINE
8
BLACK
6
CONTINUOUS
10
9.52916
20
-3.36548
11
9.52894
21
-3.36589
0
LINE
8
BLACK
6
CONTINUOUS
10
9.52894
20
-3.36589
11
9.52865
21
-3.36625
0
LINE
8
BLACK
6
CONTINUOUS
10
9.52865
20
-3.36625
11
9.52829
21
-3.36654
0
LINE
8
BLACK
6
CONTINUOUS
10
9.52829
20
-3.36654
11
9.52788
21
-3.36676
0
LINE
8
BLACK
6
CONTINUOUS
10
9.52788
20
-3.36676
11
9.52743
21
-3.36689
0
LINE
8
BLACK
6
CONTINUOUS
10
9.52743
20
-3.36689
11
9.52708
21
-3.36693
0
LINE
8
BLACK
6
CONTINUOUS
10
9.52708
20
-3.36693
11
9.52708
21
-3.36693
0
LINE
8
BLACK
6
CONTINUOUS
10
9.52708
20
-3.36693
11
9.52697
21
-3.36694
0
LINE
8
BLACK
6
CONTINUOUS
10
9.52697
20
-3.36694
11
9.52685
21
-3.36693
0
LINE
8
BLACK
6
CONTINUOUS
10
9.52685
20
-3.36693
11
9.39323
21
-3.36693
0
LINE
8
BLACK
6
CONTINUOUS
10
9.39323
20
-3.36693
11
9.39311
21
-3.36694
0
LINE
8
BLACK
6
CONTINUOUS
10
9.39311
20
-3.36694
11
9.39299
21
-3.36693
0
LINE
8
BLACK
6
CONTINUOUS
10
9.39299
20
-3.36693
11
9.39299
21
-3.36693
0
LINE
8
BLACK
6
CONTINUOUS
10
9.39299
20
-3.36693
11
9.39265
21
-3.36689
0
LINE
8
BLACK
6
CONTINUOUS
10
9.39265
20
-3.36689
11
9.3922
21
-3.36676
0
LINE
8
BLACK
6
CONTINUOUS
10
9.3922
20
-3.36676
11
9.39179
21
-3.36654
0
LINE
8
BLACK
6
CONTINUOUS
10
9.39179
20
-3.36654
11
9.39143
21
-3.36625
0
LINE
8
BLACK
6
CONTINUOUS
10
9.39143
20
-3.36625
11
9.39114
21
-3.36589
0
LINE
8
BLACK
6
CONTINUOUS
10
9.39114
20
-3.36589
11
9.39092
21
-3.36548
0
LINE
8
BLACK
6
CONTINUOUS
10
9.39092
20
-3.36548
11
9.39078
21
-3.36503
0
LINE
8
BLACK
6
CONTINUOUS
10
9.39078
20
-3.36503
11
9.39074
21
-3.36457
0
LINE
8
BLACK
6
CONTINUOUS
10
9.39074
20
-3.36457
11
9.39075
21
-3.36445
0
LINE
8
BLACK
6
CONTINUOUS
10
9.39075
20
-3.36445
11
9.39075
21
-3.24657
0
LINE
8
BLACK
6
CONTINUOUS
10
9.39075
20
-3.24657
11
9.39074
21
-3.24646
0
LINE
8
BLACK
6
CONTINUOUS
10
9.39074
20
-3.24646
11
9.39078
21
-3.24599
0
LINE
8
BLACK
6
CONTINUOUS
10
9.39078
20
-3.24599
11
9.39092
21
-3.24555
0
LINE
8
BLACK
6
CONTINUOUS
10
9.39092
20
-3.24555
11
9.39114
21
-3.24514
0
LINE
8
BLACK
6
CONTINUOUS
10
9.39114
20
-3.24514
11
9.39143
21
-3.24478
0
LINE
8
BLACK
6
CONTINUOUS
10
9.39143
20
-3.24478
11
9.39179
21
-3.24448
0
LINE
8
BLACK
6
CONTINUOUS
10
9.39179
20
-3.24448
11
9.3922
21
-3.24426
0
LINE
8
BLACK
6
CONTINUOUS
10
9.3922
20
-3.24426
11
9.39265
21
-3.24413
0
LINE
8
BLACK
6
CONTINUOUS
10
9.39265
20
-3.24413
11
9.39299
21
-3.24409
0
LINE
8
BLACK
6
CONTINUOUS
10
9.39299
20
-3.24409
11
9.39311
21
-3.24408
0
LINE
8
BLACK
6
CONTINUOUS
10
9.39311
20
-3.24408
11
9.39323
21
-3.24409
0
LINE
8
BLACK
6
CONTINUOUS
10
9.39323
20
-3.24409
11
9.52685
21
-3.24409
0
LINE
8
BLACK
6
CONTINUOUS
10
9.52685
20
-3.24409
11
9.52697
21
-3.24408
0
LINE
8
BLACK
6
CONTINUOUS
10
9.52697
20
-3.24408
11
9.52708
21
-3.24409
0
LINE
8
BLACK
6
CONTINUOUS
10
9.39547
20
-3.24882
11
9.39547
21
-3.3622
0
LINE
8
BLACK
6
CONTINUOUS
10
9.39547
20
-3.3622
11
9.52461
21
-3.3622
0
LINE
8
BLACK
6
CONTINUOUS
10
9.52461
20
-3.3622
11
9.52461
21
-3.24882
0
LINE
8
BLACK
6
CONTINUOUS
10
9.52461
20
-3.24882
11
9.39547
21
-3.24882
0
LINE
8
BLACK
6
CONTINUOUS
10
4.93279
20
-3.04331
11
4.93314
21
-3.04334
0
LINE
8
BLACK
6
CONTINUOUS
10
4.93314
20
-3.04334
11
4.93359
21
-3.04348
0
LINE
8
BLACK
6
CONTINUOUS
10
4.93359
20
-3.04348
11
4.934
21
-3.0437
0
LINE
8
BLACK
6
CONTINUOUS
10
4.934
20
-3.0437
11
4.93436
21
-3.04399
0
LINE
8
BLACK
6
CONTINUOUS
10
4.93436
20
-3.04399
11
4.93465
21
-3.04435
0
LINE
8
BLACK
6
CONTINUOUS
10
4.93465
20
-3.04435
11
4.93487
21
-3.04476
0
LINE
8
BLACK
6
CONTINUOUS
10
4.93487
20
-3.04476
11
4.93501
21
-3.04521
0
LINE
8
BLACK
6
CONTINUOUS
10
4.93501
20
-3.04521
11
4.93505
21
-3.04567
0
LINE
8
BLACK
6
CONTINUOUS
10
4.93505
20
-3.04567
11
4.93504
21
-3.04579
0
LINE
8
BLACK
6
CONTINUOUS
10
4.93504
20
-3.04579
11
4.93504
21
-3.16366
0
LINE
8
BLACK
6
CONTINUOUS
10
4.93504
20
-3.16366
11
4.93505
21
-3.16378
0
LINE
8
BLACK
6
CONTINUOUS
10
4.93505
20
-3.16378
11
4.93501
21
-3.16424
0
LINE
8
BLACK
6
CONTINUOUS
10
4.93501
20
-3.16424
11
4.93487
21
-3.16469
0
LINE
8
BLACK
6
CONTINUOUS
10
4.93487
20
-3.16469
11
4.93465
21
-3.1651
0
LINE
8
BLACK
6
CONTINUOUS
10
4.93465
20
-3.1651
11
4.93436
21
-3.16546
0
LINE
8
BLACK
6
CONTINUOUS
10
4.93436
20
-3.16546
11
4.934
21
-3.16575
0
LINE
8
BLACK
6
CONTINUOUS
10
4.934
20
-3.16575
11
4.93359
21
-3.16597
0
LINE
8
BLACK
6
CONTINUOUS
10
4.93359
20
-3.16597
11
4.93314
21
-3.16611
0
LINE
8
BLACK
6
CONTINUOUS
10
4.93314
20
-3.16611
11
4.93279
21
-3.16614
0
LINE
8
BLACK
6
CONTINUOUS
10
4.93279
20
-3.16614
11
4.93279
21
-3.16614
0
LINE
8
BLACK
6
CONTINUOUS
10
4.93279
20
-3.16614
11
4.93268
21
-3.16615
0
LINE
8
BLACK
6
CONTINUOUS
10
4.93268
20
-3.16615
11
4.93256
21
-3.16614
0
LINE
8
BLACK
6
CONTINUOUS
10
4.93256
20
-3.16614
11
4.79893
21
-3.16614
0
LINE
8
BLACK
6
CONTINUOUS
10
4.79893
20
-3.16614
11
4.79882
21
-3.16615
0
LINE
8
BLACK
6
CONTINUOUS
10
4.79882
20
-3.16615
11
4.7987
21
-3.16614
0
LINE
8
BLACK
6
CONTINUOUS
10
4.7987
20
-3.16614
11
4.7987
21
-3.16614
0
LINE
8
BLACK
6
CONTINUOUS
10
4.7987
20
-3.16614
11
4.79836
21
-3.16611
0
LINE
8
BLACK
6
CONTINUOUS
10
4.79836
20
-3.16611
11
4.79791
21
-3.16597
0
LINE
8
BLACK
6
CONTINUOUS
10
4.79791
20
-3.16597
11
4.7975
21
-3.16575
0
LINE
8
BLACK
6
CONTINUOUS
10
4.7975
20
-3.16575
11
4.79714
21
-3.16546
0
LINE
8
BLACK
6
CONTINUOUS
10
4.79714
20
-3.16546
11
4.79685
21
-3.1651
0
LINE
8
BLACK
6
CONTINUOUS
10
4.79685
20
-3.1651
11
4.79663
21
-3.16469
0
LINE
8
BLACK
6
CONTINUOUS
10
4.79663
20
-3.16469
11
4.79649
21
-3.16424
0
LINE
8
BLACK
6
CONTINUOUS
10
4.79649
20
-3.16424
11
4.79645
21
-3.16378
0
LINE
8
BLACK
6
CONTINUOUS
10
4.79645
20
-3.16378
11
4.79646
21
-3.16366
0
LINE
8
BLACK
6
CONTINUOUS
10
4.79646
20
-3.16366
11
4.79646
21
-3.04579
0
LINE
8
BLACK
6
CONTINUOUS
10
4.79646
20
-3.04579
11
4.79645
21
-3.04567
0
LINE
8
BLACK
6
CONTINUOUS
10
4.79645
20
-3.04567
11
4.79649
21
-3.04521
0
LINE
8
BLACK
6
CONTINUOUS
10
4.79649
20
-3.04521
11
4.79663
21
-3.04476
0
LINE
8
BLACK
6
CONTINUOUS
10
4.79663
20
-3.04476
11
4.79685
21
-3.04435
0
LINE
8
BLACK
6
CONTINUOUS
10
4.79685
20
-3.04435
11
4.79714
21
-3.04399
0
LINE
8
BLACK
6
CONTINUOUS
10
4.79714
20
-3.04399
11
4.7975
21
-3.0437
0
LINE
8
BLACK
6
CONTINUOUS
10
4.7975
20
-3.0437
11
4.79791
21
-3.04348
0
LINE
8
BLACK
6
CONTINUOUS
10
4.79791
20
-3.04348
11
4.79836
21
-3.04334
0
LINE
8
BLACK
6
CONTINUOUS
10
4.79836
20
-3.04334
11
4.7987
21
-3.04331
0
LINE
8
BLACK
6
CONTINUOUS
10
4.7987
20
-3.04331
11
4.79882
21
-3.0433
0
LINE
8
BLACK
6
CONTINUOUS
10
4.79882
20
-3.0433
11
4.79893
21
-3.04331
0
LINE
8
BLACK
6
CONTINUOUS
10
4.79893
20
-3.04331
11
4.93256
21
-3.04331
0
LINE
8
BLACK
6
CONTINUOUS
10
4.93256
20
-3.04331
11
4.93268
21
-3.0433
0
LINE
8
BLACK
6
CONTINUOUS
10
4.93268
20
-3.0433
11
4.93279
21
-3.04331
0
LINE
8
BLACK
6
CONTINUOUS
10
4.80118
20
-3.04803
11
4.80118
21
-3.16142
0
LINE
8
BLACK
6
CONTINUOUS
10
4.80118
20
-3.16142
11
4.93031
21
-3.16142
0
LINE
8
BLACK
6
CONTINUOUS
10
4.93031
20
-3.16142
11
4.93032
21
-3.04803
0
LINE
8
BLACK
6
CONTINUOUS
10
4.93032
20
-3.04803
11
4.80118
21
-3.04803
0
LINE
8
BLACK
6
CONTINUOUS
10
7.25937
20
-2.96457
11
7.25972
21
-2.9646
0
LINE
8
BLACK
6
CONTINUOUS
10
7.25972
20
-2.9646
11
7.26016
21
-2.96474
0
LINE
8
BLACK
6
CONTINUOUS
10
7.26016
20
-2.96474
11
7.26057
21
-2.96496
0
LINE
8
BLACK
6
CONTINUOUS
10
7.26057
20
-2.96496
11
7.26093
21
-2.96525
0
LINE
8
BLACK
6
CONTINUOUS
10
7.26093
20
-2.96525
11
7.26123
21
-2.96561
0
LINE
8
BLACK
6
CONTINUOUS
10
7.26123
20
-2.96561
11
7.26144
21
-2.96602
0
LINE
8
BLACK
6
CONTINUOUS
10
7.26144
20
-2.96602
11
7.26158
21
-2.96647
0
LINE
8
BLACK
6
CONTINUOUS
10
7.26158
20
-2.96647
11
7.26163
21
-2.96693
0
LINE
8
BLACK
6
CONTINUOUS
10
7.26163
20
-2.96693
11
7.26161
21
-2.96705
0
LINE
8
BLACK
6
CONTINUOUS
10
7.26161
20
-2.96705
11
7.26161
21
-3.08492
0
LINE
8
BLACK
6
CONTINUOUS
10
7.26161
20
-3.08492
11
7.26163
21
-3.08504
0
LINE
8
BLACK
6
CONTINUOUS
10
7.26163
20
-3.08504
11
7.26158
21
-3.0855
0
LINE
8
BLACK
6
CONTINUOUS
10
7.26158
20
-3.0855
11
7.26144
21
-3.08595
0
LINE
8
BLACK
6
CONTINUOUS
10
7.26144
20
-3.08595
11
7.26123
21
-3.08636
0
LINE
8
BLACK
6
CONTINUOUS
10
7.26123
20
-3.08636
11
7.26093
21
-3.08672
0
LINE
8
BLACK
6
CONTINUOUS
10
7.26093
20
-3.08672
11
7.26057
21
-3.08701
0
LINE
8
BLACK
6
CONTINUOUS
10
7.26057
20
-3.08701
11
7.26016
21
-3.08723
0
LINE
8
BLACK
6
CONTINUOUS
10
7.26016
20
-3.08723
11
7.25972
21
-3.08737
0
LINE
8
BLACK
6
CONTINUOUS
10
7.25972
20
-3.08737
11
7.25937
21
-3.0874
0
LINE
8
BLACK
6
CONTINUOUS
10
7.25937
20
-3.0874
11
7.25937
21
-3.0874
0
LINE
8
BLACK
6
CONTINUOUS
10
7.25937
20
-3.0874
11
7.25925
21
-3.08741
0
LINE
8
BLACK
6
CONTINUOUS
10
7.25925
20
-3.08741
11
7.25914
21
-3.0874
0
LINE
8
BLACK
6
CONTINUOUS
10
7.25914
20
-3.0874
11
7.12551
21
-3.0874
0
LINE
8
BLACK
6
CONTINUOUS
10
7.12551
20
-3.0874
11
7.12539
21
-3.08741
0
LINE
8
BLACK
6
CONTINUOUS
10
7.12539
20
-3.08741
11
7.12528
21
-3.0874
0
LINE
8
BLACK
6
CONTINUOUS
10
7.12528
20
-3.0874
11
7.12528
21
-3.0874
0
LINE
8
BLACK
6
CONTINUOUS
10
7.12528
20
-3.0874
11
7.12493
21
-3.08737
0
LINE
8
BLACK
6
CONTINUOUS
10
7.12493
20
-3.08737
11
7.12449
21
-3.08723
0
LINE
8
BLACK
6
CONTINUOUS
10
7.12449
20
-3.08723
11
7.12407
21
-3.08701
0
LINE
8
BLACK
6
CONTINUOUS
10
7.12407
20
-3.08701
11
7.12372
21
-3.08672
0
LINE
8
BLACK
6
CONTINUOUS
10
7.12372
20
-3.08672
11
7.12342
21
-3.08636
0
LINE
8
BLACK
6
CONTINUOUS
10
7.12342
20
-3.08636
11
7.1232
21
-3.08595
0
LINE
8
BLACK
6
CONTINUOUS
10
7.1232
20
-3.08595
11
7.12307
21
-3.0855
0
LINE
8
BLACK
6
CONTINUOUS
10
7.12307
20
-3.0855
11
7.12302
21
-3.08504
0
LINE
8
BLACK
6
CONTINUOUS
10
7.12302
20
-3.08504
11
7.12303
21
-3.08492
0
LINE
8
BLACK
6
CONTINUOUS
10
7.12303
20
-3.08492
11
7.12303
21
-2.96705
0
LINE
8
BLACK
6
CONTINUOUS
10
7.12303
20
-2.96705
11
7.12302
21
-2.96693
0
LINE
8
BLACK
6
CONTINUOUS
10
7.12302
20
-2.96693
11
7.12307
21
-2.96647
0
LINE
8
BLACK
6
CONTINUOUS
10
7.12307
20
-2.96647
11
7.1232
21
-2.96602
0
LINE
8
BLACK
6
CONTINUOUS
10
7.1232
20
-2.96602
11
7.12342
21
-2.96561
0
LINE
8
BLACK
6
CONTINUOUS
10
7.12342
20
-2.96561
11
7.12372
21
-2.96525
0
LINE
8
BLACK
6
CONTINUOUS
10
7.12372
20
-2.96525
11
7.12407
21
-2.96496
0
LINE
8
BLACK
6
CONTINUOUS
10
7.12407
20
-2.96496
11
7.12449
21
-2.96474
0
LINE
8
BLACK
6
CONTINUOUS
10
7.12449
20
-2.96474
11
7.12493
21
-2.9646
0
LINE
8
BLACK
6
CONTINUOUS
10
7.12493
20
-2.9646
11
7.12528
21
-2.96457
0
LINE
8
BLACK
6
CONTINUOUS
10
7.12528
20
-2.96457
11
7.12539
21
-2.96456
0
LINE
8
BLACK
6
CONTINUOUS
10
7.12539
20
-2.96456
11
7.12551
21
-2.96457
0
LINE
8
BLACK
6
CONTINUOUS
10
7.12551
20
-2.96457
11
7.25914
21
-2.96457
0
LINE
8
BLACK
6
CONTINUOUS
10
7.25914
20
-2.96457
11
7.25925
21
-2.96456
0
LINE
8
BLACK
6
CONTINUOUS
10
7.25925
20
-2.96456
11
7.25937
21
-2.96457
0
LINE
8
BLACK
6
CONTINUOUS
10
7.12776
20
-2.96929
11
7.12776
21
-3.08268
0
LINE
8
BLACK
6
CONTINUOUS
10
7.12776
20
-3.08268
11
7.25689
21
-3.08268
0
LINE
8
BLACK
6
CONTINUOUS
10
7.25689
20
-3.08268
11
7.25689
21
-2.96929
0
LINE
8
BLACK
6
CONTINUOUS
10
7.25689
20
-2.96929
11
7.12776
21
-2.96929
0
LINE
8
BLACK
6
CONTINUOUS
10
8.39323
20
-2.96457
11
8.39357
21
-2.9646
0
LINE
8
BLACK
6
CONTINUOUS
10
8.39357
20
-2.9646
11
8.39402
21
-2.96474
0
LINE
8
BLACK
6
CONTINUOUS
10
8.39402
20
-2.96474
11
8.39443
21
-2.96496
0
LINE
8
BLACK
6
CONTINUOUS
10
8.39443
20
-2.96496
11
8.39479
21
-2.96525
0
LINE
8
BLACK
6
CONTINUOUS
10
8.39479
20
-2.96525
11
8.39508
21
-2.96561
0
LINE
8
BLACK
6
CONTINUOUS
10
8.39508
20
-2.96561
11
8.3953
21
-2.96602
0
LINE
8
BLACK
6
CONTINUOUS
10
8.3953
20
-2.96602
11
8.39544
21
-2.96647
0
LINE
8
BLACK
6
CONTINUOUS
10
8.39544
20
-2.96647
11
8.39548
21
-2.96693
0
LINE
8
BLACK
6
CONTINUOUS
10
8.39548
20
-2.96693
11
8.39547
21
-2.96705
0
LINE
8
BLACK
6
CONTINUOUS
10
8.39547
20
-2.96705
11
8.39547
21
-3.08492
0
LINE
8
BLACK
6
CONTINUOUS
10
8.39547
20
-3.08492
11
8.39548
21
-3.08504
0
LINE
8
BLACK
6
CONTINUOUS
10
8.39548
20
-3.08504
11
8.39544
21
-3.0855
0
LINE
8
BLACK
6
CONTINUOUS
10
8.39544
20
-3.0855
11
8.3953
21
-3.08595
0
LINE
8
BLACK
6
CONTINUOUS
10
8.3953
20
-3.08595
11
8.39508
21
-3.08636
0
LINE
8
BLACK
6
CONTINUOUS
10
8.39508
20
-3.08636
11
8.39479
21
-3.08672
0
LINE
8
BLACK
6
CONTINUOUS
10
8.39479
20
-3.08672
11
8.39443
21
-3.08701
0
LINE
8
BLACK
6
CONTINUOUS
10
8.39443
20
-3.08701
11
8.39402
21
-3.08723
0
LINE
8
BLACK
6
CONTINUOUS
10
8.39402
20
-3.08723
11
8.39357
21
-3.08737
0
LINE
8
BLACK
6
CONTINUOUS
10
8.39357
20
-3.08737
11
8.39323
21
-3.0874
0
LINE
8
BLACK
6
CONTINUOUS
10
8.39323
20
-3.0874
11
8.39323
21
-3.0874
0
LINE
8
BLACK
6
CONTINUOUS
10
8.39323
20
-3.0874
11
8.39311
21
-3.08741
0
LINE
8
BLACK
6
CONTINUOUS
10
8.39311
20
-3.08741
11
8.39299
21
-3.0874
0
LINE
8
BLACK
6
CONTINUOUS
10
8.39299
20
-3.0874
11
8.25937
21
-3.0874
0
LINE
8
BLACK
6
CONTINUOUS
10
8.25937
20
-3.0874
11
8.25925
21
-3.08741
0
LINE
8
BLACK
6
CONTINUOUS
10
8.25925
20
-3.08741
11
8.25914
21
-3.0874
0
LINE
8
BLACK
6
CONTINUOUS
10
8.25914
20
-3.0874
11
8.25914
21
-3.0874
0
LINE
8
BLACK
6
CONTINUOUS
10
8.25914
20
-3.0874
11
8.25879
21
-3.08737
0
LINE
8
BLACK
6
CONTINUOUS
10
8.25879
20
-3.08737
11
8.25834
21
-3.08723
0
LINE
8
BLACK
6
CONTINUOUS
10
8.25834
20
-3.08723
11
8.25793
21
-3.08701
0
LINE
8
BLACK
6
CONTINUOUS
10
8.25793
20
-3.08701
11
8.25757
21
-3.08672
0
LINE
8
BLACK
6
CONTINUOUS
10
8.25757
20
-3.08672
11
8.25728
21
-3.08636
0
LINE
8
BLACK
6
CONTINUOUS
10
8.25728
20
-3.08636
11
8.25706
21
-3.08595
0
LINE
8
BLACK
6
CONTINUOUS
10
8.25706
20
-3.08595
11
8.25692
21
-3.0855
0
LINE
8
BLACK
6
CONTINUOUS
10
8.25692
20
-3.0855
11
8.25688
21
-3.08504
0
LINE
8
BLACK
6
CONTINUOUS
10
8.25688
20
-3.08504
11
8.25689
21
-3.08492
0
LINE
8
BLACK
6
CONTINUOUS
10
8.25689
20
-3.08492
11
8.25689
21
-2.96705
0
LINE
8
BLACK
6
CONTINUOUS
10
8.25689
20
-2.96705
11
8.25688
21
-2.96693
0
LINE
8
BLACK
6
CONTINUOUS
10
8.25688
20
-2.96693
11
8.25692
21
-2.96647
0
LINE
8
BLACK
6
CONTINUOUS
10
8.25692
20
-2.96647
11
8.25706
21
-2.96602
0
LINE
8
BLACK
6
CONTINUOUS
10
8.25706
20
-2.96602
11
8.25728
21
-2.96561
0
LINE
8
BLACK
6
CONTINUOUS
10
8.25728
20
-2.96561
11
8.25757
21
-2.96525
0
LINE
8
BLACK
6
CONTINUOUS
10
8.25757
20
-2.96525
11
8.25793
21
-2.96496
0
LINE
8
BLACK
6
CONTINUOUS
10
8.25793
20
-2.96496
11
8.25834
21
-2.96474
0
LINE
8
BLACK
6
CONTINUOUS
10
8.25834
20
-2.96474
11
8.25879
21
-2.9646
0
LINE
8
BLACK
6
CONTINUOUS
10
8.25879
20
-2.9646
11
8.25914
21
-2.96457
0
LINE
8
BLACK
6
CONTINUOUS
10
8.25914
20
-2.96457
11
8.25925
21
-2.96456
0
LINE
8
BLACK
6
CONTINUOUS
10
8.25925
20
-2.96456
11
8.25937
21
-2.96457
0
LINE
8
BLACK
6
CONTINUOUS
10
8.25937
20
-2.96457
11
8.39299
21
-2.96457
0
LINE
8
BLACK
6
CONTINUOUS
10
8.39299
20
-2.96457
11
8.39311
21
-2.96456
0
LINE
8
BLACK
6
CONTINUOUS
10
8.39311
20
-2.96456
11
8.39323
21
-2.96457
0
LINE
8
BLACK
6
CONTINUOUS
10
8.26161
20
-2.96929
11
8.26161
21
-3.08268
0
LINE
8
BLACK
6
CONTINUOUS
10
8.26161
20
-3.08268
11
8.39075
21
-3.08268
0
LINE
8
BLACK
6
CONTINUOUS
10
8.39075
20
-3.08268
11
8.39075
21
-2.96929
0
LINE
8
BLACK
6
CONTINUOUS
10
8.39075
20
-2.96929
11
8.26161
21
-2.96929
0
LINE
8
BLACK
6
CONTINUOUS
10
3.82118
20
-2.75984
11
3.82153
21
-2.75988
0
LINE
8
BLACK
6
CONTINUOUS
10
3.82153
20
-2.75988
11
3.82197
21
-2.76001
0
LINE
8
BLACK
6
CONTINUOUS
10
3.82197
20
-2.76001
11
3.82238
21
-2.76023
0
LINE
8
BLACK
6
CONTINUOUS
10
3.82238
20
-2.76023
11
3.82274
21
-2.76053
0
LINE
8
BLACK
6
CONTINUOUS
10
3.82274
20
-2.76053
11
3.82304
21
-2.76089
0
LINE
8
BLACK
6
CONTINUOUS
10
3.82304
20
-2.76089
11
3.82326
21
-2.7613
0
LINE
8
BLACK
6
CONTINUOUS
10
3.82326
20
-2.7613
11
3.82339
21
-2.76174
0
LINE
8
BLACK
6
CONTINUOUS
10
3.82339
20
-2.76174
11
3.82344
21
-2.7622
0
LINE
8
BLACK
6
CONTINUOUS
10
3.82344
20
-2.7622
11
3.82343
21
-2.76232
0
LINE
8
BLACK
6
CONTINUOUS
10
3.82343
20
-2.76232
11
3.82343
21
-2.8802
0
LINE
8
BLACK
6
CONTINUOUS
10
3.82343
20
-2.8802
11
3.82344
21
-2.88031
0
LINE
8
BLACK
6
CONTINUOUS
10
3.82344
20
-2.88031
11
3.82339
21
-2.88078
0
LINE
8
BLACK
6
CONTINUOUS
10
3.82339
20
-2.88078
11
3.82326
21
-2.88122
0
LINE
8
BLACK
6
CONTINUOUS
10
3.82326
20
-2.88122
11
3.82304
21
-2.88163
0
LINE
8
BLACK
6
CONTINUOUS
10
3.82304
20
-2.88163
11
3.82274
21
-2.88199
0
LINE
8
BLACK
6
CONTINUOUS
10
3.82274
20
-2.88199
11
3.82238
21
-2.88229
0
LINE
8
BLACK
6
CONTINUOUS
10
3.82238
20
-2.88229
11
3.82197
21
-2.88251
0
LINE
8
BLACK
6
CONTINUOUS
10
3.82197
20
-2.88251
11
3.82153
21
-2.88264
0
LINE
8
BLACK
6
CONTINUOUS
10
3.82153
20
-2.88264
11
3.82118
21
-2.88268
0
LINE
8
BLACK
6
CONTINUOUS
10
3.82118
20
-2.88268
11
3.82118
21
-2.88268
0
LINE
8
BLACK
6
CONTINUOUS
10
3.82118
20
-2.88268
11
3.82106
21
-2.88269
0
LINE
8
BLACK
6
CONTINUOUS
10
3.82106
20
-2.88269
11
3.82095
21
-2.88268
0
LINE
8
BLACK
6
CONTINUOUS
10
3.82095
20
-2.88268
11
3.68732
21
-2.88268
0
LINE
8
BLACK
6
CONTINUOUS
10
3.68732
20
-2.88268
11
3.6872
21
-2.88269
0
LINE
8
BLACK
6
CONTINUOUS
10
3.6872
20
-2.88269
11
3.68709
21
-2.88268
0
LINE
8
BLACK
6
CONTINUOUS
10
3.68709
20
-2.88268
11
3.68709
21
-2.88268
0
LINE
8
BLACK
6
CONTINUOUS
10
3.68709
20
-2.88268
11
3.68674
21
-2.88264
0
LINE
8
BLACK
6
CONTINUOUS
10
3.68674
20
-2.88264
11
3.6863
21
-2.88251
0
LINE
8
BLACK
6
CONTINUOUS
10
3.6863
20
-2.88251
11
3.68589
21
-2.88229
0
LINE
8
BLACK
6
CONTINUOUS
10
3.68589
20
-2.88229
11
3.68553
21
-2.88199
0
LINE
8
BLACK
6
CONTINUOUS
10
3.68553
20
-2.88199
11
3.68523
21
-2.88163
0
LINE
8
BLACK
6
CONTINUOUS
10
3.68523
20
-2.88163
11
3.68501
21
-2.88122
0
LINE
8
BLACK
6
CONTINUOUS
10
3.68501
20
-2.88122
11
3.68488
21
-2.88078
0
LINE
8
BLACK
6
CONTINUOUS
10
3.68488
20
-2.88078
11
3.68483
21
-2.88031
0
LINE
8
BLACK
6
CONTINUOUS
10
3.68483
20
-2.88031
11
3.68484
21
-2.8802
0
LINE
8
BLACK
6
CONTINUOUS
10
3.68484
20
-2.8802
11
3.68484
21
-2.76232
0
LINE
8
BLACK
6
CONTINUOUS
10
3.68484
20
-2.76232
11
3.68483
21
-2.7622
0
LINE
8
BLACK
6
CONTINUOUS
10
3.68483
20
-2.7622
11
3.68488
21
-2.76174
0
LINE
8
BLACK
6
CONTINUOUS
10
3.68488
20
-2.76174
11
3.68501
21
-2.7613
0
LINE
8
BLACK
6
CONTINUOUS
10
3.68501
20
-2.7613
11
3.68523
21
-2.76089
0
LINE
8
BLACK
6
CONTINUOUS
10
3.68523
20
-2.76089
11
3.68553
21
-2.76053
0
LINE
8
BLACK
6
CONTINUOUS
10
3.68553
20
-2.76053
11
3.68589
21
-2.76023
0
LINE
8
BLACK
6
CONTINUOUS
10
3.68589
20
-2.76023
11
3.6863
21
-2.76001
0
LINE
8
BLACK
6
CONTINUOUS
10
3.6863
20
-2.76001
11
3.68674
21
-2.75988
0
LINE
8
BLACK
6
CONTINUOUS
10
3.68674
20
-2.75988
11
3.68709
21
-2.75984
0
LINE
8
BLACK
6
CONTINUOUS
10
3.68709
20
-2.75984
11
3.6872
21
-2.75983
0
LINE
8
BLACK
6
CONTINUOUS
10
3.6872
20
-2.75983
11
3.68732
21
-2.75984
0
LINE
8
BLACK
6
CONTINUOUS
10
3.68732
20
-2.75984
11
3.82095
21
-2.75984
0
LINE
8
BLACK
6
CONTINUOUS
10
3.82095
20
-2.75984
11
3.82106
21
-2.75983
0
LINE
8
BLACK
6
CONTINUOUS
10
3.82106
20
-2.75983
11
3.82118
21
-2.75984
0
LINE
8
BLACK
6
CONTINUOUS
10
3.68957
20
-2.76457
11
3.68957
21
-2.87795
0
LINE
8
BLACK
6
CONTINUOUS
10
3.68957
20
-2.87795
11
3.8187
21
-2.87795
0
LINE
8
BLACK
6
CONTINUOUS
10
3.8187
20
-2.87795
11
3.8187
21
-2.76457
0
LINE
8
BLACK
6
CONTINUOUS
10
3.8187
20
-2.76457
11
3.68957
21
-2.76457
0
LINE
8
BLACK
6
CONTINUOUS
10
2.69382
20
-2.75984
11
2.69416
21
-2.75988
0
LINE
8
BLACK
6
CONTINUOUS
10
2.69416
20
-2.75988
11
2.69461
21
-2.76001
0
LINE
8
BLACK
6
CONTINUOUS
10
2.69461
20
-2.76001
11
2.69502
21
-2.76023
0
LINE
8
BLACK
6
CONTINUOUS
10
2.69502
20
-2.76023
11
2.69538
21
-2.76053
0
LINE
8
BLACK
6
CONTINUOUS
10
2.69538
20
-2.76053
11
2.69567
21
-2.76089
0
LINE
8
BLACK
6
CONTINUOUS
10
2.69567
20
-2.76089
11
2.69589
21
-2.7613
0
LINE
8
BLACK
6
CONTINUOUS
10
2.69589
20
-2.7613
11
2.69603
21
-2.76174
0
LINE
8
BLACK
6
CONTINUOUS
10
2.69603
20
-2.76174
11
2.69607
21
-2.7622
0
LINE
8
BLACK
6
CONTINUOUS
10
2.69607
20
-2.7622
11
2.69606
21
-2.76232
0
LINE
8
BLACK
6
CONTINUOUS
10
2.69606
20
-2.76232
11
2.69606
21
-2.8802
0
LINE
8
BLACK
6
CONTINUOUS
10
2.69606
20
-2.8802
11
2.69607
21
-2.88031
0
LINE
8
BLACK
6
CONTINUOUS
10
2.69607
20
-2.88031
11
2.69603
21
-2.88078
0
LINE
8
BLACK
6
CONTINUOUS
10
2.69603
20
-2.88078
11
2.69589
21
-2.88122
0
LINE
8
BLACK
6
CONTINUOUS
10
2.69589
20
-2.88122
11
2.69567
21
-2.88163
0
LINE
8
BLACK
6
CONTINUOUS
10
2.69567
20
-2.88163
11
2.69538
21
-2.88199
0
LINE
8
BLACK
6
CONTINUOUS
10
2.69538
20
-2.88199
11
2.69502
21
-2.88229
0
LINE
8
BLACK
6
CONTINUOUS
10
2.69502
20
-2.88229
11
2.69461
21
-2.88251
0
LINE
8
BLACK
6
CONTINUOUS
10
2.69461
20
-2.88251
11
2.69416
21
-2.88264
0
LINE
8
BLACK
6
CONTINUOUS
10
2.69416
20
-2.88264
11
2.69382
21
-2.88268
0
LINE
8
BLACK
6
CONTINUOUS
10
2.69382
20
-2.88268
11
2.69382
21
-2.88268
0
LINE
8
BLACK
6
CONTINUOUS
10
2.69382
20
-2.88268
11
2.6937
21
-2.88269
0
LINE
8
BLACK
6
CONTINUOUS
10
2.6937
20
-2.88269
11
2.69358
21
-2.88268
0
LINE
8
BLACK
6
CONTINUOUS
10
2.69358
20
-2.88268
11
2.55996
21
-2.88268
0
LINE
8
BLACK
6
CONTINUOUS
10
2.55996
20
-2.88268
11
2.55984
21
-2.88269
0
LINE
8
BLACK
6
CONTINUOUS
10
2.55984
20
-2.88269
11
2.55973
21
-2.88268
0
LINE
8
BLACK
6
CONTINUOUS
10
2.55973
20
-2.88268
11
2.55973
21
-2.88268
0
LINE
8
BLACK
6
CONTINUOUS
10
2.55973
20
-2.88268
11
2.55938
21
-2.88264
0
LINE
8
BLACK
6
CONTINUOUS
10
2.55938
20
-2.88264
11
2.55893
21
-2.88251
0
LINE
8
BLACK
6
CONTINUOUS
10
2.55893
20
-2.88251
11
2.55852
21
-2.88229
0
LINE
8
BLACK
6
CONTINUOUS
10
2.55852
20
-2.88229
11
2.55816
21
-2.88199
0
LINE
8
BLACK
6
CONTINUOUS
10
2.55816
20
-2.88199
11
2.55787
21
-2.88163
0
LINE
8
BLACK
6
CONTINUOUS
10
2.55787
20
-2.88163
11
2.55765
21
-2.88122
0
LINE
8
BLACK
6
CONTINUOUS
10
2.55765
20
-2.88122
11
2.55751
21
-2.88078
0
LINE
8
BLACK
6
CONTINUOUS
10
2.55751
20
-2.88078
11
2.55747
21
-2.88031
0
LINE
8
BLACK
6
CONTINUOUS
10
2.55747
20
-2.88031
11
2.55748
21
-2.8802
0
LINE
8
BLACK
6
CONTINUOUS
10
2.55748
20
-2.8802
11
2.55748
21
-2.76232
0
LINE
8
BLACK
6
CONTINUOUS
10
2.55748
20
-2.76232
11
2.55747
21
-2.7622
0
LINE
8
BLACK
6
CONTINUOUS
10
2.55747
20
-2.7622
11
2.55751
21
-2.76174
0
LINE
8
BLACK
6
CONTINUOUS
10
2.55751
20
-2.76174
11
2.55765
21
-2.7613
0
LINE
8
BLACK
6
CONTINUOUS
10
2.55765
20
-2.7613
11
2.55787
21
-2.76089
0
LINE
8
BLACK
6
CONTINUOUS
10
2.55787
20
-2.76089
11
2.55816
21
-2.76053
0
LINE
8
BLACK
6
CONTINUOUS
10
2.55816
20
-2.76053
11
2.55852
21
-2.76023
0
LINE
8
BLACK
6
CONTINUOUS
10
2.55852
20
-2.76023
11
2.55893
21
-2.76001
0
LINE
8
BLACK
6
CONTINUOUS
10
2.55893
20
-2.76001
11
2.55938
21
-2.75988
0
LINE
8
BLACK
6
CONTINUOUS
10
2.55938
20
-2.75988
11
2.55973
21
-2.75984
0
LINE
8
BLACK
6
CONTINUOUS
10
2.55973
20
-2.75984
11
2.55984
21
-2.75983
0
LINE
8
BLACK
6
CONTINUOUS
10
2.55984
20
-2.75983
11
2.55996
21
-2.75984
0
LINE
8
BLACK
6
CONTINUOUS
10
2.55996
20
-2.75984
11
2.69358
21
-2.75984
0
LINE
8
BLACK
6
CONTINUOUS
10
2.69358
20
-2.75984
11
2.6937
21
-2.75983
0
LINE
8
BLACK
6
CONTINUOUS
10
2.6937
20
-2.75983
11
2.69382
21
-2.75984
0
LINE
8
BLACK
6
CONTINUOUS
10
2.5622
20
-2.76457
11
2.5622
21
-2.87795
0
LINE
8
BLACK
6
CONTINUOUS
10
2.5622
20
-2.87795
11
2.69134
21
-2.87795
0
LINE
8
BLACK
6
CONTINUOUS
10
2.69134
20
-2.87795
11
2.69134
21
-2.76457
0
LINE
8
BLACK
6
CONTINUOUS
10
2.69134
20
-2.76457
11
2.5622
21
-2.76457
0
LINE
8
BLACK
6
CONTINUOUS
10
6.29874
20
-2.36614
11
6.29909
21
-2.36618
0
LINE
8
BLACK
6
CONTINUOUS
10
6.29909
20
-2.36618
11
6.29953
21
-2.36631
0
LINE
8
BLACK
6
CONTINUOUS
10
6.29953
20
-2.36631
11
6.29994
21
-2.36653
0
LINE
8
BLACK
6
CONTINUOUS
10
6.29994
20
-2.36653
11
6.3003
21
-2.36683
0
LINE
8
BLACK
6
CONTINUOUS
10
6.3003
20
-2.36683
11
6.3006
21
-2.36719
0
LINE
8
BLACK
6
CONTINUOUS
10
6.3006
20
-2.36719
11
6.30082
21
-2.3676
0
LINE
8
BLACK
6
CONTINUOUS
10
6.30082
20
-2.3676
11
6.30095
21
-2.36804
0
LINE
8
BLACK
6
CONTINUOUS
10
6.30095
20
-2.36804
11
6.301
21
-2.3685
0
LINE
8
BLACK
6
CONTINUOUS
10
6.301
20
-2.3685
11
6.30098
21
-2.36862
0
LINE
8
BLACK
6
CONTINUOUS
10
6.30098
20
-2.36862
11
6.30098
21
-2.4865
0
LINE
8
BLACK
6
CONTINUOUS
10
6.30098
20
-2.4865
11
6.301
21
-2.48661
0
LINE
8
BLACK
6
CONTINUOUS
10
6.301
20
-2.48661
11
6.30095
21
-2.48708
0
LINE
8
BLACK
6
CONTINUOUS
10
6.30095
20
-2.48708
11
6.30082
21
-2.48752
0
LINE
8
BLACK
6
CONTINUOUS
10
6.30082
20
-2.48752
11
6.3006
21
-2.48793
0
LINE
8
BLACK
6
CONTINUOUS
10
6.3006
20
-2.48793
11
6.3003
21
-2.48829
0
LINE
8
BLACK
6
CONTINUOUS
10
6.3003
20
-2.48829
11
6.29994
21
-2.48859
0
LINE
8
BLACK
6
CONTINUOUS
10
6.29994
20
-2.48859
11
6.29953
21
-2.48881
0
LINE
8
BLACK
6
CONTINUOUS
10
6.29953
20
-2.48881
11
6.29909
21
-2.48894
0
LINE
8
BLACK
6
CONTINUOUS
10
6.29909
20
-2.48894
11
6.29874
21
-2.48898
0
LINE
8
BLACK
6
CONTINUOUS
10
6.29874
20
-2.48898
11
6.29874
21
-2.48898
0
LINE
8
BLACK
6
CONTINUOUS
10
6.29874
20
-2.48898
11
6.29862
21
-2.48899
0
LINE
8
BLACK
6
CONTINUOUS
10
6.29862
20
-2.48899
11
6.29851
21
-2.48898
0
LINE
8
BLACK
6
CONTINUOUS
10
6.29851
20
-2.48898
11
6.16488
21
-2.48898
0
LINE
8
BLACK
6
CONTINUOUS
10
6.16488
20
-2.48898
11
6.16476
21
-2.48899
0
LINE
8
BLACK
6
CONTINUOUS
10
6.16476
20
-2.48899
11
6.16465
21
-2.48898
0
LINE
8
BLACK
6
CONTINUOUS
10
6.16465
20
-2.48898
11
6.16465
21
-2.48898
0
LINE
8
BLACK
6
CONTINUOUS
10
6.16465
20
-2.48898
11
6.1643
21
-2.48894
0
LINE
8
BLACK
6
CONTINUOUS
10
6.1643
20
-2.48894
11
6.16386
21
-2.48881
0
LINE
8
BLACK
6
CONTINUOUS
10
6.16386
20
-2.48881
11
6.16345
21
-2.48859
0
LINE
8
BLACK
6
CONTINUOUS
10
6.16345
20
-2.48859
11
6.16309
21
-2.48829
0
LINE
8
BLACK
6
CONTINUOUS
10
6.16309
20
-2.48829
11
6.16279
21
-2.48793
0
LINE
8
BLACK
6
CONTINUOUS
10
6.16279
20
-2.48793
11
6.16257
21
-2.48752
0
LINE
8
BLACK
6
CONTINUOUS
10
6.16257
20
-2.48752
11
6.16244
21
-2.48708
0
LINE
8
BLACK
6
CONTINUOUS
10
6.16244
20
-2.48708
11
6.16239
21
-2.48661
0
LINE
8
BLACK
6
CONTINUOUS
10
6.16239
20
-2.48661
11
6.1624
21
-2.4865
0
LINE
8
BLACK
6
CONTINUOUS
10
6.1624
20
-2.4865
11
6.1624
21
-2.36862
0
LINE
8
BLACK
6
CONTINUOUS
10
6.1624
20
-2.36862
11
6.16239
21
-2.3685
0
LINE
8
BLACK
6
CONTINUOUS
10
6.16239
20
-2.3685
11
6.16244
21
-2.36804
0
LINE
8
BLACK
6
CONTINUOUS
10
6.16244
20
-2.36804
11
6.16257
21
-2.3676
0
LINE
8
BLACK
6
CONTINUOUS
10
6.16257
20
-2.3676
11
6.16279
21
-2.36719
0
LINE
8
BLACK
6
CONTINUOUS
10
6.16279
20
-2.36719
11
6.16309
21
-2.36683
0
LINE
8
BLACK
6
CONTINUOUS
10
6.16309
20
-2.36683
11
6.16345
21
-2.36653
0
LINE
8
BLACK
6
CONTINUOUS
10
6.16345
20
-2.36653
11
6.16386
21
-2.36631
0
LINE
8
BLACK
6
CONTINUOUS
10
6.16386
20
-2.36631
11
6.1643
21
-2.36618
0
LINE
8
BLACK
6
CONTINUOUS
10
6.1643
20
-2.36618
11
6.16465
21
-2.36614
0
LINE
8
BLACK
6
CONTINUOUS
10
6.16465
20
-2.36614
11
6.16476
21
-2.36613
0
LINE
8
BLACK
6
CONTINUOUS
10
6.16476
20
-2.36613
11
6.16488
21
-2.36614
0
LINE
8
BLACK
6
CONTINUOUS
10
6.16488
20
-2.36614
11
6.29851
21
-2.36614
0
LINE
8
BLACK
6
CONTINUOUS
10
6.29851
20
-2.36614
11
6.29862
21
-2.36613
0
LINE
8
BLACK
6
CONTINUOUS
10
6.29862
20
-2.36613
11
6.29874
21
-2.36614
0
LINE
8
BLACK
6
CONTINUOUS
10
6.16713
20
-2.37087
11
6.16713
21
-2.48425
0
LINE
8
BLACK
6
CONTINUOUS
10
6.16713
20
-2.48425
11
6.29626
21
-2.48425
0
LINE
8
BLACK
6
CONTINUOUS
10
6.29626
20
-2.48425
11
6.29626
21
-2.37087
0
LINE
8
BLACK
6
CONTINUOUS
10
6.29626
20
-2.37087
11
6.16713
21
-2.37087
0
LINE
8
BLACK
6
CONTINUOUS
10
4.18317
20
-1.82047
11
4.18346
21
-1.8205
0
LINE
8
BLACK
6
CONTINUOUS
10
4.18346
20
-1.8205
11
4.18383
21
-1.82061
0
LINE
8
BLACK
6
CONTINUOUS
10
4.18383
20
-1.82061
11
4.18417
21
-1.8208
0
LINE
8
BLACK
6
CONTINUOUS
10
4.18417
20
-1.8208
11
4.18447
21
-1.82104
0
LINE
8
BLACK
6
CONTINUOUS
10
4.18447
20
-1.82104
11
4.18472
21
-1.82134
0
LINE
8
BLACK
6
CONTINUOUS
10
4.18472
20
-1.82134
11
4.1849
21
-1.82168
0
LINE
8
BLACK
6
CONTINUOUS
10
4.1849
20
-1.82168
11
4.18501
21
-1.82206
0
LINE
8
BLACK
6
CONTINUOUS
10
4.18501
20
-1.82206
11
4.18505
21
-1.82244
0
LINE
8
BLACK
6
CONTINUOUS
10
4.18505
20
-1.82244
11
4.18504
21
-1.82254
0
LINE
8
BLACK
6
CONTINUOUS
10
4.18504
20
-1.82254
11
4.18504
21
-2.16132
0
LINE
8
BLACK
6
CONTINUOUS
10
4.18504
20
-2.16132
11
4.18505
21
-2.16142
0
LINE
8
BLACK
6
CONTINUOUS
10
4.18505
20
-2.16142
11
4.18504
21
-2.16151
0
LINE
8
BLACK
6
CONTINUOUS
10
4.18504
20
-2.16151
11
4.18504
21
-2.16151
0
LINE
8
BLACK
6
CONTINUOUS
10
4.18504
20
-2.16151
11
4.18501
21
-2.1618
0
LINE
8
BLACK
6
CONTINUOUS
10
4.18501
20
-2.1618
11
4.1849
21
-2.16217
0
LINE
8
BLACK
6
CONTINUOUS
10
4.1849
20
-2.16217
11
4.18472
21
-2.16252
0
LINE
8
BLACK
6
CONTINUOUS
10
4.18472
20
-2.16252
11
4.18447
21
-2.16282
0
LINE
8
BLACK
6
CONTINUOUS
10
4.18447
20
-2.16282
11
4.18417
21
-2.16306
0
LINE
8
BLACK
6
CONTINUOUS
10
4.18417
20
-2.16306
11
4.18383
21
-2.16324
0
LINE
8
BLACK
6
CONTINUOUS
10
4.18383
20
-2.16324
11
4.18346
21
-2.16336
0
LINE
8
BLACK
6
CONTINUOUS
10
4.18346
20
-2.16336
11
4.18307
21
-2.1634
0
LINE
8
BLACK
6
CONTINUOUS
10
4.18307
20
-2.1634
11
4.18297
21
-2.16339
0
LINE
8
BLACK
6
CONTINUOUS
10
4.18297
20
-2.16339
11
3.78474
21
-2.16339
0
LINE
8
BLACK
6
CONTINUOUS
10
3.78474
20
-2.16339
11
3.78465
21
-2.1634
0
LINE
8
BLACK
6
CONTINUOUS
10
3.78465
20
-2.1634
11
3.78426
21
-2.16336
0
LINE
8
BLACK
6
CONTINUOUS
10
3.78426
20
-2.16336
11
3.78389
21
-2.16324
0
LINE
8
BLACK
6
CONTINUOUS
10
3.78389
20
-2.16324
11
3.78355
21
-2.16306
0
LINE
8
BLACK
6
CONTINUOUS
10
3.78355
20
-2.16306
11
3.78325
21
-2.16282
0
LINE
8
BLACK
6
CONTINUOUS
10
3.78325
20
-2.16282
11
3.783
21
-2.16252
0
LINE
8
BLACK
6
CONTINUOUS
10
3.783
20
-2.16252
11
3.78282
21
-2.16217
0
LINE
8
BLACK
6
CONTINUOUS
10
3.78282
20
-2.16217
11
3.78271
21
-2.1618
0
LINE
8
BLACK
6
CONTINUOUS
10
3.78271
20
-2.1618
11
3.78267
21
-2.16142
0
LINE
8
BLACK
6
CONTINUOUS
10
3.78267
20
-2.16142
11
3.78268
21
-2.16132
0
LINE
8
BLACK
6
CONTINUOUS
10
3.78268
20
-2.16132
11
3.78268
21
-1.82254
0
LINE
8
BLACK
6
CONTINUOUS
10
3.78268
20
-1.82254
11
3.78267
21
-1.82244
0
LINE
8
BLACK
6
CONTINUOUS
10
3.78267
20
-1.82244
11
3.78271
21
-1.82206
0
LINE
8
BLACK
6
CONTINUOUS
10
3.78271
20
-1.82206
11
3.78282
21
-1.82168
0
LINE
8
BLACK
6
CONTINUOUS
10
3.78282
20
-1.82168
11
3.783
21
-1.82134
0
LINE
8
BLACK
6
CONTINUOUS
10
3.783
20
-1.82134
11
3.78325
21
-1.82104
0
LINE
8
BLACK
6
CONTINUOUS
10
3.78325
20
-1.82104
11
3.78355
21
-1.8208
0
LINE
8
BLACK
6
CONTINUOUS
10
3.78355
20
-1.8208
11
3.78389
21
-1.82061
0
LINE
8
BLACK
6
CONTINUOUS
10
3.78389
20
-1.82061
11
3.78426
21
-1.8205
0
LINE
8
BLACK
6
CONTINUOUS
10
3.78426
20
-1.8205
11
3.78455
21
-1.82047
0
LINE
8
BLACK
6
CONTINUOUS
10
3.78455
20
-1.82047
11
3.78465
21
-1.82046
0
LINE
8
BLACK
6
CONTINUOUS
10
3.78465
20
-1.82046
11
3.78474
21
-1.82047
0
LINE
8
BLACK
6
CONTINUOUS
10
3.78474
20
-1.82047
11
4.18297
21
-1.82047
0
LINE
8
BLACK
6
CONTINUOUS
10
4.18297
20
-1.82047
11
4.18307
21
-1.82046
0
LINE
8
BLACK
6
CONTINUOUS
10
4.18307
20
-1.82046
11
4.18317
21
-1.82047
0
LINE
8
BLACK
6
CONTINUOUS
10
3.78661
20
-1.82441
11
3.78661
21
-2.15945
0
LINE
8
BLACK
6
CONTINUOUS
10
3.78661
20
-2.15945
11
4.1811
21
-2.15945
0
LINE
8
BLACK
6
CONTINUOUS
10
4.1811
20
-2.15945
11
4.1811
21
-1.82441
0
LINE
8
BLACK
6
CONTINUOUS
10
4.1811
20
-1.82441
11
3.78661
21
-1.82441
0
LINE
8
BLACK
6
CONTINUOUS
10
9.50543
20
-2.01575
11
9.50578
21
-2.01578
0
LINE
8
BLACK
6
CONTINUOUS
10
9.50578
20
-2.01578
11
9.50622
21
-2.01592
0
LINE
8
BLACK
6
CONTINUOUS
10
9.50622
20
-2.01592
11
9.50663
21
-2.01614
0
LINE
8
BLACK
6
CONTINUOUS
10
9.50663
20
-2.01614
11
9.50699
21
-2.01643
0
LINE
8
BLACK
6
CONTINUOUS
10
9.50699
20
-2.01643
11
9.50729
21
-2.01679
0
LINE
8
BLACK
6
CONTINUOUS
10
9.50729
20
-2.01679
11
9.50751
21
-2.0172
0
LINE
8
BLACK
6
CONTINUOUS
10
9.50751
20
-2.0172
11
9.50764
21
-2.01765
0
LINE
8
BLACK
6
CONTINUOUS
10
9.50764
20
-2.01765
11
9.50769
21
-2.01811
0
LINE
8
BLACK
6
CONTINUOUS
10
9.50769
20
-2.01811
11
9.50768
21
-2.01823
0
LINE
8
BLACK
6
CONTINUOUS
10
9.50768
20
-2.01823
11
9.50768
21
-2.1361
0
LINE
8
BLACK
6
CONTINUOUS
10
9.50768
20
-2.1361
11
9.50769
21
-2.13622
0
LINE
8
BLACK
6
CONTINUOUS
10
9.50769
20
-2.13622
11
9.50764
21
-2.13668
0
LINE
8
BLACK
6
CONTINUOUS
10
9.50764
20
-2.13668
11
9.50751
21
-2.13713
0
LINE
8
BLACK
6
CONTINUOUS
10
9.50751
20
-2.13713
11
9.50729
21
-2.13754
0
LINE
8
BLACK
6
CONTINUOUS
10
9.50729
20
-2.13754
11
9.50699
21
-2.1379
0
LINE
8
BLACK
6
CONTINUOUS
10
9.50699
20
-2.1379
11
9.50663
21
-2.13819
0
LINE
8
BLACK
6
CONTINUOUS
10
9.50663
20
-2.13819
11
9.50622
21
-2.13841
0
LINE
8
BLACK
6
CONTINUOUS
10
9.50622
20
-2.13841
11
9.50578
21
-2.13855
0
LINE
8
BLACK
6
CONTINUOUS
10
9.50578
20
-2.13855
11
9.50543
21
-2.13858
0
LINE
8
BLACK
6
CONTINUOUS
10
9.50543
20
-2.13858
11
9.50543
21
-2.13858
0
LINE
8
BLACK
6
CONTINUOUS
10
9.50543
20
-2.13858
11
9.50531
21
-2.13859
0
LINE
8
BLACK
6
CONTINUOUS
10
9.50531
20
-2.13859
11
9.5052
21
-2.13858
0
LINE
8
BLACK
6
CONTINUOUS
10
9.5052
20
-2.13858
11
9.37157
21
-2.13858
0
LINE
8
BLACK
6
CONTINUOUS
10
9.37157
20
-2.13858
11
9.37146
21
-2.13859
0
LINE
8
BLACK
6
CONTINUOUS
10
9.37146
20
-2.13859
11
9.37134
21
-2.13858
0
LINE
8
BLACK
6
CONTINUOUS
10
9.37134
20
-2.13858
11
9.37134
21
-2.13858
0
LINE
8
BLACK
6
CONTINUOUS
10
9.37134
20
-2.13858
11
9.37099
21
-2.13855
0
LINE
8
BLACK
6
CONTINUOUS
10
9.37099
20
-2.13855
11
9.37055
21
-2.13841
0
LINE
8
BLACK
6
CONTINUOUS
10
9.37055
20
-2.13841
11
9.37014
21
-2.13819
0
LINE
8
BLACK
6
CONTINUOUS
10
9.37014
20
-2.13819
11
9.36978
21
-2.1379
0
LINE
8
BLACK
6
CONTINUOUS
10
9.36978
20
-2.1379
11
9.36948
21
-2.13754
0
LINE
8
BLACK
6
CONTINUOUS
10
9.36948
20
-2.13754
11
9.36926
21
-2.13713
0
LINE
8
BLACK
6
CONTINUOUS
10
9.36926
20
-2.13713
11
9.36913
21
-2.13668
0
LINE
8
BLACK
6
CONTINUOUS
10
9.36913
20
-2.13668
11
9.36908
21
-2.13622
0
LINE
8
BLACK
6
CONTINUOUS
10
9.36908
20
-2.13622
11
9.36909
21
-2.1361
0
LINE
8
BLACK
6
CONTINUOUS
10
9.36909
20
-2.1361
11
9.36909
21
-2.01823
0
LINE
8
BLACK
6
CONTINUOUS
10
9.36909
20
-2.01823
11
9.36908
21
-2.01811
0
LINE
8
BLACK
6
CONTINUOUS
10
9.36908
20
-2.01811
11
9.36913
21
-2.01765
0
LINE
8
BLACK
6
CONTINUOUS
10
9.36913
20
-2.01765
11
9.36926
21
-2.0172
0
LINE
8
BLACK
6
CONTINUOUS
10
9.36926
20
-2.0172
11
9.36948
21
-2.01679
0
LINE
8
BLACK
6
CONTINUOUS
10
9.36948
20
-2.01679
11
9.36978
21
-2.01643
0
LINE
8
BLACK
6
CONTINUOUS
10
9.36978
20
-2.01643
11
9.37014
21
-2.01614
0
LINE
8
BLACK
6
CONTINUOUS
10
9.37014
20
-2.01614
11
9.37055
21
-2.01592
0
LINE
8
BLACK
6
CONTINUOUS
10
9.37055
20
-2.01592
11
9.37099
21
-2.01578
0
LINE
8
BLACK
6
CONTINUOUS
10
9.37099
20
-2.01578
11
9.37134
21
-2.01575
0
LINE
8
BLACK
6
CONTINUOUS
10
9.37134
20
-2.01575
11
9.37146
21
-2.01574
0
LINE
8
BLACK
6
CONTINUOUS
10
9.37146
20
-2.01574
11
9.37157
21
-2.01575
0
LINE
8
BLACK
6
CONTINUOUS
10
9.37157
20
-2.01575
11
9.5052
21
-2.01575
0
LINE
8
BLACK
6
CONTINUOUS
10
9.5052
20
-2.01575
11
9.50531
21
-2.01574
0
LINE
8
BLACK
6
CONTINUOUS
10
9.50531
20
-2.01574
11
9.50543
21
-2.01575
0
LINE
8
BLACK
6
CONTINUOUS
10
9.37382
20
-2.02047
11
9.37382
21
-2.13386
0
LINE
8
BLACK
6
CONTINUOUS
10
9.37382
20
-2.13386
11
9.50295
21
-2.13386
0
LINE
8
BLACK
6
CONTINUOUS
10
9.50295
20
-2.13386
11
9.50295
21
-2.02047
0
LINE
8
BLACK
6
CONTINUOUS
10
9.50295
20
-2.02047
11
9.37382
21
-2.02047
0
LINE
8
BLACK
6
CONTINUOUS
10
2.92334
20
-1.79685
11
2.92369
21
-1.79688
0
LINE
8
BLACK
6
CONTINUOUS
10
2.92369
20
-1.79688
11
2.92414
21
-1.79702
0
LINE
8
BLACK
6
CONTINUOUS
10
2.92414
20
-1.79702
11
2.92455
21
-1.79724
0
LINE
8
BLACK
6
CONTINUOUS
10
2.92455
20
-1.79724
11
2.92491
21
-1.79753
0
LINE
8
BLACK
6
CONTINUOUS
10
2.92491
20
-1.79753
11
2.9252
21
-1.79789
0
LINE
8
BLACK
6
CONTINUOUS
10
2.9252
20
-1.79789
11
2.92542
21
-1.7983
0
LINE
8
BLACK
6
CONTINUOUS
10
2.92542
20
-1.7983
11
2.92556
21
-1.79875
0
LINE
8
BLACK
6
CONTINUOUS
10
2.92556
20
-1.79875
11
2.9256
21
-1.79921
0
LINE
8
BLACK
6
CONTINUOUS
10
2.9256
20
-1.79921
11
2.92559
21
-1.79933
0
LINE
8
BLACK
6
CONTINUOUS
10
2.92559
20
-1.79933
11
2.92559
21
-1.93295
0
LINE
8
BLACK
6
CONTINUOUS
10
2.92559
20
-1.93295
11
2.9256
21
-1.93307
0
LINE
8
BLACK
6
CONTINUOUS
10
2.9256
20
-1.93307
11
2.92556
21
-1.93353
0
LINE
8
BLACK
6
CONTINUOUS
10
2.92556
20
-1.93353
11
2.92542
21
-1.93398
0
LINE
8
BLACK
6
CONTINUOUS
10
2.92542
20
-1.93398
11
2.9252
21
-1.93439
0
LINE
8
BLACK
6
CONTINUOUS
10
2.9252
20
-1.93439
11
2.92491
21
-1.93475
0
LINE
8
BLACK
6
CONTINUOUS
10
2.92491
20
-1.93475
11
2.92455
21
-1.93504
0
LINE
8
BLACK
6
CONTINUOUS
10
2.92455
20
-1.93504
11
2.92414
21
-1.93526
0
LINE
8
BLACK
6
CONTINUOUS
10
2.92414
20
-1.93526
11
2.92369
21
-1.9354
0
LINE
8
BLACK
6
CONTINUOUS
10
2.92369
20
-1.9354
11
2.92334
21
-1.93543
0
LINE
8
BLACK
6
CONTINUOUS
10
2.92334
20
-1.93543
11
2.92334
21
-1.93543
0
LINE
8
BLACK
6
CONTINUOUS
10
2.92334
20
-1.93543
11
2.92323
21
-1.93544
0
LINE
8
BLACK
6
CONTINUOUS
10
2.92323
20
-1.93544
11
2.92311
21
-1.93543
0
LINE
8
BLACK
6
CONTINUOUS
10
2.92311
20
-1.93543
11
2.80523
21
-1.93543
0
LINE
8
BLACK
6
CONTINUOUS
10
2.80523
20
-1.93543
11
2.80512
21
-1.93544
0
LINE
8
BLACK
6
CONTINUOUS
10
2.80512
20
-1.93544
11
2.805
21
-1.93543
0
LINE
8
BLACK
6
CONTINUOUS
10
2.805
20
-1.93543
11
2.805
21
-1.93543
0
LINE
8
BLACK
6
CONTINUOUS
10
2.805
20
-1.93543
11
2.80466
21
-1.9354
0
LINE
8
BLACK
6
CONTINUOUS
10
2.80466
20
-1.9354
11
2.80421
21
-1.93526
0
LINE
8
BLACK
6
CONTINUOUS
10
2.80421
20
-1.93526
11
2.8038
21
-1.93504
0
LINE
8
BLACK
6
CONTINUOUS
10
2.8038
20
-1.93504
11
2.80344
21
-1.93475
0
LINE
8
BLACK
6
CONTINUOUS
10
2.80344
20
-1.93475
11
2.80314
21
-1.93439
0
LINE
8
BLACK
6
CONTINUOUS
10
2.80314
20
-1.93439
11
2.80293
21
-1.93398
0
LINE
8
BLACK
6
CONTINUOUS
10
2.80293
20
-1.93398
11
2.80279
21
-1.93353
0
LINE
8
BLACK
6
CONTINUOUS
10
2.80279
20
-1.93353
11
2.80274
21
-1.93307
0
LINE
8
BLACK
6
CONTINUOUS
10
2.80274
20
-1.93307
11
2.80276
21
-1.93295
0
LINE
8
BLACK
6
CONTINUOUS
10
2.80276
20
-1.93295
11
2.80276
21
-1.79933
0
LINE
8
BLACK
6
CONTINUOUS
10
2.80276
20
-1.79933
11
2.80274
21
-1.79921
0
LINE
8
BLACK
6
CONTINUOUS
10
2.80274
20
-1.79921
11
2.80279
21
-1.79875
0
LINE
8
BLACK
6
CONTINUOUS
10
2.80279
20
-1.79875
11
2.80293
21
-1.7983
0
LINE
8
BLACK
6
CONTINUOUS
10
2.80293
20
-1.7983
11
2.80314
21
-1.79789
0
LINE
8
BLACK
6
CONTINUOUS
10
2.80314
20
-1.79789
11
2.80344
21
-1.79753
0
LINE
8
BLACK
6
CONTINUOUS
10
2.80344
20
-1.79753
11
2.8038
21
-1.79724
0
LINE
8
BLACK
6
CONTINUOUS
10
2.8038
20
-1.79724
11
2.80421
21
-1.79702
0
LINE
8
BLACK
6
CONTINUOUS
10
2.80421
20
-1.79702
11
2.80466
21
-1.79688
0
LINE
8
BLACK
6
CONTINUOUS
10
2.80466
20
-1.79688
11
2.805
21
-1.79685
0
LINE
8
BLACK
6
CONTINUOUS
10
2.805
20
-1.79685
11
2.80512
21
-1.79684
0
LINE
8
BLACK
6
CONTINUOUS
10
2.80512
20
-1.79684
11
2.80523
21
-1.79685
0
LINE
8
BLACK
6
CONTINUOUS
10
2.80523
20
-1.79685
11
2.92311
21
-1.79685
0
LINE
8
BLACK
6
CONTINUOUS
10
2.92311
20
-1.79685
11
2.92323
21
-1.79684
0
LINE
8
BLACK
6
CONTINUOUS
10
2.92323
20
-1.79684
11
2.92334
21
-1.79685
0
LINE
8
BLACK
6
CONTINUOUS
10
2.80748
20
-1.80157
11
2.80748
21
-1.93071
0
LINE
8
BLACK
6
CONTINUOUS
10
2.80748
20
-1.93071
11
2.92087
21
-1.93071
0
LINE
8
BLACK
6
CONTINUOUS
10
2.92087
20
-1.93071
11
2.92087
21
-1.80157
0
LINE
8
BLACK
6
CONTINUOUS
10
2.92087
20
-1.80157
11
2.80748
21
-1.80157
0
LINE
8
BLACK
6
CONTINUOUS
10
2.4509
20
-1.79685
11
2.45125
21
-1.79688
0
LINE
8
BLACK
6
CONTINUOUS
10
2.45125
20
-1.79688
11
2.4517
21
-1.79702
0
LINE
8
BLACK
6
CONTINUOUS
10
2.4517
20
-1.79702
11
2.45211
21
-1.79724
0
LINE
8
BLACK
6
CONTINUOUS
10
2.45211
20
-1.79724
11
2.45247
21
-1.79753
0
LINE
8
BLACK
6
CONTINUOUS
10
2.45247
20
-1.79753
11
2.45276
21
-1.79789
0
LINE
8
BLACK
6
CONTINUOUS
10
2.45276
20
-1.79789
11
2.45298
21
-1.7983
0
LINE
8
BLACK
6
CONTINUOUS
10
2.45298
20
-1.7983
11
2.45312
21
-1.79875
0
LINE
8
BLACK
6
CONTINUOUS
10
2.45312
20
-1.79875
11
2.45316
21
-1.79921
0
LINE
8
BLACK
6
CONTINUOUS
10
2.45316
20
-1.79921
11
2.45315
21
-1.79933
0
LINE
8
BLACK
6
CONTINUOUS
10
2.45315
20
-1.79933
11
2.45315
21
-1.93295
0
LINE
8
BLACK
6
CONTINUOUS
10
2.45315
20
-1.93295
11
2.45316
21
-1.93307
0
LINE
8
BLACK
6
CONTINUOUS
10
2.45316
20
-1.93307
11
2.45312
21
-1.93353
0
LINE
8
BLACK
6
CONTINUOUS
10
2.45312
20
-1.93353
11
2.45298
21
-1.93398
0
LINE
8
BLACK
6
CONTINUOUS
10
2.45298
20
-1.93398
11
2.45276
21
-1.93439
0
LINE
8
BLACK
6
CONTINUOUS
10
2.45276
20
-1.93439
11
2.45247
21
-1.93475
0
LINE
8
BLACK
6
CONTINUOUS
10
2.45247
20
-1.93475
11
2.45211
21
-1.93504
0
LINE
8
BLACK
6
CONTINUOUS
10
2.45211
20
-1.93504
11
2.4517
21
-1.93526
0
LINE
8
BLACK
6
CONTINUOUS
10
2.4517
20
-1.93526
11
2.45125
21
-1.9354
0
LINE
8
BLACK
6
CONTINUOUS
10
2.45125
20
-1.9354
11
2.4509
21
-1.93543
0
LINE
8
BLACK
6
CONTINUOUS
10
2.4509
20
-1.93543
11
2.4509
21
-1.93543
0
LINE
8
BLACK
6
CONTINUOUS
10
2.4509
20
-1.93543
11
2.45079
21
-1.93544
0
LINE
8
BLACK
6
CONTINUOUS
10
2.45079
20
-1.93544
11
2.45067
21
-1.93543
0
LINE
8
BLACK
6
CONTINUOUS
10
2.45067
20
-1.93543
11
2.33279
21
-1.93543
0
LINE
8
BLACK
6
CONTINUOUS
10
2.33279
20
-1.93543
11
2.33268
21
-1.93544
0
LINE
8
BLACK
6
CONTINUOUS
10
2.33268
20
-1.93544
11
2.33256
21
-1.93543
0
LINE
8
BLACK
6
CONTINUOUS
10
2.33256
20
-1.93543
11
2.33256
21
-1.93543
0
LINE
8
BLACK
6
CONTINUOUS
10
2.33256
20
-1.93543
11
2.33221
21
-1.9354
0
LINE
8
BLACK
6
CONTINUOUS
10
2.33221
20
-1.9354
11
2.33177
21
-1.93526
0
LINE
8
BLACK
6
CONTINUOUS
10
2.33177
20
-1.93526
11
2.33136
21
-1.93504
0
LINE
8
BLACK
6
CONTINUOUS
10
2.33136
20
-1.93504
11
2.331
21
-1.93475
0
LINE
8
BLACK
6
CONTINUOUS
10
2.331
20
-1.93475
11
2.3307
21
-1.93439
0
LINE
8
BLACK
6
CONTINUOUS
10
2.3307
20
-1.93439
11
2.33048
21
-1.93398
0
LINE
8
BLACK
6
CONTINUOUS
10
2.33048
20
-1.93398
11
2.33035
21
-1.93353
0
LINE
8
BLACK
6
CONTINUOUS
10
2.33035
20
-1.93353
11
2.3303
21
-1.93307
0
LINE
8
BLACK
6
CONTINUOUS
10
2.3303
20
-1.93307
11
2.33032
21
-1.93295
0
LINE
8
BLACK
6
CONTINUOUS
10
2.33032
20
-1.93295
11
2.33031
21
-1.79933
0
LINE
8
BLACK
6
CONTINUOUS
10
2.33031
20
-1.79933
11
2.3303
21
-1.79921
0
LINE
8
BLACK
6
CONTINUOUS
10
2.3303
20
-1.79921
11
2.33035
21
-1.79875
0
LINE
8
BLACK
6
CONTINUOUS
10
2.33035
20
-1.79875
11
2.33048
21
-1.7983
0
LINE
8
BLACK
6
CONTINUOUS
10
2.33048
20
-1.7983
11
2.3307
21
-1.79789
0
LINE
8
BLACK
6
CONTINUOUS
10
2.3307
20
-1.79789
11
2.331
21
-1.79753
0
LINE
8
BLACK
6
CONTINUOUS
10
2.331
20
-1.79753
11
2.33136
21
-1.79724
0
LINE
8
BLACK
6
CONTINUOUS
10
2.33136
20
-1.79724
11
2.33177
21
-1.79702
0
LINE
8
BLACK
6
CONTINUOUS
10
2.33177
20
-1.79702
11
2.33221
21
-1.79688
0
LINE
8
BLACK
6
CONTINUOUS
10
2.33221
20
-1.79688
11
2.33256
21
-1.79685
0
LINE
8
BLACK
6
CONTINUOUS
10
2.33256
20
-1.79685
11
2.33268
21
-1.79684
0
LINE
8
BLACK
6
CONTINUOUS
10
2.33268
20
-1.79684
11
2.33279
21
-1.79685
0
LINE
8
BLACK
6
CONTINUOUS
10
2.33279
20
-1.79685
11
2.45067
21
-1.79685
0
LINE
8
BLACK
6
CONTINUOUS
10
2.45067
20
-1.79685
11
2.45079
21
-1.79684
0
LINE
8
BLACK
6
CONTINUOUS
10
2.45079
20
-1.79684
11
2.4509
21
-1.79685
0
LINE
8
BLACK
6
CONTINUOUS
10
2.33504
20
-1.80157
11
2.33504
21
-1.93071
0
LINE
8
BLACK
6
CONTINUOUS
10
2.33504
20
-1.93071
11
2.44843
21
-1.93071
0
LINE
8
BLACK
6
CONTINUOUS
10
2.44843
20
-1.93071
11
2.44843
21
-1.80157
0
LINE
8
BLACK
6
CONTINUOUS
10
2.44843
20
-1.80157
11
2.33504
21
-1.80157
0
LINE
8
BLACK
6
CONTINUOUS
10
2.76586
20
-1.79685
11
2.76621
21
-1.79688
0
LINE
8
BLACK
6
CONTINUOUS
10
2.76621
20
-1.79688
11
2.76666
21
-1.79702
0
LINE
8
BLACK
6
CONTINUOUS
10
2.76666
20
-1.79702
11
2.76707
21
-1.79724
0
LINE
8
BLACK
6
CONTINUOUS
10
2.76707
20
-1.79724
11
2.76743
21
-1.79753
0
LINE
8
BLACK
6
CONTINUOUS
10
2.76743
20
-1.79753
11
2.76772
21
-1.79789
0
LINE
8
BLACK
6
CONTINUOUS
10
2.76772
20
-1.79789
11
2.76794
21
-1.7983
0
LINE
8
BLACK
6
CONTINUOUS
10
2.76794
20
-1.7983
11
2.76808
21
-1.79875
0
LINE
8
BLACK
6
CONTINUOUS
10
2.76808
20
-1.79875
11
2.76812
21
-1.79921
0
LINE
8
BLACK
6
CONTINUOUS
10
2.76812
20
-1.79921
11
2.76811
21
-1.79933
0
LINE
8
BLACK
6
CONTINUOUS
10
2.76811
20
-1.79933
11
2.76811
21
-1.93295
0
LINE
8
BLACK
6
CONTINUOUS
10
2.76811
20
-1.93295
11
2.76812
21
-1.93307
0
LINE
8
BLACK
6
CONTINUOUS
10
2.76812
20
-1.93307
11
2.76808
21
-1.93353
0
LINE
8
BLACK
6
CONTINUOUS
10
2.76808
20
-1.93353
11
2.76794
21
-1.93398
0
LINE
8
BLACK
6
CONTINUOUS
10
2.76794
20
-1.93398
11
2.76772
21
-1.93439
0
LINE
8
BLACK
6
CONTINUOUS
10
2.76772
20
-1.93439
11
2.76743
21
-1.93475
0
LINE
8
BLACK
6
CONTINUOUS
10
2.76743
20
-1.93475
11
2.76707
21
-1.93504
0
LINE
8
BLACK
6
CONTINUOUS
10
2.76707
20
-1.93504
11
2.76666
21
-1.93526
0
LINE
8
BLACK
6
CONTINUOUS
10
2.76666
20
-1.93526
11
2.76621
21
-1.9354
0
LINE
8
BLACK
6
CONTINUOUS
10
2.76621
20
-1.9354
11
2.76586
21
-1.93543
0
LINE
8
BLACK
6
CONTINUOUS
10
2.76586
20
-1.93543
11
2.76586
21
-1.93543
0
LINE
8
BLACK
6
CONTINUOUS
10
2.76586
20
-1.93543
11
2.76575
21
-1.93544
0
LINE
8
BLACK
6
CONTINUOUS
10
2.76575
20
-1.93544
11
2.76563
21
-1.93543
0
LINE
8
BLACK
6
CONTINUOUS
10
2.76563
20
-1.93543
11
2.64775
21
-1.93543
0
LINE
8
BLACK
6
CONTINUOUS
10
2.64775
20
-1.93543
11
2.64764
21
-1.93544
0
LINE
8
BLACK
6
CONTINUOUS
10
2.64764
20
-1.93544
11
2.64752
21
-1.93543
0
LINE
8
BLACK
6
CONTINUOUS
10
2.64752
20
-1.93543
11
2.64752
21
-1.93543
0
LINE
8
BLACK
6
CONTINUOUS
10
2.64752
20
-1.93543
11
2.64717
21
-1.9354
0
LINE
8
BLACK
6
CONTINUOUS
10
2.64717
20
-1.9354
11
2.64673
21
-1.93526
0
LINE
8
BLACK
6
CONTINUOUS
10
2.64673
20
-1.93526
11
2.64632
21
-1.93504
0
LINE
8
BLACK
6
CONTINUOUS
10
2.64632
20
-1.93504
11
2.64596
21
-1.93475
0
LINE
8
BLACK
6
CONTINUOUS
10
2.64596
20
-1.93475
11
2.64566
21
-1.93439
0
LINE
8
BLACK
6
CONTINUOUS
10
2.64566
20
-1.93439
11
2.64544
21
-1.93398
0
LINE
8
BLACK
6
CONTINUOUS
10
2.64544
20
-1.93398
11
2.64531
21
-1.93353
0
LINE
8
BLACK
6
CONTINUOUS
10
2.64531
20
-1.93353
11
2.64526
21
-1.93307
0
LINE
8
BLACK
6
CONTINUOUS
10
2.64526
20
-1.93307
11
2.64528
21
-1.93295
0
LINE
8
BLACK
6
CONTINUOUS
10
2.64528
20
-1.93295
11
2.64528
21
-1.79933
0
LINE
8
BLACK
6
CONTINUOUS
10
2.64528
20
-1.79933
11
2.64526
21
-1.79921
0
LINE
8
BLACK
6
CONTINUOUS
10
2.64526
20
-1.79921
11
2.64531
21
-1.79875
0
LINE
8
BLACK
6
CONTINUOUS
10
2.64531
20
-1.79875
11
2.64544
21
-1.7983
0
LINE
8
BLACK
6
CONTINUOUS
10
2.64544
20
-1.7983
11
2.64566
21
-1.79789
0
LINE
8
BLACK
6
CONTINUOUS
10
2.64566
20
-1.79789
11
2.64596
21
-1.79753
0
LINE
8
BLACK
6
CONTINUOUS
10
2.64596
20
-1.79753
11
2.64632
21
-1.79724
0
LINE
8
BLACK
6
CONTINUOUS
10
2.64632
20
-1.79724
11
2.64673
21
-1.79702
0
LINE
8
BLACK
6
CONTINUOUS
10
2.64673
20
-1.79702
11
2.64717
21
-1.79688
0
LINE
8
BLACK
6
CONTINUOUS
10
2.64717
20
-1.79688
11
2.64752
21
-1.79685
0
LINE
8
BLACK
6
CONTINUOUS
10
2.64752
20
-1.79685
11
2.64764
21
-1.79684
0
LINE
8
BLACK
6
CONTINUOUS
10
2.64764
20
-1.79684
11
2.64775
21
-1.79685
0
LINE
8
BLACK
6
CONTINUOUS
10
2.64775
20
-1.79685
11
2.76563
21
-1.79685
0
LINE
8
BLACK
6
CONTINUOUS
10
2.76563
20
-1.79685
11
2.76575
21
-1.79684
0
LINE
8
BLACK
6
CONTINUOUS
10
2.76575
20
-1.79684
11
2.76586
21
-1.79685
0
LINE
8
BLACK
6
CONTINUOUS
10
2.65
20
-1.80157
11
2.65
21
-1.93071
0
LINE
8
BLACK
6
CONTINUOUS
10
2.65
20
-1.93071
11
2.76339
21
-1.93071
0
LINE
8
BLACK
6
CONTINUOUS
10
2.76339
20
-1.93071
11
2.76339
21
-1.80157
0
LINE
8
BLACK
6
CONTINUOUS
10
2.76339
20
-1.80157
11
2.65
21
-1.80157
0
LINE
8
BLACK
6
CONTINUOUS
10
2.60838
20
-1.79685
11
2.60873
21
-1.79688
0
LINE
8
BLACK
6
CONTINUOUS
10
2.60873
20
-1.79688
11
2.60918
21
-1.79702
0
LINE
8
BLACK
6
CONTINUOUS
10
2.60918
20
-1.79702
11
2.60959
21
-1.79724
0
LINE
8
BLACK
6
CONTINUOUS
10
2.60959
20
-1.79724
11
2.60995
21
-1.79753
0
LINE
8
BLACK
6
CONTINUOUS
10
2.60995
20
-1.79753
11
2.61024
21
-1.79789
0
LINE
8
BLACK
6
CONTINUOUS
10
2.61024
20
-1.79789
11
2.61046
21
-1.7983
0
LINE
8
BLACK
6
CONTINUOUS
10
2.61046
20
-1.7983
11
2.6106
21
-1.79875
0
LINE
8
BLACK
6
CONTINUOUS
10
2.6106
20
-1.79875
11
2.61064
21
-1.79921
0
LINE
8
BLACK
6
CONTINUOUS
10
2.61064
20
-1.79921
11
2.61063
21
-1.79933
0
LINE
8
BLACK
6
CONTINUOUS
10
2.61063
20
-1.79933
11
2.61063
21
-1.93295
0
LINE
8
BLACK
6
CONTINUOUS
10
2.61063
20
-1.93295
11
2.61064
21
-1.93307
0
LINE
8
BLACK
6
CONTINUOUS
10
2.61064
20
-1.93307
11
2.6106
21
-1.93353
0
LINE
8
BLACK
6
CONTINUOUS
10
2.6106
20
-1.93353
11
2.61046
21
-1.93398
0
LINE
8
BLACK
6
CONTINUOUS
10
2.61046
20
-1.93398
11
2.61024
21
-1.93439
0
LINE
8
BLACK
6
CONTINUOUS
10
2.61024
20
-1.93439
11
2.60995
21
-1.93475
0
LINE
8
BLACK
6
CONTINUOUS
10
2.60995
20
-1.93475
11
2.60959
21
-1.93504
0
LINE
8
BLACK
6
CONTINUOUS
10
2.60959
20
-1.93504
11
2.60918
21
-1.93526
0
LINE
8
BLACK
6
CONTINUOUS
10
2.60918
20
-1.93526
11
2.60873
21
-1.9354
0
LINE
8
BLACK
6
CONTINUOUS
10
2.60873
20
-1.9354
11
2.60838
21
-1.93543
0
LINE
8
BLACK
6
CONTINUOUS
10
2.60838
20
-1.93543
11
2.60838
21
-1.93543
0
LINE
8
BLACK
6
CONTINUOUS
10
2.60838
20
-1.93543
11
2.60827
21
-1.93544
0
LINE
8
BLACK
6
CONTINUOUS
10
2.60827
20
-1.93544
11
2.60815
21
-1.93543
0
LINE
8
BLACK
6
CONTINUOUS
10
2.60815
20
-1.93543
11
2.49027
21
-1.93543
0
LINE
8
BLACK
6
CONTINUOUS
10
2.49027
20
-1.93543
11
2.49016
21
-1.93544
0
LINE
8
BLACK
6
CONTINUOUS
10
2.49016
20
-1.93544
11
2.49004
21
-1.93543
0
LINE
8
BLACK
6
CONTINUOUS
10
2.49004
20
-1.93543
11
2.49004
21
-1.93543
0
LINE
8
BLACK
6
CONTINUOUS
10
2.49004
20
-1.93543
11
2.48969
21
-1.9354
0
LINE
8
BLACK
6
CONTINUOUS
10
2.48969
20
-1.9354
11
2.48925
21
-1.93526
0
LINE
8
BLACK
6
CONTINUOUS
10
2.48925
20
-1.93526
11
2.48884
21
-1.93504
0
LINE
8
BLACK
6
CONTINUOUS
10
2.48884
20
-1.93504
11
2.48848
21
-1.93475
0
LINE
8
BLACK
6
CONTINUOUS
10
2.48848
20
-1.93475
11
2.48818
21
-1.93439
0
LINE
8
BLACK
6
CONTINUOUS
10
2.48818
20
-1.93439
11
2.48796
21
-1.93398
0
LINE
8
BLACK
6
CONTINUOUS
10
2.48796
20
-1.93398
11
2.48783
21
-1.93353
0
LINE
8
BLACK
6
CONTINUOUS
10
2.48783
20
-1.93353
11
2.48778
21
-1.93307
0
LINE
8
BLACK
6
CONTINUOUS
10
2.48778
20
-1.93307
11
2.4878
21
-1.93295
0
LINE
8
BLACK
6
CONTINUOUS
10
2.4878
20
-1.93295
11
2.4878
21
-1.79933
0
LINE
8
BLACK
6
CONTINUOUS
10
2.4878
20
-1.79933
11
2.48778
21
-1.79921
0
LINE
8
BLACK
6
CONTINUOUS
10
2.48778
20
-1.79921
11
2.48783
21
-1.79875
0
LINE
8
BLACK
6
CONTINUOUS
10
2.48783
20
-1.79875
11
2.48796
21
-1.7983
0
LINE
8
BLACK
6
CONTINUOUS
10
2.48796
20
-1.7983
11
2.48818
21
-1.79789
0
LINE
8
BLACK
6
CONTINUOUS
10
2.48818
20
-1.79789
11
2.48848
21
-1.79753
0
LINE
8
BLACK
6
CONTINUOUS
10
2.48848
20
-1.79753
11
2.48884
21
-1.79724
0
LINE
8
BLACK
6
CONTINUOUS
10
2.48884
20
-1.79724
11
2.48925
21
-1.79702
0
LINE
8
BLACK
6
CONTINUOUS
10
2.48925
20
-1.79702
11
2.48969
21
-1.79688
0
LINE
8
BLACK
6
CONTINUOUS
10
2.48969
20
-1.79688
11
2.49004
21
-1.79685
0
LINE
8
BLACK
6
CONTINUOUS
10
2.49004
20
-1.79685
11
2.49016
21
-1.79684
0
LINE
8
BLACK
6
CONTINUOUS
10
2.49016
20
-1.79684
11
2.49027
21
-1.79685
0
LINE
8
BLACK
6
CONTINUOUS
10
2.49027
20
-1.79685
11
2.60815
21
-1.79685
0
LINE
8
BLACK
6
CONTINUOUS
10
2.60815
20
-1.79685
11
2.60827
21
-1.79684
0
LINE
8
BLACK
6
CONTINUOUS
10
2.60827
20
-1.79684
11
2.60838
21
-1.79685
0
LINE
8
BLACK
6
CONTINUOUS
10
2.49252
20
-1.80157
11
2.49252
21
-1.93071
0
LINE
8
BLACK
6
CONTINUOUS
10
2.49252
20
-1.93071
11
2.60591
21
-1.93071
0
LINE
8
BLACK
6
CONTINUOUS
10
2.60591
20
-1.93071
11
2.60591
21
-1.80157
0
LINE
8
BLACK
6
CONTINUOUS
10
2.60591
20
-1.80157
11
2.49252
21
-1.80157
0
LINE
8
BLACK
6
CONTINUOUS
10
7.25937
20
-1.73622
11
7.25972
21
-1.73625
0
LINE
8
BLACK
6
CONTINUOUS
10
7.25972
20
-1.73625
11
7.26016
21
-1.73639
0
LINE
8
BLACK
6
CONTINUOUS
10
7.26016
20
-1.73639
11
7.26057
21
-1.73661
0
LINE
8
BLACK
6
CONTINUOUS
10
7.26057
20
-1.73661
11
7.26093
21
-1.7369
0
LINE
8
BLACK
6
CONTINUOUS
10
7.26093
20
-1.7369
11
7.26123
21
-1.73726
0
LINE
8
BLACK
6
CONTINUOUS
10
7.26123
20
-1.73726
11
7.26144
21
-1.73767
0
LINE
8
BLACK
6
CONTINUOUS
10
7.26144
20
-1.73767
11
7.26158
21
-1.73812
0
LINE
8
BLACK
6
CONTINUOUS
10
7.26158
20
-1.73812
11
7.26163
21
-1.73858
0
LINE
8
BLACK
6
CONTINUOUS
10
7.26163
20
-1.73858
11
7.26161
21
-1.7387
0
LINE
8
BLACK
6
CONTINUOUS
10
7.26161
20
-1.7387
11
7.26161
21
-1.85658
0
LINE
8
BLACK
6
CONTINUOUS
10
7.26161
20
-1.85658
11
7.26163
21
-1.85669
0
LINE
8
BLACK
6
CONTINUOUS
10
7.26163
20
-1.85669
11
7.26158
21
-1.85716
0
LINE
8
BLACK
6
CONTINUOUS
10
7.26158
20
-1.85716
11
7.26144
21
-1.8576
0
LINE
8
BLACK
6
CONTINUOUS
10
7.26144
20
-1.8576
11
7.26123
21
-1.85801
0
LINE
8
BLACK
6
CONTINUOUS
10
7.26123
20
-1.85801
11
7.26093
21
-1.85837
0
LINE
8
BLACK
6
CONTINUOUS
10
7.26093
20
-1.85837
11
7.26057
21
-1.85867
0
LINE
8
BLACK
6
CONTINUOUS
10
7.26057
20
-1.85867
11
7.26016
21
-1.85889
0
LINE
8
BLACK
6
CONTINUOUS
10
7.26016
20
-1.85889
11
7.25972
21
-1.85902
0
LINE
8
BLACK
6
CONTINUOUS
10
7.25972
20
-1.85902
11
7.25937
21
-1.85906
0
LINE
8
BLACK
6
CONTINUOUS
10
7.25937
20
-1.85906
11
7.25937
21
-1.85906
0
LINE
8
BLACK
6
CONTINUOUS
10
7.25937
20
-1.85906
11
7.25925
21
-1.85907
0
LINE
8
BLACK
6
CONTINUOUS
10
7.25925
20
-1.85907
11
7.25914
21
-1.85906
0
LINE
8
BLACK
6
CONTINUOUS
10
7.25914
20
-1.85906
11
7.12551
21
-1.85906
0
LINE
8
BLACK
6
CONTINUOUS
10
7.12551
20
-1.85906
11
7.12539
21
-1.85907
0
LINE
8
BLACK
6
CONTINUOUS
10
7.12539
20
-1.85907
11
7.12528
21
-1.85906
0
LINE
8
BLACK
6
CONTINUOUS
10
7.12528
20
-1.85906
11
7.12528
21
-1.85906
0
LINE
8
BLACK
6
CONTINUOUS
10
7.12528
20
-1.85906
11
7.12493
21
-1.85902
0
LINE
8
BLACK
6
CONTINUOUS
10
7.12493
20
-1.85902
11
7.12449
21
-1.85889
0
LINE
8
BLACK
6
CONTINUOUS
10
7.12449
20
-1.85889
11
7.12407
21
-1.85867
0
LINE
8
BLACK
6
CONTINUOUS
10
7.12407
20
-1.85867
11
7.12372
21
-1.85837
0
LINE
8
BLACK
6
CONTINUOUS
10
7.12372
20
-1.85837
11
7.12342
21
-1.85801
0
LINE
8
BLACK
6
CONTINUOUS
10
7.12342
20
-1.85801
11
7.1232
21
-1.8576
0
LINE
8
BLACK
6
CONTINUOUS
10
7.1232
20
-1.8576
11
7.12307
21
-1.85716
0
LINE
8
BLACK
6
CONTINUOUS
10
7.12307
20
-1.85716
11
7.12302
21
-1.85669
0
LINE
8
BLACK
6
CONTINUOUS
10
7.12302
20
-1.85669
11
7.12303
21
-1.85658
0
LINE
8
BLACK
6
CONTINUOUS
10
7.12303
20
-1.85658
11
7.12303
21
-1.7387
0
LINE
8
BLACK
6
CONTINUOUS
10
7.12303
20
-1.7387
11
7.12302
21
-1.73858
0
LINE
8
BLACK
6
CONTINUOUS
10
7.12302
20
-1.73858
11
7.12307
21
-1.73812
0
LINE
8
BLACK
6
CONTINUOUS
10
7.12307
20
-1.73812
11
7.1232
21
-1.73767
0
LINE
8
BLACK
6
CONTINUOUS
10
7.1232
20
-1.73767
11
7.12342
21
-1.73726
0
LINE
8
BLACK
6
CONTINUOUS
10
7.12342
20
-1.73726
11
7.12372
21
-1.7369
0
LINE
8
BLACK
6
CONTINUOUS
10
7.12372
20
-1.7369
11
7.12407
21
-1.73661
0
LINE
8
BLACK
6
CONTINUOUS
10
7.12407
20
-1.73661
11
7.12449
21
-1.73639
0
LINE
8
BLACK
6
CONTINUOUS
10
7.12449
20
-1.73639
11
7.12493
21
-1.73625
0
LINE
8
BLACK
6
CONTINUOUS
10
7.12493
20
-1.73625
11
7.12528
21
-1.73622
0
LINE
8
BLACK
6
CONTINUOUS
10
7.12528
20
-1.73622
11
7.12539
21
-1.73621
0
LINE
8
BLACK
6
CONTINUOUS
10
7.12539
20
-1.73621
11
7.12551
21
-1.73622
0
LINE
8
BLACK
6
CONTINUOUS
10
7.12551
20
-1.73622
11
7.25914
21
-1.73622
0
LINE
8
BLACK
6
CONTINUOUS
10
7.25914
20
-1.73622
11
7.25925
21
-1.73621
0
LINE
8
BLACK
6
CONTINUOUS
10
7.25925
20
-1.73621
11
7.25937
21
-1.73622
0
LINE
8
BLACK
6
CONTINUOUS
10
7.12776
20
-1.74094
11
7.12776
21
-1.85433
0
LINE
8
BLACK
6
CONTINUOUS
10
7.12776
20
-1.85433
11
7.25689
21
-1.85433
0
LINE
8
BLACK
6
CONTINUOUS
10
7.25689
20
-1.85433
11
7.25689
21
-1.74094
0
LINE
8
BLACK
6
CONTINUOUS
10
7.25689
20
-1.74094
11
7.12776
21
-1.74094
0
LINE
8
BLACK
6
CONTINUOUS
10
8.39323
20
-1.73228
11
8.39357
21
-1.73232
0
LINE
8
BLACK
6
CONTINUOUS
10
8.39357
20
-1.73232
11
8.39402
21
-1.73245
0
LINE
8
BLACK
6
CONTINUOUS
10
8.39402
20
-1.73245
11
8.39443
21
-1.73267
0
LINE
8
BLACK
6
CONTINUOUS
10
8.39443
20
-1.73267
11
8.39479
21
-1.73297
0
LINE
8
BLACK
6
CONTINUOUS
10
8.39479
20
-1.73297
11
8.39508
21
-1.73333
0
LINE
8
BLACK
6
CONTINUOUS
10
8.39508
20
-1.73333
11
8.3953
21
-1.73374
0
LINE
8
BLACK
6
CONTINUOUS
10
8.3953
20
-1.73374
11
8.39544
21
-1.73418
0
LINE
8
BLACK
6
CONTINUOUS
10
8.39544
20
-1.73418
11
8.39548
21
-1.73465
0
LINE
8
BLACK
6
CONTINUOUS
10
8.39548
20
-1.73465
11
8.39547
21
-1.73476
0
LINE
8
BLACK
6
CONTINUOUS
10
8.39547
20
-1.73476
11
8.39547
21
-1.85264
0
LINE
8
BLACK
6
CONTINUOUS
10
8.39547
20
-1.85264
11
8.39548
21
-1.85276
0
LINE
8
BLACK
6
CONTINUOUS
10
8.39548
20
-1.85276
11
8.39544
21
-1.85322
0
LINE
8
BLACK
6
CONTINUOUS
10
8.39544
20
-1.85322
11
8.3953
21
-1.85366
0
LINE
8
BLACK
6
CONTINUOUS
10
8.3953
20
-1.85366
11
8.39508
21
-1.85407
0
LINE
8
BLACK
6
CONTINUOUS
10
8.39508
20
-1.85407
11
8.39479
21
-1.85443
0
LINE
8
BLACK
6
CONTINUOUS
10
8.39479
20
-1.85443
11
8.39443
21
-1.85473
0
LINE
8
BLACK
6
CONTINUOUS
10
8.39443
20
-1.85473
11
8.39402
21
-1.85495
0
LINE
8
BLACK
6
CONTINUOUS
10
8.39402
20
-1.85495
11
8.39357
21
-1.85508
0
LINE
8
BLACK
6
CONTINUOUS
10
8.39357
20
-1.85508
11
8.39323
21
-1.85512
0
LINE
8
BLACK
6
CONTINUOUS
10
8.39323
20
-1.85512
11
8.39323
21
-1.85512
0
LINE
8
BLACK
6
CONTINUOUS
10
8.39323
20
-1.85512
11
8.39311
21
-1.85513
0
LINE
8
BLACK
6
CONTINUOUS
10
8.39311
20
-1.85513
11
8.39299
21
-1.85512
0
LINE
8
BLACK
6
CONTINUOUS
10
8.39299
20
-1.85512
11
8.25937
21
-1.85512
0
LINE
8
BLACK
6
CONTINUOUS
10
8.25937
20
-1.85512
11
8.25925
21
-1.85513
0
LINE
8
BLACK
6
CONTINUOUS
10
8.25925
20
-1.85513
11
8.25914
21
-1.85512
0
LINE
8
BLACK
6
CONTINUOUS
10
8.25914
20
-1.85512
11
8.25914
21
-1.85512
0
LINE
8
BLACK
6
CONTINUOUS
10
8.25914
20
-1.85512
11
8.25879
21
-1.85508
0
LINE
8
BLACK
6
CONTINUOUS
10
8.25879
20
-1.85508
11
8.25834
21
-1.85495
0
LINE
8
BLACK
6
CONTINUOUS
10
8.25834
20
-1.85495
11
8.25793
21
-1.85473
0
LINE
8
BLACK
6
CONTINUOUS
10
8.25793
20
-1.85473
11
8.25757
21
-1.85443
0
LINE
8
BLACK
6
CONTINUOUS
10
8.25757
20
-1.85443
11
8.25728
21
-1.85407
0
LINE
8
BLACK
6
CONTINUOUS
10
8.25728
20
-1.85407
11
8.25706
21
-1.85366
0
LINE
8
BLACK
6
CONTINUOUS
10
8.25706
20
-1.85366
11
8.25692
21
-1.85322
0
LINE
8
BLACK
6
CONTINUOUS
10
8.25692
20
-1.85322
11
8.25688
21
-1.85276
0
LINE
8
BLACK
6
CONTINUOUS
10
8.25688
20
-1.85276
11
8.25689
21
-1.85264
0
LINE
8
BLACK
6
CONTINUOUS
10
8.25689
20
-1.85264
11
8.25689
21
-1.73476
0
LINE
8
BLACK
6
CONTINUOUS
10
8.25689
20
-1.73476
11
8.25688
21
-1.73465
0
LINE
8
BLACK
6
CONTINUOUS
10
8.25688
20
-1.73465
11
8.25692
21
-1.73418
0
LINE
8
BLACK
6
CONTINUOUS
10
8.25692
20
-1.73418
11
8.25706
21
-1.73374
0
LINE
8
BLACK
6
CONTINUOUS
10
8.25706
20
-1.73374
11
8.25728
21
-1.73333
0
LINE
8
BLACK
6
CONTINUOUS
10
8.25728
20
-1.73333
11
8.25757
21
-1.73297
0
LINE
8
BLACK
6
CONTINUOUS
10
8.25757
20
-1.73297
11
8.25793
21
-1.73267
0
LINE
8
BLACK
6
CONTINUOUS
10
8.25793
20
-1.73267
11
8.25834
21
-1.73245
0
LINE
8
BLACK
6
CONTINUOUS
10
8.25834
20
-1.73245
11
8.25879
21
-1.73232
0
LINE
8
BLACK
6
CONTINUOUS
10
8.25879
20
-1.73232
11
8.25914
21
-1.73228
0
LINE
8
BLACK
6
CONTINUOUS
10
8.25914
20
-1.73228
11
8.25925
21
-1.73227
0
LINE
8
BLACK
6
CONTINUOUS
10
8.25925
20
-1.73227
11
8.25937
21
-1.73228
0
LINE
8
BLACK
6
CONTINUOUS
10
8.25937
20
-1.73228
11
8.39299
21
-1.73228
0
LINE
8
BLACK
6
CONTINUOUS
10
8.39299
20
-1.73228
11
8.39311
21
-1.73227
0
LINE
8
BLACK
6
CONTINUOUS
10
8.39311
20
-1.73227
11
8.39323
21
-1.73228
0
LINE
8
BLACK
6
CONTINUOUS
10
8.26161
20
-1.73701
11
8.26161
21
-1.85039
0
LINE
8
BLACK
6
CONTINUOUS
10
8.26161
20
-1.85039
11
8.39075
21
-1.85039
0
LINE
8
BLACK
6
CONTINUOUS
10
8.39075
20
-1.85039
11
8.39075
21
-1.73701
0
LINE
8
BLACK
6
CONTINUOUS
10
8.39075
20
-1.73701
11
8.26161
21
-1.73701
  0
ENDSEC
  0
EOF
