G04 #@! TF.GenerationSoftware,KiCad,Pcbnew,(5.1.9)-1*
G04 #@! TF.CreationDate,2021-09-13T12:17:35-05:00*
G04 #@! TF.ProjectId,OSFRD,4f534652-442e-46b6-9963-61645f706362,rev?*
G04 #@! TF.SameCoordinates,Original*
G04 #@! TF.FileFunction,Legend,Bot*
G04 #@! TF.FilePolarity,Positive*
%FSLAX46Y46*%
G04 Gerber Fmt 4.6, Leading zero omitted, Abs format (unit mm)*
G04 Created by KiCad (PCBNEW (5.1.9)-1) date 2021-09-13 12:17:35*
%MOMM*%
%LPD*%
G01*
G04 APERTURE LIST*
%ADD10C,0.120000*%
%ADD11C,0.100000*%
%ADD12C,0.150000*%
%ADD13C,0.300000*%
%ADD14R,1.000000X3.000000*%
%ADD15O,1.700000X1.700000*%
%ADD16R,3.500000X1.700000*%
%ADD17R,1.700000X1.700000*%
%ADD18O,1.500000X1.500000*%
%ADD19O,1.800000X1.800000*%
%ADD20R,1.700000X3.500000*%
%ADD21R,0.820000X1.700000*%
%ADD22C,2.100000*%
%ADD23C,1.750000*%
%ADD24R,2.550000X2.500000*%
%ADD25C,1.701800*%
%ADD26C,3.987800*%
%ADD27C,3.000000*%
%ADD28R,1.700000X0.820000*%
%ADD29C,6.200000*%
G04 APERTURE END LIST*
D10*
X227880000Y-89590000D02*
X227880000Y-88230000D01*
X203500000Y-94790000D02*
X202930000Y-94790000D01*
X206040000Y-94790000D02*
X205020000Y-94790000D01*
X208580000Y-94790000D02*
X207560000Y-94790000D01*
X211120000Y-94790000D02*
X210100000Y-94790000D01*
X213660000Y-94790000D02*
X212640000Y-94790000D01*
X216200000Y-94790000D02*
X215180000Y-94790000D01*
X218740000Y-94790000D02*
X217720000Y-94790000D01*
X221280000Y-94790000D02*
X220260000Y-94790000D01*
X223820000Y-94790000D02*
X222800000Y-94790000D01*
X226360000Y-94790000D02*
X225340000Y-94790000D01*
X228450000Y-94790000D02*
X227880000Y-94790000D01*
X202930000Y-94790000D02*
X202930000Y-89590000D01*
X203500000Y-89590000D02*
X202930000Y-89590000D01*
X206040000Y-89590000D02*
X205020000Y-89590000D01*
X208580000Y-89590000D02*
X207560000Y-89590000D01*
X211120000Y-89590000D02*
X210100000Y-89590000D01*
X213660000Y-89590000D02*
X212640000Y-89590000D01*
X216200000Y-89590000D02*
X215180000Y-89590000D01*
X218740000Y-89590000D02*
X217720000Y-89590000D01*
X221280000Y-89590000D02*
X220260000Y-89590000D01*
X223820000Y-89590000D02*
X222800000Y-89590000D01*
X226360000Y-89590000D02*
X225340000Y-89590000D01*
X228450000Y-89590000D02*
X227880000Y-89590000D01*
X228450000Y-94790000D02*
X228450000Y-89590000D01*
X54540000Y-89470000D02*
X54540000Y-110470000D01*
X105540000Y-96270000D02*
X105540000Y-89470000D01*
X57207000Y-89470000D02*
X57207000Y-92477000D01*
X57207000Y-92477000D02*
X54540000Y-92477000D01*
X54540000Y-89470000D02*
X54840000Y-89470000D01*
X56940000Y-89470000D02*
X57340000Y-89470000D01*
X59540000Y-89470000D02*
X59940000Y-89470000D01*
X62040000Y-89470000D02*
X62440000Y-89470000D01*
X64640000Y-89470000D02*
X65040000Y-89470000D01*
X67140000Y-89470000D02*
X67540000Y-89470000D01*
X69640000Y-89470000D02*
X70040000Y-89470000D01*
X72240000Y-89470000D02*
X72640000Y-89470000D01*
X74740000Y-89470000D02*
X75140000Y-89470000D01*
X77340000Y-89470000D02*
X77740000Y-89470000D01*
X79840000Y-89470000D02*
X80240000Y-89470000D01*
X82340000Y-89470000D02*
X82740000Y-89470000D01*
X84940000Y-89470000D02*
X85340000Y-89470000D01*
X87440000Y-89470000D02*
X87840000Y-89470000D01*
X90040000Y-89470000D02*
X90440000Y-89470000D01*
X92540000Y-89470000D02*
X92940000Y-89470000D01*
X95140000Y-89470000D02*
X95540000Y-89470000D01*
X97640000Y-89470000D02*
X98040000Y-89470000D01*
X100140000Y-89470000D02*
X100540000Y-89470000D01*
X102740000Y-89470000D02*
X103140000Y-89470000D01*
X69640000Y-110470000D02*
X70040000Y-110470000D01*
X74740000Y-110470000D02*
X75140000Y-110470000D01*
X82340000Y-110470000D02*
X82740000Y-110470000D01*
X90040000Y-110470000D02*
X90440000Y-110470000D01*
X59540000Y-110470000D02*
X59940000Y-110470000D01*
X56940000Y-110470000D02*
X57340000Y-110470000D01*
X64640000Y-110470000D02*
X65040000Y-110470000D01*
X97640000Y-110470000D02*
X98040000Y-110470000D01*
X102740000Y-110470000D02*
X103140000Y-110470000D01*
X100140000Y-110470000D02*
X100540000Y-110470000D01*
X84940000Y-110470000D02*
X85340000Y-110470000D01*
X79840000Y-110470000D02*
X80240000Y-110470000D01*
X67140000Y-110470000D02*
X67540000Y-110470000D01*
X72240000Y-110470000D02*
X72640000Y-110470000D01*
X92540000Y-110470000D02*
X92940000Y-110470000D01*
X77340000Y-110470000D02*
X77740000Y-110470000D01*
X54540000Y-110470000D02*
X54840000Y-110470000D01*
X62040000Y-110470000D02*
X62440000Y-110470000D01*
X87440000Y-110470000D02*
X87840000Y-110470000D01*
X95140000Y-110470000D02*
X95540000Y-110470000D01*
X105540000Y-110470000D02*
X105540000Y-103670000D01*
X105540000Y-98470000D02*
X105540000Y-98870000D01*
X105540000Y-101070000D02*
X105540000Y-101470000D01*
X73261252Y-53585000D02*
X72738748Y-53585000D01*
X73261252Y-52115000D02*
X72738748Y-52115000D01*
X69311252Y-53585000D02*
X68788748Y-53585000D01*
X69311252Y-52115000D02*
X68788748Y-52115000D01*
X65286252Y-53585000D02*
X64763748Y-53585000D01*
X65286252Y-52115000D02*
X64763748Y-52115000D01*
X61311252Y-53585000D02*
X60788748Y-53585000D01*
X61311252Y-52115000D02*
X60788748Y-52115000D01*
X236020000Y-83698748D02*
X236020000Y-84221252D01*
X234550000Y-83698748D02*
X234550000Y-84221252D01*
X207220000Y-76598748D02*
X207220000Y-77121252D01*
X205750000Y-76598748D02*
X205750000Y-77121252D01*
X178420000Y-76598748D02*
X178420000Y-77121252D01*
X176950000Y-76598748D02*
X176950000Y-77121252D01*
X154020000Y-92598748D02*
X154020000Y-93121252D01*
X152550000Y-92598748D02*
X152550000Y-93121252D01*
X235470000Y-52498748D02*
X235470000Y-53021252D01*
X234000000Y-52498748D02*
X234000000Y-53021252D01*
X207220000Y-45298748D02*
X207220000Y-45821252D01*
X205750000Y-45298748D02*
X205750000Y-45821252D01*
X178420000Y-45398748D02*
X178420000Y-45921252D01*
X176950000Y-45398748D02*
X176950000Y-45921252D01*
X154020000Y-61398748D02*
X154020000Y-61921252D01*
X152550000Y-61398748D02*
X152550000Y-61921252D01*
X119325000Y-78598748D02*
X119325000Y-79121252D01*
X117855000Y-78598748D02*
X117855000Y-79121252D01*
X62455000Y-71398748D02*
X62455000Y-71921252D01*
X60985000Y-71398748D02*
X60985000Y-71921252D01*
X91090000Y-71398748D02*
X91090000Y-71921252D01*
X89620000Y-71398748D02*
X89620000Y-71921252D01*
X128125000Y-126628748D02*
X128125000Y-127151252D01*
X126655000Y-126628748D02*
X126655000Y-127151252D01*
D11*
G36*
X71350000Y-50200000D02*
G01*
X71350000Y-49600000D01*
X70750000Y-49600000D01*
X71350000Y-50200000D01*
G37*
X71350000Y-50200000D02*
X71350000Y-49600000D01*
X70750000Y-49600000D01*
X71350000Y-50200000D01*
G36*
X67350000Y-50200000D02*
G01*
X67350000Y-49600000D01*
X66750000Y-49600000D01*
X67350000Y-50200000D01*
G37*
X67350000Y-50200000D02*
X67350000Y-49600000D01*
X66750000Y-49600000D01*
X67350000Y-50200000D01*
G36*
X63350000Y-50200000D02*
G01*
X63350000Y-49600000D01*
X62750000Y-49600000D01*
X63350000Y-50200000D01*
G37*
X63350000Y-50200000D02*
X63350000Y-49600000D01*
X62750000Y-49600000D01*
X63350000Y-50200000D01*
G36*
X59350000Y-50200000D02*
G01*
X59350000Y-49600000D01*
X58750000Y-49600000D01*
X59350000Y-50200000D01*
G37*
X59350000Y-50200000D02*
X59350000Y-49600000D01*
X58750000Y-49600000D01*
X59350000Y-50200000D01*
D10*
X88965000Y-48070000D02*
X88965000Y-51950000D01*
X84495000Y-53120000D02*
X84495000Y-52070000D01*
X86995000Y-53120000D02*
X84495000Y-53120000D01*
X84495000Y-47950000D02*
X83505000Y-47950000D01*
X84495000Y-46900000D02*
X84495000Y-47950000D01*
X86995000Y-46900000D02*
X84495000Y-46900000D01*
D12*
X163365000Y-81375000D02*
X163365000Y-81756000D01*
X154475000Y-81375000D02*
X163365000Y-81375000D01*
X151935000Y-83915000D02*
X151935000Y-84296000D01*
X152316000Y-87725000D02*
X151935000Y-87725000D01*
X155820838Y-87725000D02*
X154094000Y-87725000D01*
X163365000Y-85820000D02*
X158285000Y-85820000D01*
X163365000Y-84804000D02*
X163365000Y-85820000D01*
X151935000Y-87344000D02*
X151935000Y-87725000D01*
X155820838Y-87743960D02*
G75*
G02*
X158285000Y-85820000I2464162J-616040D01*
G01*
X151935000Y-83915000D02*
G75*
G02*
X154475000Y-81375000I2540000J0D01*
G01*
D11*
G36*
X243085000Y-85360000D02*
G01*
X242485000Y-85360000D01*
X242485000Y-85960000D01*
X243085000Y-85360000D01*
G37*
X243085000Y-85360000D02*
X242485000Y-85360000D01*
X242485000Y-85960000D01*
X243085000Y-85360000D01*
G36*
X214285000Y-78260000D02*
G01*
X213685000Y-78260000D01*
X213685000Y-78860000D01*
X214285000Y-78260000D01*
G37*
X214285000Y-78260000D02*
X213685000Y-78260000D01*
X213685000Y-78860000D01*
X214285000Y-78260000D01*
G36*
X185485000Y-78260000D02*
G01*
X184885000Y-78260000D01*
X184885000Y-78860000D01*
X185485000Y-78260000D01*
G37*
X185485000Y-78260000D02*
X184885000Y-78260000D01*
X184885000Y-78860000D01*
X185485000Y-78260000D01*
G36*
X161085000Y-94260000D02*
G01*
X160485000Y-94260000D01*
X160485000Y-94860000D01*
X161085000Y-94260000D01*
G37*
X161085000Y-94260000D02*
X160485000Y-94260000D01*
X160485000Y-94860000D01*
X161085000Y-94260000D01*
G36*
X242535000Y-54160000D02*
G01*
X241935000Y-54160000D01*
X241935000Y-54760000D01*
X242535000Y-54160000D01*
G37*
X242535000Y-54160000D02*
X241935000Y-54160000D01*
X241935000Y-54760000D01*
X242535000Y-54160000D01*
G36*
X214285000Y-46960000D02*
G01*
X213685000Y-46960000D01*
X213685000Y-47560000D01*
X214285000Y-46960000D01*
G37*
X214285000Y-46960000D02*
X213685000Y-46960000D01*
X213685000Y-47560000D01*
X214285000Y-46960000D01*
G36*
X185485000Y-47060000D02*
G01*
X184885000Y-47060000D01*
X184885000Y-47660000D01*
X185485000Y-47060000D01*
G37*
X185485000Y-47060000D02*
X184885000Y-47060000D01*
X184885000Y-47660000D01*
X185485000Y-47060000D01*
G36*
X161085000Y-63060000D02*
G01*
X160485000Y-63060000D01*
X160485000Y-63660000D01*
X161085000Y-63060000D01*
G37*
X161085000Y-63060000D02*
X160485000Y-63060000D01*
X160485000Y-63660000D01*
X161085000Y-63060000D01*
D12*
X245365000Y-72475000D02*
X245365000Y-72856000D01*
X236475000Y-72475000D02*
X245365000Y-72475000D01*
X233935000Y-75015000D02*
X233935000Y-75396000D01*
X234316000Y-78825000D02*
X233935000Y-78825000D01*
X237820838Y-78825000D02*
X236094000Y-78825000D01*
X245365000Y-76920000D02*
X240285000Y-76920000D01*
X245365000Y-75904000D02*
X245365000Y-76920000D01*
X233935000Y-78444000D02*
X233935000Y-78825000D01*
X237820838Y-78843960D02*
G75*
G02*
X240285000Y-76920000I2464162J-616040D01*
G01*
X233935000Y-75015000D02*
G75*
G02*
X236475000Y-72475000I2540000J0D01*
G01*
X216565000Y-65375000D02*
X216565000Y-65756000D01*
X207675000Y-65375000D02*
X216565000Y-65375000D01*
X205135000Y-67915000D02*
X205135000Y-68296000D01*
X205516000Y-71725000D02*
X205135000Y-71725000D01*
X209020838Y-71725000D02*
X207294000Y-71725000D01*
X216565000Y-69820000D02*
X211485000Y-69820000D01*
X216565000Y-68804000D02*
X216565000Y-69820000D01*
X205135000Y-71344000D02*
X205135000Y-71725000D01*
X209020838Y-71743960D02*
G75*
G02*
X211485000Y-69820000I2464162J-616040D01*
G01*
X205135000Y-67915000D02*
G75*
G02*
X207675000Y-65375000I2540000J0D01*
G01*
X187765000Y-65375000D02*
X187765000Y-65756000D01*
X178875000Y-65375000D02*
X187765000Y-65375000D01*
X176335000Y-67915000D02*
X176335000Y-68296000D01*
X176716000Y-71725000D02*
X176335000Y-71725000D01*
X180220838Y-71725000D02*
X178494000Y-71725000D01*
X187765000Y-69820000D02*
X182685000Y-69820000D01*
X187765000Y-68804000D02*
X187765000Y-69820000D01*
X176335000Y-71344000D02*
X176335000Y-71725000D01*
X180220838Y-71743960D02*
G75*
G02*
X182685000Y-69820000I2464162J-616040D01*
G01*
X176335000Y-67915000D02*
G75*
G02*
X178875000Y-65375000I2540000J0D01*
G01*
X244965000Y-41275000D02*
X244965000Y-41656000D01*
X236075000Y-41275000D02*
X244965000Y-41275000D01*
X233535000Y-43815000D02*
X233535000Y-44196000D01*
X233916000Y-47625000D02*
X233535000Y-47625000D01*
X237420838Y-47625000D02*
X235694000Y-47625000D01*
X244965000Y-45720000D02*
X239885000Y-45720000D01*
X244965000Y-44704000D02*
X244965000Y-45720000D01*
X233535000Y-47244000D02*
X233535000Y-47625000D01*
X237420838Y-47643960D02*
G75*
G02*
X239885000Y-45720000I2464162J-616040D01*
G01*
X233535000Y-43815000D02*
G75*
G02*
X236075000Y-41275000I2540000J0D01*
G01*
X216565000Y-34075000D02*
X216565000Y-34456000D01*
X207675000Y-34075000D02*
X216565000Y-34075000D01*
X205135000Y-36615000D02*
X205135000Y-36996000D01*
X205516000Y-40425000D02*
X205135000Y-40425000D01*
X209020838Y-40425000D02*
X207294000Y-40425000D01*
X216565000Y-38520000D02*
X211485000Y-38520000D01*
X216565000Y-37504000D02*
X216565000Y-38520000D01*
X205135000Y-40044000D02*
X205135000Y-40425000D01*
X209020838Y-40443960D02*
G75*
G02*
X211485000Y-38520000I2464162J-616040D01*
G01*
X205135000Y-36615000D02*
G75*
G02*
X207675000Y-34075000I2540000J0D01*
G01*
X187765000Y-34175000D02*
X187765000Y-34556000D01*
X178875000Y-34175000D02*
X187765000Y-34175000D01*
X176335000Y-36715000D02*
X176335000Y-37096000D01*
X176716000Y-40525000D02*
X176335000Y-40525000D01*
X180220838Y-40525000D02*
X178494000Y-40525000D01*
X187765000Y-38620000D02*
X182685000Y-38620000D01*
X187765000Y-37604000D02*
X187765000Y-38620000D01*
X176335000Y-40144000D02*
X176335000Y-40525000D01*
X180220838Y-40543960D02*
G75*
G02*
X182685000Y-38620000I2464162J-616040D01*
G01*
X176335000Y-36715000D02*
G75*
G02*
X178875000Y-34175000I2540000J0D01*
G01*
X163365000Y-50175000D02*
X163365000Y-50556000D01*
X154475000Y-50175000D02*
X163365000Y-50175000D01*
X151935000Y-52715000D02*
X151935000Y-53096000D01*
X152316000Y-56525000D02*
X151935000Y-56525000D01*
X155820838Y-56525000D02*
X154094000Y-56525000D01*
X163365000Y-54620000D02*
X158285000Y-54620000D01*
X163365000Y-53604000D02*
X163365000Y-54620000D01*
X151935000Y-56144000D02*
X151935000Y-56525000D01*
X155820838Y-56543960D02*
G75*
G02*
X158285000Y-54620000I2464162J-616040D01*
G01*
X151935000Y-52715000D02*
G75*
G02*
X154475000Y-50175000I2540000J0D01*
G01*
D11*
G36*
X126390000Y-80260000D02*
G01*
X125790000Y-80260000D01*
X125790000Y-80860000D01*
X126390000Y-80260000D01*
G37*
X126390000Y-80260000D02*
X125790000Y-80260000D01*
X125790000Y-80860000D01*
X126390000Y-80260000D01*
G36*
X69520000Y-73060000D02*
G01*
X68920000Y-73060000D01*
X68920000Y-73660000D01*
X69520000Y-73060000D01*
G37*
X69520000Y-73060000D02*
X68920000Y-73060000D01*
X68920000Y-73660000D01*
X69520000Y-73060000D01*
G36*
X98155000Y-73060000D02*
G01*
X97555000Y-73060000D01*
X97555000Y-73660000D01*
X98155000Y-73060000D01*
G37*
X98155000Y-73060000D02*
X97555000Y-73060000D01*
X97555000Y-73660000D01*
X98155000Y-73060000D01*
G36*
X135190000Y-128290000D02*
G01*
X134590000Y-128290000D01*
X134590000Y-128890000D01*
X135190000Y-128290000D01*
G37*
X135190000Y-128290000D02*
X134590000Y-128290000D01*
X134590000Y-128890000D01*
X135190000Y-128290000D01*
D12*
X100435000Y-60175000D02*
X100435000Y-60556000D01*
X91545000Y-60175000D02*
X100435000Y-60175000D01*
X89005000Y-62715000D02*
X89005000Y-63096000D01*
X89386000Y-66525000D02*
X89005000Y-66525000D01*
X92890838Y-66525000D02*
X91164000Y-66525000D01*
X100435000Y-64620000D02*
X95355000Y-64620000D01*
X100435000Y-63604000D02*
X100435000Y-64620000D01*
X89005000Y-66144000D02*
X89005000Y-66525000D01*
X92890838Y-66543960D02*
G75*
G02*
X95355000Y-64620000I2464162J-616040D01*
G01*
X89005000Y-62715000D02*
G75*
G02*
X91545000Y-60175000I2540000J0D01*
G01*
X137470000Y-115405000D02*
X137470000Y-115786000D01*
X128580000Y-115405000D02*
X137470000Y-115405000D01*
X126040000Y-117945000D02*
X126040000Y-118326000D01*
X126421000Y-121755000D02*
X126040000Y-121755000D01*
X129925838Y-121755000D02*
X128199000Y-121755000D01*
X137470000Y-119850000D02*
X132390000Y-119850000D01*
X137470000Y-118834000D02*
X137470000Y-119850000D01*
X126040000Y-121374000D02*
X126040000Y-121755000D01*
X129925838Y-121773960D02*
G75*
G02*
X132390000Y-119850000I2464162J-616040D01*
G01*
X126040000Y-117945000D02*
G75*
G02*
X128580000Y-115405000I2540000J0D01*
G01*
X128670000Y-67375000D02*
X128670000Y-67756000D01*
X119780000Y-67375000D02*
X128670000Y-67375000D01*
X117240000Y-69915000D02*
X117240000Y-70296000D01*
X117621000Y-73725000D02*
X117240000Y-73725000D01*
X121125838Y-73725000D02*
X119399000Y-73725000D01*
X128670000Y-71820000D02*
X123590000Y-71820000D01*
X128670000Y-70804000D02*
X128670000Y-71820000D01*
X117240000Y-73344000D02*
X117240000Y-73725000D01*
X121125838Y-73743960D02*
G75*
G02*
X123590000Y-71820000I2464162J-616040D01*
G01*
X117240000Y-69915000D02*
G75*
G02*
X119780000Y-67375000I2540000J0D01*
G01*
X71800000Y-60175000D02*
X71800000Y-60556000D01*
X62910000Y-60175000D02*
X71800000Y-60175000D01*
X60370000Y-62715000D02*
X60370000Y-63096000D01*
X60751000Y-66525000D02*
X60370000Y-66525000D01*
X64255838Y-66525000D02*
X62529000Y-66525000D01*
X71800000Y-64620000D02*
X66720000Y-64620000D01*
X71800000Y-63604000D02*
X71800000Y-64620000D01*
X60370000Y-66144000D02*
X60370000Y-66525000D01*
X64255838Y-66543960D02*
G75*
G02*
X66720000Y-64620000I2464162J-616040D01*
G01*
X60370000Y-62715000D02*
G75*
G02*
X62910000Y-60175000I2540000J0D01*
G01*
X229818571Y-90213809D02*
X229866190Y-90356666D01*
X229913809Y-90404285D01*
X230009047Y-90451904D01*
X230151904Y-90451904D01*
X230247142Y-90404285D01*
X230294761Y-90356666D01*
X230342380Y-90261428D01*
X230342380Y-89880476D01*
X229342380Y-89880476D01*
X229342380Y-90213809D01*
X229390000Y-90309047D01*
X229437619Y-90356666D01*
X229532857Y-90404285D01*
X229628095Y-90404285D01*
X229723333Y-90356666D01*
X229770952Y-90309047D01*
X229818571Y-90213809D01*
X229818571Y-89880476D01*
X230342380Y-91451904D02*
X229866190Y-91118571D01*
X230342380Y-90880476D02*
X229342380Y-90880476D01*
X229342380Y-91261428D01*
X229390000Y-91356666D01*
X229437619Y-91404285D01*
X229532857Y-91451904D01*
X229675714Y-91451904D01*
X229770952Y-91404285D01*
X229818571Y-91356666D01*
X229866190Y-91261428D01*
X229866190Y-90880476D01*
X229342380Y-92070952D02*
X229342380Y-92261428D01*
X229390000Y-92356666D01*
X229485238Y-92451904D01*
X229675714Y-92499523D01*
X230009047Y-92499523D01*
X230199523Y-92451904D01*
X230294761Y-92356666D01*
X230342380Y-92261428D01*
X230342380Y-92070952D01*
X230294761Y-91975714D01*
X230199523Y-91880476D01*
X230009047Y-91832857D01*
X229675714Y-91832857D01*
X229485238Y-91880476D01*
X229390000Y-91975714D01*
X229342380Y-92070952D01*
X229342380Y-93118571D02*
X229342380Y-93309047D01*
X229390000Y-93404285D01*
X229485238Y-93499523D01*
X229675714Y-93547142D01*
X230009047Y-93547142D01*
X230199523Y-93499523D01*
X230294761Y-93404285D01*
X230342380Y-93309047D01*
X230342380Y-93118571D01*
X230294761Y-93023333D01*
X230199523Y-92928095D01*
X230009047Y-92880476D01*
X229675714Y-92880476D01*
X229485238Y-92928095D01*
X229390000Y-93023333D01*
X229342380Y-93118571D01*
X230342380Y-93975714D02*
X229342380Y-93975714D01*
X230342380Y-94547142D02*
X229770952Y-94118571D01*
X229342380Y-94547142D02*
X229913809Y-93975714D01*
X79492380Y-99208095D02*
X80301904Y-99208095D01*
X80397142Y-99255714D01*
X80444761Y-99303333D01*
X80492380Y-99398571D01*
X80492380Y-99589047D01*
X80444761Y-99684285D01*
X80397142Y-99731904D01*
X80301904Y-99779523D01*
X79492380Y-99779523D01*
X80492380Y-100779523D02*
X80492380Y-100208095D01*
X80492380Y-100493809D02*
X79492380Y-100493809D01*
X79635238Y-100398571D01*
X79730476Y-100303333D01*
X79778095Y-100208095D01*
X106563809Y-103874761D02*
X106601904Y-103989047D01*
X106601904Y-104179523D01*
X106563809Y-104255714D01*
X106525714Y-104293809D01*
X106449523Y-104331904D01*
X106373333Y-104331904D01*
X106297142Y-104293809D01*
X106259047Y-104255714D01*
X106220952Y-104179523D01*
X106182857Y-104027142D01*
X106144761Y-103950952D01*
X106106666Y-103912857D01*
X106030476Y-103874761D01*
X105954285Y-103874761D01*
X105878095Y-103912857D01*
X105840000Y-103950952D01*
X105801904Y-104027142D01*
X105801904Y-104217619D01*
X105840000Y-104331904D01*
X105801904Y-104598571D02*
X106601904Y-104789047D01*
X106030476Y-104941428D01*
X106601904Y-105093809D01*
X105801904Y-105284285D01*
X106601904Y-105589047D02*
X105801904Y-105589047D01*
X105801904Y-105779523D01*
X105840000Y-105893809D01*
X105916190Y-105970000D01*
X105992380Y-106008095D01*
X106144761Y-106046190D01*
X106259047Y-106046190D01*
X106411428Y-106008095D01*
X106487619Y-105970000D01*
X106563809Y-105893809D01*
X106601904Y-105779523D01*
X106601904Y-105589047D01*
X106601904Y-106389047D02*
X105801904Y-106389047D01*
X105801904Y-106922380D02*
X105801904Y-107074761D01*
X105840000Y-107150952D01*
X105916190Y-107227142D01*
X106068571Y-107265238D01*
X106335238Y-107265238D01*
X106487619Y-107227142D01*
X106563809Y-107150952D01*
X106601904Y-107074761D01*
X106601904Y-106922380D01*
X106563809Y-106846190D01*
X106487619Y-106770000D01*
X106335238Y-106731904D01*
X106068571Y-106731904D01*
X105916190Y-106770000D01*
X105840000Y-106846190D01*
X105801904Y-106922380D01*
X106563809Y-92460476D02*
X106601904Y-92574761D01*
X106601904Y-92765238D01*
X106563809Y-92841428D01*
X106525714Y-92879523D01*
X106449523Y-92917619D01*
X106373333Y-92917619D01*
X106297142Y-92879523D01*
X106259047Y-92841428D01*
X106220952Y-92765238D01*
X106182857Y-92612857D01*
X106144761Y-92536666D01*
X106106666Y-92498571D01*
X106030476Y-92460476D01*
X105954285Y-92460476D01*
X105878095Y-92498571D01*
X105840000Y-92536666D01*
X105801904Y-92612857D01*
X105801904Y-92803333D01*
X105840000Y-92917619D01*
X105801904Y-93184285D02*
X106601904Y-93374761D01*
X106030476Y-93527142D01*
X106601904Y-93679523D01*
X105801904Y-93870000D01*
X106525714Y-94631904D02*
X106563809Y-94593809D01*
X106601904Y-94479523D01*
X106601904Y-94403333D01*
X106563809Y-94289047D01*
X106487619Y-94212857D01*
X106411428Y-94174761D01*
X106259047Y-94136666D01*
X106144761Y-94136666D01*
X105992380Y-94174761D01*
X105916190Y-94212857D01*
X105840000Y-94289047D01*
X105801904Y-94403333D01*
X105801904Y-94479523D01*
X105840000Y-94593809D01*
X105878095Y-94631904D01*
X106601904Y-95355714D02*
X106601904Y-94974761D01*
X105801904Y-94974761D01*
X106601904Y-95622380D02*
X105801904Y-95622380D01*
X106601904Y-96079523D02*
X106144761Y-95736666D01*
X105801904Y-96079523D02*
X106259047Y-95622380D01*
X74780964Y-112121597D02*
X74511590Y-112390971D01*
X74996463Y-112229346D02*
X74242216Y-111852223D01*
X74619340Y-112606470D01*
X73595719Y-112552595D02*
X73622656Y-112471783D01*
X73703468Y-112390971D01*
X73811218Y-112337096D01*
X73918967Y-112337096D01*
X73999780Y-112364033D01*
X74134467Y-112444845D01*
X74215279Y-112525658D01*
X74296091Y-112660345D01*
X74323028Y-112741157D01*
X74323028Y-112848906D01*
X74269154Y-112956656D01*
X74215279Y-113010531D01*
X74107529Y-113064406D01*
X74053654Y-113064406D01*
X73865093Y-112875844D01*
X73972842Y-112768094D01*
X73865093Y-113360717D02*
X73299407Y-112795032D01*
X73541844Y-113683966D01*
X72976158Y-113118280D01*
X73272470Y-113953340D02*
X72706784Y-113387654D01*
X72572097Y-113522341D01*
X72518223Y-113630091D01*
X72518223Y-113737841D01*
X72545160Y-113818653D01*
X72625972Y-113953340D01*
X72706784Y-114034152D01*
X72841471Y-114114964D01*
X72922284Y-114141902D01*
X73030033Y-114141902D01*
X73137783Y-114088027D01*
X73272470Y-113953340D01*
X61138155Y-112056158D02*
X61165093Y-111975346D01*
X61245905Y-111894534D01*
X61353654Y-111840659D01*
X61461404Y-111840659D01*
X61542216Y-111867597D01*
X61676903Y-111948409D01*
X61757715Y-112029221D01*
X61838528Y-112163908D01*
X61865465Y-112244720D01*
X61865465Y-112352470D01*
X61811590Y-112460219D01*
X61757715Y-112514094D01*
X61649966Y-112567969D01*
X61596091Y-112567969D01*
X61407529Y-112379407D01*
X61515279Y-112271658D01*
X61407529Y-112864280D02*
X60841844Y-112298595D01*
X61084280Y-113187529D01*
X60518595Y-112621844D01*
X60814906Y-113456903D02*
X60249221Y-112891218D01*
X60114534Y-113025905D01*
X60060659Y-113133654D01*
X60060659Y-113241404D01*
X60087597Y-113322216D01*
X60168409Y-113456903D01*
X60249221Y-113537715D01*
X60383908Y-113618528D01*
X60464720Y-113645465D01*
X60572470Y-113645465D01*
X60680219Y-113591590D01*
X60814906Y-113456903D01*
X86538155Y-112056158D02*
X86565093Y-111975346D01*
X86645905Y-111894534D01*
X86753654Y-111840659D01*
X86861404Y-111840659D01*
X86942216Y-111867597D01*
X87076903Y-111948409D01*
X87157715Y-112029221D01*
X87238528Y-112163908D01*
X87265465Y-112244720D01*
X87265465Y-112352470D01*
X87211590Y-112460219D01*
X87157715Y-112514094D01*
X87049966Y-112567969D01*
X86996091Y-112567969D01*
X86807529Y-112379407D01*
X86915279Y-112271658D01*
X86807529Y-112864280D02*
X86241844Y-112298595D01*
X86484280Y-113187529D01*
X85918595Y-112621844D01*
X86214906Y-113456903D02*
X85649221Y-112891218D01*
X85514534Y-113025905D01*
X85460659Y-113133654D01*
X85460659Y-113241404D01*
X85487597Y-113322216D01*
X85568409Y-113456903D01*
X85649221Y-113537715D01*
X85783908Y-113618528D01*
X85864720Y-113645465D01*
X85972470Y-113645465D01*
X86080219Y-113591590D01*
X86214906Y-113456903D01*
X99238155Y-112056158D02*
X99265093Y-111975346D01*
X99345905Y-111894534D01*
X99453654Y-111840659D01*
X99561404Y-111840659D01*
X99642216Y-111867597D01*
X99776903Y-111948409D01*
X99857715Y-112029221D01*
X99938528Y-112163908D01*
X99965465Y-112244720D01*
X99965465Y-112352470D01*
X99911590Y-112460219D01*
X99857715Y-112514094D01*
X99749966Y-112567969D01*
X99696091Y-112567969D01*
X99507529Y-112379407D01*
X99615279Y-112271658D01*
X99507529Y-112864280D02*
X98941844Y-112298595D01*
X99184280Y-113187529D01*
X98618595Y-112621844D01*
X98914906Y-113456903D02*
X98349221Y-112891218D01*
X98214534Y-113025905D01*
X98160659Y-113133654D01*
X98160659Y-113241404D01*
X98187597Y-113322216D01*
X98268409Y-113456903D01*
X98349221Y-113537715D01*
X98483908Y-113618528D01*
X98564720Y-113645465D01*
X98672470Y-113645465D01*
X98780219Y-113591590D01*
X98914906Y-113456903D01*
X99238155Y-86456158D02*
X99265093Y-86375346D01*
X99345905Y-86294534D01*
X99453654Y-86240659D01*
X99561404Y-86240659D01*
X99642216Y-86267597D01*
X99776903Y-86348409D01*
X99857715Y-86429221D01*
X99938528Y-86563908D01*
X99965465Y-86644720D01*
X99965465Y-86752470D01*
X99911590Y-86860219D01*
X99857715Y-86914094D01*
X99749966Y-86967969D01*
X99696091Y-86967969D01*
X99507529Y-86779407D01*
X99615279Y-86671658D01*
X99507529Y-87264280D02*
X98941844Y-86698595D01*
X99184280Y-87587529D01*
X98618595Y-87021844D01*
X98914906Y-87856903D02*
X98349221Y-87291218D01*
X98214534Y-87425905D01*
X98160659Y-87533654D01*
X98160659Y-87641404D01*
X98187597Y-87722216D01*
X98268409Y-87856903D01*
X98349221Y-87937715D01*
X98483908Y-88018528D01*
X98564720Y-88045465D01*
X98672470Y-88045465D01*
X98780219Y-87991590D01*
X98914906Y-87856903D01*
X86538155Y-86456158D02*
X86565093Y-86375346D01*
X86645905Y-86294534D01*
X86753654Y-86240659D01*
X86861404Y-86240659D01*
X86942216Y-86267597D01*
X87076903Y-86348409D01*
X87157715Y-86429221D01*
X87238528Y-86563908D01*
X87265465Y-86644720D01*
X87265465Y-86752470D01*
X87211590Y-86860219D01*
X87157715Y-86914094D01*
X87049966Y-86967969D01*
X86996091Y-86967969D01*
X86807529Y-86779407D01*
X86915279Y-86671658D01*
X86807529Y-87264280D02*
X86241844Y-86698595D01*
X86484280Y-87587529D01*
X85918595Y-87021844D01*
X86214906Y-87856903D02*
X85649221Y-87291218D01*
X85514534Y-87425905D01*
X85460659Y-87533654D01*
X85460659Y-87641404D01*
X85487597Y-87722216D01*
X85568409Y-87856903D01*
X85649221Y-87937715D01*
X85783908Y-88018528D01*
X85864720Y-88045465D01*
X85972470Y-88045465D01*
X86080219Y-87991590D01*
X86214906Y-87856903D01*
X73838155Y-86456158D02*
X73865093Y-86375346D01*
X73945905Y-86294534D01*
X74053654Y-86240659D01*
X74161404Y-86240659D01*
X74242216Y-86267597D01*
X74376903Y-86348409D01*
X74457715Y-86429221D01*
X74538528Y-86563908D01*
X74565465Y-86644720D01*
X74565465Y-86752470D01*
X74511590Y-86860219D01*
X74457715Y-86914094D01*
X74349966Y-86967969D01*
X74296091Y-86967969D01*
X74107529Y-86779407D01*
X74215279Y-86671658D01*
X74107529Y-87264280D02*
X73541844Y-86698595D01*
X73784280Y-87587529D01*
X73218595Y-87021844D01*
X73514906Y-87856903D02*
X72949221Y-87291218D01*
X72814534Y-87425905D01*
X72760659Y-87533654D01*
X72760659Y-87641404D01*
X72787597Y-87722216D01*
X72868409Y-87856903D01*
X72949221Y-87937715D01*
X73083908Y-88018528D01*
X73164720Y-88045465D01*
X73272470Y-88045465D01*
X73380219Y-87991590D01*
X73514906Y-87856903D01*
X61138155Y-86456158D02*
X61165093Y-86375346D01*
X61245905Y-86294534D01*
X61353654Y-86240659D01*
X61461404Y-86240659D01*
X61542216Y-86267597D01*
X61676903Y-86348409D01*
X61757715Y-86429221D01*
X61838528Y-86563908D01*
X61865465Y-86644720D01*
X61865465Y-86752470D01*
X61811590Y-86860219D01*
X61757715Y-86914094D01*
X61649966Y-86967969D01*
X61596091Y-86967969D01*
X61407529Y-86779407D01*
X61515279Y-86671658D01*
X61407529Y-87264280D02*
X60841844Y-86698595D01*
X61084280Y-87587529D01*
X60518595Y-87021844D01*
X60814906Y-87856903D02*
X60249221Y-87291218D01*
X60114534Y-87425905D01*
X60060659Y-87533654D01*
X60060659Y-87641404D01*
X60087597Y-87722216D01*
X60168409Y-87856903D01*
X60249221Y-87937715D01*
X60383908Y-88018528D01*
X60464720Y-88045465D01*
X60572470Y-88045465D01*
X60680219Y-87991590D01*
X60814906Y-87856903D01*
X56567309Y-111923129D02*
X56944433Y-112677377D01*
X56190186Y-112300253D01*
X56082436Y-112946751D02*
X56028561Y-113054500D01*
X56028561Y-113108375D01*
X56055499Y-113189187D01*
X56136311Y-113270000D01*
X56217123Y-113296937D01*
X56270998Y-113296937D01*
X56351810Y-113270000D01*
X56567309Y-113054500D01*
X56001624Y-112488815D01*
X55813062Y-112677377D01*
X55786125Y-112758189D01*
X55786125Y-112812064D01*
X55813062Y-112892876D01*
X55866937Y-112946751D01*
X55947749Y-112973688D01*
X56001624Y-112973688D01*
X56082436Y-112946751D01*
X56270998Y-112758189D01*
X55435938Y-113054500D02*
X55893874Y-113512436D01*
X55920812Y-113593248D01*
X55920812Y-113647123D01*
X55893874Y-113727935D01*
X55786125Y-113835685D01*
X55705312Y-113862622D01*
X55651438Y-113862622D01*
X55570625Y-113835685D01*
X55112690Y-113377749D01*
X55409001Y-114158934D02*
X55355126Y-114266683D01*
X55220439Y-114401370D01*
X55139627Y-114428308D01*
X55085752Y-114428308D01*
X55004940Y-114401370D01*
X54951065Y-114347496D01*
X54924128Y-114266683D01*
X54924128Y-114212809D01*
X54951065Y-114131996D01*
X55031877Y-113997309D01*
X55058815Y-113916497D01*
X55058815Y-113862622D01*
X55031877Y-113781810D01*
X54978003Y-113727935D01*
X54897190Y-113700998D01*
X54843316Y-113700998D01*
X54762503Y-113727935D01*
X54627816Y-113862622D01*
X54573942Y-113970372D01*
X59109966Y-111890473D02*
X59487089Y-112644720D01*
X58732842Y-112267597D01*
X59109966Y-112967969D02*
X59056091Y-113075719D01*
X58921404Y-113210406D01*
X58840592Y-113237343D01*
X58786717Y-113237343D01*
X58705905Y-113210406D01*
X58652030Y-113156531D01*
X58625093Y-113075719D01*
X58625093Y-113021844D01*
X58652030Y-112941032D01*
X58732842Y-112806345D01*
X58759780Y-112725532D01*
X58759780Y-112671658D01*
X58732842Y-112590845D01*
X58678967Y-112536971D01*
X58598155Y-112510033D01*
X58544280Y-112510033D01*
X58463468Y-112536971D01*
X58328781Y-112671658D01*
X58274906Y-112779407D01*
X58194094Y-113398967D02*
X58463468Y-113668341D01*
X58086345Y-112914094D02*
X58194094Y-113398967D01*
X57709221Y-113291218D01*
X58086345Y-113991590D02*
X58032470Y-114099340D01*
X57897783Y-114234027D01*
X57816971Y-114260964D01*
X57763096Y-114260964D01*
X57682284Y-114234027D01*
X57628409Y-114180152D01*
X57601471Y-114099340D01*
X57601471Y-114045465D01*
X57628409Y-113964653D01*
X57709221Y-113829966D01*
X57736158Y-113749154D01*
X57736158Y-113695279D01*
X57709221Y-113614467D01*
X57655346Y-113560592D01*
X57574534Y-113533654D01*
X57520659Y-113533654D01*
X57439847Y-113560592D01*
X57305160Y-113695279D01*
X57251285Y-113803028D01*
X63998308Y-111892131D02*
X63648122Y-112242317D01*
X64052183Y-112269255D01*
X63971370Y-112350067D01*
X63944433Y-112430879D01*
X63944433Y-112484754D01*
X63971370Y-112565566D01*
X64106057Y-112700253D01*
X64186870Y-112727190D01*
X64240744Y-112727190D01*
X64321557Y-112700253D01*
X64483181Y-112538629D01*
X64510118Y-112457816D01*
X64510118Y-112403942D01*
X63486497Y-112403942D02*
X63863621Y-113158189D01*
X63109374Y-112781065D01*
X62974687Y-112915752D02*
X62624500Y-113265938D01*
X63028561Y-113292876D01*
X62947749Y-113373688D01*
X62920812Y-113454500D01*
X62920812Y-113508375D01*
X62947749Y-113589187D01*
X63082436Y-113723874D01*
X63163248Y-113750812D01*
X63217123Y-113750812D01*
X63297935Y-113723874D01*
X63459560Y-113562250D01*
X63486497Y-113481438D01*
X63486497Y-113427563D01*
X63136311Y-113993248D02*
X62705312Y-114424247D01*
X62220439Y-114208748D02*
X62031877Y-114397309D01*
X62247377Y-114774433D02*
X62516751Y-114505059D01*
X61951065Y-113939374D01*
X61681691Y-114208748D01*
X62004940Y-115016870D02*
X61439255Y-114451184D01*
X61681691Y-115340118D01*
X61116006Y-114774433D01*
X66530592Y-111859847D02*
X66180406Y-112210033D01*
X66584467Y-112236971D01*
X66503654Y-112317783D01*
X66476717Y-112398595D01*
X66476717Y-112452470D01*
X66503654Y-112533282D01*
X66638341Y-112667969D01*
X66719154Y-112694906D01*
X66773028Y-112694906D01*
X66853841Y-112667969D01*
X67015465Y-112506345D01*
X67042402Y-112425532D01*
X67042402Y-112371658D01*
X66018781Y-112371658D02*
X66395905Y-113125905D01*
X65641658Y-112748781D01*
X65506971Y-112883468D02*
X65156784Y-113233654D01*
X65560845Y-113260592D01*
X65480033Y-113341404D01*
X65453096Y-113422216D01*
X65453096Y-113476091D01*
X65480033Y-113556903D01*
X65614720Y-113691590D01*
X65695532Y-113718528D01*
X65749407Y-113718528D01*
X65830219Y-113691590D01*
X65991844Y-113529966D01*
X66018781Y-113449154D01*
X66018781Y-113395279D01*
X69573773Y-112124788D02*
X69304399Y-112394162D01*
X69789272Y-112232537D02*
X69035025Y-111855414D01*
X69412149Y-112609661D01*
X69223587Y-112798223D02*
X68657902Y-112232537D01*
X68523215Y-112367224D01*
X68469340Y-112474974D01*
X68469340Y-112582723D01*
X68496277Y-112663536D01*
X68577089Y-112798223D01*
X68657902Y-112879035D01*
X68792589Y-112959847D01*
X68873401Y-112986784D01*
X68981150Y-112986784D01*
X69088900Y-112932910D01*
X69223587Y-112798223D01*
X68280778Y-113633282D02*
X68334653Y-113633282D01*
X68442402Y-113579407D01*
X68496277Y-113525532D01*
X68550152Y-113417783D01*
X68550152Y-113310033D01*
X68523215Y-113229221D01*
X68442402Y-113094534D01*
X68361590Y-113013722D01*
X68226903Y-112932910D01*
X68146091Y-112905972D01*
X68038341Y-112905972D01*
X67930592Y-112959847D01*
X67876717Y-113013722D01*
X67822842Y-113121471D01*
X67822842Y-113175346D01*
X68280778Y-113848781D02*
X67849780Y-114279780D01*
X67176345Y-113714094D02*
X67553468Y-114468341D01*
X66799221Y-114091218D01*
X66853096Y-115168714D02*
X66772284Y-114710778D01*
X67176345Y-114845465D02*
X66610659Y-114279780D01*
X66395160Y-114495279D01*
X66368223Y-114576091D01*
X66368223Y-114629966D01*
X66395160Y-114710778D01*
X66475972Y-114791590D01*
X66556784Y-114818528D01*
X66610659Y-114818528D01*
X66691471Y-114791590D01*
X66906971Y-114576091D01*
X66314348Y-115114839D02*
X66125786Y-115303401D01*
X66341285Y-115680524D02*
X66610659Y-115411150D01*
X66044974Y-114845465D01*
X65775600Y-115114839D01*
X65613975Y-115815211D02*
X65802537Y-115626650D01*
X66098849Y-115922961D02*
X65533163Y-115357276D01*
X65263789Y-115626650D01*
X71286592Y-112067722D02*
X71313529Y-111986910D01*
X71394341Y-111906097D01*
X71502091Y-111852223D01*
X71609841Y-111852223D01*
X71690653Y-111879160D01*
X71825340Y-111959972D01*
X71906152Y-112040784D01*
X71986964Y-112175471D01*
X72013902Y-112256284D01*
X72013902Y-112364033D01*
X71960027Y-112471783D01*
X71906152Y-112525658D01*
X71798402Y-112579532D01*
X71744528Y-112579532D01*
X71555966Y-112390971D01*
X71663715Y-112283221D01*
X71555966Y-112875844D02*
X70990280Y-112310158D01*
X70774781Y-112525658D01*
X70747844Y-112606470D01*
X70747844Y-112660345D01*
X70774781Y-112741157D01*
X70855593Y-112821969D01*
X70936406Y-112848906D01*
X70990280Y-112848906D01*
X71071093Y-112821969D01*
X71286592Y-112606470D01*
X70505407Y-112902781D02*
X70451532Y-112902781D01*
X70370720Y-112929719D01*
X70236033Y-113064406D01*
X70209096Y-113145218D01*
X70209096Y-113199093D01*
X70236033Y-113279905D01*
X70289908Y-113333780D01*
X70397658Y-113387654D01*
X71044155Y-113387654D01*
X70693969Y-113737841D01*
X70047471Y-113737841D02*
X70074409Y-113657028D01*
X70074409Y-113603154D01*
X70047471Y-113522341D01*
X70020534Y-113495404D01*
X69939722Y-113468467D01*
X69885847Y-113468467D01*
X69805035Y-113495404D01*
X69697285Y-113603154D01*
X69670348Y-113683966D01*
X69670348Y-113737841D01*
X69697285Y-113818653D01*
X69724223Y-113845590D01*
X69805035Y-113872528D01*
X69858910Y-113872528D01*
X69939722Y-113845590D01*
X70047471Y-113737841D01*
X70128284Y-113710903D01*
X70182158Y-113710903D01*
X70262971Y-113737841D01*
X70370720Y-113845590D01*
X70397658Y-113926402D01*
X70397658Y-113980277D01*
X70370720Y-114061089D01*
X70262971Y-114168839D01*
X70182158Y-114195776D01*
X70128284Y-114195776D01*
X70047471Y-114168839D01*
X69939722Y-114061089D01*
X69912784Y-113980277D01*
X69912784Y-113926402D01*
X69939722Y-113845590D01*
X76630592Y-112067722D02*
X76657529Y-111986910D01*
X76738341Y-111906097D01*
X76846091Y-111852223D01*
X76953841Y-111852223D01*
X77034653Y-111879160D01*
X77169340Y-111959972D01*
X77250152Y-112040784D01*
X77330964Y-112175471D01*
X77357902Y-112256284D01*
X77357902Y-112364033D01*
X77304027Y-112471783D01*
X77250152Y-112525658D01*
X77142402Y-112579532D01*
X77088528Y-112579532D01*
X76899966Y-112390971D01*
X77007715Y-112283221D01*
X76899966Y-112875844D02*
X76334280Y-112310158D01*
X76118781Y-112525658D01*
X76091844Y-112606470D01*
X76091844Y-112660345D01*
X76118781Y-112741157D01*
X76199593Y-112821969D01*
X76280406Y-112848906D01*
X76334280Y-112848906D01*
X76415093Y-112821969D01*
X76630592Y-112606470D01*
X75849407Y-112902781D02*
X75795532Y-112902781D01*
X75714720Y-112929719D01*
X75580033Y-113064406D01*
X75553096Y-113145218D01*
X75553096Y-113199093D01*
X75580033Y-113279905D01*
X75633908Y-113333780D01*
X75741658Y-113387654D01*
X76388155Y-113387654D01*
X76037969Y-113737841D01*
X75283722Y-113360717D02*
X74906598Y-113737841D01*
X75714720Y-114061089D01*
X79160592Y-112067722D02*
X79187529Y-111986910D01*
X79268341Y-111906097D01*
X79376091Y-111852223D01*
X79483841Y-111852223D01*
X79564653Y-111879160D01*
X79699340Y-111959972D01*
X79780152Y-112040784D01*
X79860964Y-112175471D01*
X79887902Y-112256284D01*
X79887902Y-112364033D01*
X79834027Y-112471783D01*
X79780152Y-112525658D01*
X79672402Y-112579532D01*
X79618528Y-112579532D01*
X79429966Y-112390971D01*
X79537715Y-112283221D01*
X79429966Y-112875844D02*
X78864280Y-112310158D01*
X78648781Y-112525658D01*
X78621844Y-112606470D01*
X78621844Y-112660345D01*
X78648781Y-112741157D01*
X78729593Y-112821969D01*
X78810406Y-112848906D01*
X78864280Y-112848906D01*
X78945093Y-112821969D01*
X79160592Y-112606470D01*
X78379407Y-112902781D02*
X78325532Y-112902781D01*
X78244720Y-112929719D01*
X78110033Y-113064406D01*
X78083096Y-113145218D01*
X78083096Y-113199093D01*
X78110033Y-113279905D01*
X78163908Y-113333780D01*
X78271658Y-113387654D01*
X78918155Y-113387654D01*
X78567969Y-113737841D01*
X77517410Y-113657028D02*
X77625160Y-113549279D01*
X77705972Y-113522341D01*
X77759847Y-113522341D01*
X77894534Y-113549279D01*
X78029221Y-113630091D01*
X78244720Y-113845590D01*
X78271658Y-113926402D01*
X78271658Y-113980277D01*
X78244720Y-114061089D01*
X78136971Y-114168839D01*
X78056158Y-114195776D01*
X78002284Y-114195776D01*
X77921471Y-114168839D01*
X77786784Y-114034152D01*
X77759847Y-113953340D01*
X77759847Y-113899465D01*
X77786784Y-113818653D01*
X77894534Y-113710903D01*
X77975346Y-113683966D01*
X78029221Y-113683966D01*
X78110033Y-113710903D01*
X81983435Y-112808375D02*
X81902622Y-112350439D01*
X82306683Y-112485126D02*
X81740998Y-111919441D01*
X81525499Y-112134940D01*
X81498561Y-112215752D01*
X81498561Y-112269627D01*
X81525499Y-112350439D01*
X81606311Y-112431251D01*
X81687123Y-112458189D01*
X81740998Y-112458189D01*
X81821810Y-112431251D01*
X82037309Y-112215752D01*
X81175312Y-112485126D02*
X81633248Y-112943062D01*
X81660186Y-113023874D01*
X81660186Y-113077749D01*
X81633248Y-113158561D01*
X81525499Y-113266311D01*
X81444687Y-113293248D01*
X81390812Y-113293248D01*
X81310000Y-113266311D01*
X80852064Y-112808375D01*
X81148375Y-113643435D02*
X80582690Y-113077749D01*
X80825126Y-113966683D01*
X80259441Y-113400998D01*
X84240592Y-112067722D02*
X84267529Y-111986910D01*
X84348341Y-111906097D01*
X84456091Y-111852223D01*
X84563841Y-111852223D01*
X84644653Y-111879160D01*
X84779340Y-111959972D01*
X84860152Y-112040784D01*
X84940964Y-112175471D01*
X84967902Y-112256284D01*
X84967902Y-112364033D01*
X84914027Y-112471783D01*
X84860152Y-112525658D01*
X84752402Y-112579532D01*
X84698528Y-112579532D01*
X84509966Y-112390971D01*
X84617715Y-112283221D01*
X84509966Y-112875844D02*
X83944280Y-112310158D01*
X83728781Y-112525658D01*
X83701844Y-112606470D01*
X83701844Y-112660345D01*
X83728781Y-112741157D01*
X83809593Y-112821969D01*
X83890406Y-112848906D01*
X83944280Y-112848906D01*
X84025093Y-112821969D01*
X84240592Y-112606470D01*
X83459407Y-112902781D02*
X83405532Y-112902781D01*
X83324720Y-112929719D01*
X83190033Y-113064406D01*
X83163096Y-113145218D01*
X83163096Y-113199093D01*
X83190033Y-113279905D01*
X83243908Y-113333780D01*
X83351658Y-113387654D01*
X83998155Y-113387654D01*
X83647969Y-113737841D01*
X82920659Y-113441529D02*
X82866784Y-113441529D01*
X82785972Y-113468467D01*
X82651285Y-113603154D01*
X82624348Y-113683966D01*
X82624348Y-113737841D01*
X82651285Y-113818653D01*
X82705160Y-113872528D01*
X82812910Y-113926402D01*
X83459407Y-113926402D01*
X83109221Y-114276589D01*
X89330592Y-112067722D02*
X89357529Y-111986910D01*
X89438341Y-111906097D01*
X89546091Y-111852223D01*
X89653841Y-111852223D01*
X89734653Y-111879160D01*
X89869340Y-111959972D01*
X89950152Y-112040784D01*
X90030964Y-112175471D01*
X90057902Y-112256284D01*
X90057902Y-112364033D01*
X90004027Y-112471783D01*
X89950152Y-112525658D01*
X89842402Y-112579532D01*
X89788528Y-112579532D01*
X89599966Y-112390971D01*
X89707715Y-112283221D01*
X89599966Y-112875844D02*
X89034280Y-112310158D01*
X88818781Y-112525658D01*
X88791844Y-112606470D01*
X88791844Y-112660345D01*
X88818781Y-112741157D01*
X88899593Y-112821969D01*
X88980406Y-112848906D01*
X89034280Y-112848906D01*
X89115093Y-112821969D01*
X89330592Y-112606470D01*
X88549407Y-112902781D02*
X88495532Y-112902781D01*
X88414720Y-112929719D01*
X88280033Y-113064406D01*
X88253096Y-113145218D01*
X88253096Y-113199093D01*
X88280033Y-113279905D01*
X88333908Y-113333780D01*
X88441658Y-113387654D01*
X89088155Y-113387654D01*
X88737969Y-113737841D01*
X88199221Y-114276589D02*
X88522470Y-113953340D01*
X88360845Y-114114964D02*
X87795160Y-113549279D01*
X87929847Y-113576216D01*
X88037597Y-113576216D01*
X88118409Y-113549279D01*
X91860592Y-112067722D02*
X91887529Y-111986910D01*
X91968341Y-111906097D01*
X92076091Y-111852223D01*
X92183841Y-111852223D01*
X92264653Y-111879160D01*
X92399340Y-111959972D01*
X92480152Y-112040784D01*
X92560964Y-112175471D01*
X92587902Y-112256284D01*
X92587902Y-112364033D01*
X92534027Y-112471783D01*
X92480152Y-112525658D01*
X92372402Y-112579532D01*
X92318528Y-112579532D01*
X92129966Y-112390971D01*
X92237715Y-112283221D01*
X92129966Y-112875844D02*
X91564280Y-112310158D01*
X91348781Y-112525658D01*
X91321844Y-112606470D01*
X91321844Y-112660345D01*
X91348781Y-112741157D01*
X91429593Y-112821969D01*
X91510406Y-112848906D01*
X91564280Y-112848906D01*
X91645093Y-112821969D01*
X91860592Y-112606470D01*
X91079407Y-112902781D02*
X91025532Y-112902781D01*
X90944720Y-112929719D01*
X90810033Y-113064406D01*
X90783096Y-113145218D01*
X90783096Y-113199093D01*
X90810033Y-113279905D01*
X90863908Y-113333780D01*
X90971658Y-113387654D01*
X91618155Y-113387654D01*
X91267969Y-113737841D01*
X90352097Y-113522341D02*
X90298223Y-113576216D01*
X90271285Y-113657028D01*
X90271285Y-113710903D01*
X90298223Y-113791715D01*
X90379035Y-113926402D01*
X90513722Y-114061089D01*
X90648409Y-114141902D01*
X90729221Y-114168839D01*
X90783096Y-114168839D01*
X90863908Y-114141902D01*
X90917783Y-114088027D01*
X90944720Y-114007215D01*
X90944720Y-113953340D01*
X90917783Y-113872528D01*
X90836971Y-113737841D01*
X90702284Y-113603154D01*
X90567597Y-113522341D01*
X90486784Y-113495404D01*
X90432910Y-113495404D01*
X90352097Y-113522341D01*
X94400592Y-112067722D02*
X94427529Y-111986910D01*
X94508341Y-111906097D01*
X94616091Y-111852223D01*
X94723841Y-111852223D01*
X94804653Y-111879160D01*
X94939340Y-111959972D01*
X95020152Y-112040784D01*
X95100964Y-112175471D01*
X95127902Y-112256284D01*
X95127902Y-112364033D01*
X95074027Y-112471783D01*
X95020152Y-112525658D01*
X94912402Y-112579532D01*
X94858528Y-112579532D01*
X94669966Y-112390971D01*
X94777715Y-112283221D01*
X94669966Y-112875844D02*
X94104280Y-112310158D01*
X93888781Y-112525658D01*
X93861844Y-112606470D01*
X93861844Y-112660345D01*
X93888781Y-112741157D01*
X93969593Y-112821969D01*
X94050406Y-112848906D01*
X94104280Y-112848906D01*
X94185093Y-112821969D01*
X94400592Y-112606470D01*
X93807969Y-113737841D02*
X94131218Y-113414592D01*
X93969593Y-113576216D02*
X93403908Y-113010531D01*
X93538595Y-113037468D01*
X93646345Y-113037468D01*
X93727157Y-113010531D01*
X93538595Y-114007215D02*
X93430845Y-114114964D01*
X93350033Y-114141902D01*
X93296158Y-114141902D01*
X93161471Y-114114964D01*
X93026784Y-114034152D01*
X92811285Y-113818653D01*
X92784348Y-113737841D01*
X92784348Y-113683966D01*
X92811285Y-113603154D01*
X92919035Y-113495404D01*
X92999847Y-113468467D01*
X93053722Y-113468467D01*
X93134534Y-113495404D01*
X93269221Y-113630091D01*
X93296158Y-113710903D01*
X93296158Y-113764778D01*
X93269221Y-113845590D01*
X93161471Y-113953340D01*
X93080659Y-113980277D01*
X93026784Y-113980277D01*
X92945972Y-113953340D01*
X96940592Y-112067722D02*
X96967529Y-111986910D01*
X97048341Y-111906097D01*
X97156091Y-111852223D01*
X97263841Y-111852223D01*
X97344653Y-111879160D01*
X97479340Y-111959972D01*
X97560152Y-112040784D01*
X97640964Y-112175471D01*
X97667902Y-112256284D01*
X97667902Y-112364033D01*
X97614027Y-112471783D01*
X97560152Y-112525658D01*
X97452402Y-112579532D01*
X97398528Y-112579532D01*
X97209966Y-112390971D01*
X97317715Y-112283221D01*
X97209966Y-112875844D02*
X96644280Y-112310158D01*
X96428781Y-112525658D01*
X96401844Y-112606470D01*
X96401844Y-112660345D01*
X96428781Y-112741157D01*
X96509593Y-112821969D01*
X96590406Y-112848906D01*
X96644280Y-112848906D01*
X96725093Y-112821969D01*
X96940592Y-112606470D01*
X96347969Y-113737841D02*
X96671218Y-113414592D01*
X96509593Y-113576216D02*
X95943908Y-113010531D01*
X96078595Y-113037468D01*
X96186345Y-113037468D01*
X96267157Y-113010531D01*
X95701471Y-113737841D02*
X95728409Y-113657028D01*
X95728409Y-113603154D01*
X95701471Y-113522341D01*
X95674534Y-113495404D01*
X95593722Y-113468467D01*
X95539847Y-113468467D01*
X95459035Y-113495404D01*
X95351285Y-113603154D01*
X95324348Y-113683966D01*
X95324348Y-113737841D01*
X95351285Y-113818653D01*
X95378223Y-113845590D01*
X95459035Y-113872528D01*
X95512910Y-113872528D01*
X95593722Y-113845590D01*
X95701471Y-113737841D01*
X95782284Y-113710903D01*
X95836158Y-113710903D01*
X95916971Y-113737841D01*
X96024720Y-113845590D01*
X96051658Y-113926402D01*
X96051658Y-113980277D01*
X96024720Y-114061089D01*
X95916971Y-114168839D01*
X95836158Y-114195776D01*
X95782284Y-114195776D01*
X95701471Y-114168839D01*
X95593722Y-114061089D01*
X95566784Y-113980277D01*
X95566784Y-113926402D01*
X95593722Y-113845590D01*
X102020592Y-112067722D02*
X102047529Y-111986910D01*
X102128341Y-111906097D01*
X102236091Y-111852223D01*
X102343841Y-111852223D01*
X102424653Y-111879160D01*
X102559340Y-111959972D01*
X102640152Y-112040784D01*
X102720964Y-112175471D01*
X102747902Y-112256284D01*
X102747902Y-112364033D01*
X102694027Y-112471783D01*
X102640152Y-112525658D01*
X102532402Y-112579532D01*
X102478528Y-112579532D01*
X102289966Y-112390971D01*
X102397715Y-112283221D01*
X102289966Y-112875844D02*
X101724280Y-112310158D01*
X101508781Y-112525658D01*
X101481844Y-112606470D01*
X101481844Y-112660345D01*
X101508781Y-112741157D01*
X101589593Y-112821969D01*
X101670406Y-112848906D01*
X101724280Y-112848906D01*
X101805093Y-112821969D01*
X102020592Y-112606470D01*
X101427969Y-113737841D02*
X101751218Y-113414592D01*
X101589593Y-113576216D02*
X101023908Y-113010531D01*
X101158595Y-113037468D01*
X101266345Y-113037468D01*
X101347157Y-113010531D01*
X100673722Y-113360717D02*
X100296598Y-113737841D01*
X101104720Y-114061089D01*
X104560592Y-112067722D02*
X104587529Y-111986910D01*
X104668341Y-111906097D01*
X104776091Y-111852223D01*
X104883841Y-111852223D01*
X104964653Y-111879160D01*
X105099340Y-111959972D01*
X105180152Y-112040784D01*
X105260964Y-112175471D01*
X105287902Y-112256284D01*
X105287902Y-112364033D01*
X105234027Y-112471783D01*
X105180152Y-112525658D01*
X105072402Y-112579532D01*
X105018528Y-112579532D01*
X104829966Y-112390971D01*
X104937715Y-112283221D01*
X104829966Y-112875844D02*
X104264280Y-112310158D01*
X104048781Y-112525658D01*
X104021844Y-112606470D01*
X104021844Y-112660345D01*
X104048781Y-112741157D01*
X104129593Y-112821969D01*
X104210406Y-112848906D01*
X104264280Y-112848906D01*
X104345093Y-112821969D01*
X104560592Y-112606470D01*
X103967969Y-113737841D02*
X104291218Y-113414592D01*
X104129593Y-113576216D02*
X103563908Y-113010531D01*
X103698595Y-113037468D01*
X103806345Y-113037468D01*
X103887157Y-113010531D01*
X102917410Y-113657028D02*
X103025160Y-113549279D01*
X103105972Y-113522341D01*
X103159847Y-113522341D01*
X103294534Y-113549279D01*
X103429221Y-113630091D01*
X103644720Y-113845590D01*
X103671658Y-113926402D01*
X103671658Y-113980277D01*
X103644720Y-114061089D01*
X103536971Y-114168839D01*
X103456158Y-114195776D01*
X103402284Y-114195776D01*
X103321471Y-114168839D01*
X103186784Y-114034152D01*
X103159847Y-113953340D01*
X103159847Y-113899465D01*
X103186784Y-113818653D01*
X103294534Y-113710903D01*
X103375346Y-113683966D01*
X103429221Y-113683966D01*
X103510033Y-113710903D01*
X104560592Y-85959722D02*
X104587529Y-85878910D01*
X104668341Y-85798097D01*
X104776091Y-85744223D01*
X104883841Y-85744223D01*
X104964653Y-85771160D01*
X105099340Y-85851972D01*
X105180152Y-85932784D01*
X105260964Y-86067471D01*
X105287902Y-86148284D01*
X105287902Y-86256033D01*
X105234027Y-86363783D01*
X105180152Y-86417658D01*
X105072402Y-86471532D01*
X105018528Y-86471532D01*
X104829966Y-86282971D01*
X104937715Y-86175221D01*
X104829966Y-86767844D02*
X104264280Y-86202158D01*
X104048781Y-86417658D01*
X104021844Y-86498470D01*
X104021844Y-86552345D01*
X104048781Y-86633157D01*
X104129593Y-86713969D01*
X104210406Y-86740906D01*
X104264280Y-86740906D01*
X104345093Y-86713969D01*
X104560592Y-86498470D01*
X103967969Y-87629841D02*
X104291218Y-87306592D01*
X104129593Y-87468216D02*
X103563908Y-86902531D01*
X103698595Y-86929468D01*
X103806345Y-86929468D01*
X103887157Y-86902531D01*
X102890473Y-87575966D02*
X103159847Y-87306592D01*
X103456158Y-87549028D01*
X103402284Y-87549028D01*
X103321471Y-87575966D01*
X103186784Y-87710653D01*
X103159847Y-87791465D01*
X103159847Y-87845340D01*
X103186784Y-87926152D01*
X103321471Y-88060839D01*
X103402284Y-88087776D01*
X103456158Y-88087776D01*
X103536971Y-88060839D01*
X103671658Y-87926152D01*
X103698595Y-87845340D01*
X103698595Y-87791465D01*
X102020592Y-85913722D02*
X102047529Y-85832910D01*
X102128341Y-85752097D01*
X102236091Y-85698223D01*
X102343841Y-85698223D01*
X102424653Y-85725160D01*
X102559340Y-85805972D01*
X102640152Y-85886784D01*
X102720964Y-86021471D01*
X102747902Y-86102284D01*
X102747902Y-86210033D01*
X102694027Y-86317783D01*
X102640152Y-86371658D01*
X102532402Y-86425532D01*
X102478528Y-86425532D01*
X102289966Y-86236971D01*
X102397715Y-86129221D01*
X102289966Y-86721844D02*
X101724280Y-86156158D01*
X101508781Y-86371658D01*
X101481844Y-86452470D01*
X101481844Y-86506345D01*
X101508781Y-86587157D01*
X101589593Y-86667969D01*
X101670406Y-86694906D01*
X101724280Y-86694906D01*
X101805093Y-86667969D01*
X102020592Y-86452470D01*
X101427969Y-87583841D02*
X101751218Y-87260592D01*
X101589593Y-87422216D02*
X101023908Y-86856531D01*
X101158595Y-86883468D01*
X101266345Y-86883468D01*
X101347157Y-86856531D01*
X100565972Y-87691590D02*
X100943096Y-88068714D01*
X100485160Y-87341404D02*
X101023908Y-87610778D01*
X100673722Y-87960964D01*
X96940592Y-85959722D02*
X96967529Y-85878910D01*
X97048341Y-85798097D01*
X97156091Y-85744223D01*
X97263841Y-85744223D01*
X97344653Y-85771160D01*
X97479340Y-85851972D01*
X97560152Y-85932784D01*
X97640964Y-86067471D01*
X97667902Y-86148284D01*
X97667902Y-86256033D01*
X97614027Y-86363783D01*
X97560152Y-86417658D01*
X97452402Y-86471532D01*
X97398528Y-86471532D01*
X97209966Y-86282971D01*
X97317715Y-86175221D01*
X97209966Y-86767844D02*
X96644280Y-86202158D01*
X96428781Y-86417658D01*
X96401844Y-86498470D01*
X96401844Y-86552345D01*
X96428781Y-86633157D01*
X96509593Y-86713969D01*
X96590406Y-86740906D01*
X96644280Y-86740906D01*
X96725093Y-86713969D01*
X96940592Y-86498470D01*
X96347969Y-87629841D02*
X96671218Y-87306592D01*
X96509593Y-87468216D02*
X95943908Y-86902531D01*
X96078595Y-86929468D01*
X96186345Y-86929468D01*
X96267157Y-86902531D01*
X95593722Y-87252717D02*
X95243536Y-87602903D01*
X95647597Y-87629841D01*
X95566784Y-87710653D01*
X95539847Y-87791465D01*
X95539847Y-87845340D01*
X95566784Y-87926152D01*
X95701471Y-88060839D01*
X95782284Y-88087776D01*
X95836158Y-88087776D01*
X95916971Y-88060839D01*
X96078595Y-87899215D01*
X96105532Y-87818402D01*
X96105532Y-87764528D01*
X94400592Y-85813722D02*
X94427529Y-85732910D01*
X94508341Y-85652097D01*
X94616091Y-85598223D01*
X94723841Y-85598223D01*
X94804653Y-85625160D01*
X94939340Y-85705972D01*
X95020152Y-85786784D01*
X95100964Y-85921471D01*
X95127902Y-86002284D01*
X95127902Y-86110033D01*
X95074027Y-86217783D01*
X95020152Y-86271658D01*
X94912402Y-86325532D01*
X94858528Y-86325532D01*
X94669966Y-86136971D01*
X94777715Y-86029221D01*
X94669966Y-86621844D02*
X94104280Y-86056158D01*
X93888781Y-86271658D01*
X93861844Y-86352470D01*
X93861844Y-86406345D01*
X93888781Y-86487157D01*
X93969593Y-86567969D01*
X94050406Y-86594906D01*
X94104280Y-86594906D01*
X94185093Y-86567969D01*
X94400592Y-86352470D01*
X93807969Y-87483841D02*
X94131218Y-87160592D01*
X93969593Y-87322216D02*
X93403908Y-86756531D01*
X93538595Y-86783468D01*
X93646345Y-86783468D01*
X93727157Y-86756531D01*
X93080659Y-87187529D02*
X93026784Y-87187529D01*
X92945972Y-87214467D01*
X92811285Y-87349154D01*
X92784348Y-87429966D01*
X92784348Y-87483841D01*
X92811285Y-87564653D01*
X92865160Y-87618528D01*
X92972910Y-87672402D01*
X93619407Y-87672402D01*
X93269221Y-88022589D01*
X91860592Y-85813722D02*
X91887529Y-85732910D01*
X91968341Y-85652097D01*
X92076091Y-85598223D01*
X92183841Y-85598223D01*
X92264653Y-85625160D01*
X92399340Y-85705972D01*
X92480152Y-85786784D01*
X92560964Y-85921471D01*
X92587902Y-86002284D01*
X92587902Y-86110033D01*
X92534027Y-86217783D01*
X92480152Y-86271658D01*
X92372402Y-86325532D01*
X92318528Y-86325532D01*
X92129966Y-86136971D01*
X92237715Y-86029221D01*
X92129966Y-86621844D02*
X91564280Y-86056158D01*
X91348781Y-86271658D01*
X91321844Y-86352470D01*
X91321844Y-86406345D01*
X91348781Y-86487157D01*
X91429593Y-86567969D01*
X91510406Y-86594906D01*
X91564280Y-86594906D01*
X91645093Y-86567969D01*
X91860592Y-86352470D01*
X91267969Y-87483841D02*
X91591218Y-87160592D01*
X91429593Y-87322216D02*
X90863908Y-86756531D01*
X90998595Y-86783468D01*
X91106345Y-86783468D01*
X91187157Y-86756531D01*
X90729221Y-88022589D02*
X91052470Y-87699340D01*
X90890845Y-87860964D02*
X90325160Y-87295279D01*
X90459847Y-87322216D01*
X90567597Y-87322216D01*
X90648409Y-87295279D01*
X89320592Y-85959722D02*
X89347529Y-85878910D01*
X89428341Y-85798097D01*
X89536091Y-85744223D01*
X89643841Y-85744223D01*
X89724653Y-85771160D01*
X89859340Y-85851972D01*
X89940152Y-85932784D01*
X90020964Y-86067471D01*
X90047902Y-86148284D01*
X90047902Y-86256033D01*
X89994027Y-86363783D01*
X89940152Y-86417658D01*
X89832402Y-86471532D01*
X89778528Y-86471532D01*
X89589966Y-86282971D01*
X89697715Y-86175221D01*
X89589966Y-86767844D02*
X89024280Y-86202158D01*
X88808781Y-86417658D01*
X88781844Y-86498470D01*
X88781844Y-86552345D01*
X88808781Y-86633157D01*
X88889593Y-86713969D01*
X88970406Y-86740906D01*
X89024280Y-86740906D01*
X89105093Y-86713969D01*
X89320592Y-86498470D01*
X88727969Y-87629841D02*
X89051218Y-87306592D01*
X88889593Y-87468216D02*
X88323908Y-86902531D01*
X88458595Y-86929468D01*
X88566345Y-86929468D01*
X88647157Y-86902531D01*
X87812097Y-87414341D02*
X87758223Y-87468216D01*
X87731285Y-87549028D01*
X87731285Y-87602903D01*
X87758223Y-87683715D01*
X87839035Y-87818402D01*
X87973722Y-87953089D01*
X88108409Y-88033902D01*
X88189221Y-88060839D01*
X88243096Y-88060839D01*
X88323908Y-88033902D01*
X88377783Y-87980027D01*
X88404720Y-87899215D01*
X88404720Y-87845340D01*
X88377783Y-87764528D01*
X88296971Y-87629841D01*
X88162284Y-87495154D01*
X88027597Y-87414341D01*
X87946784Y-87387404D01*
X87892910Y-87387404D01*
X87812097Y-87414341D01*
X83971218Y-86483096D02*
X83998155Y-86402284D01*
X84078967Y-86321471D01*
X84186717Y-86267597D01*
X84294467Y-86267597D01*
X84375279Y-86294534D01*
X84509966Y-86375346D01*
X84590778Y-86456158D01*
X84671590Y-86590845D01*
X84698528Y-86671658D01*
X84698528Y-86779407D01*
X84644653Y-86887157D01*
X84590778Y-86941032D01*
X84483028Y-86994906D01*
X84429154Y-86994906D01*
X84240592Y-86806345D01*
X84348341Y-86698595D01*
X84240592Y-87291218D02*
X83674906Y-86725532D01*
X83459407Y-86941032D01*
X83432470Y-87021844D01*
X83432470Y-87075719D01*
X83459407Y-87156531D01*
X83540219Y-87237343D01*
X83621032Y-87264280D01*
X83674906Y-87264280D01*
X83755719Y-87237343D01*
X83971218Y-87021844D01*
X83647969Y-87883841D02*
X83540219Y-87991590D01*
X83459407Y-88018528D01*
X83405532Y-88018528D01*
X83270845Y-87991590D01*
X83136158Y-87910778D01*
X82920659Y-87695279D01*
X82893722Y-87614467D01*
X82893722Y-87560592D01*
X82920659Y-87479780D01*
X83028409Y-87372030D01*
X83109221Y-87345093D01*
X83163096Y-87345093D01*
X83243908Y-87372030D01*
X83378595Y-87506717D01*
X83405532Y-87587529D01*
X83405532Y-87641404D01*
X83378595Y-87722216D01*
X83270845Y-87829966D01*
X83190033Y-87856903D01*
X83136158Y-87856903D01*
X83055346Y-87829966D01*
X81431218Y-86483096D02*
X81458155Y-86402284D01*
X81538967Y-86321471D01*
X81646717Y-86267597D01*
X81754467Y-86267597D01*
X81835279Y-86294534D01*
X81969966Y-86375346D01*
X82050778Y-86456158D01*
X82131590Y-86590845D01*
X82158528Y-86671658D01*
X82158528Y-86779407D01*
X82104653Y-86887157D01*
X82050778Y-86941032D01*
X81943028Y-86994906D01*
X81889154Y-86994906D01*
X81700592Y-86806345D01*
X81808341Y-86698595D01*
X81700592Y-87291218D02*
X81134906Y-86725532D01*
X80919407Y-86941032D01*
X80892470Y-87021844D01*
X80892470Y-87075719D01*
X80919407Y-87156531D01*
X81000219Y-87237343D01*
X81081032Y-87264280D01*
X81134906Y-87264280D01*
X81215719Y-87237343D01*
X81431218Y-87021844D01*
X80730845Y-87614467D02*
X80757783Y-87533654D01*
X80757783Y-87479780D01*
X80730845Y-87398967D01*
X80703908Y-87372030D01*
X80623096Y-87345093D01*
X80569221Y-87345093D01*
X80488409Y-87372030D01*
X80380659Y-87479780D01*
X80353722Y-87560592D01*
X80353722Y-87614467D01*
X80380659Y-87695279D01*
X80407597Y-87722216D01*
X80488409Y-87749154D01*
X80542284Y-87749154D01*
X80623096Y-87722216D01*
X80730845Y-87614467D01*
X80811658Y-87587529D01*
X80865532Y-87587529D01*
X80946345Y-87614467D01*
X81054094Y-87722216D01*
X81081032Y-87803028D01*
X81081032Y-87856903D01*
X81054094Y-87937715D01*
X80946345Y-88045465D01*
X80865532Y-88072402D01*
X80811658Y-88072402D01*
X80730845Y-88045465D01*
X80623096Y-87937715D01*
X80596158Y-87856903D01*
X80596158Y-87803028D01*
X80623096Y-87722216D01*
X78861218Y-86583096D02*
X78888155Y-86502284D01*
X78968967Y-86421471D01*
X79076717Y-86367597D01*
X79184467Y-86367597D01*
X79265279Y-86394534D01*
X79399966Y-86475346D01*
X79480778Y-86556158D01*
X79561590Y-86690845D01*
X79588528Y-86771658D01*
X79588528Y-86879407D01*
X79534653Y-86987157D01*
X79480778Y-87041032D01*
X79373028Y-87094906D01*
X79319154Y-87094906D01*
X79130592Y-86906345D01*
X79238341Y-86798595D01*
X79130592Y-87391218D02*
X78564906Y-86825532D01*
X78349407Y-87041032D01*
X78322470Y-87121844D01*
X78322470Y-87175719D01*
X78349407Y-87256531D01*
X78430219Y-87337343D01*
X78511032Y-87364280D01*
X78564906Y-87364280D01*
X78645719Y-87337343D01*
X78861218Y-87121844D01*
X78053096Y-87337343D02*
X77675972Y-87714467D01*
X78484094Y-88037715D01*
X76351218Y-86483096D02*
X76378155Y-86402284D01*
X76458967Y-86321471D01*
X76566717Y-86267597D01*
X76674467Y-86267597D01*
X76755279Y-86294534D01*
X76889966Y-86375346D01*
X76970778Y-86456158D01*
X77051590Y-86590845D01*
X77078528Y-86671658D01*
X77078528Y-86779407D01*
X77024653Y-86887157D01*
X76970778Y-86941032D01*
X76863028Y-86994906D01*
X76809154Y-86994906D01*
X76620592Y-86806345D01*
X76728341Y-86698595D01*
X76620592Y-87291218D02*
X76054906Y-86725532D01*
X75839407Y-86941032D01*
X75812470Y-87021844D01*
X75812470Y-87075719D01*
X75839407Y-87156531D01*
X75920219Y-87237343D01*
X76001032Y-87264280D01*
X76054906Y-87264280D01*
X76135719Y-87237343D01*
X76351218Y-87021844D01*
X75246784Y-87533654D02*
X75354534Y-87425905D01*
X75435346Y-87398967D01*
X75489221Y-87398967D01*
X75623908Y-87425905D01*
X75758595Y-87506717D01*
X75974094Y-87722216D01*
X76001032Y-87803028D01*
X76001032Y-87856903D01*
X75974094Y-87937715D01*
X75866345Y-88045465D01*
X75785532Y-88072402D01*
X75731658Y-88072402D01*
X75650845Y-88045465D01*
X75516158Y-87910778D01*
X75489221Y-87829966D01*
X75489221Y-87776091D01*
X75516158Y-87695279D01*
X75623908Y-87587529D01*
X75704720Y-87560592D01*
X75758595Y-87560592D01*
X75839407Y-87587529D01*
X71271218Y-86483096D02*
X71298155Y-86402284D01*
X71378967Y-86321471D01*
X71486717Y-86267597D01*
X71594467Y-86267597D01*
X71675279Y-86294534D01*
X71809966Y-86375346D01*
X71890778Y-86456158D01*
X71971590Y-86590845D01*
X71998528Y-86671658D01*
X71998528Y-86779407D01*
X71944653Y-86887157D01*
X71890778Y-86941032D01*
X71783028Y-86994906D01*
X71729154Y-86994906D01*
X71540592Y-86806345D01*
X71648341Y-86698595D01*
X71540592Y-87291218D02*
X70974906Y-86725532D01*
X70759407Y-86941032D01*
X70732470Y-87021844D01*
X70732470Y-87075719D01*
X70759407Y-87156531D01*
X70840219Y-87237343D01*
X70921032Y-87264280D01*
X70974906Y-87264280D01*
X71055719Y-87237343D01*
X71271218Y-87021844D01*
X70139847Y-87560592D02*
X70409221Y-87291218D01*
X70705532Y-87533654D01*
X70651658Y-87533654D01*
X70570845Y-87560592D01*
X70436158Y-87695279D01*
X70409221Y-87776091D01*
X70409221Y-87829966D01*
X70436158Y-87910778D01*
X70570845Y-88045465D01*
X70651658Y-88072402D01*
X70705532Y-88072402D01*
X70786345Y-88045465D01*
X70921032Y-87910778D01*
X70947969Y-87829966D01*
X70947969Y-87776091D01*
X68731218Y-86483096D02*
X68758155Y-86402284D01*
X68838967Y-86321471D01*
X68946717Y-86267597D01*
X69054467Y-86267597D01*
X69135279Y-86294534D01*
X69269966Y-86375346D01*
X69350778Y-86456158D01*
X69431590Y-86590845D01*
X69458528Y-86671658D01*
X69458528Y-86779407D01*
X69404653Y-86887157D01*
X69350778Y-86941032D01*
X69243028Y-86994906D01*
X69189154Y-86994906D01*
X69000592Y-86806345D01*
X69108341Y-86698595D01*
X69000592Y-87291218D02*
X68434906Y-86725532D01*
X68219407Y-86941032D01*
X68192470Y-87021844D01*
X68192470Y-87075719D01*
X68219407Y-87156531D01*
X68300219Y-87237343D01*
X68381032Y-87264280D01*
X68434906Y-87264280D01*
X68515719Y-87237343D01*
X68731218Y-87021844D01*
X67815346Y-87722216D02*
X68192470Y-88099340D01*
X67734534Y-87372030D02*
X68273282Y-87641404D01*
X67923096Y-87991590D01*
X66191218Y-86483096D02*
X66218155Y-86402284D01*
X66298967Y-86321471D01*
X66406717Y-86267597D01*
X66514467Y-86267597D01*
X66595279Y-86294534D01*
X66729966Y-86375346D01*
X66810778Y-86456158D01*
X66891590Y-86590845D01*
X66918528Y-86671658D01*
X66918528Y-86779407D01*
X66864653Y-86887157D01*
X66810778Y-86941032D01*
X66703028Y-86994906D01*
X66649154Y-86994906D01*
X66460592Y-86806345D01*
X66568341Y-86698595D01*
X66460592Y-87291218D02*
X65894906Y-86725532D01*
X65679407Y-86941032D01*
X65652470Y-87021844D01*
X65652470Y-87075719D01*
X65679407Y-87156531D01*
X65760219Y-87237343D01*
X65841032Y-87264280D01*
X65894906Y-87264280D01*
X65975719Y-87237343D01*
X66191218Y-87021844D01*
X65383096Y-87237343D02*
X65032910Y-87587529D01*
X65436971Y-87614467D01*
X65356158Y-87695279D01*
X65329221Y-87776091D01*
X65329221Y-87829966D01*
X65356158Y-87910778D01*
X65490845Y-88045465D01*
X65571658Y-88072402D01*
X65625532Y-88072402D01*
X65706345Y-88045465D01*
X65867969Y-87883841D01*
X65894906Y-87803028D01*
X65894906Y-87749154D01*
X56031218Y-86483096D02*
X56058155Y-86402284D01*
X56138967Y-86321471D01*
X56246717Y-86267597D01*
X56354467Y-86267597D01*
X56435279Y-86294534D01*
X56569966Y-86375346D01*
X56650778Y-86456158D01*
X56731590Y-86590845D01*
X56758528Y-86671658D01*
X56758528Y-86779407D01*
X56704653Y-86887157D01*
X56650778Y-86941032D01*
X56543028Y-86994906D01*
X56489154Y-86994906D01*
X56300592Y-86806345D01*
X56408341Y-86698595D01*
X56300592Y-87291218D02*
X55734906Y-86725532D01*
X55519407Y-86941032D01*
X55492470Y-87021844D01*
X55492470Y-87075719D01*
X55519407Y-87156531D01*
X55600219Y-87237343D01*
X55681032Y-87264280D01*
X55734906Y-87264280D01*
X55815719Y-87237343D01*
X56031218Y-87021844D01*
X55061471Y-87398967D02*
X55007597Y-87452842D01*
X54980659Y-87533654D01*
X54980659Y-87587529D01*
X55007597Y-87668341D01*
X55088409Y-87803028D01*
X55223096Y-87937715D01*
X55357783Y-88018528D01*
X55438595Y-88045465D01*
X55492470Y-88045465D01*
X55573282Y-88018528D01*
X55627157Y-87964653D01*
X55654094Y-87883841D01*
X55654094Y-87829966D01*
X55627157Y-87749154D01*
X55546345Y-87614467D01*
X55411658Y-87479780D01*
X55276971Y-87398967D01*
X55196158Y-87372030D01*
X55142284Y-87372030D01*
X55061471Y-87398967D01*
X63651218Y-86383096D02*
X63678155Y-86302284D01*
X63758967Y-86221471D01*
X63866717Y-86167597D01*
X63974467Y-86167597D01*
X64055279Y-86194534D01*
X64189966Y-86275346D01*
X64270778Y-86356158D01*
X64351590Y-86490845D01*
X64378528Y-86571658D01*
X64378528Y-86679407D01*
X64324653Y-86787157D01*
X64270778Y-86841032D01*
X64163028Y-86894906D01*
X64109154Y-86894906D01*
X63920592Y-86706345D01*
X64028341Y-86598595D01*
X63920592Y-87191218D02*
X63354906Y-86625532D01*
X63139407Y-86841032D01*
X63112470Y-86921844D01*
X63112470Y-86975719D01*
X63139407Y-87056531D01*
X63220219Y-87137343D01*
X63301032Y-87164280D01*
X63354906Y-87164280D01*
X63435719Y-87137343D01*
X63651218Y-86921844D01*
X62870033Y-87218155D02*
X62816158Y-87218155D01*
X62735346Y-87245093D01*
X62600659Y-87379780D01*
X62573722Y-87460592D01*
X62573722Y-87514467D01*
X62600659Y-87595279D01*
X62654534Y-87649154D01*
X62762284Y-87703028D01*
X63408781Y-87703028D01*
X63058595Y-88053215D01*
X58561218Y-86383096D02*
X58588155Y-86302284D01*
X58668967Y-86221471D01*
X58776717Y-86167597D01*
X58884467Y-86167597D01*
X58965279Y-86194534D01*
X59099966Y-86275346D01*
X59180778Y-86356158D01*
X59261590Y-86490845D01*
X59288528Y-86571658D01*
X59288528Y-86679407D01*
X59234653Y-86787157D01*
X59180778Y-86841032D01*
X59073028Y-86894906D01*
X59019154Y-86894906D01*
X58830592Y-86706345D01*
X58938341Y-86598595D01*
X58830592Y-87191218D02*
X58264906Y-86625532D01*
X58049407Y-86841032D01*
X58022470Y-86921844D01*
X58022470Y-86975719D01*
X58049407Y-87056531D01*
X58130219Y-87137343D01*
X58211032Y-87164280D01*
X58264906Y-87164280D01*
X58345719Y-87137343D01*
X58561218Y-86921844D01*
X57968595Y-88053215D02*
X58291844Y-87729966D01*
X58130219Y-87891590D02*
X57564534Y-87325905D01*
X57699221Y-87352842D01*
X57806971Y-87352842D01*
X57887783Y-87325905D01*
X82704761Y-46033809D02*
X82752380Y-46176666D01*
X82752380Y-46414761D01*
X82704761Y-46510000D01*
X82657142Y-46557619D01*
X82561904Y-46605238D01*
X82466666Y-46605238D01*
X82371428Y-46557619D01*
X82323809Y-46510000D01*
X82276190Y-46414761D01*
X82228571Y-46224285D01*
X82180952Y-46129047D01*
X82133333Y-46081428D01*
X82038095Y-46033809D01*
X81942857Y-46033809D01*
X81847619Y-46081428D01*
X81800000Y-46129047D01*
X81752380Y-46224285D01*
X81752380Y-46462380D01*
X81800000Y-46605238D01*
X81752380Y-46890952D02*
X81752380Y-47462380D01*
X82752380Y-47176666D02*
X81752380Y-47176666D01*
X82228571Y-47795714D02*
X82228571Y-48129047D01*
X82752380Y-48271904D02*
X82752380Y-47795714D01*
X81752380Y-47795714D01*
X81752380Y-48271904D01*
X82752380Y-48700476D02*
X81752380Y-48700476D01*
X82466666Y-49033809D01*
X81752380Y-49367142D01*
X82752380Y-49367142D01*
X82752380Y-49843333D02*
X81752380Y-49843333D01*
X82466666Y-50176666D01*
X81752380Y-50510000D01*
X82752380Y-50510000D01*
X82466666Y-50938571D02*
X82466666Y-51414761D01*
X82752380Y-50843333D02*
X81752380Y-51176666D01*
X82752380Y-51510000D01*
X82847619Y-53271904D02*
X82800000Y-53176666D01*
X82704761Y-53081428D01*
X82561904Y-52938571D01*
X82514285Y-52843333D01*
X82514285Y-52748095D01*
X82752380Y-52795714D02*
X82704761Y-52700476D01*
X82609523Y-52605238D01*
X82419047Y-52557619D01*
X82085714Y-52557619D01*
X81895238Y-52605238D01*
X81800000Y-52700476D01*
X81752380Y-52795714D01*
X81752380Y-52986190D01*
X81800000Y-53081428D01*
X81895238Y-53176666D01*
X82085714Y-53224285D01*
X82419047Y-53224285D01*
X82609523Y-53176666D01*
X82704761Y-53081428D01*
X82752380Y-52986190D01*
X82752380Y-52795714D01*
X81752380Y-53510000D02*
X81752380Y-54081428D01*
X82752380Y-53795714D02*
X81752380Y-53795714D01*
%LPC*%
D13*
X92092857Y-122628571D02*
X92092857Y-121128571D01*
X91235714Y-122628571D02*
X91878571Y-121771428D01*
X91235714Y-121128571D02*
X92092857Y-121985714D01*
X90092857Y-121842857D02*
X90592857Y-121842857D01*
X90592857Y-122628571D02*
X90592857Y-121128571D01*
X89878571Y-121128571D01*
X89021428Y-121128571D02*
X88878571Y-121128571D01*
X88735714Y-121200000D01*
X88664285Y-121271428D01*
X88592857Y-121414285D01*
X88521428Y-121700000D01*
X88521428Y-122057142D01*
X88592857Y-122342857D01*
X88664285Y-122485714D01*
X88735714Y-122557142D01*
X88878571Y-122628571D01*
X89021428Y-122628571D01*
X89164285Y-122557142D01*
X89235714Y-122485714D01*
X89307142Y-122342857D01*
X89378571Y-122057142D01*
X89378571Y-121700000D01*
X89307142Y-121414285D01*
X89235714Y-121271428D01*
X89164285Y-121200000D01*
X89021428Y-121128571D01*
X87592857Y-121128571D02*
X87450000Y-121128571D01*
X87307142Y-121200000D01*
X87235714Y-121271428D01*
X87164285Y-121414285D01*
X87092857Y-121700000D01*
X87092857Y-122057142D01*
X87164285Y-122342857D01*
X87235714Y-122485714D01*
X87307142Y-122557142D01*
X87450000Y-122628571D01*
X87592857Y-122628571D01*
X87735714Y-122557142D01*
X87807142Y-122485714D01*
X87878571Y-122342857D01*
X87950000Y-122057142D01*
X87950000Y-121700000D01*
X87878571Y-121414285D01*
X87807142Y-121271428D01*
X87735714Y-121200000D01*
X87592857Y-121128571D01*
X86521428Y-121271428D02*
X86450000Y-121200000D01*
X86307142Y-121128571D01*
X85950000Y-121128571D01*
X85807142Y-121200000D01*
X85735714Y-121271428D01*
X85664285Y-121414285D01*
X85664285Y-121557142D01*
X85735714Y-121771428D01*
X86592857Y-122628571D01*
X85664285Y-122628571D01*
X83878571Y-122057142D02*
X82735714Y-122057142D01*
X80950000Y-122557142D02*
X80735714Y-122628571D01*
X80378571Y-122628571D01*
X80235714Y-122557142D01*
X80164285Y-122485714D01*
X80092857Y-122342857D01*
X80092857Y-122200000D01*
X80164285Y-122057142D01*
X80235714Y-121985714D01*
X80378571Y-121914285D01*
X80664285Y-121842857D01*
X80807142Y-121771428D01*
X80878571Y-121700000D01*
X80950000Y-121557142D01*
X80950000Y-121414285D01*
X80878571Y-121271428D01*
X80807142Y-121200000D01*
X80664285Y-121128571D01*
X80307142Y-121128571D01*
X80092857Y-121200000D01*
X79235714Y-122628571D02*
X79378571Y-122557142D01*
X79450000Y-122414285D01*
X79450000Y-121128571D01*
X78092857Y-122557142D02*
X78235714Y-122628571D01*
X78521428Y-122628571D01*
X78664285Y-122557142D01*
X78735714Y-122414285D01*
X78735714Y-121842857D01*
X78664285Y-121700000D01*
X78521428Y-121628571D01*
X78235714Y-121628571D01*
X78092857Y-121700000D01*
X78021428Y-121842857D01*
X78021428Y-121985714D01*
X78735714Y-122128571D01*
X76807142Y-122557142D02*
X76950000Y-122628571D01*
X77235714Y-122628571D01*
X77378571Y-122557142D01*
X77450000Y-122414285D01*
X77450000Y-121842857D01*
X77378571Y-121700000D01*
X77235714Y-121628571D01*
X76950000Y-121628571D01*
X76807142Y-121700000D01*
X76735714Y-121842857D01*
X76735714Y-121985714D01*
X77450000Y-122128571D01*
X76092857Y-121628571D02*
X76092857Y-123128571D01*
X76092857Y-121700000D02*
X75950000Y-121628571D01*
X75664285Y-121628571D01*
X75521428Y-121700000D01*
X75450000Y-121771428D01*
X75378571Y-121914285D01*
X75378571Y-122342857D01*
X75450000Y-122485714D01*
X75521428Y-122557142D01*
X75664285Y-122628571D01*
X75950000Y-122628571D01*
X76092857Y-122557142D01*
X73592857Y-121128571D02*
X73592857Y-122342857D01*
X73521428Y-122485714D01*
X73450000Y-122557142D01*
X73307142Y-122628571D01*
X73021428Y-122628571D01*
X72878571Y-122557142D01*
X72807142Y-122485714D01*
X72735714Y-122342857D01*
X72735714Y-121128571D01*
X72021428Y-121628571D02*
X72021428Y-122628571D01*
X72021428Y-121771428D02*
X71950000Y-121700000D01*
X71807142Y-121628571D01*
X71592857Y-121628571D01*
X71450000Y-121700000D01*
X71378571Y-121842857D01*
X71378571Y-122628571D01*
X70664285Y-122628571D02*
X70664285Y-121628571D01*
X70664285Y-121128571D02*
X70735714Y-121200000D01*
X70664285Y-121271428D01*
X70592857Y-121200000D01*
X70664285Y-121128571D01*
X70664285Y-121271428D01*
X70164285Y-121628571D02*
X69592857Y-121628571D01*
X69950000Y-121128571D02*
X69950000Y-122414285D01*
X69878571Y-122557142D01*
X69735714Y-122628571D01*
X69592857Y-122628571D01*
D14*
X204260000Y-94710000D03*
X204260000Y-89670000D03*
X206800000Y-94710000D03*
X206800000Y-89670000D03*
X209340000Y-94710000D03*
X209340000Y-89670000D03*
X211880000Y-94710000D03*
X211880000Y-89670000D03*
X214420000Y-94710000D03*
X214420000Y-89670000D03*
X216960000Y-94710000D03*
X216960000Y-89670000D03*
X219500000Y-94710000D03*
X219500000Y-89670000D03*
X222040000Y-94710000D03*
X222040000Y-89670000D03*
X224580000Y-94710000D03*
X224580000Y-89670000D03*
X227120000Y-94710000D03*
X227120000Y-89670000D03*
D15*
X103940000Y-102510000D03*
D16*
X104840000Y-102510000D03*
D17*
X103940000Y-99970000D03*
D16*
X104840000Y-99970000D03*
D15*
X103940000Y-97430000D03*
D16*
X104840000Y-97430000D03*
D18*
X59070000Y-102395000D03*
X59070000Y-97545000D03*
D19*
X56040000Y-102695000D03*
X56040000Y-97245000D03*
D20*
X104170000Y-109760000D03*
X101630000Y-109760000D03*
X99090000Y-109760000D03*
X96550000Y-109760000D03*
X94010000Y-109760000D03*
X91470000Y-109760000D03*
X88930000Y-109760000D03*
X86390000Y-109760000D03*
X83850000Y-109760000D03*
X81310000Y-109760000D03*
X78770000Y-109760000D03*
X76230000Y-109760000D03*
X73690000Y-109760000D03*
X71150000Y-109760000D03*
X68610000Y-109760000D03*
X66070000Y-109760000D03*
X63530000Y-109760000D03*
X60990000Y-109760000D03*
X58450000Y-109760000D03*
X55910000Y-109760000D03*
X104170000Y-90180000D03*
X101630000Y-90180000D03*
X99090000Y-90180000D03*
X96550000Y-90180000D03*
X94010000Y-90180000D03*
X91470000Y-90180000D03*
X88930000Y-90180000D03*
X86390000Y-90180000D03*
X83850000Y-90180000D03*
X81310000Y-90180000D03*
X78770000Y-90180000D03*
X76230000Y-90180000D03*
X73690000Y-90180000D03*
X71150000Y-90180000D03*
X68610000Y-90180000D03*
X66070000Y-90180000D03*
X63530000Y-90180000D03*
X60990000Y-90180000D03*
X58450000Y-90180000D03*
X55910000Y-90180000D03*
D15*
X55910000Y-108860000D03*
X58450000Y-108860000D03*
D17*
X60990000Y-108860000D03*
D15*
X63530000Y-108860000D03*
X66070000Y-108860000D03*
X68610000Y-108860000D03*
X71150000Y-108860000D03*
D17*
X73690000Y-108860000D03*
D15*
X76230000Y-108860000D03*
X78770000Y-108860000D03*
X81310000Y-108860000D03*
X83850000Y-108860000D03*
D17*
X86390000Y-108860000D03*
D15*
X88930000Y-108860000D03*
X91470000Y-108860000D03*
X94010000Y-108860000D03*
X96550000Y-108860000D03*
D17*
X99090000Y-108860000D03*
D15*
X101630000Y-108860000D03*
X104170000Y-108860000D03*
X104170000Y-91080000D03*
X101630000Y-91080000D03*
D17*
X99090000Y-91080000D03*
D15*
X96550000Y-91080000D03*
X94010000Y-91080000D03*
X91470000Y-91080000D03*
X88930000Y-91080000D03*
D17*
X86390000Y-91080000D03*
D15*
X83850000Y-91080000D03*
X81310000Y-91080000D03*
X78770000Y-91080000D03*
X76230000Y-91080000D03*
D17*
X73690000Y-91080000D03*
D15*
X71150000Y-91080000D03*
X68610000Y-91080000D03*
X66070000Y-91080000D03*
X63530000Y-91080000D03*
D17*
X60990000Y-91080000D03*
D15*
X58450000Y-91080000D03*
X55910000Y-91080000D03*
G36*
G01*
X72550000Y-52375000D02*
X72550000Y-53325000D01*
G75*
G02*
X72300000Y-53575000I-250000J0D01*
G01*
X71800000Y-53575000D01*
G75*
G02*
X71550000Y-53325000I0J250000D01*
G01*
X71550000Y-52375000D01*
G75*
G02*
X71800000Y-52125000I250000J0D01*
G01*
X72300000Y-52125000D01*
G75*
G02*
X72550000Y-52375000I0J-250000D01*
G01*
G37*
G36*
G01*
X74450000Y-52375000D02*
X74450000Y-53325000D01*
G75*
G02*
X74200000Y-53575000I-250000J0D01*
G01*
X73700000Y-53575000D01*
G75*
G02*
X73450000Y-53325000I0J250000D01*
G01*
X73450000Y-52375000D01*
G75*
G02*
X73700000Y-52125000I250000J0D01*
G01*
X74200000Y-52125000D01*
G75*
G02*
X74450000Y-52375000I0J-250000D01*
G01*
G37*
G36*
G01*
X68600000Y-52375000D02*
X68600000Y-53325000D01*
G75*
G02*
X68350000Y-53575000I-250000J0D01*
G01*
X67850000Y-53575000D01*
G75*
G02*
X67600000Y-53325000I0J250000D01*
G01*
X67600000Y-52375000D01*
G75*
G02*
X67850000Y-52125000I250000J0D01*
G01*
X68350000Y-52125000D01*
G75*
G02*
X68600000Y-52375000I0J-250000D01*
G01*
G37*
G36*
G01*
X70500000Y-52375000D02*
X70500000Y-53325000D01*
G75*
G02*
X70250000Y-53575000I-250000J0D01*
G01*
X69750000Y-53575000D01*
G75*
G02*
X69500000Y-53325000I0J250000D01*
G01*
X69500000Y-52375000D01*
G75*
G02*
X69750000Y-52125000I250000J0D01*
G01*
X70250000Y-52125000D01*
G75*
G02*
X70500000Y-52375000I0J-250000D01*
G01*
G37*
G36*
G01*
X64575000Y-52375000D02*
X64575000Y-53325000D01*
G75*
G02*
X64325000Y-53575000I-250000J0D01*
G01*
X63825000Y-53575000D01*
G75*
G02*
X63575000Y-53325000I0J250000D01*
G01*
X63575000Y-52375000D01*
G75*
G02*
X63825000Y-52125000I250000J0D01*
G01*
X64325000Y-52125000D01*
G75*
G02*
X64575000Y-52375000I0J-250000D01*
G01*
G37*
G36*
G01*
X66475000Y-52375000D02*
X66475000Y-53325000D01*
G75*
G02*
X66225000Y-53575000I-250000J0D01*
G01*
X65725000Y-53575000D01*
G75*
G02*
X65475000Y-53325000I0J250000D01*
G01*
X65475000Y-52375000D01*
G75*
G02*
X65725000Y-52125000I250000J0D01*
G01*
X66225000Y-52125000D01*
G75*
G02*
X66475000Y-52375000I0J-250000D01*
G01*
G37*
G36*
G01*
X60600000Y-52375000D02*
X60600000Y-53325000D01*
G75*
G02*
X60350000Y-53575000I-250000J0D01*
G01*
X59850000Y-53575000D01*
G75*
G02*
X59600000Y-53325000I0J250000D01*
G01*
X59600000Y-52375000D01*
G75*
G02*
X59850000Y-52125000I250000J0D01*
G01*
X60350000Y-52125000D01*
G75*
G02*
X60600000Y-52375000I0J-250000D01*
G01*
G37*
G36*
G01*
X62500000Y-52375000D02*
X62500000Y-53325000D01*
G75*
G02*
X62250000Y-53575000I-250000J0D01*
G01*
X61750000Y-53575000D01*
G75*
G02*
X61500000Y-53325000I0J250000D01*
G01*
X61500000Y-52375000D01*
G75*
G02*
X61750000Y-52125000I250000J0D01*
G01*
X62250000Y-52125000D01*
G75*
G02*
X62500000Y-52375000I0J-250000D01*
G01*
G37*
G36*
G01*
X234810000Y-84410000D02*
X235760000Y-84410000D01*
G75*
G02*
X236010000Y-84660000I0J-250000D01*
G01*
X236010000Y-85160000D01*
G75*
G02*
X235760000Y-85410000I-250000J0D01*
G01*
X234810000Y-85410000D01*
G75*
G02*
X234560000Y-85160000I0J250000D01*
G01*
X234560000Y-84660000D01*
G75*
G02*
X234810000Y-84410000I250000J0D01*
G01*
G37*
G36*
G01*
X234810000Y-82510000D02*
X235760000Y-82510000D01*
G75*
G02*
X236010000Y-82760000I0J-250000D01*
G01*
X236010000Y-83260000D01*
G75*
G02*
X235760000Y-83510000I-250000J0D01*
G01*
X234810000Y-83510000D01*
G75*
G02*
X234560000Y-83260000I0J250000D01*
G01*
X234560000Y-82760000D01*
G75*
G02*
X234810000Y-82510000I250000J0D01*
G01*
G37*
G36*
G01*
X206010000Y-77310000D02*
X206960000Y-77310000D01*
G75*
G02*
X207210000Y-77560000I0J-250000D01*
G01*
X207210000Y-78060000D01*
G75*
G02*
X206960000Y-78310000I-250000J0D01*
G01*
X206010000Y-78310000D01*
G75*
G02*
X205760000Y-78060000I0J250000D01*
G01*
X205760000Y-77560000D01*
G75*
G02*
X206010000Y-77310000I250000J0D01*
G01*
G37*
G36*
G01*
X206010000Y-75410000D02*
X206960000Y-75410000D01*
G75*
G02*
X207210000Y-75660000I0J-250000D01*
G01*
X207210000Y-76160000D01*
G75*
G02*
X206960000Y-76410000I-250000J0D01*
G01*
X206010000Y-76410000D01*
G75*
G02*
X205760000Y-76160000I0J250000D01*
G01*
X205760000Y-75660000D01*
G75*
G02*
X206010000Y-75410000I250000J0D01*
G01*
G37*
G36*
G01*
X177210000Y-77310000D02*
X178160000Y-77310000D01*
G75*
G02*
X178410000Y-77560000I0J-250000D01*
G01*
X178410000Y-78060000D01*
G75*
G02*
X178160000Y-78310000I-250000J0D01*
G01*
X177210000Y-78310000D01*
G75*
G02*
X176960000Y-78060000I0J250000D01*
G01*
X176960000Y-77560000D01*
G75*
G02*
X177210000Y-77310000I250000J0D01*
G01*
G37*
G36*
G01*
X177210000Y-75410000D02*
X178160000Y-75410000D01*
G75*
G02*
X178410000Y-75660000I0J-250000D01*
G01*
X178410000Y-76160000D01*
G75*
G02*
X178160000Y-76410000I-250000J0D01*
G01*
X177210000Y-76410000D01*
G75*
G02*
X176960000Y-76160000I0J250000D01*
G01*
X176960000Y-75660000D01*
G75*
G02*
X177210000Y-75410000I250000J0D01*
G01*
G37*
G36*
G01*
X152810000Y-93310000D02*
X153760000Y-93310000D01*
G75*
G02*
X154010000Y-93560000I0J-250000D01*
G01*
X154010000Y-94060000D01*
G75*
G02*
X153760000Y-94310000I-250000J0D01*
G01*
X152810000Y-94310000D01*
G75*
G02*
X152560000Y-94060000I0J250000D01*
G01*
X152560000Y-93560000D01*
G75*
G02*
X152810000Y-93310000I250000J0D01*
G01*
G37*
G36*
G01*
X152810000Y-91410000D02*
X153760000Y-91410000D01*
G75*
G02*
X154010000Y-91660000I0J-250000D01*
G01*
X154010000Y-92160000D01*
G75*
G02*
X153760000Y-92410000I-250000J0D01*
G01*
X152810000Y-92410000D01*
G75*
G02*
X152560000Y-92160000I0J250000D01*
G01*
X152560000Y-91660000D01*
G75*
G02*
X152810000Y-91410000I250000J0D01*
G01*
G37*
G36*
G01*
X234260000Y-53210000D02*
X235210000Y-53210000D01*
G75*
G02*
X235460000Y-53460000I0J-250000D01*
G01*
X235460000Y-53960000D01*
G75*
G02*
X235210000Y-54210000I-250000J0D01*
G01*
X234260000Y-54210000D01*
G75*
G02*
X234010000Y-53960000I0J250000D01*
G01*
X234010000Y-53460000D01*
G75*
G02*
X234260000Y-53210000I250000J0D01*
G01*
G37*
G36*
G01*
X234260000Y-51310000D02*
X235210000Y-51310000D01*
G75*
G02*
X235460000Y-51560000I0J-250000D01*
G01*
X235460000Y-52060000D01*
G75*
G02*
X235210000Y-52310000I-250000J0D01*
G01*
X234260000Y-52310000D01*
G75*
G02*
X234010000Y-52060000I0J250000D01*
G01*
X234010000Y-51560000D01*
G75*
G02*
X234260000Y-51310000I250000J0D01*
G01*
G37*
G36*
G01*
X206010000Y-46010000D02*
X206960000Y-46010000D01*
G75*
G02*
X207210000Y-46260000I0J-250000D01*
G01*
X207210000Y-46760000D01*
G75*
G02*
X206960000Y-47010000I-250000J0D01*
G01*
X206010000Y-47010000D01*
G75*
G02*
X205760000Y-46760000I0J250000D01*
G01*
X205760000Y-46260000D01*
G75*
G02*
X206010000Y-46010000I250000J0D01*
G01*
G37*
G36*
G01*
X206010000Y-44110000D02*
X206960000Y-44110000D01*
G75*
G02*
X207210000Y-44360000I0J-250000D01*
G01*
X207210000Y-44860000D01*
G75*
G02*
X206960000Y-45110000I-250000J0D01*
G01*
X206010000Y-45110000D01*
G75*
G02*
X205760000Y-44860000I0J250000D01*
G01*
X205760000Y-44360000D01*
G75*
G02*
X206010000Y-44110000I250000J0D01*
G01*
G37*
G36*
G01*
X177210000Y-46110000D02*
X178160000Y-46110000D01*
G75*
G02*
X178410000Y-46360000I0J-250000D01*
G01*
X178410000Y-46860000D01*
G75*
G02*
X178160000Y-47110000I-250000J0D01*
G01*
X177210000Y-47110000D01*
G75*
G02*
X176960000Y-46860000I0J250000D01*
G01*
X176960000Y-46360000D01*
G75*
G02*
X177210000Y-46110000I250000J0D01*
G01*
G37*
G36*
G01*
X177210000Y-44210000D02*
X178160000Y-44210000D01*
G75*
G02*
X178410000Y-44460000I0J-250000D01*
G01*
X178410000Y-44960000D01*
G75*
G02*
X178160000Y-45210000I-250000J0D01*
G01*
X177210000Y-45210000D01*
G75*
G02*
X176960000Y-44960000I0J250000D01*
G01*
X176960000Y-44460000D01*
G75*
G02*
X177210000Y-44210000I250000J0D01*
G01*
G37*
G36*
G01*
X152810000Y-62110000D02*
X153760000Y-62110000D01*
G75*
G02*
X154010000Y-62360000I0J-250000D01*
G01*
X154010000Y-62860000D01*
G75*
G02*
X153760000Y-63110000I-250000J0D01*
G01*
X152810000Y-63110000D01*
G75*
G02*
X152560000Y-62860000I0J250000D01*
G01*
X152560000Y-62360000D01*
G75*
G02*
X152810000Y-62110000I250000J0D01*
G01*
G37*
G36*
G01*
X152810000Y-60210000D02*
X153760000Y-60210000D01*
G75*
G02*
X154010000Y-60460000I0J-250000D01*
G01*
X154010000Y-60960000D01*
G75*
G02*
X153760000Y-61210000I-250000J0D01*
G01*
X152810000Y-61210000D01*
G75*
G02*
X152560000Y-60960000I0J250000D01*
G01*
X152560000Y-60460000D01*
G75*
G02*
X152810000Y-60210000I250000J0D01*
G01*
G37*
G36*
G01*
X118115000Y-79310000D02*
X119065000Y-79310000D01*
G75*
G02*
X119315000Y-79560000I0J-250000D01*
G01*
X119315000Y-80060000D01*
G75*
G02*
X119065000Y-80310000I-250000J0D01*
G01*
X118115000Y-80310000D01*
G75*
G02*
X117865000Y-80060000I0J250000D01*
G01*
X117865000Y-79560000D01*
G75*
G02*
X118115000Y-79310000I250000J0D01*
G01*
G37*
G36*
G01*
X118115000Y-77410000D02*
X119065000Y-77410000D01*
G75*
G02*
X119315000Y-77660000I0J-250000D01*
G01*
X119315000Y-78160000D01*
G75*
G02*
X119065000Y-78410000I-250000J0D01*
G01*
X118115000Y-78410000D01*
G75*
G02*
X117865000Y-78160000I0J250000D01*
G01*
X117865000Y-77660000D01*
G75*
G02*
X118115000Y-77410000I250000J0D01*
G01*
G37*
G36*
G01*
X61245000Y-72110000D02*
X62195000Y-72110000D01*
G75*
G02*
X62445000Y-72360000I0J-250000D01*
G01*
X62445000Y-72860000D01*
G75*
G02*
X62195000Y-73110000I-250000J0D01*
G01*
X61245000Y-73110000D01*
G75*
G02*
X60995000Y-72860000I0J250000D01*
G01*
X60995000Y-72360000D01*
G75*
G02*
X61245000Y-72110000I250000J0D01*
G01*
G37*
G36*
G01*
X61245000Y-70210000D02*
X62195000Y-70210000D01*
G75*
G02*
X62445000Y-70460000I0J-250000D01*
G01*
X62445000Y-70960000D01*
G75*
G02*
X62195000Y-71210000I-250000J0D01*
G01*
X61245000Y-71210000D01*
G75*
G02*
X60995000Y-70960000I0J250000D01*
G01*
X60995000Y-70460000D01*
G75*
G02*
X61245000Y-70210000I250000J0D01*
G01*
G37*
G36*
G01*
X89880000Y-72110000D02*
X90830000Y-72110000D01*
G75*
G02*
X91080000Y-72360000I0J-250000D01*
G01*
X91080000Y-72860000D01*
G75*
G02*
X90830000Y-73110000I-250000J0D01*
G01*
X89880000Y-73110000D01*
G75*
G02*
X89630000Y-72860000I0J250000D01*
G01*
X89630000Y-72360000D01*
G75*
G02*
X89880000Y-72110000I250000J0D01*
G01*
G37*
G36*
G01*
X89880000Y-70210000D02*
X90830000Y-70210000D01*
G75*
G02*
X91080000Y-70460000I0J-250000D01*
G01*
X91080000Y-70960000D01*
G75*
G02*
X90830000Y-71210000I-250000J0D01*
G01*
X89880000Y-71210000D01*
G75*
G02*
X89630000Y-70960000I0J250000D01*
G01*
X89630000Y-70460000D01*
G75*
G02*
X89880000Y-70210000I250000J0D01*
G01*
G37*
G36*
G01*
X126915000Y-127340000D02*
X127865000Y-127340000D01*
G75*
G02*
X128115000Y-127590000I0J-250000D01*
G01*
X128115000Y-128090000D01*
G75*
G02*
X127865000Y-128340000I-250000J0D01*
G01*
X126915000Y-128340000D01*
G75*
G02*
X126665000Y-128090000I0J250000D01*
G01*
X126665000Y-127590000D01*
G75*
G02*
X126915000Y-127340000I250000J0D01*
G01*
G37*
G36*
G01*
X126915000Y-125440000D02*
X127865000Y-125440000D01*
G75*
G02*
X128115000Y-125690000I0J-250000D01*
G01*
X128115000Y-126190000D01*
G75*
G02*
X127865000Y-126440000I-250000J0D01*
G01*
X126915000Y-126440000D01*
G75*
G02*
X126665000Y-126190000I0J250000D01*
G01*
X126665000Y-125690000D01*
G75*
G02*
X126915000Y-125440000I250000J0D01*
G01*
G37*
G36*
G01*
X71795000Y-49100000D02*
X72205000Y-49100000D01*
G75*
G02*
X72410000Y-49305000I0J-205000D01*
G01*
X72410000Y-50595000D01*
G75*
G02*
X72205000Y-50800000I-205000J0D01*
G01*
X71795000Y-50800000D01*
G75*
G02*
X71590000Y-50595000I0J205000D01*
G01*
X71590000Y-49305000D01*
G75*
G02*
X71795000Y-49100000I205000J0D01*
G01*
G37*
D21*
X73500000Y-49950000D03*
X72000000Y-44850000D03*
X73500000Y-44850000D03*
G36*
G01*
X67795000Y-49100000D02*
X68205000Y-49100000D01*
G75*
G02*
X68410000Y-49305000I0J-205000D01*
G01*
X68410000Y-50595000D01*
G75*
G02*
X68205000Y-50800000I-205000J0D01*
G01*
X67795000Y-50800000D01*
G75*
G02*
X67590000Y-50595000I0J205000D01*
G01*
X67590000Y-49305000D01*
G75*
G02*
X67795000Y-49100000I205000J0D01*
G01*
G37*
X69500000Y-49950000D03*
X68000000Y-44850000D03*
X69500000Y-44850000D03*
G36*
G01*
X63795000Y-49100000D02*
X64205000Y-49100000D01*
G75*
G02*
X64410000Y-49305000I0J-205000D01*
G01*
X64410000Y-50595000D01*
G75*
G02*
X64205000Y-50800000I-205000J0D01*
G01*
X63795000Y-50800000D01*
G75*
G02*
X63590000Y-50595000I0J205000D01*
G01*
X63590000Y-49305000D01*
G75*
G02*
X63795000Y-49100000I205000J0D01*
G01*
G37*
X65500000Y-49950000D03*
X64000000Y-44850000D03*
X65500000Y-44850000D03*
G36*
G01*
X59795000Y-49100000D02*
X60205000Y-49100000D01*
G75*
G02*
X60410000Y-49305000I0J-205000D01*
G01*
X60410000Y-50595000D01*
G75*
G02*
X60205000Y-50800000I-205000J0D01*
G01*
X59795000Y-50800000D01*
G75*
G02*
X59590000Y-50595000I0J205000D01*
G01*
X59590000Y-49305000D01*
G75*
G02*
X59795000Y-49100000I205000J0D01*
G01*
G37*
X61500000Y-49950000D03*
X60000000Y-44850000D03*
X61500000Y-44850000D03*
D22*
X126750000Y-38340000D03*
D23*
X128000000Y-35850000D03*
X132500000Y-35850000D03*
D22*
X133760000Y-38340000D03*
X90750000Y-38340000D03*
D23*
X92000000Y-35850000D03*
X96500000Y-35850000D03*
D22*
X97760000Y-38340000D03*
X114750000Y-38340000D03*
D23*
X116000000Y-35850000D03*
X120500000Y-35850000D03*
D22*
X121760000Y-38340000D03*
X78750000Y-38340000D03*
D23*
X80000000Y-35850000D03*
X84500000Y-35850000D03*
D22*
X85760000Y-38340000D03*
X222900000Y-38340000D03*
D23*
X224150000Y-35850000D03*
X228650000Y-35850000D03*
D22*
X229910000Y-38340000D03*
X102750000Y-38340000D03*
D23*
X104000000Y-35850000D03*
X108500000Y-35850000D03*
D22*
X109760000Y-38340000D03*
X66750000Y-38340000D03*
D23*
X68000000Y-35850000D03*
X72500000Y-35850000D03*
D22*
X73760000Y-38340000D03*
G36*
G01*
X87504999Y-52210000D02*
X88805001Y-52210000D01*
G75*
G02*
X89055000Y-52459999I0J-249999D01*
G01*
X89055000Y-53160001D01*
G75*
G02*
X88805001Y-53410000I-249999J0D01*
G01*
X87504999Y-53410000D01*
G75*
G02*
X87255000Y-53160001I0J249999D01*
G01*
X87255000Y-52459999D01*
G75*
G02*
X87504999Y-52210000I249999J0D01*
G01*
G37*
G36*
G01*
X87504999Y-46610000D02*
X88805001Y-46610000D01*
G75*
G02*
X89055000Y-46859999I0J-249999D01*
G01*
X89055000Y-47560001D01*
G75*
G02*
X88805001Y-47810000I-249999J0D01*
G01*
X87504999Y-47810000D01*
G75*
G02*
X87255000Y-47560001I0J249999D01*
G01*
X87255000Y-46859999D01*
G75*
G02*
X87504999Y-46610000I249999J0D01*
G01*
G37*
G36*
G01*
X83655000Y-51210000D02*
X84905000Y-51210000D01*
G75*
G02*
X85055000Y-51360000I0J-150000D01*
G01*
X85055000Y-51660000D01*
G75*
G02*
X84905000Y-51810000I-150000J0D01*
G01*
X83655000Y-51810000D01*
G75*
G02*
X83505000Y-51660000I0J150000D01*
G01*
X83505000Y-51360000D01*
G75*
G02*
X83655000Y-51210000I150000J0D01*
G01*
G37*
G36*
G01*
X83655000Y-50210000D02*
X84905000Y-50210000D01*
G75*
G02*
X85055000Y-50360000I0J-150000D01*
G01*
X85055000Y-50660000D01*
G75*
G02*
X84905000Y-50810000I-150000J0D01*
G01*
X83655000Y-50810000D01*
G75*
G02*
X83505000Y-50660000I0J150000D01*
G01*
X83505000Y-50360000D01*
G75*
G02*
X83655000Y-50210000I150000J0D01*
G01*
G37*
G36*
G01*
X83655000Y-49210000D02*
X84905000Y-49210000D01*
G75*
G02*
X85055000Y-49360000I0J-150000D01*
G01*
X85055000Y-49660000D01*
G75*
G02*
X84905000Y-49810000I-150000J0D01*
G01*
X83655000Y-49810000D01*
G75*
G02*
X83505000Y-49660000I0J150000D01*
G01*
X83505000Y-49360000D01*
G75*
G02*
X83655000Y-49210000I150000J0D01*
G01*
G37*
G36*
G01*
X83655000Y-48210000D02*
X84905000Y-48210000D01*
G75*
G02*
X85055000Y-48360000I0J-150000D01*
G01*
X85055000Y-48660000D01*
G75*
G02*
X84905000Y-48810000I-150000J0D01*
G01*
X83655000Y-48810000D01*
G75*
G02*
X83505000Y-48660000I0J150000D01*
G01*
X83505000Y-48360000D01*
G75*
G02*
X83655000Y-48210000I150000J0D01*
G01*
G37*
D24*
X150725000Y-85820000D03*
D25*
X153205000Y-88360000D03*
X163365000Y-88360000D03*
D26*
X158285000Y-88360000D03*
D27*
X154475000Y-85820000D03*
X160825000Y-83280000D03*
D24*
X164575000Y-83280000D03*
G36*
G01*
X241985000Y-84915000D02*
X241985000Y-84505000D01*
G75*
G02*
X242190000Y-84300000I205000J0D01*
G01*
X243480000Y-84300000D01*
G75*
G02*
X243685000Y-84505000I0J-205000D01*
G01*
X243685000Y-84915000D01*
G75*
G02*
X243480000Y-85120000I-205000J0D01*
G01*
X242190000Y-85120000D01*
G75*
G02*
X241985000Y-84915000I0J205000D01*
G01*
G37*
D28*
X242835000Y-83210000D03*
X237735000Y-84710000D03*
X237735000Y-83210000D03*
G36*
G01*
X213185000Y-77815000D02*
X213185000Y-77405000D01*
G75*
G02*
X213390000Y-77200000I205000J0D01*
G01*
X214680000Y-77200000D01*
G75*
G02*
X214885000Y-77405000I0J-205000D01*
G01*
X214885000Y-77815000D01*
G75*
G02*
X214680000Y-78020000I-205000J0D01*
G01*
X213390000Y-78020000D01*
G75*
G02*
X213185000Y-77815000I0J205000D01*
G01*
G37*
X214035000Y-76110000D03*
X208935000Y-77610000D03*
X208935000Y-76110000D03*
G36*
G01*
X184385000Y-77815000D02*
X184385000Y-77405000D01*
G75*
G02*
X184590000Y-77200000I205000J0D01*
G01*
X185880000Y-77200000D01*
G75*
G02*
X186085000Y-77405000I0J-205000D01*
G01*
X186085000Y-77815000D01*
G75*
G02*
X185880000Y-78020000I-205000J0D01*
G01*
X184590000Y-78020000D01*
G75*
G02*
X184385000Y-77815000I0J205000D01*
G01*
G37*
X185235000Y-76110000D03*
X180135000Y-77610000D03*
X180135000Y-76110000D03*
G36*
G01*
X159985000Y-93815000D02*
X159985000Y-93405000D01*
G75*
G02*
X160190000Y-93200000I205000J0D01*
G01*
X161480000Y-93200000D01*
G75*
G02*
X161685000Y-93405000I0J-205000D01*
G01*
X161685000Y-93815000D01*
G75*
G02*
X161480000Y-94020000I-205000J0D01*
G01*
X160190000Y-94020000D01*
G75*
G02*
X159985000Y-93815000I0J205000D01*
G01*
G37*
X160835000Y-92110000D03*
X155735000Y-93610000D03*
X155735000Y-92110000D03*
G36*
G01*
X241435000Y-53715000D02*
X241435000Y-53305000D01*
G75*
G02*
X241640000Y-53100000I205000J0D01*
G01*
X242930000Y-53100000D01*
G75*
G02*
X243135000Y-53305000I0J-205000D01*
G01*
X243135000Y-53715000D01*
G75*
G02*
X242930000Y-53920000I-205000J0D01*
G01*
X241640000Y-53920000D01*
G75*
G02*
X241435000Y-53715000I0J205000D01*
G01*
G37*
X242285000Y-52010000D03*
X237185000Y-53510000D03*
X237185000Y-52010000D03*
G36*
G01*
X213185000Y-46515000D02*
X213185000Y-46105000D01*
G75*
G02*
X213390000Y-45900000I205000J0D01*
G01*
X214680000Y-45900000D01*
G75*
G02*
X214885000Y-46105000I0J-205000D01*
G01*
X214885000Y-46515000D01*
G75*
G02*
X214680000Y-46720000I-205000J0D01*
G01*
X213390000Y-46720000D01*
G75*
G02*
X213185000Y-46515000I0J205000D01*
G01*
G37*
X214035000Y-44810000D03*
X208935000Y-46310000D03*
X208935000Y-44810000D03*
G36*
G01*
X184385000Y-46615000D02*
X184385000Y-46205000D01*
G75*
G02*
X184590000Y-46000000I205000J0D01*
G01*
X185880000Y-46000000D01*
G75*
G02*
X186085000Y-46205000I0J-205000D01*
G01*
X186085000Y-46615000D01*
G75*
G02*
X185880000Y-46820000I-205000J0D01*
G01*
X184590000Y-46820000D01*
G75*
G02*
X184385000Y-46615000I0J205000D01*
G01*
G37*
X185235000Y-44910000D03*
X180135000Y-46410000D03*
X180135000Y-44910000D03*
G36*
G01*
X159985000Y-62615000D02*
X159985000Y-62205000D01*
G75*
G02*
X160190000Y-62000000I205000J0D01*
G01*
X161480000Y-62000000D01*
G75*
G02*
X161685000Y-62205000I0J-205000D01*
G01*
X161685000Y-62615000D01*
G75*
G02*
X161480000Y-62820000I-205000J0D01*
G01*
X160190000Y-62820000D01*
G75*
G02*
X159985000Y-62615000I0J205000D01*
G01*
G37*
X160835000Y-60910000D03*
X155735000Y-62410000D03*
X155735000Y-60910000D03*
D24*
X232725000Y-76920000D03*
D25*
X235205000Y-79460000D03*
X245365000Y-79460000D03*
D26*
X240285000Y-79460000D03*
D27*
X236475000Y-76920000D03*
X242825000Y-74380000D03*
D24*
X246575000Y-74380000D03*
X203925000Y-69820000D03*
D25*
X206405000Y-72360000D03*
X216565000Y-72360000D03*
D26*
X211485000Y-72360000D03*
D27*
X207675000Y-69820000D03*
X214025000Y-67280000D03*
D24*
X217775000Y-67280000D03*
X175125000Y-69820000D03*
D25*
X177605000Y-72360000D03*
X187765000Y-72360000D03*
D26*
X182685000Y-72360000D03*
D27*
X178875000Y-69820000D03*
X185225000Y-67280000D03*
D24*
X188975000Y-67280000D03*
X232325000Y-45720000D03*
D25*
X234805000Y-48260000D03*
X244965000Y-48260000D03*
D26*
X239885000Y-48260000D03*
D27*
X236075000Y-45720000D03*
X242425000Y-43180000D03*
D24*
X246175000Y-43180000D03*
X203925000Y-38520000D03*
D25*
X206405000Y-41060000D03*
X216565000Y-41060000D03*
D26*
X211485000Y-41060000D03*
D27*
X207675000Y-38520000D03*
X214025000Y-35980000D03*
D24*
X217775000Y-35980000D03*
X175125000Y-38620000D03*
D25*
X177605000Y-41160000D03*
X187765000Y-41160000D03*
D26*
X182685000Y-41160000D03*
D27*
X178875000Y-38620000D03*
X185225000Y-36080000D03*
D24*
X188975000Y-36080000D03*
X150725000Y-54620000D03*
D25*
X153205000Y-57160000D03*
X163365000Y-57160000D03*
D26*
X158285000Y-57160000D03*
D27*
X154475000Y-54620000D03*
X160825000Y-52080000D03*
D24*
X164575000Y-52080000D03*
G36*
G01*
X125290000Y-79815000D02*
X125290000Y-79405000D01*
G75*
G02*
X125495000Y-79200000I205000J0D01*
G01*
X126785000Y-79200000D01*
G75*
G02*
X126990000Y-79405000I0J-205000D01*
G01*
X126990000Y-79815000D01*
G75*
G02*
X126785000Y-80020000I-205000J0D01*
G01*
X125495000Y-80020000D01*
G75*
G02*
X125290000Y-79815000I0J205000D01*
G01*
G37*
D28*
X126140000Y-78110000D03*
X121040000Y-79610000D03*
X121040000Y-78110000D03*
G36*
G01*
X68420000Y-72615000D02*
X68420000Y-72205000D01*
G75*
G02*
X68625000Y-72000000I205000J0D01*
G01*
X69915000Y-72000000D01*
G75*
G02*
X70120000Y-72205000I0J-205000D01*
G01*
X70120000Y-72615000D01*
G75*
G02*
X69915000Y-72820000I-205000J0D01*
G01*
X68625000Y-72820000D01*
G75*
G02*
X68420000Y-72615000I0J205000D01*
G01*
G37*
X69270000Y-70910000D03*
X64170000Y-72410000D03*
X64170000Y-70910000D03*
G36*
G01*
X97055000Y-72615000D02*
X97055000Y-72205000D01*
G75*
G02*
X97260000Y-72000000I205000J0D01*
G01*
X98550000Y-72000000D01*
G75*
G02*
X98755000Y-72205000I0J-205000D01*
G01*
X98755000Y-72615000D01*
G75*
G02*
X98550000Y-72820000I-205000J0D01*
G01*
X97260000Y-72820000D01*
G75*
G02*
X97055000Y-72615000I0J205000D01*
G01*
G37*
X97905000Y-70910000D03*
X92805000Y-72410000D03*
X92805000Y-70910000D03*
G36*
G01*
X134090000Y-127845000D02*
X134090000Y-127435000D01*
G75*
G02*
X134295000Y-127230000I205000J0D01*
G01*
X135585000Y-127230000D01*
G75*
G02*
X135790000Y-127435000I0J-205000D01*
G01*
X135790000Y-127845000D01*
G75*
G02*
X135585000Y-128050000I-205000J0D01*
G01*
X134295000Y-128050000D01*
G75*
G02*
X134090000Y-127845000I0J205000D01*
G01*
G37*
X134940000Y-126140000D03*
X129840000Y-127640000D03*
X129840000Y-126140000D03*
D24*
X87795000Y-64620000D03*
D25*
X90275000Y-67160000D03*
X100435000Y-67160000D03*
D26*
X95355000Y-67160000D03*
D27*
X91545000Y-64620000D03*
X97895000Y-62080000D03*
D24*
X101645000Y-62080000D03*
X124830000Y-119850000D03*
D25*
X127310000Y-122390000D03*
X137470000Y-122390000D03*
D26*
X132390000Y-122390000D03*
D27*
X128580000Y-119850000D03*
X134930000Y-117310000D03*
D24*
X138680000Y-117310000D03*
X116030000Y-71820000D03*
D25*
X118510000Y-74360000D03*
X128670000Y-74360000D03*
D26*
X123590000Y-74360000D03*
D27*
X119780000Y-71820000D03*
X126130000Y-69280000D03*
D24*
X129880000Y-69280000D03*
X59160000Y-64620000D03*
D25*
X61640000Y-67160000D03*
X71800000Y-67160000D03*
D26*
X66720000Y-67160000D03*
D27*
X62910000Y-64620000D03*
X69260000Y-62080000D03*
D24*
X73010000Y-62080000D03*
D29*
X159000000Y-73450000D03*
X58000000Y-37000000D03*
X58000000Y-128100000D03*
X159000000Y-128100000D03*
X159000000Y-37000000D03*
X251000000Y-37000000D03*
X251000000Y-128100000D03*
M02*
