M48
METRIC
T1C0.400
T2C0.990
T3C1.020
T4C1.300
T5C4.220
%
G90
G05
T1
X57.35Y-47.76
X60.02Y-54.63
X63.98Y-54.78
X68.2Y-54.62
X70.9Y-72.28
X71.33Y-70.01
X72.01Y-54.52
X76.25Y-41.53
X76.28Y-94.01
X76.64Y-69.97
X77.51Y-93.03
X78.43Y-46.78
X80.1Y-61.36
X80.92Y-66.23
X81.3Y-50.94
X82.074Y-52.278
X86.08Y-49.51
X87.22Y-71.63
X92.145Y-51.665
X99.195Y-116.945
X99.97Y-72.46
X100.39Y-70.86
X106.35Y-121.05
X115.42Y-112.99
X115.68Y-78.94
X119.83Y-113.72
X121.87Y-105.49
X123.37Y-64.65
X124.1Y-126.86
X128.18Y-78.07
X128.74Y-79.73
X136.76Y-127.71
X137.17Y-124.93
X142.68Y-91.91
X143.15Y-74.92
X144.575Y-65.705
X145.8Y-104.4
X145.88Y-62.8
X146.91Y-92.43
X148.11Y-92.01
X148.26Y-84.73
X148.81Y-89.41
X152.76Y-72.9
X153.97Y-70.9
X161.53Y-93.12
X162.8Y-62.37
X163.69Y-59.32
X166.16Y-63.6
X166.725Y-50.815
X167.41Y-61.43
X167.507Y-50.191
X167.75Y-48.8
X168.89Y-67.69
X169.57Y-81.6
X170.587Y-83.497
X170.87Y-38.24
X170.87Y-44.66
X173.15Y-40.4
X173.85Y-45.64
X176.07Y-87.2
X177.2Y-56.57
X177.75Y-81.96
X179.01Y-52.83
X179.42Y-80.98
X181.09Y-64.91
X187.06Y-46.47
X187.36Y-77.62
X195.64Y-83.89
X198.48Y-90.84
X199.037Y-43.407
X199.23Y-40.58
X199.92Y-93.5
X201.32Y-89.85
X201.45Y-42.73
X201.582Y-96.152
X201.775Y-74.135
X203.69Y-87.17
X204.0Y-75.5
X204.38Y-85.28
X205.48Y-87.56
X208.06Y-88.66
X210.165Y-88.0
X211.17Y-91.9
X212.84Y-112.87
X213.21Y-84.71
X215.28Y-77.27
X215.46Y-88.0
X215.97Y-45.2
X216.3Y-43.59
X218.618Y-97.95
X219.35Y-98.65
X220.08Y-48.75
X221.191Y-98.684
X227.516Y-81.174
X228.89Y-89.61
X228.93Y-74.62
X230.445Y-83.885
X232.2Y-52.75
X233.42Y-82.21
X239.26Y-95.81
X244.19Y-53.57
X244.86Y-84.75
T2
X68.0Y-35.85
X72.5Y-35.85
X80.0Y-35.85
X84.5Y-35.85
X92.0Y-35.85
X96.5Y-35.85
X104.0Y-35.85
X108.5Y-35.85
X116.0Y-35.85
X120.5Y-35.85
X128.0Y-35.85
X132.5Y-35.85
X224.15Y-35.85
X228.65Y-35.85
T3
X55.91Y-91.08
X55.91Y-108.86
X58.45Y-91.08
X58.45Y-108.86
X60.99Y-91.08
X60.99Y-108.86
X63.53Y-91.08
X63.53Y-108.86
X66.07Y-91.08
X66.07Y-108.86
X68.61Y-91.08
X68.61Y-108.86
X71.15Y-91.08
X71.15Y-108.86
X73.69Y-91.08
X73.69Y-108.86
X76.23Y-91.08
X76.23Y-108.86
X78.77Y-91.08
X78.77Y-108.86
X81.31Y-91.08
X81.31Y-108.86
X83.85Y-91.08
X83.85Y-108.86
X86.39Y-91.08
X86.39Y-108.86
X88.93Y-91.08
X88.93Y-108.86
X91.47Y-91.08
X91.47Y-108.86
X94.01Y-91.08
X94.01Y-108.86
X96.55Y-91.08
X96.55Y-108.86
X99.09Y-91.08
X99.09Y-108.86
X101.63Y-91.08
X101.63Y-108.86
X103.94Y-97.43
X103.94Y-99.97
X103.94Y-102.51
X104.17Y-91.08
X104.17Y-108.86
T4
X66.75Y-38.34
X73.76Y-38.34
X78.75Y-38.34
X85.76Y-38.34
X90.75Y-38.34
X97.76Y-38.34
X102.75Y-38.34
X109.76Y-38.34
X114.75Y-38.34
X121.76Y-38.34
X126.75Y-38.34
X133.76Y-38.34
X222.9Y-38.34
X229.91Y-38.34
T5
X58.0Y-37.0
X58.0Y-128.1
X159.0Y-37.0
X159.0Y-73.45
X159.0Y-128.1
X251.0Y-37.0
X251.0Y-128.1
T0
M30
