G04 #@! TF.GenerationSoftware,KiCad,Pcbnew,(5.1.9)-1*
G04 #@! TF.CreationDate,2021-09-13T12:17:35-05:00*
G04 #@! TF.ProjectId,OSFRD,4f534652-442e-46b6-9963-61645f706362,rev?*
G04 #@! TF.SameCoordinates,Original*
G04 #@! TF.FileFunction,Paste,Bot*
G04 #@! TF.FilePolarity,Positive*
%FSLAX46Y46*%
G04 Gerber Fmt 4.6, Leading zero omitted, Abs format (unit mm)*
G04 Created by KiCad (PCBNEW (5.1.9)-1) date 2021-09-13 12:17:35*
%MOMM*%
%LPD*%
G01*
G04 APERTURE LIST*
%ADD10R,1.000000X3.000000*%
%ADD11R,0.820000X1.700000*%
%ADD12R,2.550000X2.500000*%
%ADD13R,1.700000X0.820000*%
G04 APERTURE END LIST*
D10*
X204260000Y-94710000D03*
X204260000Y-89670000D03*
X206800000Y-94710000D03*
X206800000Y-89670000D03*
X209340000Y-94710000D03*
X209340000Y-89670000D03*
X211880000Y-94710000D03*
X211880000Y-89670000D03*
X214420000Y-94710000D03*
X214420000Y-89670000D03*
X216960000Y-94710000D03*
X216960000Y-89670000D03*
X219500000Y-94710000D03*
X219500000Y-89670000D03*
X222040000Y-94710000D03*
X222040000Y-89670000D03*
X224580000Y-94710000D03*
X224580000Y-89670000D03*
X227120000Y-94710000D03*
X227120000Y-89670000D03*
G36*
G01*
X72550000Y-52375000D02*
X72550000Y-53325000D01*
G75*
G02*
X72300000Y-53575000I-250000J0D01*
G01*
X71800000Y-53575000D01*
G75*
G02*
X71550000Y-53325000I0J250000D01*
G01*
X71550000Y-52375000D01*
G75*
G02*
X71800000Y-52125000I250000J0D01*
G01*
X72300000Y-52125000D01*
G75*
G02*
X72550000Y-52375000I0J-250000D01*
G01*
G37*
G36*
G01*
X74450000Y-52375000D02*
X74450000Y-53325000D01*
G75*
G02*
X74200000Y-53575000I-250000J0D01*
G01*
X73700000Y-53575000D01*
G75*
G02*
X73450000Y-53325000I0J250000D01*
G01*
X73450000Y-52375000D01*
G75*
G02*
X73700000Y-52125000I250000J0D01*
G01*
X74200000Y-52125000D01*
G75*
G02*
X74450000Y-52375000I0J-250000D01*
G01*
G37*
G36*
G01*
X68600000Y-52375000D02*
X68600000Y-53325000D01*
G75*
G02*
X68350000Y-53575000I-250000J0D01*
G01*
X67850000Y-53575000D01*
G75*
G02*
X67600000Y-53325000I0J250000D01*
G01*
X67600000Y-52375000D01*
G75*
G02*
X67850000Y-52125000I250000J0D01*
G01*
X68350000Y-52125000D01*
G75*
G02*
X68600000Y-52375000I0J-250000D01*
G01*
G37*
G36*
G01*
X70500000Y-52375000D02*
X70500000Y-53325000D01*
G75*
G02*
X70250000Y-53575000I-250000J0D01*
G01*
X69750000Y-53575000D01*
G75*
G02*
X69500000Y-53325000I0J250000D01*
G01*
X69500000Y-52375000D01*
G75*
G02*
X69750000Y-52125000I250000J0D01*
G01*
X70250000Y-52125000D01*
G75*
G02*
X70500000Y-52375000I0J-250000D01*
G01*
G37*
G36*
G01*
X64575000Y-52375000D02*
X64575000Y-53325000D01*
G75*
G02*
X64325000Y-53575000I-250000J0D01*
G01*
X63825000Y-53575000D01*
G75*
G02*
X63575000Y-53325000I0J250000D01*
G01*
X63575000Y-52375000D01*
G75*
G02*
X63825000Y-52125000I250000J0D01*
G01*
X64325000Y-52125000D01*
G75*
G02*
X64575000Y-52375000I0J-250000D01*
G01*
G37*
G36*
G01*
X66475000Y-52375000D02*
X66475000Y-53325000D01*
G75*
G02*
X66225000Y-53575000I-250000J0D01*
G01*
X65725000Y-53575000D01*
G75*
G02*
X65475000Y-53325000I0J250000D01*
G01*
X65475000Y-52375000D01*
G75*
G02*
X65725000Y-52125000I250000J0D01*
G01*
X66225000Y-52125000D01*
G75*
G02*
X66475000Y-52375000I0J-250000D01*
G01*
G37*
G36*
G01*
X60600000Y-52375000D02*
X60600000Y-53325000D01*
G75*
G02*
X60350000Y-53575000I-250000J0D01*
G01*
X59850000Y-53575000D01*
G75*
G02*
X59600000Y-53325000I0J250000D01*
G01*
X59600000Y-52375000D01*
G75*
G02*
X59850000Y-52125000I250000J0D01*
G01*
X60350000Y-52125000D01*
G75*
G02*
X60600000Y-52375000I0J-250000D01*
G01*
G37*
G36*
G01*
X62500000Y-52375000D02*
X62500000Y-53325000D01*
G75*
G02*
X62250000Y-53575000I-250000J0D01*
G01*
X61750000Y-53575000D01*
G75*
G02*
X61500000Y-53325000I0J250000D01*
G01*
X61500000Y-52375000D01*
G75*
G02*
X61750000Y-52125000I250000J0D01*
G01*
X62250000Y-52125000D01*
G75*
G02*
X62500000Y-52375000I0J-250000D01*
G01*
G37*
G36*
G01*
X234810000Y-84410000D02*
X235760000Y-84410000D01*
G75*
G02*
X236010000Y-84660000I0J-250000D01*
G01*
X236010000Y-85160000D01*
G75*
G02*
X235760000Y-85410000I-250000J0D01*
G01*
X234810000Y-85410000D01*
G75*
G02*
X234560000Y-85160000I0J250000D01*
G01*
X234560000Y-84660000D01*
G75*
G02*
X234810000Y-84410000I250000J0D01*
G01*
G37*
G36*
G01*
X234810000Y-82510000D02*
X235760000Y-82510000D01*
G75*
G02*
X236010000Y-82760000I0J-250000D01*
G01*
X236010000Y-83260000D01*
G75*
G02*
X235760000Y-83510000I-250000J0D01*
G01*
X234810000Y-83510000D01*
G75*
G02*
X234560000Y-83260000I0J250000D01*
G01*
X234560000Y-82760000D01*
G75*
G02*
X234810000Y-82510000I250000J0D01*
G01*
G37*
G36*
G01*
X206010000Y-77310000D02*
X206960000Y-77310000D01*
G75*
G02*
X207210000Y-77560000I0J-250000D01*
G01*
X207210000Y-78060000D01*
G75*
G02*
X206960000Y-78310000I-250000J0D01*
G01*
X206010000Y-78310000D01*
G75*
G02*
X205760000Y-78060000I0J250000D01*
G01*
X205760000Y-77560000D01*
G75*
G02*
X206010000Y-77310000I250000J0D01*
G01*
G37*
G36*
G01*
X206010000Y-75410000D02*
X206960000Y-75410000D01*
G75*
G02*
X207210000Y-75660000I0J-250000D01*
G01*
X207210000Y-76160000D01*
G75*
G02*
X206960000Y-76410000I-250000J0D01*
G01*
X206010000Y-76410000D01*
G75*
G02*
X205760000Y-76160000I0J250000D01*
G01*
X205760000Y-75660000D01*
G75*
G02*
X206010000Y-75410000I250000J0D01*
G01*
G37*
G36*
G01*
X177210000Y-77310000D02*
X178160000Y-77310000D01*
G75*
G02*
X178410000Y-77560000I0J-250000D01*
G01*
X178410000Y-78060000D01*
G75*
G02*
X178160000Y-78310000I-250000J0D01*
G01*
X177210000Y-78310000D01*
G75*
G02*
X176960000Y-78060000I0J250000D01*
G01*
X176960000Y-77560000D01*
G75*
G02*
X177210000Y-77310000I250000J0D01*
G01*
G37*
G36*
G01*
X177210000Y-75410000D02*
X178160000Y-75410000D01*
G75*
G02*
X178410000Y-75660000I0J-250000D01*
G01*
X178410000Y-76160000D01*
G75*
G02*
X178160000Y-76410000I-250000J0D01*
G01*
X177210000Y-76410000D01*
G75*
G02*
X176960000Y-76160000I0J250000D01*
G01*
X176960000Y-75660000D01*
G75*
G02*
X177210000Y-75410000I250000J0D01*
G01*
G37*
G36*
G01*
X152810000Y-93310000D02*
X153760000Y-93310000D01*
G75*
G02*
X154010000Y-93560000I0J-250000D01*
G01*
X154010000Y-94060000D01*
G75*
G02*
X153760000Y-94310000I-250000J0D01*
G01*
X152810000Y-94310000D01*
G75*
G02*
X152560000Y-94060000I0J250000D01*
G01*
X152560000Y-93560000D01*
G75*
G02*
X152810000Y-93310000I250000J0D01*
G01*
G37*
G36*
G01*
X152810000Y-91410000D02*
X153760000Y-91410000D01*
G75*
G02*
X154010000Y-91660000I0J-250000D01*
G01*
X154010000Y-92160000D01*
G75*
G02*
X153760000Y-92410000I-250000J0D01*
G01*
X152810000Y-92410000D01*
G75*
G02*
X152560000Y-92160000I0J250000D01*
G01*
X152560000Y-91660000D01*
G75*
G02*
X152810000Y-91410000I250000J0D01*
G01*
G37*
G36*
G01*
X234260000Y-53210000D02*
X235210000Y-53210000D01*
G75*
G02*
X235460000Y-53460000I0J-250000D01*
G01*
X235460000Y-53960000D01*
G75*
G02*
X235210000Y-54210000I-250000J0D01*
G01*
X234260000Y-54210000D01*
G75*
G02*
X234010000Y-53960000I0J250000D01*
G01*
X234010000Y-53460000D01*
G75*
G02*
X234260000Y-53210000I250000J0D01*
G01*
G37*
G36*
G01*
X234260000Y-51310000D02*
X235210000Y-51310000D01*
G75*
G02*
X235460000Y-51560000I0J-250000D01*
G01*
X235460000Y-52060000D01*
G75*
G02*
X235210000Y-52310000I-250000J0D01*
G01*
X234260000Y-52310000D01*
G75*
G02*
X234010000Y-52060000I0J250000D01*
G01*
X234010000Y-51560000D01*
G75*
G02*
X234260000Y-51310000I250000J0D01*
G01*
G37*
G36*
G01*
X206010000Y-46010000D02*
X206960000Y-46010000D01*
G75*
G02*
X207210000Y-46260000I0J-250000D01*
G01*
X207210000Y-46760000D01*
G75*
G02*
X206960000Y-47010000I-250000J0D01*
G01*
X206010000Y-47010000D01*
G75*
G02*
X205760000Y-46760000I0J250000D01*
G01*
X205760000Y-46260000D01*
G75*
G02*
X206010000Y-46010000I250000J0D01*
G01*
G37*
G36*
G01*
X206010000Y-44110000D02*
X206960000Y-44110000D01*
G75*
G02*
X207210000Y-44360000I0J-250000D01*
G01*
X207210000Y-44860000D01*
G75*
G02*
X206960000Y-45110000I-250000J0D01*
G01*
X206010000Y-45110000D01*
G75*
G02*
X205760000Y-44860000I0J250000D01*
G01*
X205760000Y-44360000D01*
G75*
G02*
X206010000Y-44110000I250000J0D01*
G01*
G37*
G36*
G01*
X177210000Y-46110000D02*
X178160000Y-46110000D01*
G75*
G02*
X178410000Y-46360000I0J-250000D01*
G01*
X178410000Y-46860000D01*
G75*
G02*
X178160000Y-47110000I-250000J0D01*
G01*
X177210000Y-47110000D01*
G75*
G02*
X176960000Y-46860000I0J250000D01*
G01*
X176960000Y-46360000D01*
G75*
G02*
X177210000Y-46110000I250000J0D01*
G01*
G37*
G36*
G01*
X177210000Y-44210000D02*
X178160000Y-44210000D01*
G75*
G02*
X178410000Y-44460000I0J-250000D01*
G01*
X178410000Y-44960000D01*
G75*
G02*
X178160000Y-45210000I-250000J0D01*
G01*
X177210000Y-45210000D01*
G75*
G02*
X176960000Y-44960000I0J250000D01*
G01*
X176960000Y-44460000D01*
G75*
G02*
X177210000Y-44210000I250000J0D01*
G01*
G37*
G36*
G01*
X152810000Y-62110000D02*
X153760000Y-62110000D01*
G75*
G02*
X154010000Y-62360000I0J-250000D01*
G01*
X154010000Y-62860000D01*
G75*
G02*
X153760000Y-63110000I-250000J0D01*
G01*
X152810000Y-63110000D01*
G75*
G02*
X152560000Y-62860000I0J250000D01*
G01*
X152560000Y-62360000D01*
G75*
G02*
X152810000Y-62110000I250000J0D01*
G01*
G37*
G36*
G01*
X152810000Y-60210000D02*
X153760000Y-60210000D01*
G75*
G02*
X154010000Y-60460000I0J-250000D01*
G01*
X154010000Y-60960000D01*
G75*
G02*
X153760000Y-61210000I-250000J0D01*
G01*
X152810000Y-61210000D01*
G75*
G02*
X152560000Y-60960000I0J250000D01*
G01*
X152560000Y-60460000D01*
G75*
G02*
X152810000Y-60210000I250000J0D01*
G01*
G37*
G36*
G01*
X118115000Y-79310000D02*
X119065000Y-79310000D01*
G75*
G02*
X119315000Y-79560000I0J-250000D01*
G01*
X119315000Y-80060000D01*
G75*
G02*
X119065000Y-80310000I-250000J0D01*
G01*
X118115000Y-80310000D01*
G75*
G02*
X117865000Y-80060000I0J250000D01*
G01*
X117865000Y-79560000D01*
G75*
G02*
X118115000Y-79310000I250000J0D01*
G01*
G37*
G36*
G01*
X118115000Y-77410000D02*
X119065000Y-77410000D01*
G75*
G02*
X119315000Y-77660000I0J-250000D01*
G01*
X119315000Y-78160000D01*
G75*
G02*
X119065000Y-78410000I-250000J0D01*
G01*
X118115000Y-78410000D01*
G75*
G02*
X117865000Y-78160000I0J250000D01*
G01*
X117865000Y-77660000D01*
G75*
G02*
X118115000Y-77410000I250000J0D01*
G01*
G37*
G36*
G01*
X61245000Y-72110000D02*
X62195000Y-72110000D01*
G75*
G02*
X62445000Y-72360000I0J-250000D01*
G01*
X62445000Y-72860000D01*
G75*
G02*
X62195000Y-73110000I-250000J0D01*
G01*
X61245000Y-73110000D01*
G75*
G02*
X60995000Y-72860000I0J250000D01*
G01*
X60995000Y-72360000D01*
G75*
G02*
X61245000Y-72110000I250000J0D01*
G01*
G37*
G36*
G01*
X61245000Y-70210000D02*
X62195000Y-70210000D01*
G75*
G02*
X62445000Y-70460000I0J-250000D01*
G01*
X62445000Y-70960000D01*
G75*
G02*
X62195000Y-71210000I-250000J0D01*
G01*
X61245000Y-71210000D01*
G75*
G02*
X60995000Y-70960000I0J250000D01*
G01*
X60995000Y-70460000D01*
G75*
G02*
X61245000Y-70210000I250000J0D01*
G01*
G37*
G36*
G01*
X89880000Y-72110000D02*
X90830000Y-72110000D01*
G75*
G02*
X91080000Y-72360000I0J-250000D01*
G01*
X91080000Y-72860000D01*
G75*
G02*
X90830000Y-73110000I-250000J0D01*
G01*
X89880000Y-73110000D01*
G75*
G02*
X89630000Y-72860000I0J250000D01*
G01*
X89630000Y-72360000D01*
G75*
G02*
X89880000Y-72110000I250000J0D01*
G01*
G37*
G36*
G01*
X89880000Y-70210000D02*
X90830000Y-70210000D01*
G75*
G02*
X91080000Y-70460000I0J-250000D01*
G01*
X91080000Y-70960000D01*
G75*
G02*
X90830000Y-71210000I-250000J0D01*
G01*
X89880000Y-71210000D01*
G75*
G02*
X89630000Y-70960000I0J250000D01*
G01*
X89630000Y-70460000D01*
G75*
G02*
X89880000Y-70210000I250000J0D01*
G01*
G37*
G36*
G01*
X126915000Y-127340000D02*
X127865000Y-127340000D01*
G75*
G02*
X128115000Y-127590000I0J-250000D01*
G01*
X128115000Y-128090000D01*
G75*
G02*
X127865000Y-128340000I-250000J0D01*
G01*
X126915000Y-128340000D01*
G75*
G02*
X126665000Y-128090000I0J250000D01*
G01*
X126665000Y-127590000D01*
G75*
G02*
X126915000Y-127340000I250000J0D01*
G01*
G37*
G36*
G01*
X126915000Y-125440000D02*
X127865000Y-125440000D01*
G75*
G02*
X128115000Y-125690000I0J-250000D01*
G01*
X128115000Y-126190000D01*
G75*
G02*
X127865000Y-126440000I-250000J0D01*
G01*
X126915000Y-126440000D01*
G75*
G02*
X126665000Y-126190000I0J250000D01*
G01*
X126665000Y-125690000D01*
G75*
G02*
X126915000Y-125440000I250000J0D01*
G01*
G37*
G36*
G01*
X71795000Y-49100000D02*
X72205000Y-49100000D01*
G75*
G02*
X72410000Y-49305000I0J-205000D01*
G01*
X72410000Y-50595000D01*
G75*
G02*
X72205000Y-50800000I-205000J0D01*
G01*
X71795000Y-50800000D01*
G75*
G02*
X71590000Y-50595000I0J205000D01*
G01*
X71590000Y-49305000D01*
G75*
G02*
X71795000Y-49100000I205000J0D01*
G01*
G37*
D11*
X73500000Y-49950000D03*
X72000000Y-44850000D03*
X73500000Y-44850000D03*
G36*
G01*
X67795000Y-49100000D02*
X68205000Y-49100000D01*
G75*
G02*
X68410000Y-49305000I0J-205000D01*
G01*
X68410000Y-50595000D01*
G75*
G02*
X68205000Y-50800000I-205000J0D01*
G01*
X67795000Y-50800000D01*
G75*
G02*
X67590000Y-50595000I0J205000D01*
G01*
X67590000Y-49305000D01*
G75*
G02*
X67795000Y-49100000I205000J0D01*
G01*
G37*
X69500000Y-49950000D03*
X68000000Y-44850000D03*
X69500000Y-44850000D03*
G36*
G01*
X63795000Y-49100000D02*
X64205000Y-49100000D01*
G75*
G02*
X64410000Y-49305000I0J-205000D01*
G01*
X64410000Y-50595000D01*
G75*
G02*
X64205000Y-50800000I-205000J0D01*
G01*
X63795000Y-50800000D01*
G75*
G02*
X63590000Y-50595000I0J205000D01*
G01*
X63590000Y-49305000D01*
G75*
G02*
X63795000Y-49100000I205000J0D01*
G01*
G37*
X65500000Y-49950000D03*
X64000000Y-44850000D03*
X65500000Y-44850000D03*
G36*
G01*
X59795000Y-49100000D02*
X60205000Y-49100000D01*
G75*
G02*
X60410000Y-49305000I0J-205000D01*
G01*
X60410000Y-50595000D01*
G75*
G02*
X60205000Y-50800000I-205000J0D01*
G01*
X59795000Y-50800000D01*
G75*
G02*
X59590000Y-50595000I0J205000D01*
G01*
X59590000Y-49305000D01*
G75*
G02*
X59795000Y-49100000I205000J0D01*
G01*
G37*
X61500000Y-49950000D03*
X60000000Y-44850000D03*
X61500000Y-44850000D03*
G36*
G01*
X87504999Y-52210000D02*
X88805001Y-52210000D01*
G75*
G02*
X89055000Y-52459999I0J-249999D01*
G01*
X89055000Y-53160001D01*
G75*
G02*
X88805001Y-53410000I-249999J0D01*
G01*
X87504999Y-53410000D01*
G75*
G02*
X87255000Y-53160001I0J249999D01*
G01*
X87255000Y-52459999D01*
G75*
G02*
X87504999Y-52210000I249999J0D01*
G01*
G37*
G36*
G01*
X87504999Y-46610000D02*
X88805001Y-46610000D01*
G75*
G02*
X89055000Y-46859999I0J-249999D01*
G01*
X89055000Y-47560001D01*
G75*
G02*
X88805001Y-47810000I-249999J0D01*
G01*
X87504999Y-47810000D01*
G75*
G02*
X87255000Y-47560001I0J249999D01*
G01*
X87255000Y-46859999D01*
G75*
G02*
X87504999Y-46610000I249999J0D01*
G01*
G37*
G36*
G01*
X83655000Y-51210000D02*
X84905000Y-51210000D01*
G75*
G02*
X85055000Y-51360000I0J-150000D01*
G01*
X85055000Y-51660000D01*
G75*
G02*
X84905000Y-51810000I-150000J0D01*
G01*
X83655000Y-51810000D01*
G75*
G02*
X83505000Y-51660000I0J150000D01*
G01*
X83505000Y-51360000D01*
G75*
G02*
X83655000Y-51210000I150000J0D01*
G01*
G37*
G36*
G01*
X83655000Y-50210000D02*
X84905000Y-50210000D01*
G75*
G02*
X85055000Y-50360000I0J-150000D01*
G01*
X85055000Y-50660000D01*
G75*
G02*
X84905000Y-50810000I-150000J0D01*
G01*
X83655000Y-50810000D01*
G75*
G02*
X83505000Y-50660000I0J150000D01*
G01*
X83505000Y-50360000D01*
G75*
G02*
X83655000Y-50210000I150000J0D01*
G01*
G37*
G36*
G01*
X83655000Y-49210000D02*
X84905000Y-49210000D01*
G75*
G02*
X85055000Y-49360000I0J-150000D01*
G01*
X85055000Y-49660000D01*
G75*
G02*
X84905000Y-49810000I-150000J0D01*
G01*
X83655000Y-49810000D01*
G75*
G02*
X83505000Y-49660000I0J150000D01*
G01*
X83505000Y-49360000D01*
G75*
G02*
X83655000Y-49210000I150000J0D01*
G01*
G37*
G36*
G01*
X83655000Y-48210000D02*
X84905000Y-48210000D01*
G75*
G02*
X85055000Y-48360000I0J-150000D01*
G01*
X85055000Y-48660000D01*
G75*
G02*
X84905000Y-48810000I-150000J0D01*
G01*
X83655000Y-48810000D01*
G75*
G02*
X83505000Y-48660000I0J150000D01*
G01*
X83505000Y-48360000D01*
G75*
G02*
X83655000Y-48210000I150000J0D01*
G01*
G37*
D12*
X150725000Y-85820000D03*
X164575000Y-83280000D03*
G36*
G01*
X241985000Y-84915000D02*
X241985000Y-84505000D01*
G75*
G02*
X242190000Y-84300000I205000J0D01*
G01*
X243480000Y-84300000D01*
G75*
G02*
X243685000Y-84505000I0J-205000D01*
G01*
X243685000Y-84915000D01*
G75*
G02*
X243480000Y-85120000I-205000J0D01*
G01*
X242190000Y-85120000D01*
G75*
G02*
X241985000Y-84915000I0J205000D01*
G01*
G37*
D13*
X242835000Y-83210000D03*
X237735000Y-84710000D03*
X237735000Y-83210000D03*
G36*
G01*
X213185000Y-77815000D02*
X213185000Y-77405000D01*
G75*
G02*
X213390000Y-77200000I205000J0D01*
G01*
X214680000Y-77200000D01*
G75*
G02*
X214885000Y-77405000I0J-205000D01*
G01*
X214885000Y-77815000D01*
G75*
G02*
X214680000Y-78020000I-205000J0D01*
G01*
X213390000Y-78020000D01*
G75*
G02*
X213185000Y-77815000I0J205000D01*
G01*
G37*
X214035000Y-76110000D03*
X208935000Y-77610000D03*
X208935000Y-76110000D03*
G36*
G01*
X184385000Y-77815000D02*
X184385000Y-77405000D01*
G75*
G02*
X184590000Y-77200000I205000J0D01*
G01*
X185880000Y-77200000D01*
G75*
G02*
X186085000Y-77405000I0J-205000D01*
G01*
X186085000Y-77815000D01*
G75*
G02*
X185880000Y-78020000I-205000J0D01*
G01*
X184590000Y-78020000D01*
G75*
G02*
X184385000Y-77815000I0J205000D01*
G01*
G37*
X185235000Y-76110000D03*
X180135000Y-77610000D03*
X180135000Y-76110000D03*
G36*
G01*
X159985000Y-93815000D02*
X159985000Y-93405000D01*
G75*
G02*
X160190000Y-93200000I205000J0D01*
G01*
X161480000Y-93200000D01*
G75*
G02*
X161685000Y-93405000I0J-205000D01*
G01*
X161685000Y-93815000D01*
G75*
G02*
X161480000Y-94020000I-205000J0D01*
G01*
X160190000Y-94020000D01*
G75*
G02*
X159985000Y-93815000I0J205000D01*
G01*
G37*
X160835000Y-92110000D03*
X155735000Y-93610000D03*
X155735000Y-92110000D03*
G36*
G01*
X241435000Y-53715000D02*
X241435000Y-53305000D01*
G75*
G02*
X241640000Y-53100000I205000J0D01*
G01*
X242930000Y-53100000D01*
G75*
G02*
X243135000Y-53305000I0J-205000D01*
G01*
X243135000Y-53715000D01*
G75*
G02*
X242930000Y-53920000I-205000J0D01*
G01*
X241640000Y-53920000D01*
G75*
G02*
X241435000Y-53715000I0J205000D01*
G01*
G37*
X242285000Y-52010000D03*
X237185000Y-53510000D03*
X237185000Y-52010000D03*
G36*
G01*
X213185000Y-46515000D02*
X213185000Y-46105000D01*
G75*
G02*
X213390000Y-45900000I205000J0D01*
G01*
X214680000Y-45900000D01*
G75*
G02*
X214885000Y-46105000I0J-205000D01*
G01*
X214885000Y-46515000D01*
G75*
G02*
X214680000Y-46720000I-205000J0D01*
G01*
X213390000Y-46720000D01*
G75*
G02*
X213185000Y-46515000I0J205000D01*
G01*
G37*
X214035000Y-44810000D03*
X208935000Y-46310000D03*
X208935000Y-44810000D03*
G36*
G01*
X184385000Y-46615000D02*
X184385000Y-46205000D01*
G75*
G02*
X184590000Y-46000000I205000J0D01*
G01*
X185880000Y-46000000D01*
G75*
G02*
X186085000Y-46205000I0J-205000D01*
G01*
X186085000Y-46615000D01*
G75*
G02*
X185880000Y-46820000I-205000J0D01*
G01*
X184590000Y-46820000D01*
G75*
G02*
X184385000Y-46615000I0J205000D01*
G01*
G37*
X185235000Y-44910000D03*
X180135000Y-46410000D03*
X180135000Y-44910000D03*
G36*
G01*
X159985000Y-62615000D02*
X159985000Y-62205000D01*
G75*
G02*
X160190000Y-62000000I205000J0D01*
G01*
X161480000Y-62000000D01*
G75*
G02*
X161685000Y-62205000I0J-205000D01*
G01*
X161685000Y-62615000D01*
G75*
G02*
X161480000Y-62820000I-205000J0D01*
G01*
X160190000Y-62820000D01*
G75*
G02*
X159985000Y-62615000I0J205000D01*
G01*
G37*
X160835000Y-60910000D03*
X155735000Y-62410000D03*
X155735000Y-60910000D03*
D12*
X232725000Y-76920000D03*
X246575000Y-74380000D03*
X203925000Y-69820000D03*
X217775000Y-67280000D03*
X175125000Y-69820000D03*
X188975000Y-67280000D03*
X232325000Y-45720000D03*
X246175000Y-43180000D03*
X203925000Y-38520000D03*
X217775000Y-35980000D03*
X175125000Y-38620000D03*
X188975000Y-36080000D03*
X150725000Y-54620000D03*
X164575000Y-52080000D03*
G36*
G01*
X125290000Y-79815000D02*
X125290000Y-79405000D01*
G75*
G02*
X125495000Y-79200000I205000J0D01*
G01*
X126785000Y-79200000D01*
G75*
G02*
X126990000Y-79405000I0J-205000D01*
G01*
X126990000Y-79815000D01*
G75*
G02*
X126785000Y-80020000I-205000J0D01*
G01*
X125495000Y-80020000D01*
G75*
G02*
X125290000Y-79815000I0J205000D01*
G01*
G37*
D13*
X126140000Y-78110000D03*
X121040000Y-79610000D03*
X121040000Y-78110000D03*
G36*
G01*
X68420000Y-72615000D02*
X68420000Y-72205000D01*
G75*
G02*
X68625000Y-72000000I205000J0D01*
G01*
X69915000Y-72000000D01*
G75*
G02*
X70120000Y-72205000I0J-205000D01*
G01*
X70120000Y-72615000D01*
G75*
G02*
X69915000Y-72820000I-205000J0D01*
G01*
X68625000Y-72820000D01*
G75*
G02*
X68420000Y-72615000I0J205000D01*
G01*
G37*
X69270000Y-70910000D03*
X64170000Y-72410000D03*
X64170000Y-70910000D03*
G36*
G01*
X97055000Y-72615000D02*
X97055000Y-72205000D01*
G75*
G02*
X97260000Y-72000000I205000J0D01*
G01*
X98550000Y-72000000D01*
G75*
G02*
X98755000Y-72205000I0J-205000D01*
G01*
X98755000Y-72615000D01*
G75*
G02*
X98550000Y-72820000I-205000J0D01*
G01*
X97260000Y-72820000D01*
G75*
G02*
X97055000Y-72615000I0J205000D01*
G01*
G37*
X97905000Y-70910000D03*
X92805000Y-72410000D03*
X92805000Y-70910000D03*
G36*
G01*
X134090000Y-127845000D02*
X134090000Y-127435000D01*
G75*
G02*
X134295000Y-127230000I205000J0D01*
G01*
X135585000Y-127230000D01*
G75*
G02*
X135790000Y-127435000I0J-205000D01*
G01*
X135790000Y-127845000D01*
G75*
G02*
X135585000Y-128050000I-205000J0D01*
G01*
X134295000Y-128050000D01*
G75*
G02*
X134090000Y-127845000I0J205000D01*
G01*
G37*
X134940000Y-126140000D03*
X129840000Y-127640000D03*
X129840000Y-126140000D03*
D12*
X87795000Y-64620000D03*
X101645000Y-62080000D03*
X124830000Y-119850000D03*
X138680000Y-117310000D03*
X116030000Y-71820000D03*
X129880000Y-69280000D03*
X59160000Y-64620000D03*
X73010000Y-62080000D03*
M02*
