  0
SECTION
  2
HEADER
  9
$ANGBASE
  50
0.0
  9
$ANGDIR
  70
1
  9
$MEASUREMENT
  70
0
  0
ENDSEC
  0
SECTION
  2
TABLES
  0
TABLE
  2
LTYPE
  70
4
  0
LTYPE
  5
40F
  2
CONTINUOUS
  70
0
  3
Solid line
  72
65
  73
0
  40
0.0
  0
LTYPE
  5
410
  2
DASHDOT
 70
0
  3
Dash Dot ____ _ ____ _
 72
65
 73
4
 40
2.0
 49
1.25
 49
-0.25
 49
0.25
 49
-0.25
  0
LTYPE
  5
411
  2
DASHED
 70
0
  3
Dashed __ __ __ __ __
 72
65
 73
2
 40
0.75
 49
0.5
 49
-0.25
  0
LTYPE
  5
43B
  2
DOTTED
 70
0
  3
Dotted .  .  .  .
 72
65
 73
2
 40
0.2
 49
0.0
 49
-0.2
  0
ENDTAB
  0
TABLE
  2
STYLE
  70
4
  0
STYLE
  2
KICAD
  70
0
  40
0
  41
1
  42
1
  50
0
  71
0
  3
isocp.shx
  0
STYLE
  2
KICADB
  70
0
  40
0
  41
1
  42
1
  50
0
  71
0
  3
isocp.shx
  0
STYLE
  2
KICADI
  70
0
  40
0
  41
1
  42
1
  50
15
  71
0
  3
isocp.shx
  0
STYLE
  2
KICADBI
  70
0
  40
0
  41
1
  42
1
  50
15
  71
0
  3
isocp.shx
  0
ENDTAB
  0
TABLE
  2
LAYER
  70
1
  0
LAYER
  2
BLACK
  70
0
  62
7
  6
CONTINUOUS
  0
ENDTAB
  0
ENDSEC
  0
SECTION
  2
ENTITIES
0
LINE
8
BLACK
6
CONTINUOUS
10
5.03598
20
-5.01357
11
5.03782
21
-5.01414
0
LINE
8
BLACK
6
CONTINUOUS
10
5.03782
20
-5.01414
11
5.03952
21
-5.01504
0
LINE
8
BLACK
6
CONTINUOUS
10
5.03952
20
-5.01504
11
5.04101
21
-5.01627
0
LINE
8
BLACK
6
CONTINUOUS
10
5.04101
20
-5.01627
11
5.04224
21
-5.01776
0
LINE
8
BLACK
6
CONTINUOUS
10
5.04224
20
-5.01776
11
5.04315
21
-5.01946
0
LINE
8
BLACK
6
CONTINUOUS
10
5.04315
20
-5.01946
11
5.04371
21
-5.02131
0
LINE
8
BLACK
6
CONTINUOUS
10
5.04371
20
-5.02131
11
5.0439
21
-5.02323
0
LINE
8
BLACK
6
CONTINUOUS
10
5.0439
20
-5.02323
11
5.0439
21
-5.04291
0
LINE
8
BLACK
6
CONTINUOUS
10
5.0439
20
-5.04291
11
5.04371
21
-5.04483
0
LINE
8
BLACK
6
CONTINUOUS
10
5.04371
20
-5.04483
11
5.04315
21
-5.04668
0
LINE
8
BLACK
6
CONTINUOUS
10
5.04315
20
-5.04668
11
5.04224
21
-5.04838
0
LINE
8
BLACK
6
CONTINUOUS
10
5.04224
20
-5.04838
11
5.04101
21
-5.04987
0
LINE
8
BLACK
6
CONTINUOUS
10
5.04101
20
-5.04987
11
5.03952
21
-5.0511
0
LINE
8
BLACK
6
CONTINUOUS
10
5.03952
20
-5.0511
11
5.03782
21
-5.05201
0
LINE
8
BLACK
6
CONTINUOUS
10
5.03782
20
-5.05201
11
5.03598
21
-5.05257
0
LINE
8
BLACK
6
CONTINUOUS
10
5.03598
20
-5.05257
11
5.03406
21
-5.05276
0
LINE
8
BLACK
6
CONTINUOUS
10
5.03406
20
-5.05276
11
4.99665
21
-5.05276
0
LINE
8
BLACK
6
CONTINUOUS
10
4.99665
20
-5.05276
11
4.99473
21
-5.05257
0
LINE
8
BLACK
6
CONTINUOUS
10
4.99473
20
-5.05257
11
4.99289
21
-5.05201
0
LINE
8
BLACK
6
CONTINUOUS
10
4.99289
20
-5.05201
11
4.99119
21
-5.0511
0
LINE
8
BLACK
6
CONTINUOUS
10
4.99119
20
-5.0511
11
4.98969
21
-5.04987
0
LINE
8
BLACK
6
CONTINUOUS
10
4.98969
20
-5.04987
11
4.98847
21
-5.04838
0
LINE
8
BLACK
6
CONTINUOUS
10
4.98847
20
-5.04838
11
4.98756
21
-5.04668
0
LINE
8
BLACK
6
CONTINUOUS
10
4.98756
20
-5.04668
11
4.987
21
-5.04483
0
LINE
8
BLACK
6
CONTINUOUS
10
4.987
20
-5.04483
11
4.98681
21
-5.04291
0
LINE
8
BLACK
6
CONTINUOUS
10
4.98681
20
-5.04291
11
4.98681
21
-5.02323
0
LINE
8
BLACK
6
CONTINUOUS
10
4.98681
20
-5.02323
11
4.987
21
-5.02131
0
LINE
8
BLACK
6
CONTINUOUS
10
4.987
20
-5.02131
11
4.98756
21
-5.01946
0
LINE
8
BLACK
6
CONTINUOUS
10
4.98756
20
-5.01946
11
4.98847
21
-5.01776
0
LINE
8
BLACK
6
CONTINUOUS
10
4.98847
20
-5.01776
11
4.98969
21
-5.01627
0
LINE
8
BLACK
6
CONTINUOUS
10
4.98969
20
-5.01627
11
4.99119
21
-5.01504
0
LINE
8
BLACK
6
CONTINUOUS
10
4.99119
20
-5.01504
11
4.99289
21
-5.01414
0
LINE
8
BLACK
6
CONTINUOUS
10
4.99289
20
-5.01414
11
4.99473
21
-5.01357
0
LINE
8
BLACK
6
CONTINUOUS
10
4.99473
20
-5.01357
11
4.99665
21
-5.01339
0
LINE
8
BLACK
6
CONTINUOUS
10
4.99665
20
-5.01339
11
5.03406
21
-5.01339
0
LINE
8
BLACK
6
CONTINUOUS
10
5.03406
20
-5.01339
11
5.03598
21
-5.01357
0
LINE
8
BLACK
6
CONTINUOUS
10
5.33957
20
-5.00921
11
5.34108
21
-5.00967
0
LINE
8
BLACK
6
CONTINUOUS
10
5.34108
20
-5.00967
11
5.34248
21
-5.01042
0
LINE
8
BLACK
6
CONTINUOUS
10
5.34248
20
-5.01042
11
5.3437
21
-5.01142
0
LINE
8
BLACK
6
CONTINUOUS
10
5.3437
20
-5.01142
11
5.3447
21
-5.01264
0
LINE
8
BLACK
6
CONTINUOUS
10
5.3447
20
-5.01264
11
5.34545
21
-5.01404
0
LINE
8
BLACK
6
CONTINUOUS
10
5.34545
20
-5.01404
11
5.34591
21
-5.01555
0
LINE
8
BLACK
6
CONTINUOUS
10
5.34591
20
-5.01555
11
5.34606
21
-5.01713
0
LINE
8
BLACK
6
CONTINUOUS
10
5.34606
20
-5.01713
11
5.34606
21
-5.03327
0
LINE
8
BLACK
6
CONTINUOUS
10
5.34606
20
-5.03327
11
5.34591
21
-5.03484
0
LINE
8
BLACK
6
CONTINUOUS
10
5.34591
20
-5.03484
11
5.34545
21
-5.03636
0
LINE
8
BLACK
6
CONTINUOUS
10
5.34545
20
-5.03636
11
5.3447
21
-5.03775
0
LINE
8
BLACK
6
CONTINUOUS
10
5.3447
20
-5.03775
11
5.3437
21
-5.03897
0
LINE
8
BLACK
6
CONTINUOUS
10
5.3437
20
-5.03897
11
5.34248
21
-5.03998
0
LINE
8
BLACK
6
CONTINUOUS
10
5.34248
20
-5.03998
11
5.34108
21
-5.04072
0
LINE
8
BLACK
6
CONTINUOUS
10
5.34108
20
-5.04072
11
5.33957
21
-5.04118
0
LINE
8
BLACK
6
CONTINUOUS
10
5.33957
20
-5.04118
11
5.33799
21
-5.04134
0
LINE
8
BLACK
6
CONTINUOUS
10
5.33799
20
-5.04134
11
5.2872
21
-5.04134
0
LINE
8
BLACK
6
CONTINUOUS
10
5.2872
20
-5.04134
11
5.28563
21
-5.04118
0
LINE
8
BLACK
6
CONTINUOUS
10
5.28563
20
-5.04118
11
5.28412
21
-5.04072
0
LINE
8
BLACK
6
CONTINUOUS
10
5.28412
20
-5.04072
11
5.28272
21
-5.03998
0
LINE
8
BLACK
6
CONTINUOUS
10
5.28272
20
-5.03998
11
5.2815
21
-5.03897
0
LINE
8
BLACK
6
CONTINUOUS
10
5.2815
20
-5.03897
11
5.28049
21
-5.03775
0
LINE
8
BLACK
6
CONTINUOUS
10
5.28049
20
-5.03775
11
5.27975
21
-5.03636
0
LINE
8
BLACK
6
CONTINUOUS
10
5.27975
20
-5.03636
11
5.27929
21
-5.03484
0
LINE
8
BLACK
6
CONTINUOUS
10
5.27929
20
-5.03484
11
5.27913
21
-5.03327
0
LINE
8
BLACK
6
CONTINUOUS
10
5.27913
20
-5.03327
11
5.27913
21
-5.01713
0
LINE
8
BLACK
6
CONTINUOUS
10
5.27913
20
-5.01713
11
5.27929
21
-5.01555
0
LINE
8
BLACK
6
CONTINUOUS
10
5.27929
20
-5.01555
11
5.27975
21
-5.01404
0
LINE
8
BLACK
6
CONTINUOUS
10
5.27975
20
-5.01404
11
5.28049
21
-5.01264
0
LINE
8
BLACK
6
CONTINUOUS
10
5.28049
20
-5.01264
11
5.2815
21
-5.01142
0
LINE
8
BLACK
6
CONTINUOUS
10
5.2815
20
-5.01142
11
5.28272
21
-5.01042
0
LINE
8
BLACK
6
CONTINUOUS
10
5.28272
20
-5.01042
11
5.28412
21
-5.00967
0
LINE
8
BLACK
6
CONTINUOUS
10
5.28412
20
-5.00967
11
5.28563
21
-5.00921
0
LINE
8
BLACK
6
CONTINUOUS
10
5.28563
20
-5.00921
11
5.2872
21
-5.00906
0
LINE
8
BLACK
6
CONTINUOUS
10
5.2872
20
-5.00906
11
5.33799
21
-5.00906
0
LINE
8
BLACK
6
CONTINUOUS
10
5.33799
20
-5.00906
11
5.33957
21
-5.00921
0
LINE
8
BLACK
6
CONTINUOUS
10
5.14528
20
-5.04134
11
5.07835
21
-5.04134
0
LINE
8
BLACK
6
CONTINUOUS
10
5.07835
20
-5.04134
11
5.07835
21
-5.00906
0
LINE
8
BLACK
6
CONTINUOUS
10
5.07835
20
-5.00906
11
5.14528
21
-5.00906
0
LINE
8
BLACK
6
CONTINUOUS
10
5.14528
20
-5.00906
11
5.14528
21
-5.04134
0
LINE
8
BLACK
6
CONTINUOUS
10
5.34606
20
-4.98228
11
5.27913
21
-4.98228
0
LINE
8
BLACK
6
CONTINUOUS
10
5.27913
20
-4.98228
11
5.27913
21
-4.95
0
LINE
8
BLACK
6
CONTINUOUS
10
5.27913
20
-4.95
11
5.34606
21
-4.95
0
LINE
8
BLACK
6
CONTINUOUS
10
5.34606
20
-4.95
11
5.34606
21
-4.98228
0
LINE
8
BLACK
6
CONTINUOUS
10
5.14528
20
-4.98228
11
5.07835
21
-4.98228
0
LINE
8
BLACK
6
CONTINUOUS
10
5.07835
20
-4.98228
11
5.07835
21
-4.95
0
LINE
8
BLACK
6
CONTINUOUS
10
5.07835
20
-4.95
11
5.14528
21
-4.95
0
LINE
8
BLACK
6
CONTINUOUS
10
5.14528
20
-4.95
11
5.14528
21
-4.98228
0
LINE
8
BLACK
6
CONTINUOUS
10
5.03598
20
-4.93877
11
5.03782
21
-4.93933
0
LINE
8
BLACK
6
CONTINUOUS
10
5.03782
20
-4.93933
11
5.03952
21
-4.94024
0
LINE
8
BLACK
6
CONTINUOUS
10
5.03952
20
-4.94024
11
5.04101
21
-4.94147
0
LINE
8
BLACK
6
CONTINUOUS
10
5.04101
20
-4.94147
11
5.04224
21
-4.94296
0
LINE
8
BLACK
6
CONTINUOUS
10
5.04224
20
-4.94296
11
5.04315
21
-4.94466
0
LINE
8
BLACK
6
CONTINUOUS
10
5.04315
20
-4.94466
11
5.04371
21
-4.94651
0
LINE
8
BLACK
6
CONTINUOUS
10
5.04371
20
-4.94651
11
5.0439
21
-4.94843
0
LINE
8
BLACK
6
CONTINUOUS
10
5.0439
20
-4.94843
11
5.0439
21
-4.96811
0
LINE
8
BLACK
6
CONTINUOUS
10
5.0439
20
-4.96811
11
5.04371
21
-4.97003
0
LINE
8
BLACK
6
CONTINUOUS
10
5.04371
20
-4.97003
11
5.04315
21
-4.97188
0
LINE
8
BLACK
6
CONTINUOUS
10
5.04315
20
-4.97188
11
5.04224
21
-4.97358
0
LINE
8
BLACK
6
CONTINUOUS
10
5.04224
20
-4.97358
11
5.04101
21
-4.97507
0
LINE
8
BLACK
6
CONTINUOUS
10
5.04101
20
-4.97507
11
5.03952
21
-4.97629
0
LINE
8
BLACK
6
CONTINUOUS
10
5.03952
20
-4.97629
11
5.03782
21
-4.9772
0
LINE
8
BLACK
6
CONTINUOUS
10
5.03782
20
-4.9772
11
5.03598
21
-4.97776
0
LINE
8
BLACK
6
CONTINUOUS
10
5.03598
20
-4.97776
11
5.03406
21
-4.97795
0
LINE
8
BLACK
6
CONTINUOUS
10
5.03406
20
-4.97795
11
4.99665
21
-4.97795
0
LINE
8
BLACK
6
CONTINUOUS
10
4.99665
20
-4.97795
11
4.99473
21
-4.97776
0
LINE
8
BLACK
6
CONTINUOUS
10
4.99473
20
-4.97776
11
4.99289
21
-4.9772
0
LINE
8
BLACK
6
CONTINUOUS
10
4.99289
20
-4.9772
11
4.99119
21
-4.97629
0
LINE
8
BLACK
6
CONTINUOUS
10
4.99119
20
-4.97629
11
4.98969
21
-4.97507
0
LINE
8
BLACK
6
CONTINUOUS
10
4.98969
20
-4.97507
11
4.98847
21
-4.97358
0
LINE
8
BLACK
6
CONTINUOUS
10
4.98847
20
-4.97358
11
4.98756
21
-4.97188
0
LINE
8
BLACK
6
CONTINUOUS
10
4.98756
20
-4.97188
11
4.987
21
-4.97003
0
LINE
8
BLACK
6
CONTINUOUS
10
4.987
20
-4.97003
11
4.98681
21
-4.96811
0
LINE
8
BLACK
6
CONTINUOUS
10
4.98681
20
-4.96811
11
4.98681
21
-4.94843
0
LINE
8
BLACK
6
CONTINUOUS
10
4.98681
20
-4.94843
11
4.987
21
-4.94651
0
LINE
8
BLACK
6
CONTINUOUS
10
4.987
20
-4.94651
11
4.98756
21
-4.94466
0
LINE
8
BLACK
6
CONTINUOUS
10
4.98756
20
-4.94466
11
4.98847
21
-4.94296
0
LINE
8
BLACK
6
CONTINUOUS
10
4.98847
20
-4.94296
11
4.98969
21
-4.94147
0
LINE
8
BLACK
6
CONTINUOUS
10
4.98969
20
-4.94147
11
4.99119
21
-4.94024
0
LINE
8
BLACK
6
CONTINUOUS
10
4.99119
20
-4.94024
11
4.99289
21
-4.93933
0
LINE
8
BLACK
6
CONTINUOUS
10
4.99289
20
-4.93933
11
4.99473
21
-4.93877
0
LINE
8
BLACK
6
CONTINUOUS
10
4.99473
20
-4.93877
11
4.99665
21
-4.93858
0
LINE
8
BLACK
6
CONTINUOUS
10
4.99665
20
-4.93858
11
5.03406
21
-4.93858
0
LINE
8
BLACK
6
CONTINUOUS
10
5.03406
20
-4.93858
11
5.03598
21
-4.93877
0
LINE
8
BLACK
6
CONTINUOUS
10
4.96476
20
-4.76772
11
4.86437
21
-4.76772
0
LINE
8
BLACK
6
CONTINUOUS
10
4.86437
20
-4.76772
11
4.86437
21
-4.66929
0
LINE
8
BLACK
6
CONTINUOUS
10
4.86437
20
-4.66929
11
4.96476
21
-4.66929
0
LINE
8
BLACK
6
CONTINUOUS
10
4.96476
20
-4.66929
11
4.96476
21
-4.76772
0
LINE
8
BLACK
6
CONTINUOUS
10
5.51004
20
-4.66772
11
5.40965
21
-4.66772
0
LINE
8
BLACK
6
CONTINUOUS
10
5.40965
20
-4.66772
11
5.40965
21
-4.56929
0
LINE
8
BLACK
6
CONTINUOUS
10
5.40965
20
-4.56929
11
5.51004
21
-4.56929
0
LINE
8
BLACK
6
CONTINUOUS
10
5.51004
20
-4.56929
11
5.51004
21
-4.66772
0
LINE
8
BLACK
6
CONTINUOUS
10
8.26142
20
-3.7878
11
8.22205
21
-3.7878
0
LINE
8
BLACK
6
CONTINUOUS
10
8.22205
20
-3.7878
11
8.22205
21
-3.66969
0
LINE
8
BLACK
6
CONTINUOUS
10
8.22205
20
-3.66969
11
8.26142
21
-3.66969
0
LINE
8
BLACK
6
CONTINUOUS
10
8.26142
20
-3.66969
11
8.26142
21
-3.7878
0
LINE
8
BLACK
6
CONTINUOUS
10
8.16142
20
-3.7878
11
8.12205
21
-3.7878
0
LINE
8
BLACK
6
CONTINUOUS
10
8.12205
20
-3.7878
11
8.12205
21
-3.66969
0
LINE
8
BLACK
6
CONTINUOUS
10
8.12205
20
-3.66969
11
8.16142
21
-3.66969
0
LINE
8
BLACK
6
CONTINUOUS
10
8.16142
20
-3.66969
11
8.16142
21
-3.7878
0
LINE
8
BLACK
6
CONTINUOUS
10
8.36142
20
-3.7878
11
8.32205
21
-3.7878
0
LINE
8
BLACK
6
CONTINUOUS
10
8.32205
20
-3.7878
11
8.32205
21
-3.66969
0
LINE
8
BLACK
6
CONTINUOUS
10
8.32205
20
-3.66969
11
8.36142
21
-3.66969
0
LINE
8
BLACK
6
CONTINUOUS
10
8.36142
20
-3.66969
11
8.36142
21
-3.7878
0
LINE
8
BLACK
6
CONTINUOUS
10
8.06142
20
-3.7878
11
8.02205
21
-3.7878
0
LINE
8
BLACK
6
CONTINUOUS
10
8.02205
20
-3.7878
11
8.02205
21
-3.66969
0
LINE
8
BLACK
6
CONTINUOUS
10
8.02205
20
-3.66969
11
8.06142
21
-3.66969
0
LINE
8
BLACK
6
CONTINUOUS
10
8.06142
20
-3.66969
11
8.06142
21
-3.7878
0
LINE
8
BLACK
6
CONTINUOUS
10
8.76142
20
-3.7878
11
8.72205
21
-3.7878
0
LINE
8
BLACK
6
CONTINUOUS
10
8.72205
20
-3.7878
11
8.72205
21
-3.66969
0
LINE
8
BLACK
6
CONTINUOUS
10
8.72205
20
-3.66969
11
8.76142
21
-3.66969
0
LINE
8
BLACK
6
CONTINUOUS
10
8.76142
20
-3.66969
11
8.76142
21
-3.7878
0
LINE
8
BLACK
6
CONTINUOUS
10
8.46142
20
-3.7878
11
8.42205
21
-3.7878
0
LINE
8
BLACK
6
CONTINUOUS
10
8.42205
20
-3.7878
11
8.42205
21
-3.66969
0
LINE
8
BLACK
6
CONTINUOUS
10
8.42205
20
-3.66969
11
8.46142
21
-3.66969
0
LINE
8
BLACK
6
CONTINUOUS
10
8.46142
20
-3.66969
11
8.46142
21
-3.7878
0
LINE
8
BLACK
6
CONTINUOUS
10
8.86142
20
-3.7878
11
8.82205
21
-3.7878
0
LINE
8
BLACK
6
CONTINUOUS
10
8.82205
20
-3.7878
11
8.82205
21
-3.66969
0
LINE
8
BLACK
6
CONTINUOUS
10
8.82205
20
-3.66969
11
8.86142
21
-3.66969
0
LINE
8
BLACK
6
CONTINUOUS
10
8.86142
20
-3.66969
11
8.86142
21
-3.7878
0
LINE
8
BLACK
6
CONTINUOUS
10
8.96142
20
-3.7878
11
8.92205
21
-3.7878
0
LINE
8
BLACK
6
CONTINUOUS
10
8.92205
20
-3.7878
11
8.92205
21
-3.66969
0
LINE
8
BLACK
6
CONTINUOUS
10
8.92205
20
-3.66969
11
8.96142
21
-3.66969
0
LINE
8
BLACK
6
CONTINUOUS
10
8.96142
20
-3.66969
11
8.96142
21
-3.7878
0
LINE
8
BLACK
6
CONTINUOUS
10
8.56142
20
-3.7878
11
8.52205
21
-3.7878
0
LINE
8
BLACK
6
CONTINUOUS
10
8.52205
20
-3.7878
11
8.52205
21
-3.66969
0
LINE
8
BLACK
6
CONTINUOUS
10
8.52205
20
-3.66969
11
8.56142
21
-3.66969
0
LINE
8
BLACK
6
CONTINUOUS
10
8.56142
20
-3.66969
11
8.56142
21
-3.7878
0
LINE
8
BLACK
6
CONTINUOUS
10
8.66142
20
-3.7878
11
8.62205
21
-3.7878
0
LINE
8
BLACK
6
CONTINUOUS
10
8.62205
20
-3.7878
11
8.62205
21
-3.66969
0
LINE
8
BLACK
6
CONTINUOUS
10
8.62205
20
-3.66969
11
8.66142
21
-3.66969
0
LINE
8
BLACK
6
CONTINUOUS
10
8.66142
20
-3.66969
11
8.66142
21
-3.7878
0
LINE
8
BLACK
6
CONTINUOUS
10
6.05546
20
-3.67381
11
6.05731
21
-3.67437
0
LINE
8
BLACK
6
CONTINUOUS
10
6.05731
20
-3.67437
11
6.05901
21
-3.67528
0
LINE
8
BLACK
6
CONTINUOUS
10
6.05901
20
-3.67528
11
6.0605
21
-3.6765
0
LINE
8
BLACK
6
CONTINUOUS
10
6.0605
20
-3.6765
11
6.06173
21
-3.678
0
LINE
8
BLACK
6
CONTINUOUS
10
6.06173
20
-3.678
11
6.06264
21
-3.6797
0
LINE
8
BLACK
6
CONTINUOUS
10
6.06264
20
-3.6797
11
6.0632
21
-3.68154
0
LINE
8
BLACK
6
CONTINUOUS
10
6.0632
20
-3.68154
11
6.06339
21
-3.68346
0
LINE
8
BLACK
6
CONTINUOUS
10
6.06339
20
-3.68346
11
6.06339
21
-3.70315
0
LINE
8
BLACK
6
CONTINUOUS
10
6.06339
20
-3.70315
11
6.0632
21
-3.70507
0
LINE
8
BLACK
6
CONTINUOUS
10
6.0632
20
-3.70507
11
6.06264
21
-3.70692
0
LINE
8
BLACK
6
CONTINUOUS
10
6.06264
20
-3.70692
11
6.06173
21
-3.70862
0
LINE
8
BLACK
6
CONTINUOUS
10
6.06173
20
-3.70862
11
6.0605
21
-3.71011
0
LINE
8
BLACK
6
CONTINUOUS
10
6.0605
20
-3.71011
11
6.05901
21
-3.71133
0
LINE
8
BLACK
6
CONTINUOUS
10
6.05901
20
-3.71133
11
6.05731
21
-3.71224
0
LINE
8
BLACK
6
CONTINUOUS
10
6.05731
20
-3.71224
11
6.05546
21
-3.7128
0
LINE
8
BLACK
6
CONTINUOUS
10
6.05546
20
-3.7128
11
6.05354
21
-3.71299
0
LINE
8
BLACK
6
CONTINUOUS
10
6.05354
20
-3.71299
11
6.01614
21
-3.71299
0
LINE
8
BLACK
6
CONTINUOUS
10
6.01614
20
-3.71299
11
6.01422
21
-3.7128
0
LINE
8
BLACK
6
CONTINUOUS
10
6.01422
20
-3.7128
11
6.01238
21
-3.71224
0
LINE
8
BLACK
6
CONTINUOUS
10
6.01238
20
-3.71224
11
6.01067
21
-3.71133
0
LINE
8
BLACK
6
CONTINUOUS
10
6.01067
20
-3.71133
11
6.00918
21
-3.71011
0
LINE
8
BLACK
6
CONTINUOUS
10
6.00918
20
-3.71011
11
6.00796
21
-3.70862
0
LINE
8
BLACK
6
CONTINUOUS
10
6.00796
20
-3.70862
11
6.00705
21
-3.70692
0
LINE
8
BLACK
6
CONTINUOUS
10
6.00705
20
-3.70692
11
6.00649
21
-3.70507
0
LINE
8
BLACK
6
CONTINUOUS
10
6.00649
20
-3.70507
11
6.0063
21
-3.70315
0
LINE
8
BLACK
6
CONTINUOUS
10
6.0063
20
-3.70315
11
6.0063
21
-3.68346
0
LINE
8
BLACK
6
CONTINUOUS
10
6.0063
20
-3.68346
11
6.00649
21
-3.68154
0
LINE
8
BLACK
6
CONTINUOUS
10
6.00649
20
-3.68154
11
6.00705
21
-3.6797
0
LINE
8
BLACK
6
CONTINUOUS
10
6.00705
20
-3.6797
11
6.00796
21
-3.678
0
LINE
8
BLACK
6
CONTINUOUS
10
6.00796
20
-3.678
11
6.00918
21
-3.6765
0
LINE
8
BLACK
6
CONTINUOUS
10
6.00918
20
-3.6765
11
6.01067
21
-3.67528
0
LINE
8
BLACK
6
CONTINUOUS
10
6.01067
20
-3.67528
11
6.01238
21
-3.67437
0
LINE
8
BLACK
6
CONTINUOUS
10
6.01238
20
-3.67437
11
6.01422
21
-3.67381
0
LINE
8
BLACK
6
CONTINUOUS
10
6.01422
20
-3.67381
11
6.01614
21
-3.67362
0
LINE
8
BLACK
6
CONTINUOUS
10
6.01614
20
-3.67362
11
6.05354
21
-3.67362
0
LINE
8
BLACK
6
CONTINUOUS
10
6.05354
20
-3.67362
11
6.05546
21
-3.67381
0
LINE
8
BLACK
6
CONTINUOUS
10
6.16476
20
-3.70157
11
6.09783
21
-3.70157
0
LINE
8
BLACK
6
CONTINUOUS
10
6.09783
20
-3.70157
11
6.09783
21
-3.66929
0
LINE
8
BLACK
6
CONTINUOUS
10
6.09783
20
-3.66929
11
6.16476
21
-3.66929
0
LINE
8
BLACK
6
CONTINUOUS
10
6.16476
20
-3.66929
11
6.16476
21
-3.70157
0
LINE
8
BLACK
6
CONTINUOUS
10
6.35905
20
-3.66945
11
6.36057
21
-3.66991
0
LINE
8
BLACK
6
CONTINUOUS
10
6.36057
20
-3.66991
11
6.36196
21
-3.67065
0
LINE
8
BLACK
6
CONTINUOUS
10
6.36196
20
-3.67065
11
6.36319
21
-3.67166
0
LINE
8
BLACK
6
CONTINUOUS
10
6.36319
20
-3.67166
11
6.36419
21
-3.67288
0
LINE
8
BLACK
6
CONTINUOUS
10
6.36419
20
-3.67288
11
6.36494
21
-3.67427
0
LINE
8
BLACK
6
CONTINUOUS
10
6.36494
20
-3.67427
11
6.3654
21
-3.67579
0
LINE
8
BLACK
6
CONTINUOUS
10
6.3654
20
-3.67579
11
6.36555
21
-3.67736
0
LINE
8
BLACK
6
CONTINUOUS
10
6.36555
20
-3.67736
11
6.36555
21
-3.6935
0
LINE
8
BLACK
6
CONTINUOUS
10
6.36555
20
-3.6935
11
6.3654
21
-3.69508
0
LINE
8
BLACK
6
CONTINUOUS
10
6.3654
20
-3.69508
11
6.36494
21
-3.69659
0
LINE
8
BLACK
6
CONTINUOUS
10
6.36494
20
-3.69659
11
6.36419
21
-3.69799
0
LINE
8
BLACK
6
CONTINUOUS
10
6.36419
20
-3.69799
11
6.36319
21
-3.69921
0
LINE
8
BLACK
6
CONTINUOUS
10
6.36319
20
-3.69921
11
6.36196
21
-3.70021
0
LINE
8
BLACK
6
CONTINUOUS
10
6.36196
20
-3.70021
11
6.36057
21
-3.70096
0
LINE
8
BLACK
6
CONTINUOUS
10
6.36057
20
-3.70096
11
6.35905
21
-3.70142
0
LINE
8
BLACK
6
CONTINUOUS
10
6.35905
20
-3.70142
11
6.35748
21
-3.70157
0
LINE
8
BLACK
6
CONTINUOUS
10
6.35748
20
-3.70157
11
6.30669
21
-3.70157
0
LINE
8
BLACK
6
CONTINUOUS
10
6.30669
20
-3.70157
11
6.30512
21
-3.70142
0
LINE
8
BLACK
6
CONTINUOUS
10
6.30512
20
-3.70142
11
6.3036
21
-3.70096
0
LINE
8
BLACK
6
CONTINUOUS
10
6.3036
20
-3.70096
11
6.30221
21
-3.70021
0
LINE
8
BLACK
6
CONTINUOUS
10
6.30221
20
-3.70021
11
6.30099
21
-3.69921
0
LINE
8
BLACK
6
CONTINUOUS
10
6.30099
20
-3.69921
11
6.29998
21
-3.69799
0
LINE
8
BLACK
6
CONTINUOUS
10
6.29998
20
-3.69799
11
6.29924
21
-3.69659
0
LINE
8
BLACK
6
CONTINUOUS
10
6.29924
20
-3.69659
11
6.29878
21
-3.69508
0
LINE
8
BLACK
6
CONTINUOUS
10
6.29878
20
-3.69508
11
6.29862
21
-3.6935
0
LINE
8
BLACK
6
CONTINUOUS
10
6.29862
20
-3.6935
11
6.29862
21
-3.67736
0
LINE
8
BLACK
6
CONTINUOUS
10
6.29862
20
-3.67736
11
6.29878
21
-3.67579
0
LINE
8
BLACK
6
CONTINUOUS
10
6.29878
20
-3.67579
11
6.29924
21
-3.67427
0
LINE
8
BLACK
6
CONTINUOUS
10
6.29924
20
-3.67427
11
6.29998
21
-3.67288
0
LINE
8
BLACK
6
CONTINUOUS
10
6.29998
20
-3.67288
11
6.30099
21
-3.67166
0
LINE
8
BLACK
6
CONTINUOUS
10
6.30099
20
-3.67166
11
6.30221
21
-3.67065
0
LINE
8
BLACK
6
CONTINUOUS
10
6.30221
20
-3.67065
11
6.3036
21
-3.66991
0
LINE
8
BLACK
6
CONTINUOUS
10
6.3036
20
-3.66991
11
6.30512
21
-3.66945
0
LINE
8
BLACK
6
CONTINUOUS
10
6.30512
20
-3.66945
11
6.30669
21
-3.66929
0
LINE
8
BLACK
6
CONTINUOUS
10
6.30669
20
-3.66929
11
6.35748
21
-3.66929
0
LINE
8
BLACK
6
CONTINUOUS
10
6.35748
20
-3.66929
11
6.35905
21
-3.66945
0
LINE
8
BLACK
6
CONTINUOUS
10
6.16476
20
-3.64252
11
6.09783
21
-3.64252
0
LINE
8
BLACK
6
CONTINUOUS
10
6.09783
20
-3.64252
11
6.09783
21
-3.61024
0
LINE
8
BLACK
6
CONTINUOUS
10
6.09783
20
-3.61024
11
6.16476
21
-3.61024
0
LINE
8
BLACK
6
CONTINUOUS
10
6.16476
20
-3.61024
11
6.16476
21
-3.64252
0
LINE
8
BLACK
6
CONTINUOUS
10
6.36555
20
-3.64252
11
6.29862
21
-3.64252
0
LINE
8
BLACK
6
CONTINUOUS
10
6.29862
20
-3.64252
11
6.29862
21
-3.61024
0
LINE
8
BLACK
6
CONTINUOUS
10
6.29862
20
-3.61024
11
6.36555
21
-3.61024
0
LINE
8
BLACK
6
CONTINUOUS
10
6.36555
20
-3.61024
11
6.36555
21
-3.64252
0
LINE
8
BLACK
6
CONTINUOUS
10
6.05546
20
-3.59901
11
6.05731
21
-3.59957
0
LINE
8
BLACK
6
CONTINUOUS
10
6.05731
20
-3.59957
11
6.05901
21
-3.60048
0
LINE
8
BLACK
6
CONTINUOUS
10
6.05901
20
-3.60048
11
6.0605
21
-3.6017
0
LINE
8
BLACK
6
CONTINUOUS
10
6.0605
20
-3.6017
11
6.06173
21
-3.60319
0
LINE
8
BLACK
6
CONTINUOUS
10
6.06173
20
-3.60319
11
6.06264
21
-3.60489
0
LINE
8
BLACK
6
CONTINUOUS
10
6.06264
20
-3.60489
11
6.0632
21
-3.60674
0
LINE
8
BLACK
6
CONTINUOUS
10
6.0632
20
-3.60674
11
6.06339
21
-3.60866
0
LINE
8
BLACK
6
CONTINUOUS
10
6.06339
20
-3.60866
11
6.06339
21
-3.62835
0
LINE
8
BLACK
6
CONTINUOUS
10
6.06339
20
-3.62835
11
6.0632
21
-3.63027
0
LINE
8
BLACK
6
CONTINUOUS
10
6.0632
20
-3.63027
11
6.06264
21
-3.63211
0
LINE
8
BLACK
6
CONTINUOUS
10
6.06264
20
-3.63211
11
6.06173
21
-3.63381
0
LINE
8
BLACK
6
CONTINUOUS
10
6.06173
20
-3.63381
11
6.0605
21
-3.63531
0
LINE
8
BLACK
6
CONTINUOUS
10
6.0605
20
-3.63531
11
6.05901
21
-3.63653
0
LINE
8
BLACK
6
CONTINUOUS
10
6.05901
20
-3.63653
11
6.05731
21
-3.63744
0
LINE
8
BLACK
6
CONTINUOUS
10
6.05731
20
-3.63744
11
6.05546
21
-3.638
0
LINE
8
BLACK
6
CONTINUOUS
10
6.05546
20
-3.638
11
6.05354
21
-3.63819
0
LINE
8
BLACK
6
CONTINUOUS
10
6.05354
20
-3.63819
11
6.01614
21
-3.63819
0
LINE
8
BLACK
6
CONTINUOUS
10
6.01614
20
-3.63819
11
6.01422
21
-3.638
0
LINE
8
BLACK
6
CONTINUOUS
10
6.01422
20
-3.638
11
6.01238
21
-3.63744
0
LINE
8
BLACK
6
CONTINUOUS
10
6.01238
20
-3.63744
11
6.01067
21
-3.63653
0
LINE
8
BLACK
6
CONTINUOUS
10
6.01067
20
-3.63653
11
6.00918
21
-3.63531
0
LINE
8
BLACK
6
CONTINUOUS
10
6.00918
20
-3.63531
11
6.00796
21
-3.63381
0
LINE
8
BLACK
6
CONTINUOUS
10
6.00796
20
-3.63381
11
6.00705
21
-3.63211
0
LINE
8
BLACK
6
CONTINUOUS
10
6.00705
20
-3.63211
11
6.00649
21
-3.63027
0
LINE
8
BLACK
6
CONTINUOUS
10
6.00649
20
-3.63027
11
6.0063
21
-3.62835
0
LINE
8
BLACK
6
CONTINUOUS
10
6.0063
20
-3.62835
11
6.0063
21
-3.60866
0
LINE
8
BLACK
6
CONTINUOUS
10
6.0063
20
-3.60866
11
6.00649
21
-3.60674
0
LINE
8
BLACK
6
CONTINUOUS
10
6.00649
20
-3.60674
11
6.00705
21
-3.60489
0
LINE
8
BLACK
6
CONTINUOUS
10
6.00705
20
-3.60489
11
6.00796
21
-3.60319
0
LINE
8
BLACK
6
CONTINUOUS
10
6.00796
20
-3.60319
11
6.00918
21
-3.6017
0
LINE
8
BLACK
6
CONTINUOUS
10
6.00918
20
-3.6017
11
6.01067
21
-3.60048
0
LINE
8
BLACK
6
CONTINUOUS
10
6.01067
20
-3.60048
11
6.01238
21
-3.59957
0
LINE
8
BLACK
6
CONTINUOUS
10
6.01238
20
-3.59957
11
6.01422
21
-3.59901
0
LINE
8
BLACK
6
CONTINUOUS
10
6.01422
20
-3.59901
11
6.01614
21
-3.59882
0
LINE
8
BLACK
6
CONTINUOUS
10
6.01614
20
-3.59882
11
6.05354
21
-3.59882
0
LINE
8
BLACK
6
CONTINUOUS
10
6.05354
20
-3.59882
11
6.05546
21
-3.59901
0
LINE
8
BLACK
6
CONTINUOUS
10
8.36142
20
-3.58937
11
8.32205
21
-3.58937
0
LINE
8
BLACK
6
CONTINUOUS
10
8.32205
20
-3.58937
11
8.32205
21
-3.47126
0
LINE
8
BLACK
6
CONTINUOUS
10
8.32205
20
-3.47126
11
8.36142
21
-3.47126
0
LINE
8
BLACK
6
CONTINUOUS
10
8.36142
20
-3.47126
11
8.36142
21
-3.58937
0
LINE
8
BLACK
6
CONTINUOUS
10
8.46142
20
-3.58937
11
8.42205
21
-3.58937
0
LINE
8
BLACK
6
CONTINUOUS
10
8.42205
20
-3.58937
11
8.42205
21
-3.47126
0
LINE
8
BLACK
6
CONTINUOUS
10
8.42205
20
-3.47126
11
8.46142
21
-3.47126
0
LINE
8
BLACK
6
CONTINUOUS
10
8.46142
20
-3.47126
11
8.46142
21
-3.58937
0
LINE
8
BLACK
6
CONTINUOUS
10
8.56142
20
-3.58937
11
8.52205
21
-3.58937
0
LINE
8
BLACK
6
CONTINUOUS
10
8.52205
20
-3.58937
11
8.52205
21
-3.47126
0
LINE
8
BLACK
6
CONTINUOUS
10
8.52205
20
-3.47126
11
8.56142
21
-3.47126
0
LINE
8
BLACK
6
CONTINUOUS
10
8.56142
20
-3.47126
11
8.56142
21
-3.58937
0
LINE
8
BLACK
6
CONTINUOUS
10
8.26142
20
-3.58937
11
8.22205
21
-3.58937
0
LINE
8
BLACK
6
CONTINUOUS
10
8.22205
20
-3.58937
11
8.22205
21
-3.47126
0
LINE
8
BLACK
6
CONTINUOUS
10
8.22205
20
-3.47126
11
8.26142
21
-3.47126
0
LINE
8
BLACK
6
CONTINUOUS
10
8.26142
20
-3.47126
11
8.26142
21
-3.58937
0
LINE
8
BLACK
6
CONTINUOUS
10
8.66142
20
-3.58937
11
8.62205
21
-3.58937
0
LINE
8
BLACK
6
CONTINUOUS
10
8.62205
20
-3.58937
11
8.62205
21
-3.47126
0
LINE
8
BLACK
6
CONTINUOUS
10
8.62205
20
-3.47126
11
8.66142
21
-3.47126
0
LINE
8
BLACK
6
CONTINUOUS
10
8.66142
20
-3.47126
11
8.66142
21
-3.58937
0
LINE
8
BLACK
6
CONTINUOUS
10
8.16142
20
-3.58937
11
8.12205
21
-3.58937
0
LINE
8
BLACK
6
CONTINUOUS
10
8.12205
20
-3.58937
11
8.12205
21
-3.47126
0
LINE
8
BLACK
6
CONTINUOUS
10
8.12205
20
-3.47126
11
8.16142
21
-3.47126
0
LINE
8
BLACK
6
CONTINUOUS
10
8.16142
20
-3.47126
11
8.16142
21
-3.58937
0
LINE
8
BLACK
6
CONTINUOUS
10
8.06142
20
-3.58937
11
8.02205
21
-3.58937
0
LINE
8
BLACK
6
CONTINUOUS
10
8.02205
20
-3.58937
11
8.02205
21
-3.47126
0
LINE
8
BLACK
6
CONTINUOUS
10
8.02205
20
-3.47126
11
8.06142
21
-3.47126
0
LINE
8
BLACK
6
CONTINUOUS
10
8.06142
20
-3.47126
11
8.06142
21
-3.58937
0
LINE
8
BLACK
6
CONTINUOUS
10
8.76142
20
-3.58937
11
8.72205
21
-3.58937
0
LINE
8
BLACK
6
CONTINUOUS
10
8.72205
20
-3.58937
11
8.72205
21
-3.47126
0
LINE
8
BLACK
6
CONTINUOUS
10
8.72205
20
-3.47126
11
8.76142
21
-3.47126
0
LINE
8
BLACK
6
CONTINUOUS
10
8.76142
20
-3.47126
11
8.76142
21
-3.58937
0
LINE
8
BLACK
6
CONTINUOUS
10
8.86142
20
-3.58937
11
8.82205
21
-3.58937
0
LINE
8
BLACK
6
CONTINUOUS
10
8.82205
20
-3.58937
11
8.82205
21
-3.47126
0
LINE
8
BLACK
6
CONTINUOUS
10
8.82205
20
-3.47126
11
8.86142
21
-3.47126
0
LINE
8
BLACK
6
CONTINUOUS
10
8.86142
20
-3.47126
11
8.86142
21
-3.58937
0
LINE
8
BLACK
6
CONTINUOUS
10
8.96142
20
-3.58937
11
8.92205
21
-3.58937
0
LINE
8
BLACK
6
CONTINUOUS
10
8.92205
20
-3.58937
11
8.92205
21
-3.47126
0
LINE
8
BLACK
6
CONTINUOUS
10
8.92205
20
-3.47126
11
8.96142
21
-3.47126
0
LINE
8
BLACK
6
CONTINUOUS
10
8.96142
20
-3.47126
11
8.96142
21
-3.58937
0
LINE
8
BLACK
6
CONTINUOUS
10
5.98425
20
-3.42795
11
5.88386
21
-3.42795
0
LINE
8
BLACK
6
CONTINUOUS
10
5.88386
20
-3.42795
11
5.88386
21
-3.32953
0
LINE
8
BLACK
6
CONTINUOUS
10
5.88386
20
-3.32953
11
5.98425
21
-3.32953
0
LINE
8
BLACK
6
CONTINUOUS
10
5.98425
20
-3.32953
11
5.98425
21
-3.42795
0
LINE
8
BLACK
6
CONTINUOUS
10
9.28381
20
-3.32342
11
9.28566
21
-3.32398
0
LINE
8
BLACK
6
CONTINUOUS
10
9.28566
20
-3.32398
11
9.28736
21
-3.32489
0
LINE
8
BLACK
6
CONTINUOUS
10
9.28736
20
-3.32489
11
9.28885
21
-3.32611
0
LINE
8
BLACK
6
CONTINUOUS
10
9.28885
20
-3.32611
11
9.29007
21
-3.3276
0
LINE
8
BLACK
6
CONTINUOUS
10
9.29007
20
-3.3276
11
9.29098
21
-3.3293
0
LINE
8
BLACK
6
CONTINUOUS
10
9.29098
20
-3.3293
11
9.29154
21
-3.33115
0
LINE
8
BLACK
6
CONTINUOUS
10
9.29154
20
-3.33115
11
9.29173
21
-3.33307
0
LINE
8
BLACK
6
CONTINUOUS
10
9.29173
20
-3.33307
11
9.29173
21
-3.35276
0
LINE
8
BLACK
6
CONTINUOUS
10
9.29173
20
-3.35276
11
9.29154
21
-3.35468
0
LINE
8
BLACK
6
CONTINUOUS
10
9.29154
20
-3.35468
11
9.29098
21
-3.35652
0
LINE
8
BLACK
6
CONTINUOUS
10
9.29098
20
-3.35652
11
9.29007
21
-3.35822
0
LINE
8
BLACK
6
CONTINUOUS
10
9.29007
20
-3.35822
11
9.28885
21
-3.35972
0
LINE
8
BLACK
6
CONTINUOUS
10
9.28885
20
-3.35972
11
9.28736
21
-3.36094
0
LINE
8
BLACK
6
CONTINUOUS
10
9.28736
20
-3.36094
11
9.28566
21
-3.36185
0
LINE
8
BLACK
6
CONTINUOUS
10
9.28566
20
-3.36185
11
9.28381
21
-3.36241
0
LINE
8
BLACK
6
CONTINUOUS
10
9.28381
20
-3.36241
11
9.28189
21
-3.3626
0
LINE
8
BLACK
6
CONTINUOUS
10
9.28189
20
-3.3626
11
9.24449
21
-3.3626
0
LINE
8
BLACK
6
CONTINUOUS
10
9.24449
20
-3.3626
11
9.24257
21
-3.36241
0
LINE
8
BLACK
6
CONTINUOUS
10
9.24257
20
-3.36241
11
9.24072
21
-3.36185
0
LINE
8
BLACK
6
CONTINUOUS
10
9.24072
20
-3.36185
11
9.23902
21
-3.36094
0
LINE
8
BLACK
6
CONTINUOUS
10
9.23902
20
-3.36094
11
9.23753
21
-3.35972
0
LINE
8
BLACK
6
CONTINUOUS
10
9.23753
20
-3.35972
11
9.2363
21
-3.35822
0
LINE
8
BLACK
6
CONTINUOUS
10
9.2363
20
-3.35822
11
9.23539
21
-3.35652
0
LINE
8
BLACK
6
CONTINUOUS
10
9.23539
20
-3.35652
11
9.23483
21
-3.35468
0
LINE
8
BLACK
6
CONTINUOUS
10
9.23483
20
-3.35468
11
9.23465
21
-3.35276
0
LINE
8
BLACK
6
CONTINUOUS
10
9.23465
20
-3.35276
11
9.23465
21
-3.33307
0
LINE
8
BLACK
6
CONTINUOUS
10
9.23465
20
-3.33307
11
9.23483
21
-3.33115
0
LINE
8
BLACK
6
CONTINUOUS
10
9.23483
20
-3.33115
11
9.23539
21
-3.3293
0
LINE
8
BLACK
6
CONTINUOUS
10
9.23539
20
-3.3293
11
9.2363
21
-3.3276
0
LINE
8
BLACK
6
CONTINUOUS
10
9.2363
20
-3.3276
11
9.23753
21
-3.32611
0
LINE
8
BLACK
6
CONTINUOUS
10
9.23753
20
-3.32611
11
9.23902
21
-3.32489
0
LINE
8
BLACK
6
CONTINUOUS
10
9.23902
20
-3.32489
11
9.24072
21
-3.32398
0
LINE
8
BLACK
6
CONTINUOUS
10
9.24072
20
-3.32398
11
9.24257
21
-3.32342
0
LINE
8
BLACK
6
CONTINUOUS
10
9.24257
20
-3.32342
11
9.24449
21
-3.32323
0
LINE
8
BLACK
6
CONTINUOUS
10
9.24449
20
-3.32323
11
9.28189
21
-3.32323
0
LINE
8
BLACK
6
CONTINUOUS
10
9.28189
20
-3.32323
11
9.28381
21
-3.32342
0
LINE
8
BLACK
6
CONTINUOUS
10
9.39311
20
-3.35118
11
9.32618
21
-3.35118
0
LINE
8
BLACK
6
CONTINUOUS
10
9.32618
20
-3.35118
11
9.32618
21
-3.3189
0
LINE
8
BLACK
6
CONTINUOUS
10
9.32618
20
-3.3189
11
9.39311
21
-3.3189
0
LINE
8
BLACK
6
CONTINUOUS
10
9.39311
20
-3.3189
11
9.39311
21
-3.35118
0
LINE
8
BLACK
6
CONTINUOUS
10
9.5874
20
-3.31905
11
9.58892
21
-3.31951
0
LINE
8
BLACK
6
CONTINUOUS
10
9.58892
20
-3.31951
11
9.59031
21
-3.32026
0
LINE
8
BLACK
6
CONTINUOUS
10
9.59031
20
-3.32026
11
9.59153
21
-3.32126
0
LINE
8
BLACK
6
CONTINUOUS
10
9.59153
20
-3.32126
11
9.59254
21
-3.32248
0
LINE
8
BLACK
6
CONTINUOUS
10
9.59254
20
-3.32248
11
9.59328
21
-3.32388
0
LINE
8
BLACK
6
CONTINUOUS
10
9.59328
20
-3.32388
11
9.59374
21
-3.32539
0
LINE
8
BLACK
6
CONTINUOUS
10
9.59374
20
-3.32539
11
9.5939
21
-3.32697
0
LINE
8
BLACK
6
CONTINUOUS
10
9.5939
20
-3.32697
11
9.5939
21
-3.34311
0
LINE
8
BLACK
6
CONTINUOUS
10
9.5939
20
-3.34311
11
9.59374
21
-3.34468
0
LINE
8
BLACK
6
CONTINUOUS
10
9.59374
20
-3.34468
11
9.59328
21
-3.3462
0
LINE
8
BLACK
6
CONTINUOUS
10
9.59328
20
-3.3462
11
9.59254
21
-3.34759
0
LINE
8
BLACK
6
CONTINUOUS
10
9.59254
20
-3.34759
11
9.59153
21
-3.34882
0
LINE
8
BLACK
6
CONTINUOUS
10
9.59153
20
-3.34882
11
9.59031
21
-3.34982
0
LINE
8
BLACK
6
CONTINUOUS
10
9.59031
20
-3.34982
11
9.58892
21
-3.35057
0
LINE
8
BLACK
6
CONTINUOUS
10
9.58892
20
-3.35057
11
9.5874
21
-3.35103
0
LINE
8
BLACK
6
CONTINUOUS
10
9.5874
20
-3.35103
11
9.58583
21
-3.35118
0
LINE
8
BLACK
6
CONTINUOUS
10
9.58583
20
-3.35118
11
9.53504
21
-3.35118
0
LINE
8
BLACK
6
CONTINUOUS
10
9.53504
20
-3.35118
11
9.53346
21
-3.35103
0
LINE
8
BLACK
6
CONTINUOUS
10
9.53346
20
-3.35103
11
9.53195
21
-3.35057
0
LINE
8
BLACK
6
CONTINUOUS
10
9.53195
20
-3.35057
11
9.53056
21
-3.34982
0
LINE
8
BLACK
6
CONTINUOUS
10
9.53056
20
-3.34982
11
9.52933
21
-3.34882
0
LINE
8
BLACK
6
CONTINUOUS
10
9.52933
20
-3.34882
11
9.52833
21
-3.34759
0
LINE
8
BLACK
6
CONTINUOUS
10
9.52833
20
-3.34759
11
9.52758
21
-3.3462
0
LINE
8
BLACK
6
CONTINUOUS
10
9.52758
20
-3.3462
11
9.52712
21
-3.34468
0
LINE
8
BLACK
6
CONTINUOUS
10
9.52712
20
-3.34468
11
9.52697
21
-3.34311
0
LINE
8
BLACK
6
CONTINUOUS
10
9.52697
20
-3.34311
11
9.52697
21
-3.32697
0
LINE
8
BLACK
6
CONTINUOUS
10
9.52697
20
-3.32697
11
9.52712
21
-3.32539
0
LINE
8
BLACK
6
CONTINUOUS
10
9.52712
20
-3.32539
11
9.52758
21
-3.32388
0
LINE
8
BLACK
6
CONTINUOUS
10
9.52758
20
-3.32388
11
9.52833
21
-3.32248
0
LINE
8
BLACK
6
CONTINUOUS
10
9.52833
20
-3.32248
11
9.52933
21
-3.32126
0
LINE
8
BLACK
6
CONTINUOUS
10
9.52933
20
-3.32126
11
9.53056
21
-3.32026
0
LINE
8
BLACK
6
CONTINUOUS
10
9.53056
20
-3.32026
11
9.53195
21
-3.31951
0
LINE
8
BLACK
6
CONTINUOUS
10
9.53195
20
-3.31951
11
9.53346
21
-3.31905
0
LINE
8
BLACK
6
CONTINUOUS
10
9.53346
20
-3.31905
11
9.53504
21
-3.3189
0
LINE
8
BLACK
6
CONTINUOUS
10
9.53504
20
-3.3189
11
9.58583
21
-3.3189
0
LINE
8
BLACK
6
CONTINUOUS
10
9.58583
20
-3.3189
11
9.5874
21
-3.31905
0
LINE
8
BLACK
6
CONTINUOUS
10
6.52953
20
-3.32795
11
6.42913
21
-3.32795
0
LINE
8
BLACK
6
CONTINUOUS
10
6.42913
20
-3.32795
11
6.42913
21
-3.22953
0
LINE
8
BLACK
6
CONTINUOUS
10
6.42913
20
-3.22953
11
6.52953
21
-3.22953
0
LINE
8
BLACK
6
CONTINUOUS
10
6.52953
20
-3.22953
11
6.52953
21
-3.32795
0
LINE
8
BLACK
6
CONTINUOUS
10
9.5939
20
-3.29213
11
9.52697
21
-3.29213
0
LINE
8
BLACK
6
CONTINUOUS
10
9.52697
20
-3.29213
11
9.52697
21
-3.25984
0
LINE
8
BLACK
6
CONTINUOUS
10
9.52697
20
-3.25984
11
9.5939
21
-3.25984
0
LINE
8
BLACK
6
CONTINUOUS
10
9.5939
20
-3.25984
11
9.5939
21
-3.29213
0
LINE
8
BLACK
6
CONTINUOUS
10
9.39311
20
-3.29213
11
9.32618
21
-3.29213
0
LINE
8
BLACK
6
CONTINUOUS
10
9.32618
20
-3.29213
11
9.32618
21
-3.25984
0
LINE
8
BLACK
6
CONTINUOUS
10
9.32618
20
-3.25984
11
9.39311
21
-3.25984
0
LINE
8
BLACK
6
CONTINUOUS
10
9.39311
20
-3.25984
11
9.39311
21
-3.29213
0
LINE
8
BLACK
6
CONTINUOUS
10
9.28381
20
-3.24861
11
9.28566
21
-3.24917
0
LINE
8
BLACK
6
CONTINUOUS
10
9.28566
20
-3.24917
11
9.28736
21
-3.25008
0
LINE
8
BLACK
6
CONTINUOUS
10
9.28736
20
-3.25008
11
9.28885
21
-3.25131
0
LINE
8
BLACK
6
CONTINUOUS
10
9.28885
20
-3.25131
11
9.29007
21
-3.2528
0
LINE
8
BLACK
6
CONTINUOUS
10
9.29007
20
-3.2528
11
9.29098
21
-3.2545
0
LINE
8
BLACK
6
CONTINUOUS
10
9.29098
20
-3.2545
11
9.29154
21
-3.25635
0
LINE
8
BLACK
6
CONTINUOUS
10
9.29154
20
-3.25635
11
9.29173
21
-3.25827
0
LINE
8
BLACK
6
CONTINUOUS
10
9.29173
20
-3.25827
11
9.29173
21
-3.27795
0
LINE
8
BLACK
6
CONTINUOUS
10
9.29173
20
-3.27795
11
9.29154
21
-3.27987
0
LINE
8
BLACK
6
CONTINUOUS
10
9.29154
20
-3.27987
11
9.29098
21
-3.28172
0
LINE
8
BLACK
6
CONTINUOUS
10
9.29098
20
-3.28172
11
9.29007
21
-3.28342
0
LINE
8
BLACK
6
CONTINUOUS
10
9.29007
20
-3.28342
11
9.28885
21
-3.28491
0
LINE
8
BLACK
6
CONTINUOUS
10
9.28885
20
-3.28491
11
9.28736
21
-3.28614
0
LINE
8
BLACK
6
CONTINUOUS
10
9.28736
20
-3.28614
11
9.28566
21
-3.28705
0
LINE
8
BLACK
6
CONTINUOUS
10
9.28566
20
-3.28705
11
9.28381
21
-3.28761
0
LINE
8
BLACK
6
CONTINUOUS
10
9.28381
20
-3.28761
11
9.28189
21
-3.2878
0
LINE
8
BLACK
6
CONTINUOUS
10
9.28189
20
-3.2878
11
9.24449
21
-3.2878
0
LINE
8
BLACK
6
CONTINUOUS
10
9.24449
20
-3.2878
11
9.24257
21
-3.28761
0
LINE
8
BLACK
6
CONTINUOUS
10
9.24257
20
-3.28761
11
9.24072
21
-3.28705
0
LINE
8
BLACK
6
CONTINUOUS
10
9.24072
20
-3.28705
11
9.23902
21
-3.28614
0
LINE
8
BLACK
6
CONTINUOUS
10
9.23902
20
-3.28614
11
9.23753
21
-3.28491
0
LINE
8
BLACK
6
CONTINUOUS
10
9.23753
20
-3.28491
11
9.2363
21
-3.28342
0
LINE
8
BLACK
6
CONTINUOUS
10
9.2363
20
-3.28342
11
9.23539
21
-3.28172
0
LINE
8
BLACK
6
CONTINUOUS
10
9.23539
20
-3.28172
11
9.23483
21
-3.27987
0
LINE
8
BLACK
6
CONTINUOUS
10
9.23483
20
-3.27987
11
9.23465
21
-3.27795
0
LINE
8
BLACK
6
CONTINUOUS
10
9.23465
20
-3.27795
11
9.23465
21
-3.25827
0
LINE
8
BLACK
6
CONTINUOUS
10
9.23465
20
-3.25827
11
9.23483
21
-3.25635
0
LINE
8
BLACK
6
CONTINUOUS
10
9.23483
20
-3.25635
11
9.23539
21
-3.2545
0
LINE
8
BLACK
6
CONTINUOUS
10
9.23539
20
-3.2545
11
9.2363
21
-3.2528
0
LINE
8
BLACK
6
CONTINUOUS
10
9.2363
20
-3.2528
11
9.23753
21
-3.25131
0
LINE
8
BLACK
6
CONTINUOUS
10
9.23753
20
-3.25131
11
9.23902
21
-3.25008
0
LINE
8
BLACK
6
CONTINUOUS
10
9.23902
20
-3.25008
11
9.24072
21
-3.24917
0
LINE
8
BLACK
6
CONTINUOUS
10
9.24072
20
-3.24917
11
9.24257
21
-3.24861
0
LINE
8
BLACK
6
CONTINUOUS
10
9.24257
20
-3.24861
11
9.24449
21
-3.24843
0
LINE
8
BLACK
6
CONTINUOUS
10
9.24449
20
-3.24843
11
9.28189
21
-3.24843
0
LINE
8
BLACK
6
CONTINUOUS
10
9.28189
20
-3.24843
11
9.28381
21
-3.24861
0
LINE
8
BLACK
6
CONTINUOUS
10
4.68952
20
-3.12263
11
4.69137
21
-3.12319
0
LINE
8
BLACK
6
CONTINUOUS
10
4.69137
20
-3.12319
11
4.69307
21
-3.1241
0
LINE
8
BLACK
6
CONTINUOUS
10
4.69307
20
-3.1241
11
4.69456
21
-3.12532
0
LINE
8
BLACK
6
CONTINUOUS
10
4.69456
20
-3.12532
11
4.69578
21
-3.12682
0
LINE
8
BLACK
6
CONTINUOUS
10
4.69578
20
-3.12682
11
4.69669
21
-3.12852
0
LINE
8
BLACK
6
CONTINUOUS
10
4.69669
20
-3.12852
11
4.69725
21
-3.13036
0
LINE
8
BLACK
6
CONTINUOUS
10
4.69725
20
-3.13036
11
4.69744
21
-3.13228
0
LINE
8
BLACK
6
CONTINUOUS
10
4.69744
20
-3.13228
11
4.69744
21
-3.15197
0
LINE
8
BLACK
6
CONTINUOUS
10
4.69744
20
-3.15197
11
4.69725
21
-3.15389
0
LINE
8
BLACK
6
CONTINUOUS
10
4.69725
20
-3.15389
11
4.69669
21
-3.15574
0
LINE
8
BLACK
6
CONTINUOUS
10
4.69669
20
-3.15574
11
4.69578
21
-3.15744
0
LINE
8
BLACK
6
CONTINUOUS
10
4.69578
20
-3.15744
11
4.69456
21
-3.15893
0
LINE
8
BLACK
6
CONTINUOUS
10
4.69456
20
-3.15893
11
4.69307
21
-3.16015
0
LINE
8
BLACK
6
CONTINUOUS
10
4.69307
20
-3.16015
11
4.69137
21
-3.16106
0
LINE
8
BLACK
6
CONTINUOUS
10
4.69137
20
-3.16106
11
4.68952
21
-3.16162
0
LINE
8
BLACK
6
CONTINUOUS
10
4.68952
20
-3.16162
11
4.6876
21
-3.16181
0
LINE
8
BLACK
6
CONTINUOUS
10
4.6876
20
-3.16181
11
4.6502
21
-3.16181
0
LINE
8
BLACK
6
CONTINUOUS
10
4.6502
20
-3.16181
11
4.64828
21
-3.16162
0
LINE
8
BLACK
6
CONTINUOUS
10
4.64828
20
-3.16162
11
4.64643
21
-3.16106
0
LINE
8
BLACK
6
CONTINUOUS
10
4.64643
20
-3.16106
11
4.64473
21
-3.16015
0
LINE
8
BLACK
6
CONTINUOUS
10
4.64473
20
-3.16015
11
4.64324
21
-3.15893
0
LINE
8
BLACK
6
CONTINUOUS
10
4.64324
20
-3.15893
11
4.64201
21
-3.15744
0
LINE
8
BLACK
6
CONTINUOUS
10
4.64201
20
-3.15744
11
4.6411
21
-3.15574
0
LINE
8
BLACK
6
CONTINUOUS
10
4.6411
20
-3.15574
11
4.64054
21
-3.15389
0
LINE
8
BLACK
6
CONTINUOUS
10
4.64054
20
-3.15389
11
4.64035
21
-3.15197
0
LINE
8
BLACK
6
CONTINUOUS
10
4.64035
20
-3.15197
11
4.64035
21
-3.13228
0
LINE
8
BLACK
6
CONTINUOUS
10
4.64035
20
-3.13228
11
4.64054
21
-3.13036
0
LINE
8
BLACK
6
CONTINUOUS
10
4.64054
20
-3.13036
11
4.6411
21
-3.12852
0
LINE
8
BLACK
6
CONTINUOUS
10
4.6411
20
-3.12852
11
4.64201
21
-3.12682
0
LINE
8
BLACK
6
CONTINUOUS
10
4.64201
20
-3.12682
11
4.64324
21
-3.12532
0
LINE
8
BLACK
6
CONTINUOUS
10
4.64324
20
-3.12532
11
4.64473
21
-3.1241
0
LINE
8
BLACK
6
CONTINUOUS
10
4.64473
20
-3.1241
11
4.64643
21
-3.12319
0
LINE
8
BLACK
6
CONTINUOUS
10
4.64643
20
-3.12319
11
4.64828
21
-3.12263
0
LINE
8
BLACK
6
CONTINUOUS
10
4.64828
20
-3.12263
11
4.6502
21
-3.12244
0
LINE
8
BLACK
6
CONTINUOUS
10
4.6502
20
-3.12244
11
4.6876
21
-3.12244
0
LINE
8
BLACK
6
CONTINUOUS
10
4.6876
20
-3.12244
11
4.68952
21
-3.12263
0
LINE
8
BLACK
6
CONTINUOUS
10
4.99311
20
-3.11827
11
4.99462
21
-3.11872
0
LINE
8
BLACK
6
CONTINUOUS
10
4.99462
20
-3.11872
11
4.99602
21
-3.11947
0
LINE
8
BLACK
6
CONTINUOUS
10
4.99602
20
-3.11947
11
4.99724
21
-3.12047
0
LINE
8
BLACK
6
CONTINUOUS
10
4.99724
20
-3.12047
11
4.99825
21
-3.1217
0
LINE
8
BLACK
6
CONTINUOUS
10
4.99825
20
-3.1217
11
4.99899
21
-3.12309
0
LINE
8
BLACK
6
CONTINUOUS
10
4.99899
20
-3.12309
11
4.99945
21
-3.12461
0
LINE
8
BLACK
6
CONTINUOUS
10
4.99945
20
-3.12461
11
4.99961
21
-3.12618
0
LINE
8
BLACK
6
CONTINUOUS
10
4.99961
20
-3.12618
11
4.99961
21
-3.14232
0
LINE
8
BLACK
6
CONTINUOUS
10
4.99961
20
-3.14232
11
4.99945
21
-3.1439
0
LINE
8
BLACK
6
CONTINUOUS
10
4.99945
20
-3.1439
11
4.99899
21
-3.14541
0
LINE
8
BLACK
6
CONTINUOUS
10
4.99899
20
-3.14541
11
4.99825
21
-3.14681
0
LINE
8
BLACK
6
CONTINUOUS
10
4.99825
20
-3.14681
11
4.99724
21
-3.14803
0
LINE
8
BLACK
6
CONTINUOUS
10
4.99724
20
-3.14803
11
4.99602
21
-3.14903
0
LINE
8
BLACK
6
CONTINUOUS
10
4.99602
20
-3.14903
11
4.99462
21
-3.14978
0
LINE
8
BLACK
6
CONTINUOUS
10
4.99462
20
-3.14978
11
4.99311
21
-3.15024
0
LINE
8
BLACK
6
CONTINUOUS
10
4.99311
20
-3.15024
11
4.99154
21
-3.15039
0
LINE
8
BLACK
6
CONTINUOUS
10
4.99154
20
-3.15039
11
4.94075
21
-3.15039
0
LINE
8
BLACK
6
CONTINUOUS
10
4.94075
20
-3.15039
11
4.93917
21
-3.15024
0
LINE
8
BLACK
6
CONTINUOUS
10
4.93917
20
-3.15024
11
4.93766
21
-3.14978
0
LINE
8
BLACK
6
CONTINUOUS
10
4.93766
20
-3.14978
11
4.93626
21
-3.14903
0
LINE
8
BLACK
6
CONTINUOUS
10
4.93626
20
-3.14903
11
4.93504
21
-3.14803
0
LINE
8
BLACK
6
CONTINUOUS
10
4.93504
20
-3.14803
11
4.93404
21
-3.14681
0
LINE
8
BLACK
6
CONTINUOUS
10
4.93404
20
-3.14681
11
4.93329
21
-3.14541
0
LINE
8
BLACK
6
CONTINUOUS
10
4.93329
20
-3.14541
11
4.93283
21
-3.1439
0
LINE
8
BLACK
6
CONTINUOUS
10
4.93283
20
-3.1439
11
4.93268
21
-3.14232
0
LINE
8
BLACK
6
CONTINUOUS
10
4.93268
20
-3.14232
11
4.93268
21
-3.12618
0
LINE
8
BLACK
6
CONTINUOUS
10
4.93268
20
-3.12618
11
4.93283
21
-3.12461
0
LINE
8
BLACK
6
CONTINUOUS
10
4.93283
20
-3.12461
11
4.93329
21
-3.12309
0
LINE
8
BLACK
6
CONTINUOUS
10
4.93329
20
-3.12309
11
4.93404
21
-3.1217
0
LINE
8
BLACK
6
CONTINUOUS
10
4.93404
20
-3.1217
11
4.93504
21
-3.12047
0
LINE
8
BLACK
6
CONTINUOUS
10
4.93504
20
-3.12047
11
4.93626
21
-3.11947
0
LINE
8
BLACK
6
CONTINUOUS
10
4.93626
20
-3.11947
11
4.93766
21
-3.11872
0
LINE
8
BLACK
6
CONTINUOUS
10
4.93766
20
-3.11872
11
4.93917
21
-3.11827
0
LINE
8
BLACK
6
CONTINUOUS
10
4.93917
20
-3.11827
11
4.94075
21
-3.11811
0
LINE
8
BLACK
6
CONTINUOUS
10
4.94075
20
-3.11811
11
4.99154
21
-3.11811
0
LINE
8
BLACK
6
CONTINUOUS
10
4.99154
20
-3.11811
11
4.99311
21
-3.11827
0
LINE
8
BLACK
6
CONTINUOUS
10
4.79882
20
-3.15039
11
4.73189
21
-3.15039
0
LINE
8
BLACK
6
CONTINUOUS
10
4.73189
20
-3.15039
11
4.73189
21
-3.11811
0
LINE
8
BLACK
6
CONTINUOUS
10
4.73189
20
-3.11811
11
4.79882
21
-3.11811
0
LINE
8
BLACK
6
CONTINUOUS
10
4.79882
20
-3.11811
11
4.79882
21
-3.15039
0
LINE
8
BLACK
6
CONTINUOUS
10
4.99961
20
-3.09134
11
4.93268
21
-3.09134
0
LINE
8
BLACK
6
CONTINUOUS
10
4.93268
20
-3.09134
11
4.93268
21
-3.05906
0
LINE
8
BLACK
6
CONTINUOUS
10
4.93268
20
-3.05906
11
4.99961
21
-3.05906
0
LINE
8
BLACK
6
CONTINUOUS
10
4.99961
20
-3.05906
11
4.99961
21
-3.09134
0
LINE
8
BLACK
6
CONTINUOUS
10
4.79882
20
-3.09134
11
4.73189
21
-3.09134
0
LINE
8
BLACK
6
CONTINUOUS
10
4.73189
20
-3.09134
11
4.73189
21
-3.05906
0
LINE
8
BLACK
6
CONTINUOUS
10
4.73189
20
-3.05906
11
4.79882
21
-3.05906
0
LINE
8
BLACK
6
CONTINUOUS
10
4.79882
20
-3.05906
11
4.79882
21
-3.09134
0
LINE
8
BLACK
6
CONTINUOUS
10
4.68952
20
-3.04783
11
4.69137
21
-3.04839
0
LINE
8
BLACK
6
CONTINUOUS
10
4.69137
20
-3.04839
11
4.69307
21
-3.0493
0
LINE
8
BLACK
6
CONTINUOUS
10
4.69307
20
-3.0493
11
4.69456
21
-3.05052
0
LINE
8
BLACK
6
CONTINUOUS
10
4.69456
20
-3.05052
11
4.69578
21
-3.05201
0
LINE
8
BLACK
6
CONTINUOUS
10
4.69578
20
-3.05201
11
4.69669
21
-3.05371
0
LINE
8
BLACK
6
CONTINUOUS
10
4.69669
20
-3.05371
11
4.69725
21
-3.05556
0
LINE
8
BLACK
6
CONTINUOUS
10
4.69725
20
-3.05556
11
4.69744
21
-3.05748
0
LINE
8
BLACK
6
CONTINUOUS
10
4.69744
20
-3.05748
11
4.69744
21
-3.07717
0
LINE
8
BLACK
6
CONTINUOUS
10
4.69744
20
-3.07717
11
4.69725
21
-3.07909
0
LINE
8
BLACK
6
CONTINUOUS
10
4.69725
20
-3.07909
11
4.69669
21
-3.08093
0
LINE
8
BLACK
6
CONTINUOUS
10
4.69669
20
-3.08093
11
4.69578
21
-3.08263
0
LINE
8
BLACK
6
CONTINUOUS
10
4.69578
20
-3.08263
11
4.69456
21
-3.08413
0
LINE
8
BLACK
6
CONTINUOUS
10
4.69456
20
-3.08413
11
4.69307
21
-3.08535
0
LINE
8
BLACK
6
CONTINUOUS
10
4.69307
20
-3.08535
11
4.69137
21
-3.08626
0
LINE
8
BLACK
6
CONTINUOUS
10
4.69137
20
-3.08626
11
4.68952
21
-3.08682
0
LINE
8
BLACK
6
CONTINUOUS
10
4.68952
20
-3.08682
11
4.6876
21
-3.08701
0
LINE
8
BLACK
6
CONTINUOUS
10
4.6876
20
-3.08701
11
4.6502
21
-3.08701
0
LINE
8
BLACK
6
CONTINUOUS
10
4.6502
20
-3.08701
11
4.64828
21
-3.08682
0
LINE
8
BLACK
6
CONTINUOUS
10
4.64828
20
-3.08682
11
4.64643
21
-3.08626
0
LINE
8
BLACK
6
CONTINUOUS
10
4.64643
20
-3.08626
11
4.64473
21
-3.08535
0
LINE
8
BLACK
6
CONTINUOUS
10
4.64473
20
-3.08535
11
4.64324
21
-3.08413
0
LINE
8
BLACK
6
CONTINUOUS
10
4.64324
20
-3.08413
11
4.64201
21
-3.08263
0
LINE
8
BLACK
6
CONTINUOUS
10
4.64201
20
-3.08263
11
4.6411
21
-3.08093
0
LINE
8
BLACK
6
CONTINUOUS
10
4.6411
20
-3.08093
11
4.64054
21
-3.07909
0
LINE
8
BLACK
6
CONTINUOUS
10
4.64054
20
-3.07909
11
4.64035
21
-3.07717
0
LINE
8
BLACK
6
CONTINUOUS
10
4.64035
20
-3.07717
11
4.64035
21
-3.05748
0
LINE
8
BLACK
6
CONTINUOUS
10
4.64035
20
-3.05748
11
4.64054
21
-3.05556
0
LINE
8
BLACK
6
CONTINUOUS
10
4.64054
20
-3.05556
11
4.6411
21
-3.05371
0
LINE
8
BLACK
6
CONTINUOUS
10
4.6411
20
-3.05371
11
4.64201
21
-3.05201
0
LINE
8
BLACK
6
CONTINUOUS
10
4.64201
20
-3.05201
11
4.64324
21
-3.05052
0
LINE
8
BLACK
6
CONTINUOUS
10
4.64324
20
-3.05052
11
4.64473
21
-3.0493
0
LINE
8
BLACK
6
CONTINUOUS
10
4.64473
20
-3.0493
11
4.64643
21
-3.04839
0
LINE
8
BLACK
6
CONTINUOUS
10
4.64643
20
-3.04839
11
4.64828
21
-3.04783
0
LINE
8
BLACK
6
CONTINUOUS
10
4.64828
20
-3.04783
11
4.6502
21
-3.04764
0
LINE
8
BLACK
6
CONTINUOUS
10
4.6502
20
-3.04764
11
4.6876
21
-3.04764
0
LINE
8
BLACK
6
CONTINUOUS
10
4.6876
20
-3.04764
11
4.68952
21
-3.04783
0
LINE
8
BLACK
6
CONTINUOUS
10
8.14995
20
-3.04389
11
8.1518
21
-3.04445
0
LINE
8
BLACK
6
CONTINUOUS
10
8.1518
20
-3.04445
11
8.1535
21
-3.04536
0
LINE
8
BLACK
6
CONTINUOUS
10
8.1535
20
-3.04536
11
8.15499
21
-3.04658
0
LINE
8
BLACK
6
CONTINUOUS
10
8.15499
20
-3.04658
11
8.15622
21
-3.04808
0
LINE
8
BLACK
6
CONTINUOUS
10
8.15622
20
-3.04808
11
8.15712
21
-3.04978
0
LINE
8
BLACK
6
CONTINUOUS
10
8.15712
20
-3.04978
11
8.15768
21
-3.05162
0
LINE
8
BLACK
6
CONTINUOUS
10
8.15768
20
-3.05162
11
8.15787
21
-3.05354
0
LINE
8
BLACK
6
CONTINUOUS
10
8.15787
20
-3.05354
11
8.15787
21
-3.07323
0
LINE
8
BLACK
6
CONTINUOUS
10
8.15787
20
-3.07323
11
8.15768
21
-3.07515
0
LINE
8
BLACK
6
CONTINUOUS
10
8.15768
20
-3.07515
11
8.15712
21
-3.07699
0
LINE
8
BLACK
6
CONTINUOUS
10
8.15712
20
-3.07699
11
8.15622
21
-3.0787
0
LINE
8
BLACK
6
CONTINUOUS
10
8.15622
20
-3.0787
11
8.15499
21
-3.08019
0
LINE
8
BLACK
6
CONTINUOUS
10
8.15499
20
-3.08019
11
8.1535
21
-3.08141
0
LINE
8
BLACK
6
CONTINUOUS
10
8.1535
20
-3.08141
11
8.1518
21
-3.08232
0
LINE
8
BLACK
6
CONTINUOUS
10
8.1518
20
-3.08232
11
8.14995
21
-3.08288
0
LINE
8
BLACK
6
CONTINUOUS
10
8.14995
20
-3.08288
11
8.14803
21
-3.08307
0
LINE
8
BLACK
6
CONTINUOUS
10
8.14803
20
-3.08307
11
8.11063
21
-3.08307
0
LINE
8
BLACK
6
CONTINUOUS
10
8.11063
20
-3.08307
11
8.10871
21
-3.08288
0
LINE
8
BLACK
6
CONTINUOUS
10
8.10871
20
-3.08288
11
8.10686
21
-3.08232
0
LINE
8
BLACK
6
CONTINUOUS
10
8.10686
20
-3.08232
11
8.10516
21
-3.08141
0
LINE
8
BLACK
6
CONTINUOUS
10
8.10516
20
-3.08141
11
8.10367
21
-3.08019
0
LINE
8
BLACK
6
CONTINUOUS
10
8.10367
20
-3.08019
11
8.10245
21
-3.0787
0
LINE
8
BLACK
6
CONTINUOUS
10
8.10245
20
-3.0787
11
8.10154
21
-3.07699
0
LINE
8
BLACK
6
CONTINUOUS
10
8.10154
20
-3.07699
11
8.10098
21
-3.07515
0
LINE
8
BLACK
6
CONTINUOUS
10
8.10098
20
-3.07515
11
8.10079
21
-3.07323
0
LINE
8
BLACK
6
CONTINUOUS
10
8.10079
20
-3.07323
11
8.10079
21
-3.05354
0
LINE
8
BLACK
6
CONTINUOUS
10
8.10079
20
-3.05354
11
8.10098
21
-3.05162
0
LINE
8
BLACK
6
CONTINUOUS
10
8.10098
20
-3.05162
11
8.10154
21
-3.04978
0
LINE
8
BLACK
6
CONTINUOUS
10
8.10154
20
-3.04978
11
8.10245
21
-3.04808
0
LINE
8
BLACK
6
CONTINUOUS
10
8.10245
20
-3.04808
11
8.10367
21
-3.04658
0
LINE
8
BLACK
6
CONTINUOUS
10
8.10367
20
-3.04658
11
8.10516
21
-3.04536
0
LINE
8
BLACK
6
CONTINUOUS
10
8.10516
20
-3.04536
11
8.10686
21
-3.04445
0
LINE
8
BLACK
6
CONTINUOUS
10
8.10686
20
-3.04445
11
8.10871
21
-3.04389
0
LINE
8
BLACK
6
CONTINUOUS
10
8.10871
20
-3.04389
11
8.11063
21
-3.0437
0
LINE
8
BLACK
6
CONTINUOUS
10
8.11063
20
-3.0437
11
8.14803
21
-3.0437
0
LINE
8
BLACK
6
CONTINUOUS
10
8.14803
20
-3.0437
11
8.14995
21
-3.04389
0
LINE
8
BLACK
6
CONTINUOUS
10
7.01609
20
-3.04389
11
7.01794
21
-3.04445
0
LINE
8
BLACK
6
CONTINUOUS
10
7.01794
20
-3.04445
11
7.01964
21
-3.04536
0
LINE
8
BLACK
6
CONTINUOUS
10
7.01964
20
-3.04536
11
7.02113
21
-3.04658
0
LINE
8
BLACK
6
CONTINUOUS
10
7.02113
20
-3.04658
11
7.02236
21
-3.04808
0
LINE
8
BLACK
6
CONTINUOUS
10
7.02236
20
-3.04808
11
7.02327
21
-3.04978
0
LINE
8
BLACK
6
CONTINUOUS
10
7.02327
20
-3.04978
11
7.02383
21
-3.05162
0
LINE
8
BLACK
6
CONTINUOUS
10
7.02383
20
-3.05162
11
7.02402
21
-3.05354
0
LINE
8
BLACK
6
CONTINUOUS
10
7.02402
20
-3.05354
11
7.02402
21
-3.07323
0
LINE
8
BLACK
6
CONTINUOUS
10
7.02402
20
-3.07323
11
7.02383
21
-3.07515
0
LINE
8
BLACK
6
CONTINUOUS
10
7.02383
20
-3.07515
11
7.02327
21
-3.07699
0
LINE
8
BLACK
6
CONTINUOUS
10
7.02327
20
-3.07699
11
7.02236
21
-3.0787
0
LINE
8
BLACK
6
CONTINUOUS
10
7.02236
20
-3.0787
11
7.02113
21
-3.08019
0
LINE
8
BLACK
6
CONTINUOUS
10
7.02113
20
-3.08019
11
7.01964
21
-3.08141
0
LINE
8
BLACK
6
CONTINUOUS
10
7.01964
20
-3.08141
11
7.01794
21
-3.08232
0
LINE
8
BLACK
6
CONTINUOUS
10
7.01794
20
-3.08232
11
7.01609
21
-3.08288
0
LINE
8
BLACK
6
CONTINUOUS
10
7.01609
20
-3.08288
11
7.01417
21
-3.08307
0
LINE
8
BLACK
6
CONTINUOUS
10
7.01417
20
-3.08307
11
6.97677
21
-3.08307
0
LINE
8
BLACK
6
CONTINUOUS
10
6.97677
20
-3.08307
11
6.97485
21
-3.08288
0
LINE
8
BLACK
6
CONTINUOUS
10
6.97485
20
-3.08288
11
6.97301
21
-3.08232
0
LINE
8
BLACK
6
CONTINUOUS
10
6.97301
20
-3.08232
11
6.9713
21
-3.08141
0
LINE
8
BLACK
6
CONTINUOUS
10
6.9713
20
-3.08141
11
6.96981
21
-3.08019
0
LINE
8
BLACK
6
CONTINUOUS
10
6.96981
20
-3.08019
11
6.96859
21
-3.0787
0
LINE
8
BLACK
6
CONTINUOUS
10
6.96859
20
-3.0787
11
6.96768
21
-3.07699
0
LINE
8
BLACK
6
CONTINUOUS
10
6.96768
20
-3.07699
11
6.96712
21
-3.07515
0
LINE
8
BLACK
6
CONTINUOUS
10
6.96712
20
-3.07515
11
6.96693
21
-3.07323
0
LINE
8
BLACK
6
CONTINUOUS
10
6.96693
20
-3.07323
11
6.96693
21
-3.05354
0
LINE
8
BLACK
6
CONTINUOUS
10
6.96693
20
-3.05354
11
6.96712
21
-3.05162
0
LINE
8
BLACK
6
CONTINUOUS
10
6.96712
20
-3.05162
11
6.96768
21
-3.04978
0
LINE
8
BLACK
6
CONTINUOUS
10
6.96768
20
-3.04978
11
6.96859
21
-3.04808
0
LINE
8
BLACK
6
CONTINUOUS
10
6.96859
20
-3.04808
11
6.96981
21
-3.04658
0
LINE
8
BLACK
6
CONTINUOUS
10
6.96981
20
-3.04658
11
6.9713
21
-3.04536
0
LINE
8
BLACK
6
CONTINUOUS
10
6.9713
20
-3.04536
11
6.97301
21
-3.04445
0
LINE
8
BLACK
6
CONTINUOUS
10
6.97301
20
-3.04445
11
6.97485
21
-3.04389
0
LINE
8
BLACK
6
CONTINUOUS
10
6.97485
20
-3.04389
11
6.97677
21
-3.0437
0
LINE
8
BLACK
6
CONTINUOUS
10
6.97677
20
-3.0437
11
7.01417
21
-3.0437
0
LINE
8
BLACK
6
CONTINUOUS
10
7.01417
20
-3.0437
11
7.01609
21
-3.04389
0
LINE
8
BLACK
6
CONTINUOUS
10
9.2126
20
-3.07756
11
9.1122
21
-3.07756
0
LINE
8
BLACK
6
CONTINUOUS
10
9.1122
20
-3.07756
11
9.1122
21
-2.97913
0
LINE
8
BLACK
6
CONTINUOUS
10
9.1122
20
-2.97913
11
9.2126
21
-2.97913
0
LINE
8
BLACK
6
CONTINUOUS
10
9.2126
20
-2.97913
11
9.2126
21
-3.07756
0
LINE
8
BLACK
6
CONTINUOUS
10
7.12539
20
-3.07165
11
7.05846
21
-3.07165
0
LINE
8
BLACK
6
CONTINUOUS
10
7.05846
20
-3.07165
11
7.05846
21
-3.03937
0
LINE
8
BLACK
6
CONTINUOUS
10
7.05846
20
-3.03937
11
7.12539
21
-3.03937
0
LINE
8
BLACK
6
CONTINUOUS
10
7.12539
20
-3.03937
11
7.12539
21
-3.07165
0
LINE
8
BLACK
6
CONTINUOUS
10
8.45354
20
-3.03953
11
8.45506
21
-3.03998
0
LINE
8
BLACK
6
CONTINUOUS
10
8.45506
20
-3.03998
11
8.45645
21
-3.04073
0
LINE
8
BLACK
6
CONTINUOUS
10
8.45645
20
-3.04073
11
8.45768
21
-3.04173
0
LINE
8
BLACK
6
CONTINUOUS
10
8.45768
20
-3.04173
11
8.45868
21
-3.04296
0
LINE
8
BLACK
6
CONTINUOUS
10
8.45868
20
-3.04296
11
8.45942
21
-3.04435
0
LINE
8
BLACK
6
CONTINUOUS
10
8.45942
20
-3.04435
11
8.45988
21
-3.04587
0
LINE
8
BLACK
6
CONTINUOUS
10
8.45988
20
-3.04587
11
8.46004
21
-3.04744
0
LINE
8
BLACK
6
CONTINUOUS
10
8.46004
20
-3.04744
11
8.46004
21
-3.06358
0
LINE
8
BLACK
6
CONTINUOUS
10
8.46004
20
-3.06358
11
8.45988
21
-3.06516
0
LINE
8
BLACK
6
CONTINUOUS
10
8.45988
20
-3.06516
11
8.45942
21
-3.06667
0
LINE
8
BLACK
6
CONTINUOUS
10
8.45942
20
-3.06667
11
8.45868
21
-3.06807
0
LINE
8
BLACK
6
CONTINUOUS
10
8.45868
20
-3.06807
11
8.45768
21
-3.06929
0
LINE
8
BLACK
6
CONTINUOUS
10
8.45768
20
-3.06929
11
8.45645
21
-3.07029
0
LINE
8
BLACK
6
CONTINUOUS
10
8.45645
20
-3.07029
11
8.45506
21
-3.07104
0
LINE
8
BLACK
6
CONTINUOUS
10
8.45506
20
-3.07104
11
8.45354
21
-3.0715
0
LINE
8
BLACK
6
CONTINUOUS
10
8.45354
20
-3.0715
11
8.45197
21
-3.07165
0
LINE
8
BLACK
6
CONTINUOUS
10
8.45197
20
-3.07165
11
8.40118
21
-3.07165
0
LINE
8
BLACK
6
CONTINUOUS
10
8.40118
20
-3.07165
11
8.39961
21
-3.0715
0
LINE
8
BLACK
6
CONTINUOUS
10
8.39961
20
-3.0715
11
8.39809
21
-3.07104
0
LINE
8
BLACK
6
CONTINUOUS
10
8.39809
20
-3.07104
11
8.3967
21
-3.07029
0
LINE
8
BLACK
6
CONTINUOUS
10
8.3967
20
-3.07029
11
8.39547
21
-3.06929
0
LINE
8
BLACK
6
CONTINUOUS
10
8.39547
20
-3.06929
11
8.39447
21
-3.06807
0
LINE
8
BLACK
6
CONTINUOUS
10
8.39447
20
-3.06807
11
8.39372
21
-3.06667
0
LINE
8
BLACK
6
CONTINUOUS
10
8.39372
20
-3.06667
11
8.39327
21
-3.06516
0
LINE
8
BLACK
6
CONTINUOUS
10
8.39327
20
-3.06516
11
8.39311
21
-3.06358
0
LINE
8
BLACK
6
CONTINUOUS
10
8.39311
20
-3.06358
11
8.39311
21
-3.04744
0
LINE
8
BLACK
6
CONTINUOUS
10
8.39311
20
-3.04744
11
8.39327
21
-3.04587
0
LINE
8
BLACK
6
CONTINUOUS
10
8.39327
20
-3.04587
11
8.39372
21
-3.04435
0
LINE
8
BLACK
6
CONTINUOUS
10
8.39372
20
-3.04435
11
8.39447
21
-3.04296
0
LINE
8
BLACK
6
CONTINUOUS
10
8.39447
20
-3.04296
11
8.39547
21
-3.04173
0
LINE
8
BLACK
6
CONTINUOUS
10
8.39547
20
-3.04173
11
8.3967
21
-3.04073
0
LINE
8
BLACK
6
CONTINUOUS
10
8.3967
20
-3.04073
11
8.39809
21
-3.03998
0
LINE
8
BLACK
6
CONTINUOUS
10
8.39809
20
-3.03998
11
8.39961
21
-3.03953
0
LINE
8
BLACK
6
CONTINUOUS
10
8.39961
20
-3.03953
11
8.40118
21
-3.03937
0
LINE
8
BLACK
6
CONTINUOUS
10
8.40118
20
-3.03937
11
8.45197
21
-3.03937
0
LINE
8
BLACK
6
CONTINUOUS
10
8.45197
20
-3.03937
11
8.45354
21
-3.03953
0
LINE
8
BLACK
6
CONTINUOUS
10
8.25925
20
-3.07165
11
8.19232
21
-3.07165
0
LINE
8
BLACK
6
CONTINUOUS
10
8.19232
20
-3.07165
11
8.19232
21
-3.03937
0
LINE
8
BLACK
6
CONTINUOUS
10
8.19232
20
-3.03937
11
8.25925
21
-3.03937
0
LINE
8
BLACK
6
CONTINUOUS
10
8.25925
20
-3.03937
11
8.25925
21
-3.07165
0
LINE
8
BLACK
6
CONTINUOUS
10
7.31968
20
-3.03953
11
7.3212
21
-3.03998
0
LINE
8
BLACK
6
CONTINUOUS
10
7.3212
20
-3.03998
11
7.32259
21
-3.04073
0
LINE
8
BLACK
6
CONTINUOUS
10
7.32259
20
-3.04073
11
7.32382
21
-3.04173
0
LINE
8
BLACK
6
CONTINUOUS
10
7.32382
20
-3.04173
11
7.32482
21
-3.04296
0
LINE
8
BLACK
6
CONTINUOUS
10
7.32482
20
-3.04296
11
7.32557
21
-3.04435
0
LINE
8
BLACK
6
CONTINUOUS
10
7.32557
20
-3.04435
11
7.32603
21
-3.04587
0
LINE
8
BLACK
6
CONTINUOUS
10
7.32603
20
-3.04587
11
7.32618
21
-3.04744
0
LINE
8
BLACK
6
CONTINUOUS
10
7.32618
20
-3.04744
11
7.32618
21
-3.06358
0
LINE
8
BLACK
6
CONTINUOUS
10
7.32618
20
-3.06358
11
7.32603
21
-3.06516
0
LINE
8
BLACK
6
CONTINUOUS
10
7.32603
20
-3.06516
11
7.32557
21
-3.06667
0
LINE
8
BLACK
6
CONTINUOUS
10
7.32557
20
-3.06667
11
7.32482
21
-3.06807
0
LINE
8
BLACK
6
CONTINUOUS
10
7.32482
20
-3.06807
11
7.32382
21
-3.06929
0
LINE
8
BLACK
6
CONTINUOUS
10
7.32382
20
-3.06929
11
7.32259
21
-3.07029
0
LINE
8
BLACK
6
CONTINUOUS
10
7.32259
20
-3.07029
11
7.3212
21
-3.07104
0
LINE
8
BLACK
6
CONTINUOUS
10
7.3212
20
-3.07104
11
7.31968
21
-3.0715
0
LINE
8
BLACK
6
CONTINUOUS
10
7.31968
20
-3.0715
11
7.31811
21
-3.07165
0
LINE
8
BLACK
6
CONTINUOUS
10
7.31811
20
-3.07165
11
7.26732
21
-3.07165
0
LINE
8
BLACK
6
CONTINUOUS
10
7.26732
20
-3.07165
11
7.26575
21
-3.0715
0
LINE
8
BLACK
6
CONTINUOUS
10
7.26575
20
-3.0715
11
7.26423
21
-3.07104
0
LINE
8
BLACK
6
CONTINUOUS
10
7.26423
20
-3.07104
11
7.26284
21
-3.07029
0
LINE
8
BLACK
6
CONTINUOUS
10
7.26284
20
-3.07029
11
7.26162
21
-3.06929
0
LINE
8
BLACK
6
CONTINUOUS
10
7.26162
20
-3.06929
11
7.26061
21
-3.06807
0
LINE
8
BLACK
6
CONTINUOUS
10
7.26061
20
-3.06807
11
7.25987
21
-3.06667
0
LINE
8
BLACK
6
CONTINUOUS
10
7.25987
20
-3.06667
11
7.25941
21
-3.06516
0
LINE
8
BLACK
6
CONTINUOUS
10
7.25941
20
-3.06516
11
7.25925
21
-3.06358
0
LINE
8
BLACK
6
CONTINUOUS
10
7.25925
20
-3.06358
11
7.25925
21
-3.04744
0
LINE
8
BLACK
6
CONTINUOUS
10
7.25925
20
-3.04744
11
7.25941
21
-3.04587
0
LINE
8
BLACK
6
CONTINUOUS
10
7.25941
20
-3.04587
11
7.25987
21
-3.04435
0
LINE
8
BLACK
6
CONTINUOUS
10
7.25987
20
-3.04435
11
7.26061
21
-3.04296
0
LINE
8
BLACK
6
CONTINUOUS
10
7.26061
20
-3.04296
11
7.26162
21
-3.04173
0
LINE
8
BLACK
6
CONTINUOUS
10
7.26162
20
-3.04173
11
7.26284
21
-3.04073
0
LINE
8
BLACK
6
CONTINUOUS
10
7.26284
20
-3.04073
11
7.26423
21
-3.03998
0
LINE
8
BLACK
6
CONTINUOUS
10
7.26423
20
-3.03998
11
7.26575
21
-3.03953
0
LINE
8
BLACK
6
CONTINUOUS
10
7.26575
20
-3.03953
11
7.26732
21
-3.03937
0
LINE
8
BLACK
6
CONTINUOUS
10
7.26732
20
-3.03937
11
7.31811
21
-3.03937
0
LINE
8
BLACK
6
CONTINUOUS
10
7.31811
20
-3.03937
11
7.31968
21
-3.03953
0
LINE
8
BLACK
6
CONTINUOUS
10
8.46004
20
-3.0126
11
8.39311
21
-3.0126
0
LINE
8
BLACK
6
CONTINUOUS
10
8.39311
20
-3.0126
11
8.39311
21
-2.98031
0
LINE
8
BLACK
6
CONTINUOUS
10
8.39311
20
-2.98031
11
8.46004
21
-2.98031
0
LINE
8
BLACK
6
CONTINUOUS
10
8.46004
20
-2.98031
11
8.46004
21
-3.0126
0
LINE
8
BLACK
6
CONTINUOUS
10
8.25925
20
-3.0126
11
8.19232
21
-3.0126
0
LINE
8
BLACK
6
CONTINUOUS
10
8.19232
20
-3.0126
11
8.19232
21
-2.98031
0
LINE
8
BLACK
6
CONTINUOUS
10
8.19232
20
-2.98031
11
8.25925
21
-2.98031
0
LINE
8
BLACK
6
CONTINUOUS
10
8.25925
20
-2.98031
11
8.25925
21
-3.0126
0
LINE
8
BLACK
6
CONTINUOUS
10
7.12539
20
-3.0126
11
7.05846
21
-3.0126
0
LINE
8
BLACK
6
CONTINUOUS
10
7.05846
20
-3.0126
11
7.05846
21
-2.98031
0
LINE
8
BLACK
6
CONTINUOUS
10
7.05846
20
-2.98031
11
7.12539
21
-2.98031
0
LINE
8
BLACK
6
CONTINUOUS
10
7.12539
20
-2.98031
11
7.12539
21
-3.0126
0
LINE
8
BLACK
6
CONTINUOUS
10
7.32618
20
-3.0126
11
7.25925
21
-3.0126
0
LINE
8
BLACK
6
CONTINUOUS
10
7.25925
20
-3.0126
11
7.25925
21
-2.98031
0
LINE
8
BLACK
6
CONTINUOUS
10
7.25925
20
-2.98031
11
7.32618
21
-2.98031
0
LINE
8
BLACK
6
CONTINUOUS
10
7.32618
20
-2.98031
11
7.32618
21
-3.0126
0
LINE
8
BLACK
6
CONTINUOUS
10
8.14995
20
-2.96909
11
8.1518
21
-2.96965
0
LINE
8
BLACK
6
CONTINUOUS
10
8.1518
20
-2.96965
11
8.1535
21
-2.97056
0
LINE
8
BLACK
6
CONTINUOUS
10
8.1535
20
-2.97056
11
8.15499
21
-2.97178
0
LINE
8
BLACK
6
CONTINUOUS
10
8.15499
20
-2.97178
11
8.15622
21
-2.97327
0
LINE
8
BLACK
6
CONTINUOUS
10
8.15622
20
-2.97327
11
8.15712
21
-2.97497
0
LINE
8
BLACK
6
CONTINUOUS
10
8.15712
20
-2.97497
11
8.15768
21
-2.97682
0
LINE
8
BLACK
6
CONTINUOUS
10
8.15768
20
-2.97682
11
8.15787
21
-2.97874
0
LINE
8
BLACK
6
CONTINUOUS
10
8.15787
20
-2.97874
11
8.15787
21
-2.99843
0
LINE
8
BLACK
6
CONTINUOUS
10
8.15787
20
-2.99843
11
8.15768
21
-3.00035
0
LINE
8
BLACK
6
CONTINUOUS
10
8.15768
20
-3.00035
11
8.15712
21
-3.00219
0
LINE
8
BLACK
6
CONTINUOUS
10
8.15712
20
-3.00219
11
8.15622
21
-3.00389
0
LINE
8
BLACK
6
CONTINUOUS
10
8.15622
20
-3.00389
11
8.15499
21
-3.00538
0
LINE
8
BLACK
6
CONTINUOUS
10
8.15499
20
-3.00538
11
8.1535
21
-3.00661
0
LINE
8
BLACK
6
CONTINUOUS
10
8.1535
20
-3.00661
11
8.1518
21
-3.00752
0
LINE
8
BLACK
6
CONTINUOUS
10
8.1518
20
-3.00752
11
8.14995
21
-3.00808
0
LINE
8
BLACK
6
CONTINUOUS
10
8.14995
20
-3.00808
11
8.14803
21
-3.00827
0
LINE
8
BLACK
6
CONTINUOUS
10
8.14803
20
-3.00827
11
8.11063
21
-3.00827
0
LINE
8
BLACK
6
CONTINUOUS
10
8.11063
20
-3.00827
11
8.10871
21
-3.00808
0
LINE
8
BLACK
6
CONTINUOUS
10
8.10871
20
-3.00808
11
8.10686
21
-3.00752
0
LINE
8
BLACK
6
CONTINUOUS
10
8.10686
20
-3.00752
11
8.10516
21
-3.00661
0
LINE
8
BLACK
6
CONTINUOUS
10
8.10516
20
-3.00661
11
8.10367
21
-3.00538
0
LINE
8
BLACK
6
CONTINUOUS
10
8.10367
20
-3.00538
11
8.10245
21
-3.00389
0
LINE
8
BLACK
6
CONTINUOUS
10
8.10245
20
-3.00389
11
8.10154
21
-3.00219
0
LINE
8
BLACK
6
CONTINUOUS
10
8.10154
20
-3.00219
11
8.10098
21
-3.00035
0
LINE
8
BLACK
6
CONTINUOUS
10
8.10098
20
-3.00035
11
8.10079
21
-2.99843
0
LINE
8
BLACK
6
CONTINUOUS
10
8.10079
20
-2.99843
11
8.10079
21
-2.97874
0
LINE
8
BLACK
6
CONTINUOUS
10
8.10079
20
-2.97874
11
8.10098
21
-2.97682
0
LINE
8
BLACK
6
CONTINUOUS
10
8.10098
20
-2.97682
11
8.10154
21
-2.97497
0
LINE
8
BLACK
6
CONTINUOUS
10
8.10154
20
-2.97497
11
8.10245
21
-2.97327
0
LINE
8
BLACK
6
CONTINUOUS
10
8.10245
20
-2.97327
11
8.10367
21
-2.97178
0
LINE
8
BLACK
6
CONTINUOUS
10
8.10367
20
-2.97178
11
8.10516
21
-2.97056
0
LINE
8
BLACK
6
CONTINUOUS
10
8.10516
20
-2.97056
11
8.10686
21
-2.96965
0
LINE
8
BLACK
6
CONTINUOUS
10
8.10686
20
-2.96965
11
8.10871
21
-2.96909
0
LINE
8
BLACK
6
CONTINUOUS
10
8.10871
20
-2.96909
11
8.11063
21
-2.9689
0
LINE
8
BLACK
6
CONTINUOUS
10
8.11063
20
-2.9689
11
8.14803
21
-2.9689
0
LINE
8
BLACK
6
CONTINUOUS
10
8.14803
20
-2.9689
11
8.14995
21
-2.96909
0
LINE
8
BLACK
6
CONTINUOUS
10
7.01609
20
-2.96909
11
7.01794
21
-2.96965
0
LINE
8
BLACK
6
CONTINUOUS
10
7.01794
20
-2.96965
11
7.01964
21
-2.97056
0
LINE
8
BLACK
6
CONTINUOUS
10
7.01964
20
-2.97056
11
7.02113
21
-2.97178
0
LINE
8
BLACK
6
CONTINUOUS
10
7.02113
20
-2.97178
11
7.02236
21
-2.97327
0
LINE
8
BLACK
6
CONTINUOUS
10
7.02236
20
-2.97327
11
7.02327
21
-2.97497
0
LINE
8
BLACK
6
CONTINUOUS
10
7.02327
20
-2.97497
11
7.02383
21
-2.97682
0
LINE
8
BLACK
6
CONTINUOUS
10
7.02383
20
-2.97682
11
7.02402
21
-2.97874
0
LINE
8
BLACK
6
CONTINUOUS
10
7.02402
20
-2.97874
11
7.02402
21
-2.99843
0
LINE
8
BLACK
6
CONTINUOUS
10
7.02402
20
-2.99843
11
7.02383
21
-3.00035
0
LINE
8
BLACK
6
CONTINUOUS
10
7.02383
20
-3.00035
11
7.02327
21
-3.00219
0
LINE
8
BLACK
6
CONTINUOUS
10
7.02327
20
-3.00219
11
7.02236
21
-3.00389
0
LINE
8
BLACK
6
CONTINUOUS
10
7.02236
20
-3.00389
11
7.02113
21
-3.00538
0
LINE
8
BLACK
6
CONTINUOUS
10
7.02113
20
-3.00538
11
7.01964
21
-3.00661
0
LINE
8
BLACK
6
CONTINUOUS
10
7.01964
20
-3.00661
11
7.01794
21
-3.00752
0
LINE
8
BLACK
6
CONTINUOUS
10
7.01794
20
-3.00752
11
7.01609
21
-3.00808
0
LINE
8
BLACK
6
CONTINUOUS
10
7.01609
20
-3.00808
11
7.01417
21
-3.00827
0
LINE
8
BLACK
6
CONTINUOUS
10
7.01417
20
-3.00827
11
6.97677
21
-3.00827
0
LINE
8
BLACK
6
CONTINUOUS
10
6.97677
20
-3.00827
11
6.97485
21
-3.00808
0
LINE
8
BLACK
6
CONTINUOUS
10
6.97485
20
-3.00808
11
6.97301
21
-3.00752
0
LINE
8
BLACK
6
CONTINUOUS
10
6.97301
20
-3.00752
11
6.9713
21
-3.00661
0
LINE
8
BLACK
6
CONTINUOUS
10
6.9713
20
-3.00661
11
6.96981
21
-3.00538
0
LINE
8
BLACK
6
CONTINUOUS
10
6.96981
20
-3.00538
11
6.96859
21
-3.00389
0
LINE
8
BLACK
6
CONTINUOUS
10
6.96859
20
-3.00389
11
6.96768
21
-3.00219
0
LINE
8
BLACK
6
CONTINUOUS
10
6.96768
20
-3.00219
11
6.96712
21
-3.00035
0
LINE
8
BLACK
6
CONTINUOUS
10
6.96712
20
-3.00035
11
6.96693
21
-2.99843
0
LINE
8
BLACK
6
CONTINUOUS
10
6.96693
20
-2.99843
11
6.96693
21
-2.97874
0
LINE
8
BLACK
6
CONTINUOUS
10
6.96693
20
-2.97874
11
6.96712
21
-2.97682
0
LINE
8
BLACK
6
CONTINUOUS
10
6.96712
20
-2.97682
11
6.96768
21
-2.97497
0
LINE
8
BLACK
6
CONTINUOUS
10
6.96768
20
-2.97497
11
6.96859
21
-2.97327
0
LINE
8
BLACK
6
CONTINUOUS
10
6.96859
20
-2.97327
11
6.96981
21
-2.97178
0
LINE
8
BLACK
6
CONTINUOUS
10
6.96981
20
-2.97178
11
6.9713
21
-2.97056
0
LINE
8
BLACK
6
CONTINUOUS
10
6.9713
20
-2.97056
11
6.97301
21
-2.96965
0
LINE
8
BLACK
6
CONTINUOUS
10
6.97301
20
-2.96965
11
6.97485
21
-2.96909
0
LINE
8
BLACK
6
CONTINUOUS
10
6.97485
20
-2.96909
11
6.97677
21
-2.9689
0
LINE
8
BLACK
6
CONTINUOUS
10
6.97677
20
-2.9689
11
7.01417
21
-2.9689
0
LINE
8
BLACK
6
CONTINUOUS
10
7.01417
20
-2.9689
11
7.01609
21
-2.96909
0
LINE
8
BLACK
6
CONTINUOUS
10
9.75787
20
-2.97756
11
9.65748
21
-2.97756
0
LINE
8
BLACK
6
CONTINUOUS
10
9.65748
20
-2.97756
11
9.65748
21
-2.87913
0
LINE
8
BLACK
6
CONTINUOUS
10
9.65748
20
-2.87913
11
9.75787
21
-2.87913
0
LINE
8
BLACK
6
CONTINUOUS
10
9.75787
20
-2.87913
11
9.75787
21
-2.97756
0
LINE
8
BLACK
6
CONTINUOUS
10
3.5779
20
-2.83917
11
3.57975
21
-2.83973
0
LINE
8
BLACK
6
CONTINUOUS
10
3.57975
20
-2.83973
11
3.58145
21
-2.84064
0
LINE
8
BLACK
6
CONTINUOUS
10
3.58145
20
-2.84064
11
3.58294
21
-2.84186
0
LINE
8
BLACK
6
CONTINUOUS
10
3.58294
20
-2.84186
11
3.58417
21
-2.84335
0
LINE
8
BLACK
6
CONTINUOUS
10
3.58417
20
-2.84335
11
3.58508
21
-2.84505
0
LINE
8
BLACK
6
CONTINUOUS
10
3.58508
20
-2.84505
11
3.58564
21
-2.8469
0
LINE
8
BLACK
6
CONTINUOUS
10
3.58564
20
-2.8469
11
3.58583
21
-2.84882
0
LINE
8
BLACK
6
CONTINUOUS
10
3.58583
20
-2.84882
11
3.58583
21
-2.8685
0
LINE
8
BLACK
6
CONTINUOUS
10
3.58583
20
-2.8685
11
3.58564
21
-2.87042
0
LINE
8
BLACK
6
CONTINUOUS
10
3.58564
20
-2.87042
11
3.58508
21
-2.87227
0
LINE
8
BLACK
6
CONTINUOUS
10
3.58508
20
-2.87227
11
3.58417
21
-2.87397
0
LINE
8
BLACK
6
CONTINUOUS
10
3.58417
20
-2.87397
11
3.58294
21
-2.87546
0
LINE
8
BLACK
6
CONTINUOUS
10
3.58294
20
-2.87546
11
3.58145
21
-2.87669
0
LINE
8
BLACK
6
CONTINUOUS
10
3.58145
20
-2.87669
11
3.57975
21
-2.8776
0
LINE
8
BLACK
6
CONTINUOUS
10
3.57975
20
-2.8776
11
3.5779
21
-2.87816
0
LINE
8
BLACK
6
CONTINUOUS
10
3.5779
20
-2.87816
11
3.57598
21
-2.87835
0
LINE
8
BLACK
6
CONTINUOUS
10
3.57598
20
-2.87835
11
3.53858
21
-2.87835
0
LINE
8
BLACK
6
CONTINUOUS
10
3.53858
20
-2.87835
11
3.53666
21
-2.87816
0
LINE
8
BLACK
6
CONTINUOUS
10
3.53666
20
-2.87816
11
3.53482
21
-2.8776
0
LINE
8
BLACK
6
CONTINUOUS
10
3.53482
20
-2.8776
11
3.53311
21
-2.87669
0
LINE
8
BLACK
6
CONTINUOUS
10
3.53311
20
-2.87669
11
3.53162
21
-2.87546
0
LINE
8
BLACK
6
CONTINUOUS
10
3.53162
20
-2.87546
11
3.5304
21
-2.87397
0
LINE
8
BLACK
6
CONTINUOUS
10
3.5304
20
-2.87397
11
3.52949
21
-2.87227
0
LINE
8
BLACK
6
CONTINUOUS
10
3.52949
20
-2.87227
11
3.52893
21
-2.87042
0
LINE
8
BLACK
6
CONTINUOUS
10
3.52893
20
-2.87042
11
3.52874
21
-2.8685
0
LINE
8
BLACK
6
CONTINUOUS
10
3.52874
20
-2.8685
11
3.52874
21
-2.84882
0
LINE
8
BLACK
6
CONTINUOUS
10
3.52874
20
-2.84882
11
3.52893
21
-2.8469
0
LINE
8
BLACK
6
CONTINUOUS
10
3.52893
20
-2.8469
11
3.52949
21
-2.84505
0
LINE
8
BLACK
6
CONTINUOUS
10
3.52949
20
-2.84505
11
3.5304
21
-2.84335
0
LINE
8
BLACK
6
CONTINUOUS
10
3.5304
20
-2.84335
11
3.53162
21
-2.84186
0
LINE
8
BLACK
6
CONTINUOUS
10
3.53162
20
-2.84186
11
3.53311
21
-2.84064
0
LINE
8
BLACK
6
CONTINUOUS
10
3.53311
20
-2.84064
11
3.53482
21
-2.83973
0
LINE
8
BLACK
6
CONTINUOUS
10
3.53482
20
-2.83973
11
3.53666
21
-2.83917
0
LINE
8
BLACK
6
CONTINUOUS
10
3.53666
20
-2.83917
11
3.53858
21
-2.83898
0
LINE
8
BLACK
6
CONTINUOUS
10
3.53858
20
-2.83898
11
3.57598
21
-2.83898
0
LINE
8
BLACK
6
CONTINUOUS
10
3.57598
20
-2.83898
11
3.5779
21
-2.83917
0
LINE
8
BLACK
6
CONTINUOUS
10
2.45054
20
-2.83917
11
2.45239
21
-2.83973
0
LINE
8
BLACK
6
CONTINUOUS
10
2.45239
20
-2.83973
11
2.45409
21
-2.84064
0
LINE
8
BLACK
6
CONTINUOUS
10
2.45409
20
-2.84064
11
2.45558
21
-2.84186
0
LINE
8
BLACK
6
CONTINUOUS
10
2.45558
20
-2.84186
11
2.45681
21
-2.84335
0
LINE
8
BLACK
6
CONTINUOUS
10
2.45681
20
-2.84335
11
2.45772
21
-2.84505
0
LINE
8
BLACK
6
CONTINUOUS
10
2.45772
20
-2.84505
11
2.45828
21
-2.8469
0
LINE
8
BLACK
6
CONTINUOUS
10
2.45828
20
-2.8469
11
2.45846
21
-2.84882
0
LINE
8
BLACK
6
CONTINUOUS
10
2.45846
20
-2.84882
11
2.45846
21
-2.8685
0
LINE
8
BLACK
6
CONTINUOUS
10
2.45846
20
-2.8685
11
2.45828
21
-2.87042
0
LINE
8
BLACK
6
CONTINUOUS
10
2.45828
20
-2.87042
11
2.45772
21
-2.87227
0
LINE
8
BLACK
6
CONTINUOUS
10
2.45772
20
-2.87227
11
2.45681
21
-2.87397
0
LINE
8
BLACK
6
CONTINUOUS
10
2.45681
20
-2.87397
11
2.45558
21
-2.87546
0
LINE
8
BLACK
6
CONTINUOUS
10
2.45558
20
-2.87546
11
2.45409
21
-2.87669
0
LINE
8
BLACK
6
CONTINUOUS
10
2.45409
20
-2.87669
11
2.45239
21
-2.8776
0
LINE
8
BLACK
6
CONTINUOUS
10
2.45239
20
-2.8776
11
2.45054
21
-2.87816
0
LINE
8
BLACK
6
CONTINUOUS
10
2.45054
20
-2.87816
11
2.44862
21
-2.87835
0
LINE
8
BLACK
6
CONTINUOUS
10
2.44862
20
-2.87835
11
2.41122
21
-2.87835
0
LINE
8
BLACK
6
CONTINUOUS
10
2.41122
20
-2.87835
11
2.4093
21
-2.87816
0
LINE
8
BLACK
6
CONTINUOUS
10
2.4093
20
-2.87816
11
2.40745
21
-2.8776
0
LINE
8
BLACK
6
CONTINUOUS
10
2.40745
20
-2.8776
11
2.40575
21
-2.87669
0
LINE
8
BLACK
6
CONTINUOUS
10
2.40575
20
-2.87669
11
2.40426
21
-2.87546
0
LINE
8
BLACK
6
CONTINUOUS
10
2.40426
20
-2.87546
11
2.40304
21
-2.87397
0
LINE
8
BLACK
6
CONTINUOUS
10
2.40304
20
-2.87397
11
2.40213
21
-2.87227
0
LINE
8
BLACK
6
CONTINUOUS
10
2.40213
20
-2.87227
11
2.40157
21
-2.87042
0
LINE
8
BLACK
6
CONTINUOUS
10
2.40157
20
-2.87042
11
2.40138
21
-2.8685
0
LINE
8
BLACK
6
CONTINUOUS
10
2.40138
20
-2.8685
11
2.40138
21
-2.84882
0
LINE
8
BLACK
6
CONTINUOUS
10
2.40138
20
-2.84882
11
2.40157
21
-2.8469
0
LINE
8
BLACK
6
CONTINUOUS
10
2.40157
20
-2.8469
11
2.40213
21
-2.84505
0
LINE
8
BLACK
6
CONTINUOUS
10
2.40213
20
-2.84505
11
2.40304
21
-2.84335
0
LINE
8
BLACK
6
CONTINUOUS
10
2.40304
20
-2.84335
11
2.40426
21
-2.84186
0
LINE
8
BLACK
6
CONTINUOUS
10
2.40426
20
-2.84186
11
2.40575
21
-2.84064
0
LINE
8
BLACK
6
CONTINUOUS
10
2.40575
20
-2.84064
11
2.40745
21
-2.83973
0
LINE
8
BLACK
6
CONTINUOUS
10
2.40745
20
-2.83973
11
2.4093
21
-2.83917
0
LINE
8
BLACK
6
CONTINUOUS
10
2.4093
20
-2.83917
11
2.41122
21
-2.83898
0
LINE
8
BLACK
6
CONTINUOUS
10
2.41122
20
-2.83898
11
2.44862
21
-2.83898
0
LINE
8
BLACK
6
CONTINUOUS
10
2.44862
20
-2.83898
11
2.45054
21
-2.83917
0
LINE
8
BLACK
6
CONTINUOUS
10
4.61831
20
-2.87677
11
4.51791
21
-2.87677
0
LINE
8
BLACK
6
CONTINUOUS
10
4.51791
20
-2.87677
11
4.51791
21
-2.77835
0
LINE
8
BLACK
6
CONTINUOUS
10
4.51791
20
-2.77835
11
4.61831
21
-2.77835
0
LINE
8
BLACK
6
CONTINUOUS
10
4.61831
20
-2.77835
11
4.61831
21
-2.87677
0
LINE
8
BLACK
6
CONTINUOUS
10
2.75413
20
-2.8348
11
2.75565
21
-2.83526
0
LINE
8
BLACK
6
CONTINUOUS
10
2.75565
20
-2.83526
11
2.75704
21
-2.83601
0
LINE
8
BLACK
6
CONTINUOUS
10
2.75704
20
-2.83601
11
2.75827
21
-2.83701
0
LINE
8
BLACK
6
CONTINUOUS
10
2.75827
20
-2.83701
11
2.75927
21
-2.83823
0
LINE
8
BLACK
6
CONTINUOUS
10
2.75927
20
-2.83823
11
2.76002
21
-2.83963
0
LINE
8
BLACK
6
CONTINUOUS
10
2.76002
20
-2.83963
11
2.76047
21
-2.84114
0
LINE
8
BLACK
6
CONTINUOUS
10
2.76047
20
-2.84114
11
2.76063
21
-2.84272
0
LINE
8
BLACK
6
CONTINUOUS
10
2.76063
20
-2.84272
11
2.76063
21
-2.85886
0
LINE
8
BLACK
6
CONTINUOUS
10
2.76063
20
-2.85886
11
2.76047
21
-2.86043
0
LINE
8
BLACK
6
CONTINUOUS
10
2.76047
20
-2.86043
11
2.76002
21
-2.86195
0
LINE
8
BLACK
6
CONTINUOUS
10
2.76002
20
-2.86195
11
2.75927
21
-2.86334
0
LINE
8
BLACK
6
CONTINUOUS
10
2.75927
20
-2.86334
11
2.75827
21
-2.86457
0
LINE
8
BLACK
6
CONTINUOUS
10
2.75827
20
-2.86457
11
2.75704
21
-2.86557
0
LINE
8
BLACK
6
CONTINUOUS
10
2.75704
20
-2.86557
11
2.75565
21
-2.86631
0
LINE
8
BLACK
6
CONTINUOUS
10
2.75565
20
-2.86631
11
2.75413
21
-2.86677
0
LINE
8
BLACK
6
CONTINUOUS
10
2.75413
20
-2.86677
11
2.75256
21
-2.86693
0
LINE
8
BLACK
6
CONTINUOUS
10
2.75256
20
-2.86693
11
2.70177
21
-2.86693
0
LINE
8
BLACK
6
CONTINUOUS
10
2.70177
20
-2.86693
11
2.7002
21
-2.86677
0
LINE
8
BLACK
6
CONTINUOUS
10
2.7002
20
-2.86677
11
2.69868
21
-2.86631
0
LINE
8
BLACK
6
CONTINUOUS
10
2.69868
20
-2.86631
11
2.69729
21
-2.86557
0
LINE
8
BLACK
6
CONTINUOUS
10
2.69729
20
-2.86557
11
2.69606
21
-2.86457
0
LINE
8
BLACK
6
CONTINUOUS
10
2.69606
20
-2.86457
11
2.69506
21
-2.86334
0
LINE
8
BLACK
6
CONTINUOUS
10
2.69506
20
-2.86334
11
2.69432
21
-2.86195
0
LINE
8
BLACK
6
CONTINUOUS
10
2.69432
20
-2.86195
11
2.69386
21
-2.86043
0
LINE
8
BLACK
6
CONTINUOUS
10
2.69386
20
-2.86043
11
2.6937
21
-2.85886
0
LINE
8
BLACK
6
CONTINUOUS
10
2.6937
20
-2.85886
11
2.6937
21
-2.84272
0
LINE
8
BLACK
6
CONTINUOUS
10
2.6937
20
-2.84272
11
2.69386
21
-2.84114
0
LINE
8
BLACK
6
CONTINUOUS
10
2.69386
20
-2.84114
11
2.69432
21
-2.83963
0
LINE
8
BLACK
6
CONTINUOUS
10
2.69432
20
-2.83963
11
2.69506
21
-2.83823
0
LINE
8
BLACK
6
CONTINUOUS
10
2.69506
20
-2.83823
11
2.69606
21
-2.83701
0
LINE
8
BLACK
6
CONTINUOUS
10
2.69606
20
-2.83701
11
2.69729
21
-2.83601
0
LINE
8
BLACK
6
CONTINUOUS
10
2.69729
20
-2.83601
11
2.69868
21
-2.83526
0
LINE
8
BLACK
6
CONTINUOUS
10
2.69868
20
-2.83526
11
2.7002
21
-2.8348
0
LINE
8
BLACK
6
CONTINUOUS
10
2.7002
20
-2.8348
11
2.70177
21
-2.83465
0
LINE
8
BLACK
6
CONTINUOUS
10
2.70177
20
-2.83465
11
2.75256
21
-2.83465
0
LINE
8
BLACK
6
CONTINUOUS
10
2.75256
20
-2.83465
11
2.75413
21
-2.8348
0
LINE
8
BLACK
6
CONTINUOUS
10
2.55984
20
-2.86693
11
2.49291
21
-2.86693
0
LINE
8
BLACK
6
CONTINUOUS
10
2.49291
20
-2.86693
11
2.49291
21
-2.83465
0
LINE
8
BLACK
6
CONTINUOUS
10
2.49291
20
-2.83465
11
2.55984
21
-2.83465
0
LINE
8
BLACK
6
CONTINUOUS
10
2.55984
20
-2.83465
11
2.55984
21
-2.86693
0
LINE
8
BLACK
6
CONTINUOUS
10
3.8815
20
-2.8348
11
3.88301
21
-2.83526
0
LINE
8
BLACK
6
CONTINUOUS
10
3.88301
20
-2.83526
11
3.88441
21
-2.83601
0
LINE
8
BLACK
6
CONTINUOUS
10
3.88441
20
-2.83601
11
3.88563
21
-2.83701
0
LINE
8
BLACK
6
CONTINUOUS
10
3.88563
20
-2.83701
11
3.88663
21
-2.83823
0
LINE
8
BLACK
6
CONTINUOUS
10
3.88663
20
-2.83823
11
3.88738
21
-2.83963
0
LINE
8
BLACK
6
CONTINUOUS
10
3.88738
20
-2.83963
11
3.88784
21
-2.84114
0
LINE
8
BLACK
6
CONTINUOUS
10
3.88784
20
-2.84114
11
3.88799
21
-2.84272
0
LINE
8
BLACK
6
CONTINUOUS
10
3.88799
20
-2.84272
11
3.88799
21
-2.85886
0
LINE
8
BLACK
6
CONTINUOUS
10
3.88799
20
-2.85886
11
3.88784
21
-2.86043
0
LINE
8
BLACK
6
CONTINUOUS
10
3.88784
20
-2.86043
11
3.88738
21
-2.86195
0
LINE
8
BLACK
6
CONTINUOUS
10
3.88738
20
-2.86195
11
3.88663
21
-2.86334
0
LINE
8
BLACK
6
CONTINUOUS
10
3.88663
20
-2.86334
11
3.88563
21
-2.86457
0
LINE
8
BLACK
6
CONTINUOUS
10
3.88563
20
-2.86457
11
3.88441
21
-2.86557
0
LINE
8
BLACK
6
CONTINUOUS
10
3.88441
20
-2.86557
11
3.88301
21
-2.86631
0
LINE
8
BLACK
6
CONTINUOUS
10
3.88301
20
-2.86631
11
3.8815
21
-2.86677
0
LINE
8
BLACK
6
CONTINUOUS
10
3.8815
20
-2.86677
11
3.87992
21
-2.86693
0
LINE
8
BLACK
6
CONTINUOUS
10
3.87992
20
-2.86693
11
3.82913
21
-2.86693
0
LINE
8
BLACK
6
CONTINUOUS
10
3.82913
20
-2.86693
11
3.82756
21
-2.86677
0
LINE
8
BLACK
6
CONTINUOUS
10
3.82756
20
-2.86677
11
3.82605
21
-2.86631
0
LINE
8
BLACK
6
CONTINUOUS
10
3.82605
20
-2.86631
11
3.82465
21
-2.86557
0
LINE
8
BLACK
6
CONTINUOUS
10
3.82465
20
-2.86557
11
3.82343
21
-2.86457
0
LINE
8
BLACK
6
CONTINUOUS
10
3.82343
20
-2.86457
11
3.82242
21
-2.86334
0
LINE
8
BLACK
6
CONTINUOUS
10
3.82242
20
-2.86334
11
3.82168
21
-2.86195
0
LINE
8
BLACK
6
CONTINUOUS
10
3.82168
20
-2.86195
11
3.82122
21
-2.86043
0
LINE
8
BLACK
6
CONTINUOUS
10
3.82122
20
-2.86043
11
3.82106
21
-2.85886
0
LINE
8
BLACK
6
CONTINUOUS
10
3.82106
20
-2.85886
11
3.82106
21
-2.84272
0
LINE
8
BLACK
6
CONTINUOUS
10
3.82106
20
-2.84272
11
3.82122
21
-2.84114
0
LINE
8
BLACK
6
CONTINUOUS
10
3.82122
20
-2.84114
11
3.82168
21
-2.83963
0
LINE
8
BLACK
6
CONTINUOUS
10
3.82168
20
-2.83963
11
3.82242
21
-2.83823
0
LINE
8
BLACK
6
CONTINUOUS
10
3.82242
20
-2.83823
11
3.82343
21
-2.83701
0
LINE
8
BLACK
6
CONTINUOUS
10
3.82343
20
-2.83701
11
3.82465
21
-2.83601
0
LINE
8
BLACK
6
CONTINUOUS
10
3.82465
20
-2.83601
11
3.82605
21
-2.83526
0
LINE
8
BLACK
6
CONTINUOUS
10
3.82605
20
-2.83526
11
3.82756
21
-2.8348
0
LINE
8
BLACK
6
CONTINUOUS
10
3.82756
20
-2.8348
11
3.82913
21
-2.83465
0
LINE
8
BLACK
6
CONTINUOUS
10
3.82913
20
-2.83465
11
3.87992
21
-2.83465
0
LINE
8
BLACK
6
CONTINUOUS
10
3.87992
20
-2.83465
11
3.8815
21
-2.8348
0
LINE
8
BLACK
6
CONTINUOUS
10
3.6872
20
-2.86693
11
3.62028
21
-2.86693
0
LINE
8
BLACK
6
CONTINUOUS
10
3.62028
20
-2.86693
11
3.62028
21
-2.83465
0
LINE
8
BLACK
6
CONTINUOUS
10
3.62028
20
-2.83465
11
3.6872
21
-2.83465
0
LINE
8
BLACK
6
CONTINUOUS
10
3.6872
20
-2.83465
11
3.6872
21
-2.86693
0
LINE
8
BLACK
6
CONTINUOUS
10
2.76063
20
-2.80787
11
2.6937
21
-2.80787
0
LINE
8
BLACK
6
CONTINUOUS
10
2.6937
20
-2.80787
11
2.6937
21
-2.77559
0
LINE
8
BLACK
6
CONTINUOUS
10
2.6937
20
-2.77559
11
2.76063
21
-2.77559
0
LINE
8
BLACK
6
CONTINUOUS
10
2.76063
20
-2.77559
11
2.76063
21
-2.80787
0
LINE
8
BLACK
6
CONTINUOUS
10
2.55984
20
-2.80787
11
2.49291
21
-2.80787
0
LINE
8
BLACK
6
CONTINUOUS
10
2.49291
20
-2.80787
11
2.49291
21
-2.77559
0
LINE
8
BLACK
6
CONTINUOUS
10
2.49291
20
-2.77559
11
2.55984
21
-2.77559
0
LINE
8
BLACK
6
CONTINUOUS
10
2.55984
20
-2.77559
11
2.55984
21
-2.80787
0
LINE
8
BLACK
6
CONTINUOUS
10
3.88799
20
-2.80787
11
3.82106
21
-2.80787
0
LINE
8
BLACK
6
CONTINUOUS
10
3.82106
20
-2.80787
11
3.82106
21
-2.77559
0
LINE
8
BLACK
6
CONTINUOUS
10
3.82106
20
-2.77559
11
3.88799
21
-2.77559
0
LINE
8
BLACK
6
CONTINUOUS
10
3.88799
20
-2.77559
11
3.88799
21
-2.80787
0
LINE
8
BLACK
6
CONTINUOUS
10
3.6872
20
-2.80787
11
3.62028
21
-2.80787
0
LINE
8
BLACK
6
CONTINUOUS
10
3.62028
20
-2.80787
11
3.62028
21
-2.77559
0
LINE
8
BLACK
6
CONTINUOUS
10
3.62028
20
-2.77559
11
3.6872
21
-2.77559
0
LINE
8
BLACK
6
CONTINUOUS
10
3.6872
20
-2.77559
11
3.6872
21
-2.80787
0
LINE
8
BLACK
6
CONTINUOUS
10
3.5779
20
-2.76436
11
3.57975
21
-2.76492
0
LINE
8
BLACK
6
CONTINUOUS
10
3.57975
20
-2.76492
11
3.58145
21
-2.76583
0
LINE
8
BLACK
6
CONTINUOUS
10
3.58145
20
-2.76583
11
3.58294
21
-2.76706
0
LINE
8
BLACK
6
CONTINUOUS
10
3.58294
20
-2.76706
11
3.58417
21
-2.76855
0
LINE
8
BLACK
6
CONTINUOUS
10
3.58417
20
-2.76855
11
3.58508
21
-2.77025
0
LINE
8
BLACK
6
CONTINUOUS
10
3.58508
20
-2.77025
11
3.58564
21
-2.7721
0
LINE
8
BLACK
6
CONTINUOUS
10
3.58564
20
-2.7721
11
3.58583
21
-2.77402
0
LINE
8
BLACK
6
CONTINUOUS
10
3.58583
20
-2.77402
11
3.58583
21
-2.7937
0
LINE
8
BLACK
6
CONTINUOUS
10
3.58583
20
-2.7937
11
3.58564
21
-2.79562
0
LINE
8
BLACK
6
CONTINUOUS
10
3.58564
20
-2.79562
11
3.58508
21
-2.79747
0
LINE
8
BLACK
6
CONTINUOUS
10
3.58508
20
-2.79747
11
3.58417
21
-2.79917
0
LINE
8
BLACK
6
CONTINUOUS
10
3.58417
20
-2.79917
11
3.58294
21
-2.80066
0
LINE
8
BLACK
6
CONTINUOUS
10
3.58294
20
-2.80066
11
3.58145
21
-2.80188
0
LINE
8
BLACK
6
CONTINUOUS
10
3.58145
20
-2.80188
11
3.57975
21
-2.80279
0
LINE
8
BLACK
6
CONTINUOUS
10
3.57975
20
-2.80279
11
3.5779
21
-2.80335
0
LINE
8
BLACK
6
CONTINUOUS
10
3.5779
20
-2.80335
11
3.57598
21
-2.80354
0
LINE
8
BLACK
6
CONTINUOUS
10
3.57598
20
-2.80354
11
3.53858
21
-2.80354
0
LINE
8
BLACK
6
CONTINUOUS
10
3.53858
20
-2.80354
11
3.53666
21
-2.80335
0
LINE
8
BLACK
6
CONTINUOUS
10
3.53666
20
-2.80335
11
3.53482
21
-2.80279
0
LINE
8
BLACK
6
CONTINUOUS
10
3.53482
20
-2.80279
11
3.53311
21
-2.80188
0
LINE
8
BLACK
6
CONTINUOUS
10
3.53311
20
-2.80188
11
3.53162
21
-2.80066
0
LINE
8
BLACK
6
CONTINUOUS
10
3.53162
20
-2.80066
11
3.5304
21
-2.79917
0
LINE
8
BLACK
6
CONTINUOUS
10
3.5304
20
-2.79917
11
3.52949
21
-2.79747
0
LINE
8
BLACK
6
CONTINUOUS
10
3.52949
20
-2.79747
11
3.52893
21
-2.79562
0
LINE
8
BLACK
6
CONTINUOUS
10
3.52893
20
-2.79562
11
3.52874
21
-2.7937
0
LINE
8
BLACK
6
CONTINUOUS
10
3.52874
20
-2.7937
11
3.52874
21
-2.77402
0
LINE
8
BLACK
6
CONTINUOUS
10
3.52874
20
-2.77402
11
3.52893
21
-2.7721
0
LINE
8
BLACK
6
CONTINUOUS
10
3.52893
20
-2.7721
11
3.52949
21
-2.77025
0
LINE
8
BLACK
6
CONTINUOUS
10
3.52949
20
-2.77025
11
3.5304
21
-2.76855
0
LINE
8
BLACK
6
CONTINUOUS
10
3.5304
20
-2.76855
11
3.53162
21
-2.76706
0
LINE
8
BLACK
6
CONTINUOUS
10
3.53162
20
-2.76706
11
3.53311
21
-2.76583
0
LINE
8
BLACK
6
CONTINUOUS
10
3.53311
20
-2.76583
11
3.53482
21
-2.76492
0
LINE
8
BLACK
6
CONTINUOUS
10
3.53482
20
-2.76492
11
3.53666
21
-2.76436
0
LINE
8
BLACK
6
CONTINUOUS
10
3.53666
20
-2.76436
11
3.53858
21
-2.76417
0
LINE
8
BLACK
6
CONTINUOUS
10
3.53858
20
-2.76417
11
3.57598
21
-2.76417
0
LINE
8
BLACK
6
CONTINUOUS
10
3.57598
20
-2.76417
11
3.5779
21
-2.76436
0
LINE
8
BLACK
6
CONTINUOUS
10
2.45054
20
-2.76436
11
2.45239
21
-2.76492
0
LINE
8
BLACK
6
CONTINUOUS
10
2.45239
20
-2.76492
11
2.45409
21
-2.76583
0
LINE
8
BLACK
6
CONTINUOUS
10
2.45409
20
-2.76583
11
2.45558
21
-2.76706
0
LINE
8
BLACK
6
CONTINUOUS
10
2.45558
20
-2.76706
11
2.45681
21
-2.76855
0
LINE
8
BLACK
6
CONTINUOUS
10
2.45681
20
-2.76855
11
2.45772
21
-2.77025
0
LINE
8
BLACK
6
CONTINUOUS
10
2.45772
20
-2.77025
11
2.45828
21
-2.7721
0
LINE
8
BLACK
6
CONTINUOUS
10
2.45828
20
-2.7721
11
2.45846
21
-2.77402
0
LINE
8
BLACK
6
CONTINUOUS
10
2.45846
20
-2.77402
11
2.45846
21
-2.7937
0
LINE
8
BLACK
6
CONTINUOUS
10
2.45846
20
-2.7937
11
2.45828
21
-2.79562
0
LINE
8
BLACK
6
CONTINUOUS
10
2.45828
20
-2.79562
11
2.45772
21
-2.79747
0
LINE
8
BLACK
6
CONTINUOUS
10
2.45772
20
-2.79747
11
2.45681
21
-2.79917
0
LINE
8
BLACK
6
CONTINUOUS
10
2.45681
20
-2.79917
11
2.45558
21
-2.80066
0
LINE
8
BLACK
6
CONTINUOUS
10
2.45558
20
-2.80066
11
2.45409
21
-2.80188
0
LINE
8
BLACK
6
CONTINUOUS
10
2.45409
20
-2.80188
11
2.45239
21
-2.80279
0
LINE
8
BLACK
6
CONTINUOUS
10
2.45239
20
-2.80279
11
2.45054
21
-2.80335
0
LINE
8
BLACK
6
CONTINUOUS
10
2.45054
20
-2.80335
11
2.44862
21
-2.80354
0
LINE
8
BLACK
6
CONTINUOUS
10
2.44862
20
-2.80354
11
2.41122
21
-2.80354
0
LINE
8
BLACK
6
CONTINUOUS
10
2.41122
20
-2.80354
11
2.4093
21
-2.80335
0
LINE
8
BLACK
6
CONTINUOUS
10
2.4093
20
-2.80335
11
2.40745
21
-2.80279
0
LINE
8
BLACK
6
CONTINUOUS
10
2.40745
20
-2.80279
11
2.40575
21
-2.80188
0
LINE
8
BLACK
6
CONTINUOUS
10
2.40575
20
-2.80188
11
2.40426
21
-2.80066
0
LINE
8
BLACK
6
CONTINUOUS
10
2.40426
20
-2.80066
11
2.40304
21
-2.79917
0
LINE
8
BLACK
6
CONTINUOUS
10
2.40304
20
-2.79917
11
2.40213
21
-2.79747
0
LINE
8
BLACK
6
CONTINUOUS
10
2.40213
20
-2.79747
11
2.40157
21
-2.79562
0
LINE
8
BLACK
6
CONTINUOUS
10
2.40157
20
-2.79562
11
2.40138
21
-2.7937
0
LINE
8
BLACK
6
CONTINUOUS
10
2.40138
20
-2.7937
11
2.40138
21
-2.77402
0
LINE
8
BLACK
6
CONTINUOUS
10
2.40138
20
-2.77402
11
2.40157
21
-2.7721
0
LINE
8
BLACK
6
CONTINUOUS
10
2.40157
20
-2.7721
11
2.40213
21
-2.77025
0
LINE
8
BLACK
6
CONTINUOUS
10
2.40213
20
-2.77025
11
2.40304
21
-2.76855
0
LINE
8
BLACK
6
CONTINUOUS
10
2.40304
20
-2.76855
11
2.40426
21
-2.76706
0
LINE
8
BLACK
6
CONTINUOUS
10
2.40426
20
-2.76706
11
2.40575
21
-2.76583
0
LINE
8
BLACK
6
CONTINUOUS
10
2.40575
20
-2.76583
11
2.40745
21
-2.76492
0
LINE
8
BLACK
6
CONTINUOUS
10
2.40745
20
-2.76492
11
2.4093
21
-2.76436
0
LINE
8
BLACK
6
CONTINUOUS
10
2.4093
20
-2.76436
11
2.41122
21
-2.76417
0
LINE
8
BLACK
6
CONTINUOUS
10
2.41122
20
-2.76417
11
2.44862
21
-2.76417
0
LINE
8
BLACK
6
CONTINUOUS
10
2.44862
20
-2.76417
11
2.45054
21
-2.76436
0
LINE
8
BLACK
6
CONTINUOUS
10
6.94488
20
-2.79803
11
6.84449
21
-2.79803
0
LINE
8
BLACK
6
CONTINUOUS
10
6.84449
20
-2.79803
11
6.84449
21
-2.69961
0
LINE
8
BLACK
6
CONTINUOUS
10
6.84449
20
-2.69961
11
6.94488
21
-2.69961
0
LINE
8
BLACK
6
CONTINUOUS
10
6.94488
20
-2.69961
11
6.94488
21
-2.79803
0
LINE
8
BLACK
6
CONTINUOUS
10
8.07874
20
-2.79803
11
7.97835
21
-2.79803
0
LINE
8
BLACK
6
CONTINUOUS
10
7.97835
20
-2.79803
11
7.97835
21
-2.69961
0
LINE
8
BLACK
6
CONTINUOUS
10
7.97835
20
-2.69961
11
8.07874
21
-2.69961
0
LINE
8
BLACK
6
CONTINUOUS
10
8.07874
20
-2.69961
11
8.07874
21
-2.79803
0
LINE
8
BLACK
6
CONTINUOUS
10
5.16358
20
-2.77677
11
5.06319
21
-2.77677
0
LINE
8
BLACK
6
CONTINUOUS
10
5.06319
20
-2.77677
11
5.06319
21
-2.67835
0
LINE
8
BLACK
6
CONTINUOUS
10
5.06319
20
-2.67835
11
5.16358
21
-2.67835
0
LINE
8
BLACK
6
CONTINUOUS
10
5.16358
20
-2.67835
11
5.16358
21
-2.77677
0
LINE
8
BLACK
6
CONTINUOUS
10
8.62402
20
-2.69803
11
8.52362
21
-2.69803
0
LINE
8
BLACK
6
CONTINUOUS
10
8.52362
20
-2.69803
11
8.52362
21
-2.59961
0
LINE
8
BLACK
6
CONTINUOUS
10
8.52362
20
-2.59961
11
8.62402
21
-2.59961
0
LINE
8
BLACK
6
CONTINUOUS
10
8.62402
20
-2.59961
11
8.62402
21
-2.69803
0
LINE
8
BLACK
6
CONTINUOUS
10
7.49016
20
-2.69803
11
7.38976
21
-2.69803
0
LINE
8
BLACK
6
CONTINUOUS
10
7.38976
20
-2.69803
11
7.38976
21
-2.59961
0
LINE
8
BLACK
6
CONTINUOUS
10
7.38976
20
-2.59961
11
7.49016
21
-2.59961
0
LINE
8
BLACK
6
CONTINUOUS
10
7.49016
20
-2.59961
11
7.49016
21
-2.69803
0
LINE
8
BLACK
6
CONTINUOUS
10
2.37933
20
-2.59331
11
2.27894
21
-2.59331
0
LINE
8
BLACK
6
CONTINUOUS
10
2.27894
20
-2.59331
11
2.27894
21
-2.49488
0
LINE
8
BLACK
6
CONTINUOUS
10
2.27894
20
-2.49488
11
2.37933
21
-2.49488
0
LINE
8
BLACK
6
CONTINUOUS
10
2.37933
20
-2.49488
11
2.37933
21
-2.59331
0
LINE
8
BLACK
6
CONTINUOUS
10
3.50669
20
-2.59331
11
3.4063
21
-2.59331
0
LINE
8
BLACK
6
CONTINUOUS
10
3.4063
20
-2.59331
11
3.4063
21
-2.49488
0
LINE
8
BLACK
6
CONTINUOUS
10
3.4063
20
-2.49488
11
3.50669
21
-2.49488
0
LINE
8
BLACK
6
CONTINUOUS
10
3.50669
20
-2.49488
11
3.50669
21
-2.59331
0
LINE
8
BLACK
6
CONTINUOUS
10
4.05197
20
-2.49331
11
3.95157
21
-2.49331
0
LINE
8
BLACK
6
CONTINUOUS
10
3.95157
20
-2.49331
11
3.95157
21
-2.39488
0
LINE
8
BLACK
6
CONTINUOUS
10
3.95157
20
-2.39488
11
4.05197
21
-2.39488
0
LINE
8
BLACK
6
CONTINUOUS
10
4.05197
20
-2.39488
11
4.05197
21
-2.49331
0
LINE
8
BLACK
6
CONTINUOUS
10
2.92461
20
-2.49331
11
2.82421
21
-2.49331
0
LINE
8
BLACK
6
CONTINUOUS
10
2.82421
20
-2.49331
11
2.82421
21
-2.39488
0
LINE
8
BLACK
6
CONTINUOUS
10
2.82421
20
-2.39488
11
2.92461
21
-2.39488
0
LINE
8
BLACK
6
CONTINUOUS
10
2.92461
20
-2.39488
11
2.92461
21
-2.49331
0
LINE
8
BLACK
6
CONTINUOUS
10
6.05546
20
-2.44546
11
6.05731
21
-2.44602
0
LINE
8
BLACK
6
CONTINUOUS
10
6.05731
20
-2.44602
11
6.05901
21
-2.44693
0
LINE
8
BLACK
6
CONTINUOUS
10
6.05901
20
-2.44693
11
6.0605
21
-2.44816
0
LINE
8
BLACK
6
CONTINUOUS
10
6.0605
20
-2.44816
11
6.06173
21
-2.44965
0
LINE
8
BLACK
6
CONTINUOUS
10
6.06173
20
-2.44965
11
6.06264
21
-2.45135
0
LINE
8
BLACK
6
CONTINUOUS
10
6.06264
20
-2.45135
11
6.0632
21
-2.4532
0
LINE
8
BLACK
6
CONTINUOUS
10
6.0632
20
-2.4532
11
6.06339
21
-2.45512
0
LINE
8
BLACK
6
CONTINUOUS
10
6.06339
20
-2.45512
11
6.06339
21
-2.4748
0
LINE
8
BLACK
6
CONTINUOUS
10
6.06339
20
-2.4748
11
6.0632
21
-2.47672
0
LINE
8
BLACK
6
CONTINUOUS
10
6.0632
20
-2.47672
11
6.06264
21
-2.47857
0
LINE
8
BLACK
6
CONTINUOUS
10
6.06264
20
-2.47857
11
6.06173
21
-2.48027
0
LINE
8
BLACK
6
CONTINUOUS
10
6.06173
20
-2.48027
11
6.0605
21
-2.48176
0
LINE
8
BLACK
6
CONTINUOUS
10
6.0605
20
-2.48176
11
6.05901
21
-2.48299
0
LINE
8
BLACK
6
CONTINUOUS
10
6.05901
20
-2.48299
11
6.05731
21
-2.4839
0
LINE
8
BLACK
6
CONTINUOUS
10
6.05731
20
-2.4839
11
6.05546
21
-2.48446
0
LINE
8
BLACK
6
CONTINUOUS
10
6.05546
20
-2.48446
11
6.05354
21
-2.48465
0
LINE
8
BLACK
6
CONTINUOUS
10
6.05354
20
-2.48465
11
6.01614
21
-2.48465
0
LINE
8
BLACK
6
CONTINUOUS
10
6.01614
20
-2.48465
11
6.01422
21
-2.48446
0
LINE
8
BLACK
6
CONTINUOUS
10
6.01422
20
-2.48446
11
6.01238
21
-2.4839
0
LINE
8
BLACK
6
CONTINUOUS
10
6.01238
20
-2.4839
11
6.01067
21
-2.48299
0
LINE
8
BLACK
6
CONTINUOUS
10
6.01067
20
-2.48299
11
6.00918
21
-2.48176
0
LINE
8
BLACK
6
CONTINUOUS
10
6.00918
20
-2.48176
11
6.00796
21
-2.48027
0
LINE
8
BLACK
6
CONTINUOUS
10
6.00796
20
-2.48027
11
6.00705
21
-2.47857
0
LINE
8
BLACK
6
CONTINUOUS
10
6.00705
20
-2.47857
11
6.00649
21
-2.47672
0
LINE
8
BLACK
6
CONTINUOUS
10
6.00649
20
-2.47672
11
6.0063
21
-2.4748
0
LINE
8
BLACK
6
CONTINUOUS
10
6.0063
20
-2.4748
11
6.0063
21
-2.45512
0
LINE
8
BLACK
6
CONTINUOUS
10
6.0063
20
-2.45512
11
6.00649
21
-2.4532
0
LINE
8
BLACK
6
CONTINUOUS
10
6.00649
20
-2.4532
11
6.00705
21
-2.45135
0
LINE
8
BLACK
6
CONTINUOUS
10
6.00705
20
-2.45135
11
6.00796
21
-2.44965
0
LINE
8
BLACK
6
CONTINUOUS
10
6.00796
20
-2.44965
11
6.00918
21
-2.44816
0
LINE
8
BLACK
6
CONTINUOUS
10
6.00918
20
-2.44816
11
6.01067
21
-2.44693
0
LINE
8
BLACK
6
CONTINUOUS
10
6.01067
20
-2.44693
11
6.01238
21
-2.44602
0
LINE
8
BLACK
6
CONTINUOUS
10
6.01238
20
-2.44602
11
6.01422
21
-2.44546
0
LINE
8
BLACK
6
CONTINUOUS
10
6.01422
20
-2.44546
11
6.01614
21
-2.44528
0
LINE
8
BLACK
6
CONTINUOUS
10
6.01614
20
-2.44528
11
6.05354
21
-2.44528
0
LINE
8
BLACK
6
CONTINUOUS
10
6.05354
20
-2.44528
11
6.05546
21
-2.44546
0
LINE
8
BLACK
6
CONTINUOUS
10
6.35905
20
-2.4411
11
6.36057
21
-2.44156
0
LINE
8
BLACK
6
CONTINUOUS
10
6.36057
20
-2.44156
11
6.36196
21
-2.44231
0
LINE
8
BLACK
6
CONTINUOUS
10
6.36196
20
-2.44231
11
6.36319
21
-2.44331
0
LINE
8
BLACK
6
CONTINUOUS
10
6.36319
20
-2.44331
11
6.36419
21
-2.44453
0
LINE
8
BLACK
6
CONTINUOUS
10
6.36419
20
-2.44453
11
6.36494
21
-2.44593
0
LINE
8
BLACK
6
CONTINUOUS
10
6.36494
20
-2.44593
11
6.3654
21
-2.44744
0
LINE
8
BLACK
6
CONTINUOUS
10
6.3654
20
-2.44744
11
6.36555
21
-2.44902
0
LINE
8
BLACK
6
CONTINUOUS
10
6.36555
20
-2.44902
11
6.36555
21
-2.46516
0
LINE
8
BLACK
6
CONTINUOUS
10
6.36555
20
-2.46516
11
6.3654
21
-2.46673
0
LINE
8
BLACK
6
CONTINUOUS
10
6.3654
20
-2.46673
11
6.36494
21
-2.46825
0
LINE
8
BLACK
6
CONTINUOUS
10
6.36494
20
-2.46825
11
6.36419
21
-2.46964
0
LINE
8
BLACK
6
CONTINUOUS
10
6.36419
20
-2.46964
11
6.36319
21
-2.47086
0
LINE
8
BLACK
6
CONTINUOUS
10
6.36319
20
-2.47086
11
6.36196
21
-2.47187
0
LINE
8
BLACK
6
CONTINUOUS
10
6.36196
20
-2.47187
11
6.36057
21
-2.47261
0
LINE
8
BLACK
6
CONTINUOUS
10
6.36057
20
-2.47261
11
6.35905
21
-2.47307
0
LINE
8
BLACK
6
CONTINUOUS
10
6.35905
20
-2.47307
11
6.35748
21
-2.47323
0
LINE
8
BLACK
6
CONTINUOUS
10
6.35748
20
-2.47323
11
6.30669
21
-2.47323
0
LINE
8
BLACK
6
CONTINUOUS
10
6.30669
20
-2.47323
11
6.30512
21
-2.47307
0
LINE
8
BLACK
6
CONTINUOUS
10
6.30512
20
-2.47307
11
6.3036
21
-2.47261
0
LINE
8
BLACK
6
CONTINUOUS
10
6.3036
20
-2.47261
11
6.30221
21
-2.47187
0
LINE
8
BLACK
6
CONTINUOUS
10
6.30221
20
-2.47187
11
6.30099
21
-2.47086
0
LINE
8
BLACK
6
CONTINUOUS
10
6.30099
20
-2.47086
11
6.29998
21
-2.46964
0
LINE
8
BLACK
6
CONTINUOUS
10
6.29998
20
-2.46964
11
6.29924
21
-2.46825
0
LINE
8
BLACK
6
CONTINUOUS
10
6.29924
20
-2.46825
11
6.29878
21
-2.46673
0
LINE
8
BLACK
6
CONTINUOUS
10
6.29878
20
-2.46673
11
6.29862
21
-2.46516
0
LINE
8
BLACK
6
CONTINUOUS
10
6.29862
20
-2.46516
11
6.29862
21
-2.44902
0
LINE
8
BLACK
6
CONTINUOUS
10
6.29862
20
-2.44902
11
6.29878
21
-2.44744
0
LINE
8
BLACK
6
CONTINUOUS
10
6.29878
20
-2.44744
11
6.29924
21
-2.44593
0
LINE
8
BLACK
6
CONTINUOUS
10
6.29924
20
-2.44593
11
6.29998
21
-2.44453
0
LINE
8
BLACK
6
CONTINUOUS
10
6.29998
20
-2.44453
11
6.30099
21
-2.44331
0
LINE
8
BLACK
6
CONTINUOUS
10
6.30099
20
-2.44331
11
6.30221
21
-2.44231
0
LINE
8
BLACK
6
CONTINUOUS
10
6.30221
20
-2.44231
11
6.3036
21
-2.44156
0
LINE
8
BLACK
6
CONTINUOUS
10
6.3036
20
-2.44156
11
6.30512
21
-2.4411
0
LINE
8
BLACK
6
CONTINUOUS
10
6.30512
20
-2.4411
11
6.30669
21
-2.44094
0
LINE
8
BLACK
6
CONTINUOUS
10
6.30669
20
-2.44094
11
6.35748
21
-2.44094
0
LINE
8
BLACK
6
CONTINUOUS
10
6.35748
20
-2.44094
11
6.35905
21
-2.4411
0
LINE
8
BLACK
6
CONTINUOUS
10
6.16476
20
-2.47323
11
6.09783
21
-2.47323
0
LINE
8
BLACK
6
CONTINUOUS
10
6.09783
20
-2.47323
11
6.09783
21
-2.44094
0
LINE
8
BLACK
6
CONTINUOUS
10
6.09783
20
-2.44094
11
6.16476
21
-2.44094
0
LINE
8
BLACK
6
CONTINUOUS
10
6.16476
20
-2.44094
11
6.16476
21
-2.47323
0
LINE
8
BLACK
6
CONTINUOUS
10
6.36555
20
-2.41417
11
6.29862
21
-2.41417
0
LINE
8
BLACK
6
CONTINUOUS
10
6.29862
20
-2.41417
11
6.29862
21
-2.38189
0
LINE
8
BLACK
6
CONTINUOUS
10
6.29862
20
-2.38189
11
6.36555
21
-2.38189
0
LINE
8
BLACK
6
CONTINUOUS
10
6.36555
20
-2.38189
11
6.36555
21
-2.41417
0
LINE
8
BLACK
6
CONTINUOUS
10
6.16476
20
-2.41417
11
6.09783
21
-2.41417
0
LINE
8
BLACK
6
CONTINUOUS
10
6.09783
20
-2.41417
11
6.09783
21
-2.38189
0
LINE
8
BLACK
6
CONTINUOUS
10
6.09783
20
-2.38189
11
6.16476
21
-2.38189
0
LINE
8
BLACK
6
CONTINUOUS
10
6.16476
20
-2.38189
11
6.16476
21
-2.41417
0
LINE
8
BLACK
6
CONTINUOUS
10
6.05546
20
-2.37066
11
6.05731
21
-2.37122
0
LINE
8
BLACK
6
CONTINUOUS
10
6.05731
20
-2.37122
11
6.05901
21
-2.37213
0
LINE
8
BLACK
6
CONTINUOUS
10
6.05901
20
-2.37213
11
6.0605
21
-2.37336
0
LINE
8
BLACK
6
CONTINUOUS
10
6.0605
20
-2.37336
11
6.06173
21
-2.37485
0
LINE
8
BLACK
6
CONTINUOUS
10
6.06173
20
-2.37485
11
6.06264
21
-2.37655
0
LINE
8
BLACK
6
CONTINUOUS
10
6.06264
20
-2.37655
11
6.0632
21
-2.37839
0
LINE
8
BLACK
6
CONTINUOUS
10
6.0632
20
-2.37839
11
6.06339
21
-2.38031
0
LINE
8
BLACK
6
CONTINUOUS
10
6.06339
20
-2.38031
11
6.06339
21
-2.4
0
LINE
8
BLACK
6
CONTINUOUS
10
6.06339
20
-2.4
11
6.0632
21
-2.40192
0
LINE
8
BLACK
6
CONTINUOUS
10
6.0632
20
-2.40192
11
6.06264
21
-2.40377
0
LINE
8
BLACK
6
CONTINUOUS
10
6.06264
20
-2.40377
11
6.06173
21
-2.40547
0
LINE
8
BLACK
6
CONTINUOUS
10
6.06173
20
-2.40547
11
6.0605
21
-2.40696
0
LINE
8
BLACK
6
CONTINUOUS
10
6.0605
20
-2.40696
11
6.05901
21
-2.40818
0
LINE
8
BLACK
6
CONTINUOUS
10
6.05901
20
-2.40818
11
6.05731
21
-2.40909
0
LINE
8
BLACK
6
CONTINUOUS
10
6.05731
20
-2.40909
11
6.05546
21
-2.40965
0
LINE
8
BLACK
6
CONTINUOUS
10
6.05546
20
-2.40965
11
6.05354
21
-2.40984
0
LINE
8
BLACK
6
CONTINUOUS
10
6.05354
20
-2.40984
11
6.01614
21
-2.40984
0
LINE
8
BLACK
6
CONTINUOUS
10
6.01614
20
-2.40984
11
6.01422
21
-2.40965
0
LINE
8
BLACK
6
CONTINUOUS
10
6.01422
20
-2.40965
11
6.01238
21
-2.40909
0
LINE
8
BLACK
6
CONTINUOUS
10
6.01238
20
-2.40909
11
6.01067
21
-2.40818
0
LINE
8
BLACK
6
CONTINUOUS
10
6.01067
20
-2.40818
11
6.00918
21
-2.40696
0
LINE
8
BLACK
6
CONTINUOUS
10
6.00918
20
-2.40696
11
6.00796
21
-2.40547
0
LINE
8
BLACK
6
CONTINUOUS
10
6.00796
20
-2.40547
11
6.00705
21
-2.40377
0
LINE
8
BLACK
6
CONTINUOUS
10
6.00705
20
-2.40377
11
6.00649
21
-2.40192
0
LINE
8
BLACK
6
CONTINUOUS
10
6.00649
20
-2.40192
11
6.0063
21
-2.4
0
LINE
8
BLACK
6
CONTINUOUS
10
6.0063
20
-2.4
11
6.0063
21
-2.38031
0
LINE
8
BLACK
6
CONTINUOUS
10
6.0063
20
-2.38031
11
6.00649
21
-2.37839
0
LINE
8
BLACK
6
CONTINUOUS
10
6.00649
20
-2.37839
11
6.00705
21
-2.37655
0
LINE
8
BLACK
6
CONTINUOUS
10
6.00705
20
-2.37655
11
6.00796
21
-2.37485
0
LINE
8
BLACK
6
CONTINUOUS
10
6.00796
20
-2.37485
11
6.00918
21
-2.37336
0
LINE
8
BLACK
6
CONTINUOUS
10
6.00918
20
-2.37336
11
6.01067
21
-2.37213
0
LINE
8
BLACK
6
CONTINUOUS
10
6.01067
20
-2.37213
11
6.01238
21
-2.37122
0
LINE
8
BLACK
6
CONTINUOUS
10
6.01238
20
-2.37122
11
6.01422
21
-2.37066
0
LINE
8
BLACK
6
CONTINUOUS
10
6.01422
20
-2.37066
11
6.01614
21
-2.37047
0
LINE
8
BLACK
6
CONTINUOUS
10
6.01614
20
-2.37047
11
6.05354
21
-2.37047
0
LINE
8
BLACK
6
CONTINUOUS
10
6.05354
20
-2.37047
11
6.05546
21
-2.37066
0
LINE
8
BLACK
6
CONTINUOUS
10
5.98425
20
-2.19961
11
5.88386
21
-2.19961
0
LINE
8
BLACK
6
CONTINUOUS
10
5.88386
20
-2.19961
11
5.88386
21
-2.10118
0
LINE
8
BLACK
6
CONTINUOUS
10
5.88386
20
-2.10118
11
5.98425
21
-2.10118
0
LINE
8
BLACK
6
CONTINUOUS
10
5.98425
20
-2.10118
11
5.98425
21
-2.19961
0
LINE
8
BLACK
6
CONTINUOUS
10
9.26216
20
-2.09507
11
9.264
21
-2.09563
0
LINE
8
BLACK
6
CONTINUOUS
10
9.264
20
-2.09563
11
9.2657
21
-2.09654
0
LINE
8
BLACK
6
CONTINUOUS
10
9.2657
20
-2.09654
11
9.2672
21
-2.09776
0
LINE
8
BLACK
6
CONTINUOUS
10
9.2672
20
-2.09776
11
9.26842
21
-2.09926
0
LINE
8
BLACK
6
CONTINUOUS
10
9.26842
20
-2.09926
11
9.26933
21
-2.10096
0
LINE
8
BLACK
6
CONTINUOUS
10
9.26933
20
-2.10096
11
9.26989
21
-2.1028
0
LINE
8
BLACK
6
CONTINUOUS
10
9.26989
20
-2.1028
11
9.27008
21
-2.10472
0
LINE
8
BLACK
6
CONTINUOUS
10
9.27008
20
-2.10472
11
9.27008
21
-2.12441
0
LINE
8
BLACK
6
CONTINUOUS
10
9.27008
20
-2.12441
11
9.26989
21
-2.12633
0
LINE
8
BLACK
6
CONTINUOUS
10
9.26989
20
-2.12633
11
9.26933
21
-2.12818
0
LINE
8
BLACK
6
CONTINUOUS
10
9.26933
20
-2.12818
11
9.26842
21
-2.12988
0
LINE
8
BLACK
6
CONTINUOUS
10
9.26842
20
-2.12988
11
9.2672
21
-2.13137
0
LINE
8
BLACK
6
CONTINUOUS
10
9.2672
20
-2.13137
11
9.2657
21
-2.13259
0
LINE
8
BLACK
6
CONTINUOUS
10
9.2657
20
-2.13259
11
9.264
21
-2.1335
0
LINE
8
BLACK
6
CONTINUOUS
10
9.264
20
-2.1335
11
9.26216
21
-2.13406
0
LINE
8
BLACK
6
CONTINUOUS
10
9.26216
20
-2.13406
11
9.26024
21
-2.13425
0
LINE
8
BLACK
6
CONTINUOUS
10
9.26024
20
-2.13425
11
9.22283
21
-2.13425
0
LINE
8
BLACK
6
CONTINUOUS
10
9.22283
20
-2.13425
11
9.22091
21
-2.13406
0
LINE
8
BLACK
6
CONTINUOUS
10
9.22091
20
-2.13406
11
9.21907
21
-2.1335
0
LINE
8
BLACK
6
CONTINUOUS
10
9.21907
20
-2.1335
11
9.21737
21
-2.13259
0
LINE
8
BLACK
6
CONTINUOUS
10
9.21737
20
-2.13259
11
9.21587
21
-2.13137
0
LINE
8
BLACK
6
CONTINUOUS
10
9.21587
20
-2.13137
11
9.21465
21
-2.12988
0
LINE
8
BLACK
6
CONTINUOUS
10
9.21465
20
-2.12988
11
9.21374
21
-2.12818
0
LINE
8
BLACK
6
CONTINUOUS
10
9.21374
20
-2.12818
11
9.21318
21
-2.12633
0
LINE
8
BLACK
6
CONTINUOUS
10
9.21318
20
-2.12633
11
9.21299
21
-2.12441
0
LINE
8
BLACK
6
CONTINUOUS
10
9.21299
20
-2.12441
11
9.21299
21
-2.10472
0
LINE
8
BLACK
6
CONTINUOUS
10
9.21299
20
-2.10472
11
9.21318
21
-2.1028
0
LINE
8
BLACK
6
CONTINUOUS
10
9.21318
20
-2.1028
11
9.21374
21
-2.10096
0
LINE
8
BLACK
6
CONTINUOUS
10
9.21374
20
-2.10096
11
9.21465
21
-2.09926
0
LINE
8
BLACK
6
CONTINUOUS
10
9.21465
20
-2.09926
11
9.21587
21
-2.09776
0
LINE
8
BLACK
6
CONTINUOUS
10
9.21587
20
-2.09776
11
9.21737
21
-2.09654
0
LINE
8
BLACK
6
CONTINUOUS
10
9.21737
20
-2.09654
11
9.21907
21
-2.09563
0
LINE
8
BLACK
6
CONTINUOUS
10
9.21907
20
-2.09563
11
9.22091
21
-2.09507
0
LINE
8
BLACK
6
CONTINUOUS
10
9.22091
20
-2.09507
11
9.22283
21
-2.09488
0
LINE
8
BLACK
6
CONTINUOUS
10
9.22283
20
-2.09488
11
9.26024
21
-2.09488
0
LINE
8
BLACK
6
CONTINUOUS
10
9.26024
20
-2.09488
11
9.26216
21
-2.09507
0
LINE
8
BLACK
6
CONTINUOUS
10
9.37146
20
-2.12283
11
9.30453
21
-2.12283
0
LINE
8
BLACK
6
CONTINUOUS
10
9.30453
20
-2.12283
11
9.30453
21
-2.09055
0
LINE
8
BLACK
6
CONTINUOUS
10
9.30453
20
-2.09055
11
9.37146
21
-2.09055
0
LINE
8
BLACK
6
CONTINUOUS
10
9.37146
20
-2.09055
11
9.37146
21
-2.12283
0
LINE
8
BLACK
6
CONTINUOUS
10
9.56575
20
-2.09071
11
9.56726
21
-2.09117
0
LINE
8
BLACK
6
CONTINUOUS
10
9.56726
20
-2.09117
11
9.56866
21
-2.09191
0
LINE
8
BLACK
6
CONTINUOUS
10
9.56866
20
-2.09191
11
9.56988
21
-2.09292
0
LINE
8
BLACK
6
CONTINUOUS
10
9.56988
20
-2.09292
11
9.57088
21
-2.09414
0
LINE
8
BLACK
6
CONTINUOUS
10
9.57088
20
-2.09414
11
9.57163
21
-2.09553
0
LINE
8
BLACK
6
CONTINUOUS
10
9.57163
20
-2.09553
11
9.57209
21
-2.09705
0
LINE
8
BLACK
6
CONTINUOUS
10
9.57209
20
-2.09705
11
9.57224
21
-2.09862
0
LINE
8
BLACK
6
CONTINUOUS
10
9.57224
20
-2.09862
11
9.57224
21
-2.11476
0
LINE
8
BLACK
6
CONTINUOUS
10
9.57224
20
-2.11476
11
9.57209
21
-2.11634
0
LINE
8
BLACK
6
CONTINUOUS
10
9.57209
20
-2.11634
11
9.57163
21
-2.11785
0
LINE
8
BLACK
6
CONTINUOUS
10
9.57163
20
-2.11785
11
9.57088
21
-2.11925
0
LINE
8
BLACK
6
CONTINUOUS
10
9.57088
20
-2.11925
11
9.56988
21
-2.12047
0
LINE
8
BLACK
6
CONTINUOUS
10
9.56988
20
-2.12047
11
9.56866
21
-2.12147
0
LINE
8
BLACK
6
CONTINUOUS
10
9.56866
20
-2.12147
11
9.56726
21
-2.12222
0
LINE
8
BLACK
6
CONTINUOUS
10
9.56726
20
-2.12222
11
9.56575
21
-2.12268
0
LINE
8
BLACK
6
CONTINUOUS
10
9.56575
20
-2.12268
11
9.56417
21
-2.12283
0
LINE
8
BLACK
6
CONTINUOUS
10
9.56417
20
-2.12283
11
9.51339
21
-2.12283
0
LINE
8
BLACK
6
CONTINUOUS
10
9.51339
20
-2.12283
11
9.51181
21
-2.12268
0
LINE
8
BLACK
6
CONTINUOUS
10
9.51181
20
-2.12268
11
9.5103
21
-2.12222
0
LINE
8
BLACK
6
CONTINUOUS
10
9.5103
20
-2.12222
11
9.5089
21
-2.12147
0
LINE
8
BLACK
6
CONTINUOUS
10
9.5089
20
-2.12147
11
9.50768
21
-2.12047
0
LINE
8
BLACK
6
CONTINUOUS
10
9.50768
20
-2.12047
11
9.50668
21
-2.11925
0
LINE
8
BLACK
6
CONTINUOUS
10
9.50668
20
-2.11925
11
9.50593
21
-2.11785
0
LINE
8
BLACK
6
CONTINUOUS
10
9.50593
20
-2.11785
11
9.50547
21
-2.11634
0
LINE
8
BLACK
6
CONTINUOUS
10
9.50547
20
-2.11634
11
9.50531
21
-2.11476
0
LINE
8
BLACK
6
CONTINUOUS
10
9.50531
20
-2.11476
11
9.50531
21
-2.09862
0
LINE
8
BLACK
6
CONTINUOUS
10
9.50531
20
-2.09862
11
9.50547
21
-2.09705
0
LINE
8
BLACK
6
CONTINUOUS
10
9.50547
20
-2.09705
11
9.50593
21
-2.09553
0
LINE
8
BLACK
6
CONTINUOUS
10
9.50593
20
-2.09553
11
9.50668
21
-2.09414
0
LINE
8
BLACK
6
CONTINUOUS
10
9.50668
20
-2.09414
11
9.50768
21
-2.09292
0
LINE
8
BLACK
6
CONTINUOUS
10
9.50768
20
-2.09292
11
9.5089
21
-2.09191
0
LINE
8
BLACK
6
CONTINUOUS
10
9.5089
20
-2.09191
11
9.5103
21
-2.09117
0
LINE
8
BLACK
6
CONTINUOUS
10
9.5103
20
-2.09117
11
9.51181
21
-2.09071
0
LINE
8
BLACK
6
CONTINUOUS
10
9.51181
20
-2.09071
11
9.51339
21
-2.09055
0
LINE
8
BLACK
6
CONTINUOUS
10
9.51339
20
-2.09055
11
9.56417
21
-2.09055
0
LINE
8
BLACK
6
CONTINUOUS
10
9.56417
20
-2.09055
11
9.56575
21
-2.09071
0
LINE
8
BLACK
6
CONTINUOUS
10
2.69287
20
-2.05235
11
2.69471
21
-2.05291
0
LINE
8
BLACK
6
CONTINUOUS
10
2.69471
20
-2.05291
11
2.69641
21
-2.05382
0
LINE
8
BLACK
6
CONTINUOUS
10
2.69641
20
-2.05382
11
2.6979
21
-2.05505
0
LINE
8
BLACK
6
CONTINUOUS
10
2.6979
20
-2.05505
11
2.69913
21
-2.05654
0
LINE
8
BLACK
6
CONTINUOUS
10
2.69913
20
-2.05654
11
2.70004
21
-2.05824
0
LINE
8
BLACK
6
CONTINUOUS
10
2.70004
20
-2.05824
11
2.7006
21
-2.06009
0
LINE
8
BLACK
6
CONTINUOUS
10
2.7006
20
-2.06009
11
2.70079
21
-2.06201
0
LINE
8
BLACK
6
CONTINUOUS
10
2.70079
20
-2.06201
11
2.70079
21
-2.09941
0
LINE
8
BLACK
6
CONTINUOUS
10
2.70079
20
-2.09941
11
2.7006
21
-2.10133
0
LINE
8
BLACK
6
CONTINUOUS
10
2.7006
20
-2.10133
11
2.70004
21
-2.10318
0
LINE
8
BLACK
6
CONTINUOUS
10
2.70004
20
-2.10318
11
2.69913
21
-2.10488
0
LINE
8
BLACK
6
CONTINUOUS
10
2.69913
20
-2.10488
11
2.6979
21
-2.10637
0
LINE
8
BLACK
6
CONTINUOUS
10
2.6979
20
-2.10637
11
2.69641
21
-2.10759
0
LINE
8
BLACK
6
CONTINUOUS
10
2.69641
20
-2.10759
11
2.69471
21
-2.1085
0
LINE
8
BLACK
6
CONTINUOUS
10
2.69471
20
-2.1085
11
2.69287
21
-2.10906
0
LINE
8
BLACK
6
CONTINUOUS
10
2.69287
20
-2.10906
11
2.69094
21
-2.10925
0
LINE
8
BLACK
6
CONTINUOUS
10
2.69094
20
-2.10925
11
2.67126
21
-2.10925
0
LINE
8
BLACK
6
CONTINUOUS
10
2.67126
20
-2.10925
11
2.66934
21
-2.10906
0
LINE
8
BLACK
6
CONTINUOUS
10
2.66934
20
-2.10906
11
2.66749
21
-2.1085
0
LINE
8
BLACK
6
CONTINUOUS
10
2.66749
20
-2.1085
11
2.66579
21
-2.10759
0
LINE
8
BLACK
6
CONTINUOUS
10
2.66579
20
-2.10759
11
2.6643
21
-2.10637
0
LINE
8
BLACK
6
CONTINUOUS
10
2.6643
20
-2.10637
11
2.66308
21
-2.10488
0
LINE
8
BLACK
6
CONTINUOUS
10
2.66308
20
-2.10488
11
2.66217
21
-2.10318
0
LINE
8
BLACK
6
CONTINUOUS
10
2.66217
20
-2.10318
11
2.66161
21
-2.10133
0
LINE
8
BLACK
6
CONTINUOUS
10
2.66161
20
-2.10133
11
2.66142
21
-2.09941
0
LINE
8
BLACK
6
CONTINUOUS
10
2.66142
20
-2.09941
11
2.66142
21
-2.06201
0
LINE
8
BLACK
6
CONTINUOUS
10
2.66142
20
-2.06201
11
2.66161
21
-2.06009
0
LINE
8
BLACK
6
CONTINUOUS
10
2.66161
20
-2.06009
11
2.66217
21
-2.05824
0
LINE
8
BLACK
6
CONTINUOUS
10
2.66217
20
-2.05824
11
2.66308
21
-2.05654
0
LINE
8
BLACK
6
CONTINUOUS
10
2.66308
20
-2.05654
11
2.6643
21
-2.05505
0
LINE
8
BLACK
6
CONTINUOUS
10
2.6643
20
-2.05505
11
2.66579
21
-2.05382
0
LINE
8
BLACK
6
CONTINUOUS
10
2.66579
20
-2.05382
11
2.66749
21
-2.05291
0
LINE
8
BLACK
6
CONTINUOUS
10
2.66749
20
-2.05291
11
2.66934
21
-2.05235
0
LINE
8
BLACK
6
CONTINUOUS
10
2.66934
20
-2.05235
11
2.67126
21
-2.05217
0
LINE
8
BLACK
6
CONTINUOUS
10
2.67126
20
-2.05217
11
2.69094
21
-2.05217
0
LINE
8
BLACK
6
CONTINUOUS
10
2.69094
20
-2.05217
11
2.69287
21
-2.05235
0
LINE
8
BLACK
6
CONTINUOUS
10
2.84838
20
-2.05235
11
2.85022
21
-2.05291
0
LINE
8
BLACK
6
CONTINUOUS
10
2.85022
20
-2.05291
11
2.85192
21
-2.05382
0
LINE
8
BLACK
6
CONTINUOUS
10
2.85192
20
-2.05382
11
2.85342
21
-2.05505
0
LINE
8
BLACK
6
CONTINUOUS
10
2.85342
20
-2.05505
11
2.85464
21
-2.05654
0
LINE
8
BLACK
6
CONTINUOUS
10
2.85464
20
-2.05654
11
2.85555
21
-2.05824
0
LINE
8
BLACK
6
CONTINUOUS
10
2.85555
20
-2.05824
11
2.85611
21
-2.06009
0
LINE
8
BLACK
6
CONTINUOUS
10
2.85611
20
-2.06009
11
2.8563
21
-2.06201
0
LINE
8
BLACK
6
CONTINUOUS
10
2.8563
20
-2.06201
11
2.8563
21
-2.09941
0
LINE
8
BLACK
6
CONTINUOUS
10
2.8563
20
-2.09941
11
2.85611
21
-2.10133
0
LINE
8
BLACK
6
CONTINUOUS
10
2.85611
20
-2.10133
11
2.85555
21
-2.10318
0
LINE
8
BLACK
6
CONTINUOUS
10
2.85555
20
-2.10318
11
2.85464
21
-2.10488
0
LINE
8
BLACK
6
CONTINUOUS
10
2.85464
20
-2.10488
11
2.85342
21
-2.10637
0
LINE
8
BLACK
6
CONTINUOUS
10
2.85342
20
-2.10637
11
2.85192
21
-2.10759
0
LINE
8
BLACK
6
CONTINUOUS
10
2.85192
20
-2.10759
11
2.85022
21
-2.1085
0
LINE
8
BLACK
6
CONTINUOUS
10
2.85022
20
-2.1085
11
2.84838
21
-2.10906
0
LINE
8
BLACK
6
CONTINUOUS
10
2.84838
20
-2.10906
11
2.84646
21
-2.10925
0
LINE
8
BLACK
6
CONTINUOUS
10
2.84646
20
-2.10925
11
2.82677
21
-2.10925
0
LINE
8
BLACK
6
CONTINUOUS
10
2.82677
20
-2.10925
11
2.82485
21
-2.10906
0
LINE
8
BLACK
6
CONTINUOUS
10
2.82485
20
-2.10906
11
2.82301
21
-2.1085
0
LINE
8
BLACK
6
CONTINUOUS
10
2.82301
20
-2.1085
11
2.8213
21
-2.10759
0
LINE
8
BLACK
6
CONTINUOUS
10
2.8213
20
-2.10759
11
2.81981
21
-2.10637
0
LINE
8
BLACK
6
CONTINUOUS
10
2.81981
20
-2.10637
11
2.81859
21
-2.10488
0
LINE
8
BLACK
6
CONTINUOUS
10
2.81859
20
-2.10488
11
2.81768
21
-2.10318
0
LINE
8
BLACK
6
CONTINUOUS
10
2.81768
20
-2.10318
11
2.81712
21
-2.10133
0
LINE
8
BLACK
6
CONTINUOUS
10
2.81712
20
-2.10133
11
2.81693
21
-2.09941
0
LINE
8
BLACK
6
CONTINUOUS
10
2.81693
20
-2.09941
11
2.81693
21
-2.06201
0
LINE
8
BLACK
6
CONTINUOUS
10
2.81693
20
-2.06201
11
2.81712
21
-2.06009
0
LINE
8
BLACK
6
CONTINUOUS
10
2.81712
20
-2.06009
11
2.81768
21
-2.05824
0
LINE
8
BLACK
6
CONTINUOUS
10
2.81768
20
-2.05824
11
2.81859
21
-2.05654
0
LINE
8
BLACK
6
CONTINUOUS
10
2.81859
20
-2.05654
11
2.81981
21
-2.05505
0
LINE
8
BLACK
6
CONTINUOUS
10
2.81981
20
-2.05505
11
2.8213
21
-2.05382
0
LINE
8
BLACK
6
CONTINUOUS
10
2.8213
20
-2.05382
11
2.82301
21
-2.05291
0
LINE
8
BLACK
6
CONTINUOUS
10
2.82301
20
-2.05291
11
2.82485
21
-2.05235
0
LINE
8
BLACK
6
CONTINUOUS
10
2.82485
20
-2.05235
11
2.82677
21
-2.05217
0
LINE
8
BLACK
6
CONTINUOUS
10
2.82677
20
-2.05217
11
2.84646
21
-2.05217
0
LINE
8
BLACK
6
CONTINUOUS
10
2.84646
20
-2.05217
11
2.84838
21
-2.05235
0
LINE
8
BLACK
6
CONTINUOUS
10
2.92318
20
-2.05235
11
2.92503
21
-2.05291
0
LINE
8
BLACK
6
CONTINUOUS
10
2.92503
20
-2.05291
11
2.92673
21
-2.05382
0
LINE
8
BLACK
6
CONTINUOUS
10
2.92673
20
-2.05382
11
2.92822
21
-2.05505
0
LINE
8
BLACK
6
CONTINUOUS
10
2.92822
20
-2.05505
11
2.92944
21
-2.05654
0
LINE
8
BLACK
6
CONTINUOUS
10
2.92944
20
-2.05654
11
2.93035
21
-2.05824
0
LINE
8
BLACK
6
CONTINUOUS
10
2.93035
20
-2.05824
11
2.93091
21
-2.06009
0
LINE
8
BLACK
6
CONTINUOUS
10
2.93091
20
-2.06009
11
2.9311
21
-2.06201
0
LINE
8
BLACK
6
CONTINUOUS
10
2.9311
20
-2.06201
11
2.9311
21
-2.09941
0
LINE
8
BLACK
6
CONTINUOUS
10
2.9311
20
-2.09941
11
2.93091
21
-2.10133
0
LINE
8
BLACK
6
CONTINUOUS
10
2.93091
20
-2.10133
11
2.93035
21
-2.10318
0
LINE
8
BLACK
6
CONTINUOUS
10
2.93035
20
-2.10318
11
2.92944
21
-2.10488
0
LINE
8
BLACK
6
CONTINUOUS
10
2.92944
20
-2.10488
11
2.92822
21
-2.10637
0
LINE
8
BLACK
6
CONTINUOUS
10
2.92822
20
-2.10637
11
2.92673
21
-2.10759
0
LINE
8
BLACK
6
CONTINUOUS
10
2.92673
20
-2.10759
11
2.92503
21
-2.1085
0
LINE
8
BLACK
6
CONTINUOUS
10
2.92503
20
-2.1085
11
2.92318
21
-2.10906
0
LINE
8
BLACK
6
CONTINUOUS
10
2.92318
20
-2.10906
11
2.92126
21
-2.10925
0
LINE
8
BLACK
6
CONTINUOUS
10
2.92126
20
-2.10925
11
2.90157
21
-2.10925
0
LINE
8
BLACK
6
CONTINUOUS
10
2.90157
20
-2.10925
11
2.89965
21
-2.10906
0
LINE
8
BLACK
6
CONTINUOUS
10
2.89965
20
-2.10906
11
2.89781
21
-2.1085
0
LINE
8
BLACK
6
CONTINUOUS
10
2.89781
20
-2.1085
11
2.89611
21
-2.10759
0
LINE
8
BLACK
6
CONTINUOUS
10
2.89611
20
-2.10759
11
2.89462
21
-2.10637
0
LINE
8
BLACK
6
CONTINUOUS
10
2.89462
20
-2.10637
11
2.89339
21
-2.10488
0
LINE
8
BLACK
6
CONTINUOUS
10
2.89339
20
-2.10488
11
2.89248
21
-2.10318
0
LINE
8
BLACK
6
CONTINUOUS
10
2.89248
20
-2.10318
11
2.89192
21
-2.10133
0
LINE
8
BLACK
6
CONTINUOUS
10
2.89192
20
-2.10133
11
2.89173
21
-2.09941
0
LINE
8
BLACK
6
CONTINUOUS
10
2.89173
20
-2.09941
11
2.89173
21
-2.06201
0
LINE
8
BLACK
6
CONTINUOUS
10
2.89173
20
-2.06201
11
2.89192
21
-2.06009
0
LINE
8
BLACK
6
CONTINUOUS
10
2.89192
20
-2.06009
11
2.89248
21
-2.05824
0
LINE
8
BLACK
6
CONTINUOUS
10
2.89248
20
-2.05824
11
2.89339
21
-2.05654
0
LINE
8
BLACK
6
CONTINUOUS
10
2.89339
20
-2.05654
11
2.89462
21
-2.05505
0
LINE
8
BLACK
6
CONTINUOUS
10
2.89462
20
-2.05505
11
2.89611
21
-2.05382
0
LINE
8
BLACK
6
CONTINUOUS
10
2.89611
20
-2.05382
11
2.89781
21
-2.05291
0
LINE
8
BLACK
6
CONTINUOUS
10
2.89781
20
-2.05291
11
2.89965
21
-2.05235
0
LINE
8
BLACK
6
CONTINUOUS
10
2.89965
20
-2.05235
11
2.90157
21
-2.05217
0
LINE
8
BLACK
6
CONTINUOUS
10
2.90157
20
-2.05217
11
2.92126
21
-2.05217
0
LINE
8
BLACK
6
CONTINUOUS
10
2.92126
20
-2.05217
11
2.92318
21
-2.05235
0
LINE
8
BLACK
6
CONTINUOUS
10
2.76767
20
-2.05235
11
2.76951
21
-2.05291
0
LINE
8
BLACK
6
CONTINUOUS
10
2.76951
20
-2.05291
11
2.77122
21
-2.05382
0
LINE
8
BLACK
6
CONTINUOUS
10
2.77122
20
-2.05382
11
2.77271
21
-2.05505
0
LINE
8
BLACK
6
CONTINUOUS
10
2.77271
20
-2.05505
11
2.77393
21
-2.05654
0
LINE
8
BLACK
6
CONTINUOUS
10
2.77393
20
-2.05654
11
2.77484
21
-2.05824
0
LINE
8
BLACK
6
CONTINUOUS
10
2.77484
20
-2.05824
11
2.7754
21
-2.06009
0
LINE
8
BLACK
6
CONTINUOUS
10
2.7754
20
-2.06009
11
2.77559
21
-2.06201
0
LINE
8
BLACK
6
CONTINUOUS
10
2.77559
20
-2.06201
11
2.77559
21
-2.09941
0
LINE
8
BLACK
6
CONTINUOUS
10
2.77559
20
-2.09941
11
2.7754
21
-2.10133
0
LINE
8
BLACK
6
CONTINUOUS
10
2.7754
20
-2.10133
11
2.77484
21
-2.10318
0
LINE
8
BLACK
6
CONTINUOUS
10
2.77484
20
-2.10318
11
2.77393
21
-2.10488
0
LINE
8
BLACK
6
CONTINUOUS
10
2.77393
20
-2.10488
11
2.77271
21
-2.10637
0
LINE
8
BLACK
6
CONTINUOUS
10
2.77271
20
-2.10637
11
2.77122
21
-2.10759
0
LINE
8
BLACK
6
CONTINUOUS
10
2.77122
20
-2.10759
11
2.76951
21
-2.1085
0
LINE
8
BLACK
6
CONTINUOUS
10
2.76951
20
-2.1085
11
2.76767
21
-2.10906
0
LINE
8
BLACK
6
CONTINUOUS
10
2.76767
20
-2.10906
11
2.76575
21
-2.10925
0
LINE
8
BLACK
6
CONTINUOUS
10
2.76575
20
-2.10925
11
2.74606
21
-2.10925
0
LINE
8
BLACK
6
CONTINUOUS
10
2.74606
20
-2.10925
11
2.74414
21
-2.10906
0
LINE
8
BLACK
6
CONTINUOUS
10
2.74414
20
-2.10906
11
2.7423
21
-2.1085
0
LINE
8
BLACK
6
CONTINUOUS
10
2.7423
20
-2.1085
11
2.74059
21
-2.10759
0
LINE
8
BLACK
6
CONTINUOUS
10
2.74059
20
-2.10759
11
2.7391
21
-2.10637
0
LINE
8
BLACK
6
CONTINUOUS
10
2.7391
20
-2.10637
11
2.73788
21
-2.10488
0
LINE
8
BLACK
6
CONTINUOUS
10
2.73788
20
-2.10488
11
2.73697
21
-2.10318
0
LINE
8
BLACK
6
CONTINUOUS
10
2.73697
20
-2.10318
11
2.73641
21
-2.10133
0
LINE
8
BLACK
6
CONTINUOUS
10
2.73641
20
-2.10133
11
2.73622
21
-2.09941
0
LINE
8
BLACK
6
CONTINUOUS
10
2.73622
20
-2.09941
11
2.73622
21
-2.06201
0
LINE
8
BLACK
6
CONTINUOUS
10
2.73622
20
-2.06201
11
2.73641
21
-2.06009
0
LINE
8
BLACK
6
CONTINUOUS
10
2.73641
20
-2.06009
11
2.73697
21
-2.05824
0
LINE
8
BLACK
6
CONTINUOUS
10
2.73697
20
-2.05824
11
2.73788
21
-2.05654
0
LINE
8
BLACK
6
CONTINUOUS
10
2.73788
20
-2.05654
11
2.7391
21
-2.05505
0
LINE
8
BLACK
6
CONTINUOUS
10
2.7391
20
-2.05505
11
2.74059
21
-2.05382
0
LINE
8
BLACK
6
CONTINUOUS
10
2.74059
20
-2.05382
11
2.7423
21
-2.05291
0
LINE
8
BLACK
6
CONTINUOUS
10
2.7423
20
-2.05291
11
2.74414
21
-2.05235
0
LINE
8
BLACK
6
CONTINUOUS
10
2.74414
20
-2.05235
11
2.74606
21
-2.05217
0
LINE
8
BLACK
6
CONTINUOUS
10
2.74606
20
-2.05217
11
2.76575
21
-2.05217
0
LINE
8
BLACK
6
CONTINUOUS
10
2.76575
20
-2.05217
11
2.76767
21
-2.05235
0
LINE
8
BLACK
6
CONTINUOUS
10
2.5344
20
-2.05235
11
2.53625
21
-2.05291
0
LINE
8
BLACK
6
CONTINUOUS
10
2.53625
20
-2.05291
11
2.53795
21
-2.05382
0
LINE
8
BLACK
6
CONTINUOUS
10
2.53795
20
-2.05382
11
2.53944
21
-2.05505
0
LINE
8
BLACK
6
CONTINUOUS
10
2.53944
20
-2.05505
11
2.54066
21
-2.05654
0
LINE
8
BLACK
6
CONTINUOUS
10
2.54066
20
-2.05654
11
2.54157
21
-2.05824
0
LINE
8
BLACK
6
CONTINUOUS
10
2.54157
20
-2.05824
11
2.54213
21
-2.06009
0
LINE
8
BLACK
6
CONTINUOUS
10
2.54213
20
-2.06009
11
2.54232
21
-2.06201
0
LINE
8
BLACK
6
CONTINUOUS
10
2.54232
20
-2.06201
11
2.54232
21
-2.09941
0
LINE
8
BLACK
6
CONTINUOUS
10
2.54232
20
-2.09941
11
2.54213
21
-2.10133
0
LINE
8
BLACK
6
CONTINUOUS
10
2.54213
20
-2.10133
11
2.54157
21
-2.10318
0
LINE
8
BLACK
6
CONTINUOUS
10
2.54157
20
-2.10318
11
2.54066
21
-2.10488
0
LINE
8
BLACK
6
CONTINUOUS
10
2.54066
20
-2.10488
11
2.53944
21
-2.10637
0
LINE
8
BLACK
6
CONTINUOUS
10
2.53944
20
-2.10637
11
2.53795
21
-2.10759
0
LINE
8
BLACK
6
CONTINUOUS
10
2.53795
20
-2.10759
11
2.53625
21
-2.1085
0
LINE
8
BLACK
6
CONTINUOUS
10
2.53625
20
-2.1085
11
2.5344
21
-2.10906
0
LINE
8
BLACK
6
CONTINUOUS
10
2.5344
20
-2.10906
11
2.53248
21
-2.10925
0
LINE
8
BLACK
6
CONTINUOUS
10
2.53248
20
-2.10925
11
2.5128
21
-2.10925
0
LINE
8
BLACK
6
CONTINUOUS
10
2.5128
20
-2.10925
11
2.51088
21
-2.10906
0
LINE
8
BLACK
6
CONTINUOUS
10
2.51088
20
-2.10906
11
2.50903
21
-2.1085
0
LINE
8
BLACK
6
CONTINUOUS
10
2.50903
20
-2.1085
11
2.50733
21
-2.10759
0
LINE
8
BLACK
6
CONTINUOUS
10
2.50733
20
-2.10759
11
2.50584
21
-2.10637
0
LINE
8
BLACK
6
CONTINUOUS
10
2.50584
20
-2.10637
11
2.50461
21
-2.10488
0
LINE
8
BLACK
6
CONTINUOUS
10
2.50461
20
-2.10488
11
2.5037
21
-2.10318
0
LINE
8
BLACK
6
CONTINUOUS
10
2.5037
20
-2.10318
11
2.50314
21
-2.10133
0
LINE
8
BLACK
6
CONTINUOUS
10
2.50314
20
-2.10133
11
2.50295
21
-2.09941
0
LINE
8
BLACK
6
CONTINUOUS
10
2.50295
20
-2.09941
11
2.50295
21
-2.06201
0
LINE
8
BLACK
6
CONTINUOUS
10
2.50295
20
-2.06201
11
2.50314
21
-2.06009
0
LINE
8
BLACK
6
CONTINUOUS
10
2.50314
20
-2.06009
11
2.5037
21
-2.05824
0
LINE
8
BLACK
6
CONTINUOUS
10
2.5037
20
-2.05824
11
2.50461
21
-2.05654
0
LINE
8
BLACK
6
CONTINUOUS
10
2.50461
20
-2.05654
11
2.50584
21
-2.05505
0
LINE
8
BLACK
6
CONTINUOUS
10
2.50584
20
-2.05505
11
2.50733
21
-2.05382
0
LINE
8
BLACK
6
CONTINUOUS
10
2.50733
20
-2.05382
11
2.50903
21
-2.05291
0
LINE
8
BLACK
6
CONTINUOUS
10
2.50903
20
-2.05291
11
2.51088
21
-2.05235
0
LINE
8
BLACK
6
CONTINUOUS
10
2.51088
20
-2.05235
11
2.5128
21
-2.05217
0
LINE
8
BLACK
6
CONTINUOUS
10
2.5128
20
-2.05217
11
2.53248
21
-2.05217
0
LINE
8
BLACK
6
CONTINUOUS
10
2.53248
20
-2.05217
11
2.5344
21
-2.05235
0
LINE
8
BLACK
6
CONTINUOUS
10
2.6092
20
-2.05235
11
2.61105
21
-2.05291
0
LINE
8
BLACK
6
CONTINUOUS
10
2.61105
20
-2.05291
11
2.61275
21
-2.05382
0
LINE
8
BLACK
6
CONTINUOUS
10
2.61275
20
-2.05382
11
2.61424
21
-2.05505
0
LINE
8
BLACK
6
CONTINUOUS
10
2.61424
20
-2.05505
11
2.61547
21
-2.05654
0
LINE
8
BLACK
6
CONTINUOUS
10
2.61547
20
-2.05654
11
2.61638
21
-2.05824
0
LINE
8
BLACK
6
CONTINUOUS
10
2.61638
20
-2.05824
11
2.61694
21
-2.06009
0
LINE
8
BLACK
6
CONTINUOUS
10
2.61694
20
-2.06009
11
2.61713
21
-2.06201
0
LINE
8
BLACK
6
CONTINUOUS
10
2.61713
20
-2.06201
11
2.61713
21
-2.09941
0
LINE
8
BLACK
6
CONTINUOUS
10
2.61713
20
-2.09941
11
2.61694
21
-2.10133
0
LINE
8
BLACK
6
CONTINUOUS
10
2.61694
20
-2.10133
11
2.61638
21
-2.10318
0
LINE
8
BLACK
6
CONTINUOUS
10
2.61638
20
-2.10318
11
2.61547
21
-2.10488
0
LINE
8
BLACK
6
CONTINUOUS
10
2.61547
20
-2.10488
11
2.61424
21
-2.10637
0
LINE
8
BLACK
6
CONTINUOUS
10
2.61424
20
-2.10637
11
2.61275
21
-2.10759
0
LINE
8
BLACK
6
CONTINUOUS
10
2.61275
20
-2.10759
11
2.61105
21
-2.1085
0
LINE
8
BLACK
6
CONTINUOUS
10
2.61105
20
-2.1085
11
2.6092
21
-2.10906
0
LINE
8
BLACK
6
CONTINUOUS
10
2.6092
20
-2.10906
11
2.60728
21
-2.10925
0
LINE
8
BLACK
6
CONTINUOUS
10
2.60728
20
-2.10925
11
2.5876
21
-2.10925
0
LINE
8
BLACK
6
CONTINUOUS
10
2.5876
20
-2.10925
11
2.58568
21
-2.10906
0
LINE
8
BLACK
6
CONTINUOUS
10
2.58568
20
-2.10906
11
2.58383
21
-2.1085
0
LINE
8
BLACK
6
CONTINUOUS
10
2.58383
20
-2.1085
11
2.58213
21
-2.10759
0
LINE
8
BLACK
6
CONTINUOUS
10
2.58213
20
-2.10759
11
2.58064
21
-2.10637
0
LINE
8
BLACK
6
CONTINUOUS
10
2.58064
20
-2.10637
11
2.57941
21
-2.10488
0
LINE
8
BLACK
6
CONTINUOUS
10
2.57941
20
-2.10488
11
2.57851
21
-2.10318
0
LINE
8
BLACK
6
CONTINUOUS
10
2.57851
20
-2.10318
11
2.57795
21
-2.10133
0
LINE
8
BLACK
6
CONTINUOUS
10
2.57795
20
-2.10133
11
2.57776
21
-2.09941
0
LINE
8
BLACK
6
CONTINUOUS
10
2.57776
20
-2.09941
11
2.57776
21
-2.06201
0
LINE
8
BLACK
6
CONTINUOUS
10
2.57776
20
-2.06201
11
2.57795
21
-2.06009
0
LINE
8
BLACK
6
CONTINUOUS
10
2.57795
20
-2.06009
11
2.57851
21
-2.05824
0
LINE
8
BLACK
6
CONTINUOUS
10
2.57851
20
-2.05824
11
2.57941
21
-2.05654
0
LINE
8
BLACK
6
CONTINUOUS
10
2.57941
20
-2.05654
11
2.58064
21
-2.05505
0
LINE
8
BLACK
6
CONTINUOUS
10
2.58064
20
-2.05505
11
2.58213
21
-2.05382
0
LINE
8
BLACK
6
CONTINUOUS
10
2.58213
20
-2.05382
11
2.58383
21
-2.05291
0
LINE
8
BLACK
6
CONTINUOUS
10
2.58383
20
-2.05291
11
2.58568
21
-2.05235
0
LINE
8
BLACK
6
CONTINUOUS
10
2.58568
20
-2.05235
11
2.5876
21
-2.05217
0
LINE
8
BLACK
6
CONTINUOUS
10
2.5876
20
-2.05217
11
2.60728
21
-2.05217
0
LINE
8
BLACK
6
CONTINUOUS
10
2.60728
20
-2.05217
11
2.6092
21
-2.05235
0
LINE
8
BLACK
6
CONTINUOUS
10
2.3779
20
-2.05235
11
2.37975
21
-2.05291
0
LINE
8
BLACK
6
CONTINUOUS
10
2.37975
20
-2.05291
11
2.38145
21
-2.05382
0
LINE
8
BLACK
6
CONTINUOUS
10
2.38145
20
-2.05382
11
2.38294
21
-2.05505
0
LINE
8
BLACK
6
CONTINUOUS
10
2.38294
20
-2.05505
11
2.38417
21
-2.05654
0
LINE
8
BLACK
6
CONTINUOUS
10
2.38417
20
-2.05654
11
2.38508
21
-2.05824
0
LINE
8
BLACK
6
CONTINUOUS
10
2.38508
20
-2.05824
11
2.38564
21
-2.06009
0
LINE
8
BLACK
6
CONTINUOUS
10
2.38564
20
-2.06009
11
2.38583
21
-2.06201
0
LINE
8
BLACK
6
CONTINUOUS
10
2.38583
20
-2.06201
11
2.38583
21
-2.09941
0
LINE
8
BLACK
6
CONTINUOUS
10
2.38583
20
-2.09941
11
2.38564
21
-2.10133
0
LINE
8
BLACK
6
CONTINUOUS
10
2.38564
20
-2.10133
11
2.38508
21
-2.10318
0
LINE
8
BLACK
6
CONTINUOUS
10
2.38508
20
-2.10318
11
2.38417
21
-2.10488
0
LINE
8
BLACK
6
CONTINUOUS
10
2.38417
20
-2.10488
11
2.38294
21
-2.10637
0
LINE
8
BLACK
6
CONTINUOUS
10
2.38294
20
-2.10637
11
2.38145
21
-2.10759
0
LINE
8
BLACK
6
CONTINUOUS
10
2.38145
20
-2.10759
11
2.37975
21
-2.1085
0
LINE
8
BLACK
6
CONTINUOUS
10
2.37975
20
-2.1085
11
2.3779
21
-2.10906
0
LINE
8
BLACK
6
CONTINUOUS
10
2.3779
20
-2.10906
11
2.37598
21
-2.10925
0
LINE
8
BLACK
6
CONTINUOUS
10
2.37598
20
-2.10925
11
2.3563
21
-2.10925
0
LINE
8
BLACK
6
CONTINUOUS
10
2.3563
20
-2.10925
11
2.35438
21
-2.10906
0
LINE
8
BLACK
6
CONTINUOUS
10
2.35438
20
-2.10906
11
2.35253
21
-2.1085
0
LINE
8
BLACK
6
CONTINUOUS
10
2.35253
20
-2.1085
11
2.35083
21
-2.10759
0
LINE
8
BLACK
6
CONTINUOUS
10
2.35083
20
-2.10759
11
2.34934
21
-2.10637
0
LINE
8
BLACK
6
CONTINUOUS
10
2.34934
20
-2.10637
11
2.34812
21
-2.10488
0
LINE
8
BLACK
6
CONTINUOUS
10
2.34812
20
-2.10488
11
2.34721
21
-2.10318
0
LINE
8
BLACK
6
CONTINUOUS
10
2.34721
20
-2.10318
11
2.34665
21
-2.10133
0
LINE
8
BLACK
6
CONTINUOUS
10
2.34665
20
-2.10133
11
2.34646
21
-2.09941
0
LINE
8
BLACK
6
CONTINUOUS
10
2.34646
20
-2.09941
11
2.34646
21
-2.06201
0
LINE
8
BLACK
6
CONTINUOUS
10
2.34646
20
-2.06201
11
2.34665
21
-2.06009
0
LINE
8
BLACK
6
CONTINUOUS
10
2.34665
20
-2.06009
11
2.34721
21
-2.05824
0
LINE
8
BLACK
6
CONTINUOUS
10
2.34721
20
-2.05824
11
2.34812
21
-2.05654
0
LINE
8
BLACK
6
CONTINUOUS
10
2.34812
20
-2.05654
11
2.34934
21
-2.05505
0
LINE
8
BLACK
6
CONTINUOUS
10
2.34934
20
-2.05505
11
2.35083
21
-2.05382
0
LINE
8
BLACK
6
CONTINUOUS
10
2.35083
20
-2.05382
11
2.35253
21
-2.05291
0
LINE
8
BLACK
6
CONTINUOUS
10
2.35253
20
-2.05291
11
2.35438
21
-2.05235
0
LINE
8
BLACK
6
CONTINUOUS
10
2.35438
20
-2.05235
11
2.3563
21
-2.05217
0
LINE
8
BLACK
6
CONTINUOUS
10
2.3563
20
-2.05217
11
2.37598
21
-2.05217
0
LINE
8
BLACK
6
CONTINUOUS
10
2.37598
20
-2.05217
11
2.3779
21
-2.05235
0
LINE
8
BLACK
6
CONTINUOUS
10
2.45271
20
-2.05235
11
2.45455
21
-2.05291
0
LINE
8
BLACK
6
CONTINUOUS
10
2.45455
20
-2.05291
11
2.45626
21
-2.05382
0
LINE
8
BLACK
6
CONTINUOUS
10
2.45626
20
-2.05382
11
2.45775
21
-2.05505
0
LINE
8
BLACK
6
CONTINUOUS
10
2.45775
20
-2.05505
11
2.45897
21
-2.05654
0
LINE
8
BLACK
6
CONTINUOUS
10
2.45897
20
-2.05654
11
2.45988
21
-2.05824
0
LINE
8
BLACK
6
CONTINUOUS
10
2.45988
20
-2.05824
11
2.46044
21
-2.06009
0
LINE
8
BLACK
6
CONTINUOUS
10
2.46044
20
-2.06009
11
2.46063
21
-2.06201
0
LINE
8
BLACK
6
CONTINUOUS
10
2.46063
20
-2.06201
11
2.46063
21
-2.09941
0
LINE
8
BLACK
6
CONTINUOUS
10
2.46063
20
-2.09941
11
2.46044
21
-2.10133
0
LINE
8
BLACK
6
CONTINUOUS
10
2.46044
20
-2.10133
11
2.45988
21
-2.10318
0
LINE
8
BLACK
6
CONTINUOUS
10
2.45988
20
-2.10318
11
2.45897
21
-2.10488
0
LINE
8
BLACK
6
CONTINUOUS
10
2.45897
20
-2.10488
11
2.45775
21
-2.10637
0
LINE
8
BLACK
6
CONTINUOUS
10
2.45775
20
-2.10637
11
2.45626
21
-2.10759
0
LINE
8
BLACK
6
CONTINUOUS
10
2.45626
20
-2.10759
11
2.45455
21
-2.1085
0
LINE
8
BLACK
6
CONTINUOUS
10
2.45455
20
-2.1085
11
2.45271
21
-2.10906
0
LINE
8
BLACK
6
CONTINUOUS
10
2.45271
20
-2.10906
11
2.45079
21
-2.10925
0
LINE
8
BLACK
6
CONTINUOUS
10
2.45079
20
-2.10925
11
2.4311
21
-2.10925
0
LINE
8
BLACK
6
CONTINUOUS
10
2.4311
20
-2.10925
11
2.42918
21
-2.10906
0
LINE
8
BLACK
6
CONTINUOUS
10
2.42918
20
-2.10906
11
2.42734
21
-2.1085
0
LINE
8
BLACK
6
CONTINUOUS
10
2.42734
20
-2.1085
11
2.42563
21
-2.10759
0
LINE
8
BLACK
6
CONTINUOUS
10
2.42563
20
-2.10759
11
2.42414
21
-2.10637
0
LINE
8
BLACK
6
CONTINUOUS
10
2.42414
20
-2.10637
11
2.42292
21
-2.10488
0
LINE
8
BLACK
6
CONTINUOUS
10
2.42292
20
-2.10488
11
2.42201
21
-2.10318
0
LINE
8
BLACK
6
CONTINUOUS
10
2.42201
20
-2.10318
11
2.42145
21
-2.10133
0
LINE
8
BLACK
6
CONTINUOUS
10
2.42145
20
-2.10133
11
2.42126
21
-2.09941
0
LINE
8
BLACK
6
CONTINUOUS
10
2.42126
20
-2.09941
11
2.42126
21
-2.06201
0
LINE
8
BLACK
6
CONTINUOUS
10
2.42126
20
-2.06201
11
2.42145
21
-2.06009
0
LINE
8
BLACK
6
CONTINUOUS
10
2.42145
20
-2.06009
11
2.42201
21
-2.05824
0
LINE
8
BLACK
6
CONTINUOUS
10
2.42201
20
-2.05824
11
2.42292
21
-2.05654
0
LINE
8
BLACK
6
CONTINUOUS
10
2.42292
20
-2.05654
11
2.42414
21
-2.05505
0
LINE
8
BLACK
6
CONTINUOUS
10
2.42414
20
-2.05505
11
2.42563
21
-2.05382
0
LINE
8
BLACK
6
CONTINUOUS
10
2.42563
20
-2.05382
11
2.42734
21
-2.05291
0
LINE
8
BLACK
6
CONTINUOUS
10
2.42734
20
-2.05291
11
2.42918
21
-2.05235
0
LINE
8
BLACK
6
CONTINUOUS
10
2.42918
20
-2.05235
11
2.4311
21
-2.05217
0
LINE
8
BLACK
6
CONTINUOUS
10
2.4311
20
-2.05217
11
2.45079
21
-2.05217
0
LINE
8
BLACK
6
CONTINUOUS
10
2.45079
20
-2.05217
11
2.45271
21
-2.05235
0
LINE
8
BLACK
6
CONTINUOUS
10
3.49818
20
-2.0557
11
3.50003
21
-2.05626
0
LINE
8
BLACK
6
CONTINUOUS
10
3.50003
20
-2.05626
11
3.50173
21
-2.05717
0
LINE
8
BLACK
6
CONTINUOUS
10
3.50173
20
-2.05717
11
3.50322
21
-2.05839
0
LINE
8
BLACK
6
CONTINUOUS
10
3.50322
20
-2.05839
11
3.50444
21
-2.05989
0
LINE
8
BLACK
6
CONTINUOUS
10
3.50444
20
-2.05989
11
3.50535
21
-2.06159
0
LINE
8
BLACK
6
CONTINUOUS
10
3.50535
20
-2.06159
11
3.50591
21
-2.06343
0
LINE
8
BLACK
6
CONTINUOUS
10
3.50591
20
-2.06343
11
3.5061
21
-2.06535
0
LINE
8
BLACK
6
CONTINUOUS
10
3.5061
20
-2.06535
11
3.5061
21
-2.09291
0
LINE
8
BLACK
6
CONTINUOUS
10
3.5061
20
-2.09291
11
3.50591
21
-2.09483
0
LINE
8
BLACK
6
CONTINUOUS
10
3.50591
20
-2.09483
11
3.50535
21
-2.09668
0
LINE
8
BLACK
6
CONTINUOUS
10
3.50535
20
-2.09668
11
3.50444
21
-2.09838
0
LINE
8
BLACK
6
CONTINUOUS
10
3.50444
20
-2.09838
11
3.50322
21
-2.09987
0
LINE
8
BLACK
6
CONTINUOUS
10
3.50322
20
-2.09987
11
3.50173
21
-2.1011
0
LINE
8
BLACK
6
CONTINUOUS
10
3.50173
20
-2.1011
11
3.50003
21
-2.10201
0
LINE
8
BLACK
6
CONTINUOUS
10
3.50003
20
-2.10201
11
3.49818
21
-2.10257
0
LINE
8
BLACK
6
CONTINUOUS
10
3.49818
20
-2.10257
11
3.49626
21
-2.10276
0
LINE
8
BLACK
6
CONTINUOUS
10
3.49626
20
-2.10276
11
3.44508
21
-2.10276
0
LINE
8
BLACK
6
CONTINUOUS
10
3.44508
20
-2.10276
11
3.44316
21
-2.10257
0
LINE
8
BLACK
6
CONTINUOUS
10
3.44316
20
-2.10257
11
3.44131
21
-2.10201
0
LINE
8
BLACK
6
CONTINUOUS
10
3.44131
20
-2.10201
11
3.43961
21
-2.1011
0
LINE
8
BLACK
6
CONTINUOUS
10
3.43961
20
-2.1011
11
3.43812
21
-2.09987
0
LINE
8
BLACK
6
CONTINUOUS
10
3.43812
20
-2.09987
11
3.43689
21
-2.09838
0
LINE
8
BLACK
6
CONTINUOUS
10
3.43689
20
-2.09838
11
3.43599
21
-2.09668
0
LINE
8
BLACK
6
CONTINUOUS
10
3.43599
20
-2.09668
11
3.43543
21
-2.09483
0
LINE
8
BLACK
6
CONTINUOUS
10
3.43543
20
-2.09483
11
3.43524
21
-2.09291
0
LINE
8
BLACK
6
CONTINUOUS
10
3.43524
20
-2.09291
11
3.43524
21
-2.06535
0
LINE
8
BLACK
6
CONTINUOUS
10
3.43524
20
-2.06535
11
3.43543
21
-2.06343
0
LINE
8
BLACK
6
CONTINUOUS
10
3.43543
20
-2.06343
11
3.43599
21
-2.06159
0
LINE
8
BLACK
6
CONTINUOUS
10
3.43599
20
-2.06159
11
3.43689
21
-2.05989
0
LINE
8
BLACK
6
CONTINUOUS
10
3.43689
20
-2.05989
11
3.43812
21
-2.05839
0
LINE
8
BLACK
6
CONTINUOUS
10
3.43812
20
-2.05839
11
3.43961
21
-2.05717
0
LINE
8
BLACK
6
CONTINUOUS
10
3.43961
20
-2.05717
11
3.44131
21
-2.05626
0
LINE
8
BLACK
6
CONTINUOUS
10
3.44131
20
-2.05626
11
3.44316
21
-2.0557
0
LINE
8
BLACK
6
CONTINUOUS
10
3.44316
20
-2.0557
11
3.44508
21
-2.05551
0
LINE
8
BLACK
6
CONTINUOUS
10
3.44508
20
-2.05551
11
3.49626
21
-2.05551
0
LINE
8
BLACK
6
CONTINUOUS
10
3.49626
20
-2.05551
11
3.49818
21
-2.0557
0
LINE
8
BLACK
6
CONTINUOUS
10
6.52953
20
-2.09961
11
6.42913
21
-2.09961
0
LINE
8
BLACK
6
CONTINUOUS
10
6.42913
20
-2.09961
11
6.42913
21
-2.00118
0
LINE
8
BLACK
6
CONTINUOUS
10
6.42913
20
-2.00118
11
6.52953
21
-2.00118
0
LINE
8
BLACK
6
CONTINUOUS
10
6.52953
20
-2.00118
11
6.52953
21
-2.09961
0
LINE
8
BLACK
6
CONTINUOUS
10
9.37146
20
-2.06378
11
9.30453
21
-2.06378
0
LINE
8
BLACK
6
CONTINUOUS
10
9.30453
20
-2.06378
11
9.30453
21
-2.0315
0
LINE
8
BLACK
6
CONTINUOUS
10
9.30453
20
-2.0315
11
9.37146
21
-2.0315
0
LINE
8
BLACK
6
CONTINUOUS
10
9.37146
20
-2.0315
11
9.37146
21
-2.06378
0
LINE
8
BLACK
6
CONTINUOUS
10
9.57224
20
-2.06378
11
9.50531
21
-2.06378
0
LINE
8
BLACK
6
CONTINUOUS
10
9.50531
20
-2.06378
11
9.50531
21
-2.0315
0
LINE
8
BLACK
6
CONTINUOUS
10
9.50531
20
-2.0315
11
9.57224
21
-2.0315
0
LINE
8
BLACK
6
CONTINUOUS
10
9.57224
20
-2.0315
11
9.57224
21
-2.06378
0
LINE
8
BLACK
6
CONTINUOUS
10
9.26216
20
-2.02027
11
9.264
21
-2.02083
0
LINE
8
BLACK
6
CONTINUOUS
10
9.264
20
-2.02083
11
9.2657
21
-2.02174
0
LINE
8
BLACK
6
CONTINUOUS
10
9.2657
20
-2.02174
11
9.2672
21
-2.02296
0
LINE
8
BLACK
6
CONTINUOUS
10
9.2672
20
-2.02296
11
9.26842
21
-2.02445
0
LINE
8
BLACK
6
CONTINUOUS
10
9.26842
20
-2.02445
11
9.26933
21
-2.02615
0
LINE
8
BLACK
6
CONTINUOUS
10
9.26933
20
-2.02615
11
9.26989
21
-2.028
0
LINE
8
BLACK
6
CONTINUOUS
10
9.26989
20
-2.028
11
9.27008
21
-2.02992
0
LINE
8
BLACK
6
CONTINUOUS
10
9.27008
20
-2.02992
11
9.27008
21
-2.04961
0
LINE
8
BLACK
6
CONTINUOUS
10
9.27008
20
-2.04961
11
9.26989
21
-2.05153
0
LINE
8
BLACK
6
CONTINUOUS
10
9.26989
20
-2.05153
11
9.26933
21
-2.05337
0
LINE
8
BLACK
6
CONTINUOUS
10
9.26933
20
-2.05337
11
9.26842
21
-2.05507
0
LINE
8
BLACK
6
CONTINUOUS
10
9.26842
20
-2.05507
11
9.2672
21
-2.05657
0
LINE
8
BLACK
6
CONTINUOUS
10
9.2672
20
-2.05657
11
9.2657
21
-2.05779
0
LINE
8
BLACK
6
CONTINUOUS
10
9.2657
20
-2.05779
11
9.264
21
-2.0587
0
LINE
8
BLACK
6
CONTINUOUS
10
9.264
20
-2.0587
11
9.26216
21
-2.05926
0
LINE
8
BLACK
6
CONTINUOUS
10
9.26216
20
-2.05926
11
9.26024
21
-2.05945
0
LINE
8
BLACK
6
CONTINUOUS
10
9.26024
20
-2.05945
11
9.22283
21
-2.05945
0
LINE
8
BLACK
6
CONTINUOUS
10
9.22283
20
-2.05945
11
9.22091
21
-2.05926
0
LINE
8
BLACK
6
CONTINUOUS
10
9.22091
20
-2.05926
11
9.21907
21
-2.0587
0
LINE
8
BLACK
6
CONTINUOUS
10
9.21907
20
-2.0587
11
9.21737
21
-2.05779
0
LINE
8
BLACK
6
CONTINUOUS
10
9.21737
20
-2.05779
11
9.21587
21
-2.05657
0
LINE
8
BLACK
6
CONTINUOUS
10
9.21587
20
-2.05657
11
9.21465
21
-2.05507
0
LINE
8
BLACK
6
CONTINUOUS
10
9.21465
20
-2.05507
11
9.21374
21
-2.05337
0
LINE
8
BLACK
6
CONTINUOUS
10
9.21374
20
-2.05337
11
9.21318
21
-2.05153
0
LINE
8
BLACK
6
CONTINUOUS
10
9.21318
20
-2.05153
11
9.21299
21
-2.04961
0
LINE
8
BLACK
6
CONTINUOUS
10
9.21299
20
-2.04961
11
9.21299
21
-2.02992
0
LINE
8
BLACK
6
CONTINUOUS
10
9.21299
20
-2.02992
11
9.21318
21
-2.028
0
LINE
8
BLACK
6
CONTINUOUS
10
9.21318
20
-2.028
11
9.21374
21
-2.02615
0
LINE
8
BLACK
6
CONTINUOUS
10
9.21374
20
-2.02615
11
9.21465
21
-2.02445
0
LINE
8
BLACK
6
CONTINUOUS
10
9.21465
20
-2.02445
11
9.21587
21
-2.02296
0
LINE
8
BLACK
6
CONTINUOUS
10
9.21587
20
-2.02296
11
9.21737
21
-2.02174
0
LINE
8
BLACK
6
CONTINUOUS
10
9.21737
20
-2.02174
11
9.21907
21
-2.02083
0
LINE
8
BLACK
6
CONTINUOUS
10
9.21907
20
-2.02083
11
9.22091
21
-2.02027
0
LINE
8
BLACK
6
CONTINUOUS
10
9.22091
20
-2.02027
11
9.22283
21
-2.02008
0
LINE
8
BLACK
6
CONTINUOUS
10
9.22283
20
-2.02008
11
9.26024
21
-2.02008
0
LINE
8
BLACK
6
CONTINUOUS
10
9.26024
20
-2.02008
11
9.26216
21
-2.02027
0
LINE
8
BLACK
6
CONTINUOUS
10
3.34387
20
-2.01626
11
3.34498
21
-2.01659
0
LINE
8
BLACK
6
CONTINUOUS
10
3.34498
20
-2.01659
11
3.346
21
-2.01714
0
LINE
8
BLACK
6
CONTINUOUS
10
3.346
20
-2.01714
11
3.34689
21
-2.01787
0
LINE
8
BLACK
6
CONTINUOUS
10
3.34689
20
-2.01787
11
3.34763
21
-2.01877
0
LINE
8
BLACK
6
CONTINUOUS
10
3.34763
20
-2.01877
11
3.34817
21
-2.01979
0
LINE
8
BLACK
6
CONTINUOUS
10
3.34817
20
-2.01979
11
3.34851
21
-2.0209
0
LINE
8
BLACK
6
CONTINUOUS
10
3.34851
20
-2.0209
11
3.34862
21
-2.02205
0
LINE
8
BLACK
6
CONTINUOUS
10
3.34862
20
-2.02205
11
3.34862
21
-2.03386
0
LINE
8
BLACK
6
CONTINUOUS
10
3.34862
20
-2.03386
11
3.34851
21
-2.03501
0
LINE
8
BLACK
6
CONTINUOUS
10
3.34851
20
-2.03501
11
3.34817
21
-2.03612
0
LINE
8
BLACK
6
CONTINUOUS
10
3.34817
20
-2.03612
11
3.34763
21
-2.03714
0
LINE
8
BLACK
6
CONTINUOUS
10
3.34763
20
-2.03714
11
3.34689
21
-2.03803
0
LINE
8
BLACK
6
CONTINUOUS
10
3.34689
20
-2.03803
11
3.346
21
-2.03877
0
LINE
8
BLACK
6
CONTINUOUS
10
3.346
20
-2.03877
11
3.34498
21
-2.03931
0
LINE
8
BLACK
6
CONTINUOUS
10
3.34498
20
-2.03931
11
3.34387
21
-2.03965
0
LINE
8
BLACK
6
CONTINUOUS
10
3.34387
20
-2.03965
11
3.34272
21
-2.03976
0
LINE
8
BLACK
6
CONTINUOUS
10
3.34272
20
-2.03976
11
3.2935
21
-2.03976
0
LINE
8
BLACK
6
CONTINUOUS
10
3.2935
20
-2.03976
11
3.29235
21
-2.03965
0
LINE
8
BLACK
6
CONTINUOUS
10
3.29235
20
-2.03965
11
3.29124
21
-2.03931
0
LINE
8
BLACK
6
CONTINUOUS
10
3.29124
20
-2.03931
11
3.29022
21
-2.03877
0
LINE
8
BLACK
6
CONTINUOUS
10
3.29022
20
-2.03877
11
3.28933
21
-2.03803
0
LINE
8
BLACK
6
CONTINUOUS
10
3.28933
20
-2.03803
11
3.28859
21
-2.03714
0
LINE
8
BLACK
6
CONTINUOUS
10
3.28859
20
-2.03714
11
3.28805
21
-2.03612
0
LINE
8
BLACK
6
CONTINUOUS
10
3.28805
20
-2.03612
11
3.28771
21
-2.03501
0
LINE
8
BLACK
6
CONTINUOUS
10
3.28771
20
-2.03501
11
3.2876
21
-2.03386
0
LINE
8
BLACK
6
CONTINUOUS
10
3.2876
20
-2.03386
11
3.2876
21
-2.02205
0
LINE
8
BLACK
6
CONTINUOUS
10
3.2876
20
-2.02205
11
3.28771
21
-2.0209
0
LINE
8
BLACK
6
CONTINUOUS
10
3.28771
20
-2.0209
11
3.28805
21
-2.01979
0
LINE
8
BLACK
6
CONTINUOUS
10
3.28805
20
-2.01979
11
3.28859
21
-2.01877
0
LINE
8
BLACK
6
CONTINUOUS
10
3.28859
20
-2.01877
11
3.28933
21
-2.01787
0
LINE
8
BLACK
6
CONTINUOUS
10
3.28933
20
-2.01787
11
3.29022
21
-2.01714
0
LINE
8
BLACK
6
CONTINUOUS
10
3.29022
20
-2.01714
11
3.29124
21
-2.01659
0
LINE
8
BLACK
6
CONTINUOUS
10
3.29124
20
-2.01659
11
3.29235
21
-2.01626
0
LINE
8
BLACK
6
CONTINUOUS
10
3.29235
20
-2.01626
11
3.2935
21
-2.01614
0
LINE
8
BLACK
6
CONTINUOUS
10
3.2935
20
-2.01614
11
3.34272
21
-2.01614
0
LINE
8
BLACK
6
CONTINUOUS
10
3.34272
20
-2.01614
11
3.34387
21
-2.01626
0
LINE
8
BLACK
6
CONTINUOUS
10
3.34387
20
-1.97689
11
3.34498
21
-1.97722
0
LINE
8
BLACK
6
CONTINUOUS
10
3.34498
20
-1.97722
11
3.346
21
-1.97777
0
LINE
8
BLACK
6
CONTINUOUS
10
3.346
20
-1.97777
11
3.34689
21
-1.9785
0
LINE
8
BLACK
6
CONTINUOUS
10
3.34689
20
-1.9785
11
3.34763
21
-1.9794
0
LINE
8
BLACK
6
CONTINUOUS
10
3.34763
20
-1.9794
11
3.34817
21
-1.98042
0
LINE
8
BLACK
6
CONTINUOUS
10
3.34817
20
-1.98042
11
3.34851
21
-1.98153
0
LINE
8
BLACK
6
CONTINUOUS
10
3.34851
20
-1.98153
11
3.34862
21
-1.98268
0
LINE
8
BLACK
6
CONTINUOUS
10
3.34862
20
-1.98268
11
3.34862
21
-1.99449
0
LINE
8
BLACK
6
CONTINUOUS
10
3.34862
20
-1.99449
11
3.34851
21
-1.99564
0
LINE
8
BLACK
6
CONTINUOUS
10
3.34851
20
-1.99564
11
3.34817
21
-1.99675
0
LINE
8
BLACK
6
CONTINUOUS
10
3.34817
20
-1.99675
11
3.34763
21
-1.99777
0
LINE
8
BLACK
6
CONTINUOUS
10
3.34763
20
-1.99777
11
3.34689
21
-1.99866
0
LINE
8
BLACK
6
CONTINUOUS
10
3.34689
20
-1.99866
11
3.346
21
-1.9994
0
LINE
8
BLACK
6
CONTINUOUS
10
3.346
20
-1.9994
11
3.34498
21
-1.99994
0
LINE
8
BLACK
6
CONTINUOUS
10
3.34498
20
-1.99994
11
3.34387
21
-2.00028
0
LINE
8
BLACK
6
CONTINUOUS
10
3.34387
20
-2.00028
11
3.34272
21
-2.00039
0
LINE
8
BLACK
6
CONTINUOUS
10
3.34272
20
-2.00039
11
3.2935
21
-2.00039
0
LINE
8
BLACK
6
CONTINUOUS
10
3.2935
20
-2.00039
11
3.29235
21
-2.00028
0
LINE
8
BLACK
6
CONTINUOUS
10
3.29235
20
-2.00028
11
3.29124
21
-1.99994
0
LINE
8
BLACK
6
CONTINUOUS
10
3.29124
20
-1.99994
11
3.29022
21
-1.9994
0
LINE
8
BLACK
6
CONTINUOUS
10
3.29022
20
-1.9994
11
3.28933
21
-1.99866
0
LINE
8
BLACK
6
CONTINUOUS
10
3.28933
20
-1.99866
11
3.28859
21
-1.99777
0
LINE
8
BLACK
6
CONTINUOUS
10
3.28859
20
-1.99777
11
3.28805
21
-1.99675
0
LINE
8
BLACK
6
CONTINUOUS
10
3.28805
20
-1.99675
11
3.28771
21
-1.99564
0
LINE
8
BLACK
6
CONTINUOUS
10
3.28771
20
-1.99564
11
3.2876
21
-1.99449
0
LINE
8
BLACK
6
CONTINUOUS
10
3.2876
20
-1.99449
11
3.2876
21
-1.98268
0
LINE
8
BLACK
6
CONTINUOUS
10
3.2876
20
-1.98268
11
3.28771
21
-1.98153
0
LINE
8
BLACK
6
CONTINUOUS
10
3.28771
20
-1.98153
11
3.28805
21
-1.98042
0
LINE
8
BLACK
6
CONTINUOUS
10
3.28805
20
-1.98042
11
3.28859
21
-1.9794
0
LINE
8
BLACK
6
CONTINUOUS
10
3.28859
20
-1.9794
11
3.28933
21
-1.9785
0
LINE
8
BLACK
6
CONTINUOUS
10
3.28933
20
-1.9785
11
3.29022
21
-1.97777
0
LINE
8
BLACK
6
CONTINUOUS
10
3.29022
20
-1.97777
11
3.29124
21
-1.97722
0
LINE
8
BLACK
6
CONTINUOUS
10
3.29124
20
-1.97722
11
3.29235
21
-1.97689
0
LINE
8
BLACK
6
CONTINUOUS
10
3.29235
20
-1.97689
11
3.2935
21
-1.97677
0
LINE
8
BLACK
6
CONTINUOUS
10
3.2935
20
-1.97677
11
3.34272
21
-1.97677
0
LINE
8
BLACK
6
CONTINUOUS
10
3.34272
20
-1.97677
11
3.34387
21
-1.97689
0
LINE
8
BLACK
6
CONTINUOUS
10
2.37185
20
-1.93323
11
2.37336
21
-1.93369
0
LINE
8
BLACK
6
CONTINUOUS
10
2.37336
20
-1.93369
11
2.37476
21
-1.93443
0
LINE
8
BLACK
6
CONTINUOUS
10
2.37476
20
-1.93443
11
2.37598
21
-1.93543
0
LINE
8
BLACK
6
CONTINUOUS
10
2.37598
20
-1.93543
11
2.37699
21
-1.93666
0
LINE
8
BLACK
6
CONTINUOUS
10
2.37699
20
-1.93666
11
2.37773
21
-1.93805
0
LINE
8
BLACK
6
CONTINUOUS
10
2.37773
20
-1.93805
11
2.37819
21
-1.93957
0
LINE
8
BLACK
6
CONTINUOUS
10
2.37819
20
-1.93957
11
2.37835
21
-1.94114
0
LINE
8
BLACK
6
CONTINUOUS
10
2.37835
20
-1.94114
11
2.37835
21
-1.99193
0
LINE
8
BLACK
6
CONTINUOUS
10
2.37835
20
-1.99193
11
2.37819
21
-1.9935
0
LINE
8
BLACK
6
CONTINUOUS
10
2.37819
20
-1.9935
11
2.37773
21
-1.99502
0
LINE
8
BLACK
6
CONTINUOUS
10
2.37773
20
-1.99502
11
2.37699
21
-1.99641
0
LINE
8
BLACK
6
CONTINUOUS
10
2.37699
20
-1.99641
11
2.37598
21
-1.99764
0
LINE
8
BLACK
6
CONTINUOUS
10
2.37598
20
-1.99764
11
2.37476
21
-1.99864
0
LINE
8
BLACK
6
CONTINUOUS
10
2.37476
20
-1.99864
11
2.37336
21
-1.99939
0
LINE
8
BLACK
6
CONTINUOUS
10
2.37336
20
-1.99939
11
2.37185
21
-1.99984
0
LINE
8
BLACK
6
CONTINUOUS
10
2.37185
20
-1.99984
11
2.37028
21
-2
0
LINE
8
BLACK
6
CONTINUOUS
10
2.37028
20
-2
11
2.35413
21
-2
0
LINE
8
BLACK
6
CONTINUOUS
10
2.35413
20
-2
11
2.35256
21
-1.99984
0
LINE
8
BLACK
6
CONTINUOUS
10
2.35256
20
-1.99984
11
2.35105
21
-1.99939
0
LINE
8
BLACK
6
CONTINUOUS
10
2.35105
20
-1.99939
11
2.34965
21
-1.99864
0
LINE
8
BLACK
6
CONTINUOUS
10
2.34965
20
-1.99864
11
2.34843
21
-1.99764
0
LINE
8
BLACK
6
CONTINUOUS
10
2.34843
20
-1.99764
11
2.34742
21
-1.99641
0
LINE
8
BLACK
6
CONTINUOUS
10
2.34742
20
-1.99641
11
2.34668
21
-1.99502
0
LINE
8
BLACK
6
CONTINUOUS
10
2.34668
20
-1.99502
11
2.34622
21
-1.9935
0
LINE
8
BLACK
6
CONTINUOUS
10
2.34622
20
-1.9935
11
2.34606
21
-1.99193
0
LINE
8
BLACK
6
CONTINUOUS
10
2.34606
20
-1.99193
11
2.34606
21
-1.94114
0
LINE
8
BLACK
6
CONTINUOUS
10
2.34606
20
-1.94114
11
2.34622
21
-1.93957
0
LINE
8
BLACK
6
CONTINUOUS
10
2.34622
20
-1.93957
11
2.34668
21
-1.93805
0
LINE
8
BLACK
6
CONTINUOUS
10
2.34668
20
-1.93805
11
2.34742
21
-1.93666
0
LINE
8
BLACK
6
CONTINUOUS
10
2.34742
20
-1.93666
11
2.34843
21
-1.93543
0
LINE
8
BLACK
6
CONTINUOUS
10
2.34843
20
-1.93543
11
2.34965
21
-1.93443
0
LINE
8
BLACK
6
CONTINUOUS
10
2.34965
20
-1.93443
11
2.35105
21
-1.93369
0
LINE
8
BLACK
6
CONTINUOUS
10
2.35105
20
-1.93369
11
2.35256
21
-1.93323
0
LINE
8
BLACK
6
CONTINUOUS
10
2.35256
20
-1.93323
11
2.35413
21
-1.93307
0
LINE
8
BLACK
6
CONTINUOUS
10
2.35413
20
-1.93307
11
2.37028
21
-1.93307
0
LINE
8
BLACK
6
CONTINUOUS
10
2.37028
20
-1.93307
11
2.37185
21
-1.93323
0
LINE
8
BLACK
6
CONTINUOUS
10
2.4374
20
-2
11
2.40512
21
-2
0
LINE
8
BLACK
6
CONTINUOUS
10
2.40512
20
-2
11
2.40512
21
-1.93307
0
LINE
8
BLACK
6
CONTINUOUS
10
2.40512
20
-1.93307
11
2.4374
21
-1.93307
0
LINE
8
BLACK
6
CONTINUOUS
10
2.4374
20
-1.93307
11
2.4374
21
-2
0
LINE
8
BLACK
6
CONTINUOUS
10
2.59488
20
-2
11
2.5626
21
-2
0
LINE
8
BLACK
6
CONTINUOUS
10
2.5626
20
-2
11
2.5626
21
-1.93307
0
LINE
8
BLACK
6
CONTINUOUS
10
2.5626
20
-1.93307
11
2.59488
21
-1.93307
0
LINE
8
BLACK
6
CONTINUOUS
10
2.59488
20
-1.93307
11
2.59488
21
-2
0
LINE
8
BLACK
6
CONTINUOUS
10
2.52933
20
-1.93323
11
2.53084
21
-1.93369
0
LINE
8
BLACK
6
CONTINUOUS
10
2.53084
20
-1.93369
11
2.53224
21
-1.93443
0
LINE
8
BLACK
6
CONTINUOUS
10
2.53224
20
-1.93443
11
2.53346
21
-1.93543
0
LINE
8
BLACK
6
CONTINUOUS
10
2.53346
20
-1.93543
11
2.53447
21
-1.93666
0
LINE
8
BLACK
6
CONTINUOUS
10
2.53447
20
-1.93666
11
2.53521
21
-1.93805
0
LINE
8
BLACK
6
CONTINUOUS
10
2.53521
20
-1.93805
11
2.53567
21
-1.93957
0
LINE
8
BLACK
6
CONTINUOUS
10
2.53567
20
-1.93957
11
2.53583
21
-1.94114
0
LINE
8
BLACK
6
CONTINUOUS
10
2.53583
20
-1.94114
11
2.53583
21
-1.99193
0
LINE
8
BLACK
6
CONTINUOUS
10
2.53583
20
-1.99193
11
2.53567
21
-1.9935
0
LINE
8
BLACK
6
CONTINUOUS
10
2.53567
20
-1.9935
11
2.53521
21
-1.99502
0
LINE
8
BLACK
6
CONTINUOUS
10
2.53521
20
-1.99502
11
2.53447
21
-1.99641
0
LINE
8
BLACK
6
CONTINUOUS
10
2.53447
20
-1.99641
11
2.53346
21
-1.99764
0
LINE
8
BLACK
6
CONTINUOUS
10
2.53346
20
-1.99764
11
2.53224
21
-1.99864
0
LINE
8
BLACK
6
CONTINUOUS
10
2.53224
20
-1.99864
11
2.53084
21
-1.99939
0
LINE
8
BLACK
6
CONTINUOUS
10
2.53084
20
-1.99939
11
2.52933
21
-1.99984
0
LINE
8
BLACK
6
CONTINUOUS
10
2.52933
20
-1.99984
11
2.52776
21
-2
0
LINE
8
BLACK
6
CONTINUOUS
10
2.52776
20
-2
11
2.51161
21
-2
0
LINE
8
BLACK
6
CONTINUOUS
10
2.51161
20
-2
11
2.51004
21
-1.99984
0
LINE
8
BLACK
6
CONTINUOUS
10
2.51004
20
-1.99984
11
2.50853
21
-1.99939
0
LINE
8
BLACK
6
CONTINUOUS
10
2.50853
20
-1.99939
11
2.50713
21
-1.99864
0
LINE
8
BLACK
6
CONTINUOUS
10
2.50713
20
-1.99864
11
2.50591
21
-1.99764
0
LINE
8
BLACK
6
CONTINUOUS
10
2.50591
20
-1.99764
11
2.5049
21
-1.99641
0
LINE
8
BLACK
6
CONTINUOUS
10
2.5049
20
-1.99641
11
2.50416
21
-1.99502
0
LINE
8
BLACK
6
CONTINUOUS
10
2.50416
20
-1.99502
11
2.5037
21
-1.9935
0
LINE
8
BLACK
6
CONTINUOUS
10
2.5037
20
-1.9935
11
2.50354
21
-1.99193
0
LINE
8
BLACK
6
CONTINUOUS
10
2.50354
20
-1.99193
11
2.50354
21
-1.94114
0
LINE
8
BLACK
6
CONTINUOUS
10
2.50354
20
-1.94114
11
2.5037
21
-1.93957
0
LINE
8
BLACK
6
CONTINUOUS
10
2.5037
20
-1.93957
11
2.50416
21
-1.93805
0
LINE
8
BLACK
6
CONTINUOUS
10
2.50416
20
-1.93805
11
2.5049
21
-1.93666
0
LINE
8
BLACK
6
CONTINUOUS
10
2.5049
20
-1.93666
11
2.50591
21
-1.93543
0
LINE
8
BLACK
6
CONTINUOUS
10
2.50591
20
-1.93543
11
2.50713
21
-1.93443
0
LINE
8
BLACK
6
CONTINUOUS
10
2.50713
20
-1.93443
11
2.50853
21
-1.93369
0
LINE
8
BLACK
6
CONTINUOUS
10
2.50853
20
-1.93369
11
2.51004
21
-1.93323
0
LINE
8
BLACK
6
CONTINUOUS
10
2.51004
20
-1.93323
11
2.51161
21
-1.93307
0
LINE
8
BLACK
6
CONTINUOUS
10
2.51161
20
-1.93307
11
2.52776
21
-1.93307
0
LINE
8
BLACK
6
CONTINUOUS
10
2.52776
20
-1.93307
11
2.52933
21
-1.93323
0
LINE
8
BLACK
6
CONTINUOUS
10
2.75236
20
-2
11
2.72008
21
-2
0
LINE
8
BLACK
6
CONTINUOUS
10
2.72008
20
-2
11
2.72008
21
-1.93307
0
LINE
8
BLACK
6
CONTINUOUS
10
2.72008
20
-1.93307
11
2.75236
21
-1.93307
0
LINE
8
BLACK
6
CONTINUOUS
10
2.75236
20
-1.93307
11
2.75236
21
-2
0
LINE
8
BLACK
6
CONTINUOUS
10
2.68681
20
-1.93323
11
2.68832
21
-1.93369
0
LINE
8
BLACK
6
CONTINUOUS
10
2.68832
20
-1.93369
11
2.68972
21
-1.93443
0
LINE
8
BLACK
6
CONTINUOUS
10
2.68972
20
-1.93443
11
2.69094
21
-1.93543
0
LINE
8
BLACK
6
CONTINUOUS
10
2.69094
20
-1.93543
11
2.69195
21
-1.93666
0
LINE
8
BLACK
6
CONTINUOUS
10
2.69195
20
-1.93666
11
2.69269
21
-1.93805
0
LINE
8
BLACK
6
CONTINUOUS
10
2.69269
20
-1.93805
11
2.69315
21
-1.93957
0
LINE
8
BLACK
6
CONTINUOUS
10
2.69315
20
-1.93957
11
2.69331
21
-1.94114
0
LINE
8
BLACK
6
CONTINUOUS
10
2.69331
20
-1.94114
11
2.69331
21
-1.99193
0
LINE
8
BLACK
6
CONTINUOUS
10
2.69331
20
-1.99193
11
2.69315
21
-1.9935
0
LINE
8
BLACK
6
CONTINUOUS
10
2.69315
20
-1.9935
11
2.69269
21
-1.99502
0
LINE
8
BLACK
6
CONTINUOUS
10
2.69269
20
-1.99502
11
2.69195
21
-1.99641
0
LINE
8
BLACK
6
CONTINUOUS
10
2.69195
20
-1.99641
11
2.69094
21
-1.99764
0
LINE
8
BLACK
6
CONTINUOUS
10
2.69094
20
-1.99764
11
2.68972
21
-1.99864
0
LINE
8
BLACK
6
CONTINUOUS
10
2.68972
20
-1.99864
11
2.68832
21
-1.99939
0
LINE
8
BLACK
6
CONTINUOUS
10
2.68832
20
-1.99939
11
2.68681
21
-1.99984
0
LINE
8
BLACK
6
CONTINUOUS
10
2.68681
20
-1.99984
11
2.68524
21
-2
0
LINE
8
BLACK
6
CONTINUOUS
10
2.68524
20
-2
11
2.66909
21
-2
0
LINE
8
BLACK
6
CONTINUOUS
10
2.66909
20
-2
11
2.66752
21
-1.99984
0
LINE
8
BLACK
6
CONTINUOUS
10
2.66752
20
-1.99984
11
2.66601
21
-1.99939
0
LINE
8
BLACK
6
CONTINUOUS
10
2.66601
20
-1.99939
11
2.66461
21
-1.99864
0
LINE
8
BLACK
6
CONTINUOUS
10
2.66461
20
-1.99864
11
2.66339
21
-1.99764
0
LINE
8
BLACK
6
CONTINUOUS
10
2.66339
20
-1.99764
11
2.66238
21
-1.99641
0
LINE
8
BLACK
6
CONTINUOUS
10
2.66238
20
-1.99641
11
2.66164
21
-1.99502
0
LINE
8
BLACK
6
CONTINUOUS
10
2.66164
20
-1.99502
11
2.66118
21
-1.9935
0
LINE
8
BLACK
6
CONTINUOUS
10
2.66118
20
-1.9935
11
2.66102
21
-1.99193
0
LINE
8
BLACK
6
CONTINUOUS
10
2.66102
20
-1.99193
11
2.66102
21
-1.94114
0
LINE
8
BLACK
6
CONTINUOUS
10
2.66102
20
-1.94114
11
2.66118
21
-1.93957
0
LINE
8
BLACK
6
CONTINUOUS
10
2.66118
20
-1.93957
11
2.66164
21
-1.93805
0
LINE
8
BLACK
6
CONTINUOUS
10
2.66164
20
-1.93805
11
2.66238
21
-1.93666
0
LINE
8
BLACK
6
CONTINUOUS
10
2.66238
20
-1.93666
11
2.66339
21
-1.93543
0
LINE
8
BLACK
6
CONTINUOUS
10
2.66339
20
-1.93543
11
2.66461
21
-1.93443
0
LINE
8
BLACK
6
CONTINUOUS
10
2.66461
20
-1.93443
11
2.66601
21
-1.93369
0
LINE
8
BLACK
6
CONTINUOUS
10
2.66601
20
-1.93369
11
2.66752
21
-1.93323
0
LINE
8
BLACK
6
CONTINUOUS
10
2.66752
20
-1.93323
11
2.66909
21
-1.93307
0
LINE
8
BLACK
6
CONTINUOUS
10
2.66909
20
-1.93307
11
2.68524
21
-1.93307
0
LINE
8
BLACK
6
CONTINUOUS
10
2.68524
20
-1.93307
11
2.68681
21
-1.93323
0
LINE
8
BLACK
6
CONTINUOUS
10
2.90984
20
-2
11
2.87756
21
-2
0
LINE
8
BLACK
6
CONTINUOUS
10
2.87756
20
-2
11
2.87756
21
-1.93307
0
LINE
8
BLACK
6
CONTINUOUS
10
2.87756
20
-1.93307
11
2.90984
21
-1.93307
0
LINE
8
BLACK
6
CONTINUOUS
10
2.90984
20
-1.93307
11
2.90984
21
-2
0
LINE
8
BLACK
6
CONTINUOUS
10
2.84429
20
-1.93323
11
2.84581
21
-1.93369
0
LINE
8
BLACK
6
CONTINUOUS
10
2.84581
20
-1.93369
11
2.8472
21
-1.93443
0
LINE
8
BLACK
6
CONTINUOUS
10
2.8472
20
-1.93443
11
2.84842
21
-1.93543
0
LINE
8
BLACK
6
CONTINUOUS
10
2.84842
20
-1.93543
11
2.84943
21
-1.93666
0
LINE
8
BLACK
6
CONTINUOUS
10
2.84943
20
-1.93666
11
2.85017
21
-1.93805
0
LINE
8
BLACK
6
CONTINUOUS
10
2.85017
20
-1.93805
11
2.85063
21
-1.93957
0
LINE
8
BLACK
6
CONTINUOUS
10
2.85063
20
-1.93957
11
2.85079
21
-1.94114
0
LINE
8
BLACK
6
CONTINUOUS
10
2.85079
20
-1.94114
11
2.85079
21
-1.99193
0
LINE
8
BLACK
6
CONTINUOUS
10
2.85079
20
-1.99193
11
2.85063
21
-1.9935
0
LINE
8
BLACK
6
CONTINUOUS
10
2.85063
20
-1.9935
11
2.85017
21
-1.99502
0
LINE
8
BLACK
6
CONTINUOUS
10
2.85017
20
-1.99502
11
2.84943
21
-1.99641
0
LINE
8
BLACK
6
CONTINUOUS
10
2.84943
20
-1.99641
11
2.84842
21
-1.99764
0
LINE
8
BLACK
6
CONTINUOUS
10
2.84842
20
-1.99764
11
2.8472
21
-1.99864
0
LINE
8
BLACK
6
CONTINUOUS
10
2.8472
20
-1.99864
11
2.84581
21
-1.99939
0
LINE
8
BLACK
6
CONTINUOUS
10
2.84581
20
-1.99939
11
2.84429
21
-1.99984
0
LINE
8
BLACK
6
CONTINUOUS
10
2.84429
20
-1.99984
11
2.84272
21
-2
0
LINE
8
BLACK
6
CONTINUOUS
10
2.84272
20
-2
11
2.82657
21
-2
0
LINE
8
BLACK
6
CONTINUOUS
10
2.82657
20
-2
11
2.825
21
-1.99984
0
LINE
8
BLACK
6
CONTINUOUS
10
2.825
20
-1.99984
11
2.82349
21
-1.99939
0
LINE
8
BLACK
6
CONTINUOUS
10
2.82349
20
-1.99939
11
2.82209
21
-1.99864
0
LINE
8
BLACK
6
CONTINUOUS
10
2.82209
20
-1.99864
11
2.82087
21
-1.99764
0
LINE
8
BLACK
6
CONTINUOUS
10
2.82087
20
-1.99764
11
2.81986
21
-1.99641
0
LINE
8
BLACK
6
CONTINUOUS
10
2.81986
20
-1.99641
11
2.81912
21
-1.99502
0
LINE
8
BLACK
6
CONTINUOUS
10
2.81912
20
-1.99502
11
2.81866
21
-1.9935
0
LINE
8
BLACK
6
CONTINUOUS
10
2.81866
20
-1.9935
11
2.8185
21
-1.99193
0
LINE
8
BLACK
6
CONTINUOUS
10
2.8185
20
-1.99193
11
2.8185
21
-1.94114
0
LINE
8
BLACK
6
CONTINUOUS
10
2.8185
20
-1.94114
11
2.81866
21
-1.93957
0
LINE
8
BLACK
6
CONTINUOUS
10
2.81866
20
-1.93957
11
2.81912
21
-1.93805
0
LINE
8
BLACK
6
CONTINUOUS
10
2.81912
20
-1.93805
11
2.81986
21
-1.93666
0
LINE
8
BLACK
6
CONTINUOUS
10
2.81986
20
-1.93666
11
2.82087
21
-1.93543
0
LINE
8
BLACK
6
CONTINUOUS
10
2.82087
20
-1.93543
11
2.82209
21
-1.93443
0
LINE
8
BLACK
6
CONTINUOUS
10
2.82209
20
-1.93443
11
2.82349
21
-1.93369
0
LINE
8
BLACK
6
CONTINUOUS
10
2.82349
20
-1.93369
11
2.825
21
-1.93323
0
LINE
8
BLACK
6
CONTINUOUS
10
2.825
20
-1.93323
11
2.82657
21
-1.93307
0
LINE
8
BLACK
6
CONTINUOUS
10
2.82657
20
-1.93307
11
2.84272
21
-1.93307
0
LINE
8
BLACK
6
CONTINUOUS
10
2.84272
20
-1.93307
11
2.84429
21
-1.93323
0
LINE
8
BLACK
6
CONTINUOUS
10
3.34387
20
-1.93752
11
3.34498
21
-1.93785
0
LINE
8
BLACK
6
CONTINUOUS
10
3.34498
20
-1.93785
11
3.346
21
-1.9384
0
LINE
8
BLACK
6
CONTINUOUS
10
3.346
20
-1.9384
11
3.34689
21
-1.93913
0
LINE
8
BLACK
6
CONTINUOUS
10
3.34689
20
-1.93913
11
3.34763
21
-1.94003
0
LINE
8
BLACK
6
CONTINUOUS
10
3.34763
20
-1.94003
11
3.34817
21
-1.94105
0
LINE
8
BLACK
6
CONTINUOUS
10
3.34817
20
-1.94105
11
3.34851
21
-1.94215
0
LINE
8
BLACK
6
CONTINUOUS
10
3.34851
20
-1.94215
11
3.34862
21
-1.94331
0
LINE
8
BLACK
6
CONTINUOUS
10
3.34862
20
-1.94331
11
3.34862
21
-1.95512
0
LINE
8
BLACK
6
CONTINUOUS
10
3.34862
20
-1.95512
11
3.34851
21
-1.95627
0
LINE
8
BLACK
6
CONTINUOUS
10
3.34851
20
-1.95627
11
3.34817
21
-1.95738
0
LINE
8
BLACK
6
CONTINUOUS
10
3.34817
20
-1.95738
11
3.34763
21
-1.9584
0
LINE
8
BLACK
6
CONTINUOUS
10
3.34763
20
-1.9584
11
3.34689
21
-1.95929
0
LINE
8
BLACK
6
CONTINUOUS
10
3.34689
20
-1.95929
11
3.346
21
-1.96003
0
LINE
8
BLACK
6
CONTINUOUS
10
3.346
20
-1.96003
11
3.34498
21
-1.96057
0
LINE
8
BLACK
6
CONTINUOUS
10
3.34498
20
-1.96057
11
3.34387
21
-1.96091
0
LINE
8
BLACK
6
CONTINUOUS
10
3.34387
20
-1.96091
11
3.34272
21
-1.96102
0
LINE
8
BLACK
6
CONTINUOUS
10
3.34272
20
-1.96102
11
3.2935
21
-1.96102
0
LINE
8
BLACK
6
CONTINUOUS
10
3.2935
20
-1.96102
11
3.29235
21
-1.96091
0
LINE
8
BLACK
6
CONTINUOUS
10
3.29235
20
-1.96091
11
3.29124
21
-1.96057
0
LINE
8
BLACK
6
CONTINUOUS
10
3.29124
20
-1.96057
11
3.29022
21
-1.96003
0
LINE
8
BLACK
6
CONTINUOUS
10
3.29022
20
-1.96003
11
3.28933
21
-1.95929
0
LINE
8
BLACK
6
CONTINUOUS
10
3.28933
20
-1.95929
11
3.28859
21
-1.9584
0
LINE
8
BLACK
6
CONTINUOUS
10
3.28859
20
-1.9584
11
3.28805
21
-1.95738
0
LINE
8
BLACK
6
CONTINUOUS
10
3.28805
20
-1.95738
11
3.28771
21
-1.95627
0
LINE
8
BLACK
6
CONTINUOUS
10
3.28771
20
-1.95627
11
3.2876
21
-1.95512
0
LINE
8
BLACK
6
CONTINUOUS
10
3.2876
20
-1.95512
11
3.2876
21
-1.94331
0
LINE
8
BLACK
6
CONTINUOUS
10
3.2876
20
-1.94331
11
3.28771
21
-1.94215
0
LINE
8
BLACK
6
CONTINUOUS
10
3.28771
20
-1.94215
11
3.28805
21
-1.94105
0
LINE
8
BLACK
6
CONTINUOUS
10
3.28805
20
-1.94105
11
3.28859
21
-1.94003
0
LINE
8
BLACK
6
CONTINUOUS
10
3.28859
20
-1.94003
11
3.28933
21
-1.93913
0
LINE
8
BLACK
6
CONTINUOUS
10
3.28933
20
-1.93913
11
3.29022
21
-1.9384
0
LINE
8
BLACK
6
CONTINUOUS
10
3.29022
20
-1.9384
11
3.29124
21
-1.93785
0
LINE
8
BLACK
6
CONTINUOUS
10
3.29124
20
-1.93785
11
3.29235
21
-1.93752
0
LINE
8
BLACK
6
CONTINUOUS
10
3.29235
20
-1.93752
11
3.2935
21
-1.9374
0
LINE
8
BLACK
6
CONTINUOUS
10
3.2935
20
-1.9374
11
3.34272
21
-1.9374
0
LINE
8
BLACK
6
CONTINUOUS
10
3.34272
20
-1.9374
11
3.34387
21
-1.93752
0
LINE
8
BLACK
6
CONTINUOUS
10
3.34387
20
-1.89814
11
3.34498
21
-1.89848
0
LINE
8
BLACK
6
CONTINUOUS
10
3.34498
20
-1.89848
11
3.346
21
-1.89903
0
LINE
8
BLACK
6
CONTINUOUS
10
3.346
20
-1.89903
11
3.34689
21
-1.89976
0
LINE
8
BLACK
6
CONTINUOUS
10
3.34689
20
-1.89976
11
3.34763
21
-1.90066
0
LINE
8
BLACK
6
CONTINUOUS
10
3.34763
20
-1.90066
11
3.34817
21
-1.90168
0
LINE
8
BLACK
6
CONTINUOUS
10
3.34817
20
-1.90168
11
3.34851
21
-1.90278
0
LINE
8
BLACK
6
CONTINUOUS
10
3.34851
20
-1.90278
11
3.34862
21
-1.90394
0
LINE
8
BLACK
6
CONTINUOUS
10
3.34862
20
-1.90394
11
3.34862
21
-1.91575
0
LINE
8
BLACK
6
CONTINUOUS
10
3.34862
20
-1.91575
11
3.34851
21
-1.9169
0
LINE
8
BLACK
6
CONTINUOUS
10
3.34851
20
-1.9169
11
3.34817
21
-1.91801
0
LINE
8
BLACK
6
CONTINUOUS
10
3.34817
20
-1.91801
11
3.34763
21
-1.91903
0
LINE
8
BLACK
6
CONTINUOUS
10
3.34763
20
-1.91903
11
3.34689
21
-1.91992
0
LINE
8
BLACK
6
CONTINUOUS
10
3.34689
20
-1.91992
11
3.346
21
-1.92066
0
LINE
8
BLACK
6
CONTINUOUS
10
3.346
20
-1.92066
11
3.34498
21
-1.9212
0
LINE
8
BLACK
6
CONTINUOUS
10
3.34498
20
-1.9212
11
3.34387
21
-1.92154
0
LINE
8
BLACK
6
CONTINUOUS
10
3.34387
20
-1.92154
11
3.34272
21
-1.92165
0
LINE
8
BLACK
6
CONTINUOUS
10
3.34272
20
-1.92165
11
3.2935
21
-1.92165
0
LINE
8
BLACK
6
CONTINUOUS
10
3.2935
20
-1.92165
11
3.29235
21
-1.92154
0
LINE
8
BLACK
6
CONTINUOUS
10
3.29235
20
-1.92154
11
3.29124
21
-1.9212
0
LINE
8
BLACK
6
CONTINUOUS
10
3.29124
20
-1.9212
11
3.29022
21
-1.92066
0
LINE
8
BLACK
6
CONTINUOUS
10
3.29022
20
-1.92066
11
3.28933
21
-1.91992
0
LINE
8
BLACK
6
CONTINUOUS
10
3.28933
20
-1.91992
11
3.28859
21
-1.91903
0
LINE
8
BLACK
6
CONTINUOUS
10
3.28859
20
-1.91903
11
3.28805
21
-1.91801
0
LINE
8
BLACK
6
CONTINUOUS
10
3.28805
20
-1.91801
11
3.28771
21
-1.9169
0
LINE
8
BLACK
6
CONTINUOUS
10
3.28771
20
-1.9169
11
3.2876
21
-1.91575
0
LINE
8
BLACK
6
CONTINUOUS
10
3.2876
20
-1.91575
11
3.2876
21
-1.90394
0
LINE
8
BLACK
6
CONTINUOUS
10
3.2876
20
-1.90394
11
3.28771
21
-1.90278
0
LINE
8
BLACK
6
CONTINUOUS
10
3.28771
20
-1.90278
11
3.28805
21
-1.90168
0
LINE
8
BLACK
6
CONTINUOUS
10
3.28805
20
-1.90168
11
3.28859
21
-1.90066
0
LINE
8
BLACK
6
CONTINUOUS
10
3.28859
20
-1.90066
11
3.28933
21
-1.89976
0
LINE
8
BLACK
6
CONTINUOUS
10
3.28933
20
-1.89976
11
3.29022
21
-1.89903
0
LINE
8
BLACK
6
CONTINUOUS
10
3.29022
20
-1.89903
11
3.29124
21
-1.89848
0
LINE
8
BLACK
6
CONTINUOUS
10
3.29124
20
-1.89848
11
3.29235
21
-1.89814
0
LINE
8
BLACK
6
CONTINUOUS
10
3.29235
20
-1.89814
11
3.2935
21
-1.89803
0
LINE
8
BLACK
6
CONTINUOUS
10
3.2935
20
-1.89803
11
3.34272
21
-1.89803
0
LINE
8
BLACK
6
CONTINUOUS
10
3.34272
20
-1.89803
11
3.34387
21
-1.89814
0
LINE
8
BLACK
6
CONTINUOUS
10
3.49818
20
-1.83523
11
3.50003
21
-1.83579
0
LINE
8
BLACK
6
CONTINUOUS
10
3.50003
20
-1.83579
11
3.50173
21
-1.8367
0
LINE
8
BLACK
6
CONTINUOUS
10
3.50173
20
-1.8367
11
3.50322
21
-1.83792
0
LINE
8
BLACK
6
CONTINUOUS
10
3.50322
20
-1.83792
11
3.50444
21
-1.83941
0
LINE
8
BLACK
6
CONTINUOUS
10
3.50444
20
-1.83941
11
3.50535
21
-1.84112
0
LINE
8
BLACK
6
CONTINUOUS
10
3.50535
20
-1.84112
11
3.50591
21
-1.84296
0
LINE
8
BLACK
6
CONTINUOUS
10
3.50591
20
-1.84296
11
3.5061
21
-1.84488
0
LINE
8
BLACK
6
CONTINUOUS
10
3.5061
20
-1.84488
11
3.5061
21
-1.87244
0
LINE
8
BLACK
6
CONTINUOUS
10
3.5061
20
-1.87244
11
3.50591
21
-1.87436
0
LINE
8
BLACK
6
CONTINUOUS
10
3.50591
20
-1.87436
11
3.50535
21
-1.87621
0
LINE
8
BLACK
6
CONTINUOUS
10
3.50535
20
-1.87621
11
3.50444
21
-1.87791
0
LINE
8
BLACK
6
CONTINUOUS
10
3.50444
20
-1.87791
11
3.50322
21
-1.8794
0
LINE
8
BLACK
6
CONTINUOUS
10
3.50322
20
-1.8794
11
3.50173
21
-1.88062
0
LINE
8
BLACK
6
CONTINUOUS
10
3.50173
20
-1.88062
11
3.50003
21
-1.88153
0
LINE
8
BLACK
6
CONTINUOUS
10
3.50003
20
-1.88153
11
3.49818
21
-1.88209
0
LINE
8
BLACK
6
CONTINUOUS
10
3.49818
20
-1.88209
11
3.49626
21
-1.88228
0
LINE
8
BLACK
6
CONTINUOUS
10
3.49626
20
-1.88228
11
3.44508
21
-1.88228
0
LINE
8
BLACK
6
CONTINUOUS
10
3.44508
20
-1.88228
11
3.44316
21
-1.88209
0
LINE
8
BLACK
6
CONTINUOUS
10
3.44316
20
-1.88209
11
3.44131
21
-1.88153
0
LINE
8
BLACK
6
CONTINUOUS
10
3.44131
20
-1.88153
11
3.43961
21
-1.88062
0
LINE
8
BLACK
6
CONTINUOUS
10
3.43961
20
-1.88062
11
3.43812
21
-1.8794
0
LINE
8
BLACK
6
CONTINUOUS
10
3.43812
20
-1.8794
11
3.43689
21
-1.87791
0
LINE
8
BLACK
6
CONTINUOUS
10
3.43689
20
-1.87791
11
3.43599
21
-1.87621
0
LINE
8
BLACK
6
CONTINUOUS
10
3.43599
20
-1.87621
11
3.43543
21
-1.87436
0
LINE
8
BLACK
6
CONTINUOUS
10
3.43543
20
-1.87436
11
3.43524
21
-1.87244
0
LINE
8
BLACK
6
CONTINUOUS
10
3.43524
20
-1.87244
11
3.43524
21
-1.84488
0
LINE
8
BLACK
6
CONTINUOUS
10
3.43524
20
-1.84488
11
3.43543
21
-1.84296
0
LINE
8
BLACK
6
CONTINUOUS
10
3.43543
20
-1.84296
11
3.43599
21
-1.84112
0
LINE
8
BLACK
6
CONTINUOUS
10
3.43599
20
-1.84112
11
3.43689
21
-1.83941
0
LINE
8
BLACK
6
CONTINUOUS
10
3.43689
20
-1.83941
11
3.43812
21
-1.83792
0
LINE
8
BLACK
6
CONTINUOUS
10
3.43812
20
-1.83792
11
3.43961
21
-1.8367
0
LINE
8
BLACK
6
CONTINUOUS
10
3.43961
20
-1.8367
11
3.44131
21
-1.83579
0
LINE
8
BLACK
6
CONTINUOUS
10
3.44131
20
-1.83579
11
3.44316
21
-1.83523
0
LINE
8
BLACK
6
CONTINUOUS
10
3.44316
20
-1.83523
11
3.44508
21
-1.83504
0
LINE
8
BLACK
6
CONTINUOUS
10
3.44508
20
-1.83504
11
3.49626
21
-1.83504
0
LINE
8
BLACK
6
CONTINUOUS
10
3.49626
20
-1.83504
11
3.49818
21
-1.83523
0
LINE
8
BLACK
6
CONTINUOUS
10
7.01609
20
-1.81554
11
7.01794
21
-1.8161
0
LINE
8
BLACK
6
CONTINUOUS
10
7.01794
20
-1.8161
11
7.01964
21
-1.81701
0
LINE
8
BLACK
6
CONTINUOUS
10
7.01964
20
-1.81701
11
7.02113
21
-1.81824
0
LINE
8
BLACK
6
CONTINUOUS
10
7.02113
20
-1.81824
11
7.02236
21
-1.81973
0
LINE
8
BLACK
6
CONTINUOUS
10
7.02236
20
-1.81973
11
7.02327
21
-1.82143
0
LINE
8
BLACK
6
CONTINUOUS
10
7.02327
20
-1.82143
11
7.02383
21
-1.82328
0
LINE
8
BLACK
6
CONTINUOUS
10
7.02383
20
-1.82328
11
7.02402
21
-1.8252
0
LINE
8
BLACK
6
CONTINUOUS
10
7.02402
20
-1.8252
11
7.02402
21
-1.84488
0
LINE
8
BLACK
6
CONTINUOUS
10
7.02402
20
-1.84488
11
7.02383
21
-1.8468
0
LINE
8
BLACK
6
CONTINUOUS
10
7.02383
20
-1.8468
11
7.02327
21
-1.84865
0
LINE
8
BLACK
6
CONTINUOUS
10
7.02327
20
-1.84865
11
7.02236
21
-1.85035
0
LINE
8
BLACK
6
CONTINUOUS
10
7.02236
20
-1.85035
11
7.02113
21
-1.85184
0
LINE
8
BLACK
6
CONTINUOUS
10
7.02113
20
-1.85184
11
7.01964
21
-1.85307
0
LINE
8
BLACK
6
CONTINUOUS
10
7.01964
20
-1.85307
11
7.01794
21
-1.85398
0
LINE
8
BLACK
6
CONTINUOUS
10
7.01794
20
-1.85398
11
7.01609
21
-1.85454
0
LINE
8
BLACK
6
CONTINUOUS
10
7.01609
20
-1.85454
11
7.01417
21
-1.85472
0
LINE
8
BLACK
6
CONTINUOUS
10
7.01417
20
-1.85472
11
6.97677
21
-1.85472
0
LINE
8
BLACK
6
CONTINUOUS
10
6.97677
20
-1.85472
11
6.97485
21
-1.85454
0
LINE
8
BLACK
6
CONTINUOUS
10
6.97485
20
-1.85454
11
6.97301
21
-1.85398
0
LINE
8
BLACK
6
CONTINUOUS
10
6.97301
20
-1.85398
11
6.9713
21
-1.85307
0
LINE
8
BLACK
6
CONTINUOUS
10
6.9713
20
-1.85307
11
6.96981
21
-1.85184
0
LINE
8
BLACK
6
CONTINUOUS
10
6.96981
20
-1.85184
11
6.96859
21
-1.85035
0
LINE
8
BLACK
6
CONTINUOUS
10
6.96859
20
-1.85035
11
6.96768
21
-1.84865
0
LINE
8
BLACK
6
CONTINUOUS
10
6.96768
20
-1.84865
11
6.96712
21
-1.8468
0
LINE
8
BLACK
6
CONTINUOUS
10
6.96712
20
-1.8468
11
6.96693
21
-1.84488
0
LINE
8
BLACK
6
CONTINUOUS
10
6.96693
20
-1.84488
11
6.96693
21
-1.8252
0
LINE
8
BLACK
6
CONTINUOUS
10
6.96693
20
-1.8252
11
6.96712
21
-1.82328
0
LINE
8
BLACK
6
CONTINUOUS
10
6.96712
20
-1.82328
11
6.96768
21
-1.82143
0
LINE
8
BLACK
6
CONTINUOUS
10
6.96768
20
-1.82143
11
6.96859
21
-1.81973
0
LINE
8
BLACK
6
CONTINUOUS
10
6.96859
20
-1.81973
11
6.96981
21
-1.81824
0
LINE
8
BLACK
6
CONTINUOUS
10
6.96981
20
-1.81824
11
6.9713
21
-1.81701
0
LINE
8
BLACK
6
CONTINUOUS
10
6.9713
20
-1.81701
11
6.97301
21
-1.8161
0
LINE
8
BLACK
6
CONTINUOUS
10
6.97301
20
-1.8161
11
6.97485
21
-1.81554
0
LINE
8
BLACK
6
CONTINUOUS
10
6.97485
20
-1.81554
11
6.97677
21
-1.81535
0
LINE
8
BLACK
6
CONTINUOUS
10
6.97677
20
-1.81535
11
7.01417
21
-1.81535
0
LINE
8
BLACK
6
CONTINUOUS
10
7.01417
20
-1.81535
11
7.01609
21
-1.81554
0
LINE
8
BLACK
6
CONTINUOUS
10
8.14995
20
-1.81161
11
8.1518
21
-1.81217
0
LINE
8
BLACK
6
CONTINUOUS
10
8.1518
20
-1.81217
11
8.1535
21
-1.81308
0
LINE
8
BLACK
6
CONTINUOUS
10
8.1535
20
-1.81308
11
8.15499
21
-1.8143
0
LINE
8
BLACK
6
CONTINUOUS
10
8.15499
20
-1.8143
11
8.15622
21
-1.81579
0
LINE
8
BLACK
6
CONTINUOUS
10
8.15622
20
-1.81579
11
8.15712
21
-1.81749
0
LINE
8
BLACK
6
CONTINUOUS
10
8.15712
20
-1.81749
11
8.15768
21
-1.81934
0
LINE
8
BLACK
6
CONTINUOUS
10
8.15768
20
-1.81934
11
8.15787
21
-1.82126
0
LINE
8
BLACK
6
CONTINUOUS
10
8.15787
20
-1.82126
11
8.15787
21
-1.84094
0
LINE
8
BLACK
6
CONTINUOUS
10
8.15787
20
-1.84094
11
8.15768
21
-1.84287
0
LINE
8
BLACK
6
CONTINUOUS
10
8.15768
20
-1.84287
11
8.15712
21
-1.84471
0
LINE
8
BLACK
6
CONTINUOUS
10
8.15712
20
-1.84471
11
8.15622
21
-1.84641
0
LINE
8
BLACK
6
CONTINUOUS
10
8.15622
20
-1.84641
11
8.15499
21
-1.8479
0
LINE
8
BLACK
6
CONTINUOUS
10
8.15499
20
-1.8479
11
8.1535
21
-1.84913
0
LINE
8
BLACK
6
CONTINUOUS
10
8.1535
20
-1.84913
11
8.1518
21
-1.85004
0
LINE
8
BLACK
6
CONTINUOUS
10
8.1518
20
-1.85004
11
8.14995
21
-1.8506
0
LINE
8
BLACK
6
CONTINUOUS
10
8.14995
20
-1.8506
11
8.14803
21
-1.85079
0
LINE
8
BLACK
6
CONTINUOUS
10
8.14803
20
-1.85079
11
8.11063
21
-1.85079
0
LINE
8
BLACK
6
CONTINUOUS
10
8.11063
20
-1.85079
11
8.10871
21
-1.8506
0
LINE
8
BLACK
6
CONTINUOUS
10
8.10871
20
-1.8506
11
8.10686
21
-1.85004
0
LINE
8
BLACK
6
CONTINUOUS
10
8.10686
20
-1.85004
11
8.10516
21
-1.84913
0
LINE
8
BLACK
6
CONTINUOUS
10
8.10516
20
-1.84913
11
8.10367
21
-1.8479
0
LINE
8
BLACK
6
CONTINUOUS
10
8.10367
20
-1.8479
11
8.10245
21
-1.84641
0
LINE
8
BLACK
6
CONTINUOUS
10
8.10245
20
-1.84641
11
8.10154
21
-1.84471
0
LINE
8
BLACK
6
CONTINUOUS
10
8.10154
20
-1.84471
11
8.10098
21
-1.84287
0
LINE
8
BLACK
6
CONTINUOUS
10
8.10098
20
-1.84287
11
8.10079
21
-1.84094
0
LINE
8
BLACK
6
CONTINUOUS
10
8.10079
20
-1.84094
11
8.10079
21
-1.82126
0
LINE
8
BLACK
6
CONTINUOUS
10
8.10079
20
-1.82126
11
8.10098
21
-1.81934
0
LINE
8
BLACK
6
CONTINUOUS
10
8.10098
20
-1.81934
11
8.10154
21
-1.81749
0
LINE
8
BLACK
6
CONTINUOUS
10
8.10154
20
-1.81749
11
8.10245
21
-1.81579
0
LINE
8
BLACK
6
CONTINUOUS
10
8.10245
20
-1.81579
11
8.10367
21
-1.8143
0
LINE
8
BLACK
6
CONTINUOUS
10
8.10367
20
-1.8143
11
8.10516
21
-1.81308
0
LINE
8
BLACK
6
CONTINUOUS
10
8.10516
20
-1.81308
11
8.10686
21
-1.81217
0
LINE
8
BLACK
6
CONTINUOUS
10
8.10686
20
-1.81217
11
8.10871
21
-1.81161
0
LINE
8
BLACK
6
CONTINUOUS
10
8.10871
20
-1.81161
11
8.11063
21
-1.81142
0
LINE
8
BLACK
6
CONTINUOUS
10
8.11063
20
-1.81142
11
8.14803
21
-1.81142
0
LINE
8
BLACK
6
CONTINUOUS
10
8.14803
20
-1.81142
11
8.14995
21
-1.81161
0
LINE
8
BLACK
6
CONTINUOUS
10
9.19685
20
-1.84921
11
9.09646
21
-1.84921
0
LINE
8
BLACK
6
CONTINUOUS
10
9.09646
20
-1.84921
11
9.09646
21
-1.75079
0
LINE
8
BLACK
6
CONTINUOUS
10
9.09646
20
-1.75079
11
9.19685
21
-1.75079
0
LINE
8
BLACK
6
CONTINUOUS
10
9.19685
20
-1.75079
11
9.19685
21
-1.84921
0
LINE
8
BLACK
6
CONTINUOUS
10
7.12539
20
-1.84331
11
7.05846
21
-1.84331
0
LINE
8
BLACK
6
CONTINUOUS
10
7.05846
20
-1.84331
11
7.05846
21
-1.81102
0
LINE
8
BLACK
6
CONTINUOUS
10
7.05846
20
-1.81102
11
7.12539
21
-1.81102
0
LINE
8
BLACK
6
CONTINUOUS
10
7.12539
20
-1.81102
11
7.12539
21
-1.84331
0
LINE
8
BLACK
6
CONTINUOUS
10
7.31968
20
-1.81118
11
7.3212
21
-1.81164
0
LINE
8
BLACK
6
CONTINUOUS
10
7.3212
20
-1.81164
11
7.32259
21
-1.81238
0
LINE
8
BLACK
6
CONTINUOUS
10
7.32259
20
-1.81238
11
7.32382
21
-1.81339
0
LINE
8
BLACK
6
CONTINUOUS
10
7.32382
20
-1.81339
11
7.32482
21
-1.81461
0
LINE
8
BLACK
6
CONTINUOUS
10
7.32482
20
-1.81461
11
7.32557
21
-1.81601
0
LINE
8
BLACK
6
CONTINUOUS
10
7.32557
20
-1.81601
11
7.32603
21
-1.81752
0
LINE
8
BLACK
6
CONTINUOUS
10
7.32603
20
-1.81752
11
7.32618
21
-1.81909
0
LINE
8
BLACK
6
CONTINUOUS
10
7.32618
20
-1.81909
11
7.32618
21
-1.83524
0
LINE
8
BLACK
6
CONTINUOUS
10
7.32618
20
-1.83524
11
7.32603
21
-1.83681
0
LINE
8
BLACK
6
CONTINUOUS
10
7.32603
20
-1.83681
11
7.32557
21
-1.83832
0
LINE
8
BLACK
6
CONTINUOUS
10
7.32557
20
-1.83832
11
7.32482
21
-1.83972
0
LINE
8
BLACK
6
CONTINUOUS
10
7.32482
20
-1.83972
11
7.32382
21
-1.84094
0
LINE
8
BLACK
6
CONTINUOUS
10
7.32382
20
-1.84094
11
7.32259
21
-1.84195
0
LINE
8
BLACK
6
CONTINUOUS
10
7.32259
20
-1.84195
11
7.3212
21
-1.84269
0
LINE
8
BLACK
6
CONTINUOUS
10
7.3212
20
-1.84269
11
7.31968
21
-1.84315
0
LINE
8
BLACK
6
CONTINUOUS
10
7.31968
20
-1.84315
11
7.31811
21
-1.84331
0
LINE
8
BLACK
6
CONTINUOUS
10
7.31811
20
-1.84331
11
7.26732
21
-1.84331
0
LINE
8
BLACK
6
CONTINUOUS
10
7.26732
20
-1.84331
11
7.26575
21
-1.84315
0
LINE
8
BLACK
6
CONTINUOUS
10
7.26575
20
-1.84315
11
7.26423
21
-1.84269
0
LINE
8
BLACK
6
CONTINUOUS
10
7.26423
20
-1.84269
11
7.26284
21
-1.84195
0
LINE
8
BLACK
6
CONTINUOUS
10
7.26284
20
-1.84195
11
7.26162
21
-1.84094
0
LINE
8
BLACK
6
CONTINUOUS
10
7.26162
20
-1.84094
11
7.26061
21
-1.83972
0
LINE
8
BLACK
6
CONTINUOUS
10
7.26061
20
-1.83972
11
7.25987
21
-1.83832
0
LINE
8
BLACK
6
CONTINUOUS
10
7.25987
20
-1.83832
11
7.25941
21
-1.83681
0
LINE
8
BLACK
6
CONTINUOUS
10
7.25941
20
-1.83681
11
7.25925
21
-1.83524
0
LINE
8
BLACK
6
CONTINUOUS
10
7.25925
20
-1.83524
11
7.25925
21
-1.81909
0
LINE
8
BLACK
6
CONTINUOUS
10
7.25925
20
-1.81909
11
7.25941
21
-1.81752
0
LINE
8
BLACK
6
CONTINUOUS
10
7.25941
20
-1.81752
11
7.25987
21
-1.81601
0
LINE
8
BLACK
6
CONTINUOUS
10
7.25987
20
-1.81601
11
7.26061
21
-1.81461
0
LINE
8
BLACK
6
CONTINUOUS
10
7.26061
20
-1.81461
11
7.26162
21
-1.81339
0
LINE
8
BLACK
6
CONTINUOUS
10
7.26162
20
-1.81339
11
7.26284
21
-1.81238
0
LINE
8
BLACK
6
CONTINUOUS
10
7.26284
20
-1.81238
11
7.26423
21
-1.81164
0
LINE
8
BLACK
6
CONTINUOUS
10
7.26423
20
-1.81164
11
7.26575
21
-1.81118
0
LINE
8
BLACK
6
CONTINUOUS
10
7.26575
20
-1.81118
11
7.26732
21
-1.81102
0
LINE
8
BLACK
6
CONTINUOUS
10
7.26732
20
-1.81102
11
7.31811
21
-1.81102
0
LINE
8
BLACK
6
CONTINUOUS
10
7.31811
20
-1.81102
11
7.31968
21
-1.81118
0
LINE
8
BLACK
6
CONTINUOUS
10
8.45354
20
-1.80724
11
8.45506
21
-1.8077
0
LINE
8
BLACK
6
CONTINUOUS
10
8.45506
20
-1.8077
11
8.45645
21
-1.80845
0
LINE
8
BLACK
6
CONTINUOUS
10
8.45645
20
-1.80845
11
8.45768
21
-1.80945
0
LINE
8
BLACK
6
CONTINUOUS
10
8.45768
20
-1.80945
11
8.45868
21
-1.81067
0
LINE
8
BLACK
6
CONTINUOUS
10
8.45868
20
-1.81067
11
8.45942
21
-1.81207
0
LINE
8
BLACK
6
CONTINUOUS
10
8.45942
20
-1.81207
11
8.45988
21
-1.81358
0
LINE
8
BLACK
6
CONTINUOUS
10
8.45988
20
-1.81358
11
8.46004
21
-1.81516
0
LINE
8
BLACK
6
CONTINUOUS
10
8.46004
20
-1.81516
11
8.46004
21
-1.8313
0
LINE
8
BLACK
6
CONTINUOUS
10
8.46004
20
-1.8313
11
8.45988
21
-1.83287
0
LINE
8
BLACK
6
CONTINUOUS
10
8.45988
20
-1.83287
11
8.45942
21
-1.83439
0
LINE
8
BLACK
6
CONTINUOUS
10
8.45942
20
-1.83439
11
8.45868
21
-1.83578
0
LINE
8
BLACK
6
CONTINUOUS
10
8.45868
20
-1.83578
11
8.45768
21
-1.83701
0
LINE
8
BLACK
6
CONTINUOUS
10
8.45768
20
-1.83701
11
8.45645
21
-1.83801
0
LINE
8
BLACK
6
CONTINUOUS
10
8.45645
20
-1.83801
11
8.45506
21
-1.83876
0
LINE
8
BLACK
6
CONTINUOUS
10
8.45506
20
-1.83876
11
8.45354
21
-1.83922
0
LINE
8
BLACK
6
CONTINUOUS
10
8.45354
20
-1.83922
11
8.45197
21
-1.83937
0
LINE
8
BLACK
6
CONTINUOUS
10
8.45197
20
-1.83937
11
8.40118
21
-1.83937
0
LINE
8
BLACK
6
CONTINUOUS
10
8.40118
20
-1.83937
11
8.39961
21
-1.83922
0
LINE
8
BLACK
6
CONTINUOUS
10
8.39961
20
-1.83922
11
8.39809
21
-1.83876
0
LINE
8
BLACK
6
CONTINUOUS
10
8.39809
20
-1.83876
11
8.3967
21
-1.83801
0
LINE
8
BLACK
6
CONTINUOUS
10
8.3967
20
-1.83801
11
8.39547
21
-1.83701
0
LINE
8
BLACK
6
CONTINUOUS
10
8.39547
20
-1.83701
11
8.39447
21
-1.83578
0
LINE
8
BLACK
6
CONTINUOUS
10
8.39447
20
-1.83578
11
8.39372
21
-1.83439
0
LINE
8
BLACK
6
CONTINUOUS
10
8.39372
20
-1.83439
11
8.39327
21
-1.83287
0
LINE
8
BLACK
6
CONTINUOUS
10
8.39327
20
-1.83287
11
8.39311
21
-1.8313
0
LINE
8
BLACK
6
CONTINUOUS
10
8.39311
20
-1.8313
11
8.39311
21
-1.81516
0
LINE
8
BLACK
6
CONTINUOUS
10
8.39311
20
-1.81516
11
8.39327
21
-1.81358
0
LINE
8
BLACK
6
CONTINUOUS
10
8.39327
20
-1.81358
11
8.39372
21
-1.81207
0
LINE
8
BLACK
6
CONTINUOUS
10
8.39372
20
-1.81207
11
8.39447
21
-1.81067
0
LINE
8
BLACK
6
CONTINUOUS
10
8.39447
20
-1.81067
11
8.39547
21
-1.80945
0
LINE
8
BLACK
6
CONTINUOUS
10
8.39547
20
-1.80945
11
8.3967
21
-1.80845
0
LINE
8
BLACK
6
CONTINUOUS
10
8.3967
20
-1.80845
11
8.39809
21
-1.8077
0
LINE
8
BLACK
6
CONTINUOUS
10
8.39809
20
-1.8077
11
8.39961
21
-1.80724
0
LINE
8
BLACK
6
CONTINUOUS
10
8.39961
20
-1.80724
11
8.40118
21
-1.80709
0
LINE
8
BLACK
6
CONTINUOUS
10
8.40118
20
-1.80709
11
8.45197
21
-1.80709
0
LINE
8
BLACK
6
CONTINUOUS
10
8.45197
20
-1.80709
11
8.45354
21
-1.80724
0
LINE
8
BLACK
6
CONTINUOUS
10
8.25925
20
-1.83937
11
8.19232
21
-1.83937
0
LINE
8
BLACK
6
CONTINUOUS
10
8.19232
20
-1.83937
11
8.19232
21
-1.80709
0
LINE
8
BLACK
6
CONTINUOUS
10
8.19232
20
-1.80709
11
8.25925
21
-1.80709
0
LINE
8
BLACK
6
CONTINUOUS
10
8.25925
20
-1.80709
11
8.25925
21
-1.83937
0
LINE
8
BLACK
6
CONTINUOUS
10
2.59488
20
-1.79921
11
2.5626
21
-1.79921
0
LINE
8
BLACK
6
CONTINUOUS
10
2.5626
20
-1.79921
11
2.5626
21
-1.73228
0
LINE
8
BLACK
6
CONTINUOUS
10
2.5626
20
-1.73228
11
2.59488
21
-1.73228
0
LINE
8
BLACK
6
CONTINUOUS
10
2.59488
20
-1.73228
11
2.59488
21
-1.79921
0
LINE
8
BLACK
6
CONTINUOUS
10
2.85079
20
-1.79921
11
2.8185
21
-1.79921
0
LINE
8
BLACK
6
CONTINUOUS
10
2.8185
20
-1.79921
11
2.8185
21
-1.73228
0
LINE
8
BLACK
6
CONTINUOUS
10
2.8185
20
-1.73228
11
2.85079
21
-1.73228
0
LINE
8
BLACK
6
CONTINUOUS
10
2.85079
20
-1.73228
11
2.85079
21
-1.79921
0
LINE
8
BLACK
6
CONTINUOUS
10
2.90984
20
-1.79921
11
2.87756
21
-1.79921
0
LINE
8
BLACK
6
CONTINUOUS
10
2.87756
20
-1.79921
11
2.87756
21
-1.73228
0
LINE
8
BLACK
6
CONTINUOUS
10
2.87756
20
-1.73228
11
2.90984
21
-1.73228
0
LINE
8
BLACK
6
CONTINUOUS
10
2.90984
20
-1.73228
11
2.90984
21
-1.79921
0
LINE
8
BLACK
6
CONTINUOUS
10
2.37835
20
-1.79921
11
2.34606
21
-1.79921
0
LINE
8
BLACK
6
CONTINUOUS
10
2.34606
20
-1.79921
11
2.34606
21
-1.73228
0
LINE
8
BLACK
6
CONTINUOUS
10
2.34606
20
-1.73228
11
2.37835
21
-1.73228
0
LINE
8
BLACK
6
CONTINUOUS
10
2.37835
20
-1.73228
11
2.37835
21
-1.79921
0
LINE
8
BLACK
6
CONTINUOUS
10
2.4374
20
-1.79921
11
2.40512
21
-1.79921
0
LINE
8
BLACK
6
CONTINUOUS
10
2.40512
20
-1.79921
11
2.40512
21
-1.73228
0
LINE
8
BLACK
6
CONTINUOUS
10
2.40512
20
-1.73228
11
2.4374
21
-1.73228
0
LINE
8
BLACK
6
CONTINUOUS
10
2.4374
20
-1.73228
11
2.4374
21
-1.79921
0
LINE
8
BLACK
6
CONTINUOUS
10
2.69331
20
-1.79921
11
2.66102
21
-1.79921
0
LINE
8
BLACK
6
CONTINUOUS
10
2.66102
20
-1.79921
11
2.66102
21
-1.73228
0
LINE
8
BLACK
6
CONTINUOUS
10
2.66102
20
-1.73228
11
2.69331
21
-1.73228
0
LINE
8
BLACK
6
CONTINUOUS
10
2.69331
20
-1.73228
11
2.69331
21
-1.79921
0
LINE
8
BLACK
6
CONTINUOUS
10
2.75236
20
-1.79921
11
2.72008
21
-1.79921
0
LINE
8
BLACK
6
CONTINUOUS
10
2.72008
20
-1.79921
11
2.72008
21
-1.73228
0
LINE
8
BLACK
6
CONTINUOUS
10
2.72008
20
-1.73228
11
2.75236
21
-1.73228
0
LINE
8
BLACK
6
CONTINUOUS
10
2.75236
20
-1.73228
11
2.75236
21
-1.79921
0
LINE
8
BLACK
6
CONTINUOUS
10
2.53583
20
-1.79921
11
2.50354
21
-1.79921
0
LINE
8
BLACK
6
CONTINUOUS
10
2.50354
20
-1.79921
11
2.50354
21
-1.73228
0
LINE
8
BLACK
6
CONTINUOUS
10
2.50354
20
-1.73228
11
2.53583
21
-1.73228
0
LINE
8
BLACK
6
CONTINUOUS
10
2.53583
20
-1.73228
11
2.53583
21
-1.79921
0
LINE
8
BLACK
6
CONTINUOUS
10
7.12539
20
-1.78425
11
7.05846
21
-1.78425
0
LINE
8
BLACK
6
CONTINUOUS
10
7.05846
20
-1.78425
11
7.05846
21
-1.75197
0
LINE
8
BLACK
6
CONTINUOUS
10
7.05846
20
-1.75197
11
7.12539
21
-1.75197
0
LINE
8
BLACK
6
CONTINUOUS
10
7.12539
20
-1.75197
11
7.12539
21
-1.78425
0
LINE
8
BLACK
6
CONTINUOUS
10
7.32618
20
-1.78425
11
7.25925
21
-1.78425
0
LINE
8
BLACK
6
CONTINUOUS
10
7.25925
20
-1.78425
11
7.25925
21
-1.75197
0
LINE
8
BLACK
6
CONTINUOUS
10
7.25925
20
-1.75197
11
7.32618
21
-1.75197
0
LINE
8
BLACK
6
CONTINUOUS
10
7.32618
20
-1.75197
11
7.32618
21
-1.78425
0
LINE
8
BLACK
6
CONTINUOUS
10
8.25925
20
-1.78031
11
8.19232
21
-1.78031
0
LINE
8
BLACK
6
CONTINUOUS
10
8.19232
20
-1.78031
11
8.19232
21
-1.74803
0
LINE
8
BLACK
6
CONTINUOUS
10
8.19232
20
-1.74803
11
8.25925
21
-1.74803
0
LINE
8
BLACK
6
CONTINUOUS
10
8.25925
20
-1.74803
11
8.25925
21
-1.78031
0
LINE
8
BLACK
6
CONTINUOUS
10
8.46004
20
-1.78031
11
8.39311
21
-1.78031
0
LINE
8
BLACK
6
CONTINUOUS
10
8.39311
20
-1.78031
11
8.39311
21
-1.74803
0
LINE
8
BLACK
6
CONTINUOUS
10
8.39311
20
-1.74803
11
8.46004
21
-1.74803
0
LINE
8
BLACK
6
CONTINUOUS
10
8.46004
20
-1.74803
11
8.46004
21
-1.78031
0
LINE
8
BLACK
6
CONTINUOUS
10
7.01609
20
-1.74074
11
7.01794
21
-1.7413
0
LINE
8
BLACK
6
CONTINUOUS
10
7.01794
20
-1.7413
11
7.01964
21
-1.74221
0
LINE
8
BLACK
6
CONTINUOUS
10
7.01964
20
-1.74221
11
7.02113
21
-1.74343
0
LINE
8
BLACK
6
CONTINUOUS
10
7.02113
20
-1.74343
11
7.02236
21
-1.74493
0
LINE
8
BLACK
6
CONTINUOUS
10
7.02236
20
-1.74493
11
7.02327
21
-1.74663
0
LINE
8
BLACK
6
CONTINUOUS
10
7.02327
20
-1.74663
11
7.02383
21
-1.74847
0
LINE
8
BLACK
6
CONTINUOUS
10
7.02383
20
-1.74847
11
7.02402
21
-1.75039
0
LINE
8
BLACK
6
CONTINUOUS
10
7.02402
20
-1.75039
11
7.02402
21
-1.77008
0
LINE
8
BLACK
6
CONTINUOUS
10
7.02402
20
-1.77008
11
7.02383
21
-1.772
0
LINE
8
BLACK
6
CONTINUOUS
10
7.02383
20
-1.772
11
7.02327
21
-1.77385
0
LINE
8
BLACK
6
CONTINUOUS
10
7.02327
20
-1.77385
11
7.02236
21
-1.77555
0
LINE
8
BLACK
6
CONTINUOUS
10
7.02236
20
-1.77555
11
7.02113
21
-1.77704
0
LINE
8
BLACK
6
CONTINUOUS
10
7.02113
20
-1.77704
11
7.01964
21
-1.77826
0
LINE
8
BLACK
6
CONTINUOUS
10
7.01964
20
-1.77826
11
7.01794
21
-1.77917
0
LINE
8
BLACK
6
CONTINUOUS
10
7.01794
20
-1.77917
11
7.01609
21
-1.77973
0
LINE
8
BLACK
6
CONTINUOUS
10
7.01609
20
-1.77973
11
7.01417
21
-1.77992
0
LINE
8
BLACK
6
CONTINUOUS
10
7.01417
20
-1.77992
11
6.97677
21
-1.77992
0
LINE
8
BLACK
6
CONTINUOUS
10
6.97677
20
-1.77992
11
6.97485
21
-1.77973
0
LINE
8
BLACK
6
CONTINUOUS
10
6.97485
20
-1.77973
11
6.97301
21
-1.77917
0
LINE
8
BLACK
6
CONTINUOUS
10
6.97301
20
-1.77917
11
6.9713
21
-1.77826
0
LINE
8
BLACK
6
CONTINUOUS
10
6.9713
20
-1.77826
11
6.96981
21
-1.77704
0
LINE
8
BLACK
6
CONTINUOUS
10
6.96981
20
-1.77704
11
6.96859
21
-1.77555
0
LINE
8
BLACK
6
CONTINUOUS
10
6.96859
20
-1.77555
11
6.96768
21
-1.77385
0
LINE
8
BLACK
6
CONTINUOUS
10
6.96768
20
-1.77385
11
6.96712
21
-1.772
0
LINE
8
BLACK
6
CONTINUOUS
10
6.96712
20
-1.772
11
6.96693
21
-1.77008
0
LINE
8
BLACK
6
CONTINUOUS
10
6.96693
20
-1.77008
11
6.96693
21
-1.75039
0
LINE
8
BLACK
6
CONTINUOUS
10
6.96693
20
-1.75039
11
6.96712
21
-1.74847
0
LINE
8
BLACK
6
CONTINUOUS
10
6.96712
20
-1.74847
11
6.96768
21
-1.74663
0
LINE
8
BLACK
6
CONTINUOUS
10
6.96768
20
-1.74663
11
6.96859
21
-1.74493
0
LINE
8
BLACK
6
CONTINUOUS
10
6.96859
20
-1.74493
11
6.96981
21
-1.74343
0
LINE
8
BLACK
6
CONTINUOUS
10
6.96981
20
-1.74343
11
6.9713
21
-1.74221
0
LINE
8
BLACK
6
CONTINUOUS
10
6.9713
20
-1.74221
11
6.97301
21
-1.7413
0
LINE
8
BLACK
6
CONTINUOUS
10
6.97301
20
-1.7413
11
6.97485
21
-1.74074
0
LINE
8
BLACK
6
CONTINUOUS
10
6.97485
20
-1.74074
11
6.97677
21
-1.74055
0
LINE
8
BLACK
6
CONTINUOUS
10
6.97677
20
-1.74055
11
7.01417
21
-1.74055
0
LINE
8
BLACK
6
CONTINUOUS
10
7.01417
20
-1.74055
11
7.01609
21
-1.74074
0
LINE
8
BLACK
6
CONTINUOUS
10
8.14995
20
-1.7368
11
8.1518
21
-1.73736
0
LINE
8
BLACK
6
CONTINUOUS
10
8.1518
20
-1.73736
11
8.1535
21
-1.73827
0
LINE
8
BLACK
6
CONTINUOUS
10
8.1535
20
-1.73827
11
8.15499
21
-1.7395
0
LINE
8
BLACK
6
CONTINUOUS
10
8.15499
20
-1.7395
11
8.15622
21
-1.74099
0
LINE
8
BLACK
6
CONTINUOUS
10
8.15622
20
-1.74099
11
8.15712
21
-1.74269
0
LINE
8
BLACK
6
CONTINUOUS
10
8.15712
20
-1.74269
11
8.15768
21
-1.74454
0
LINE
8
BLACK
6
CONTINUOUS
10
8.15768
20
-1.74454
11
8.15787
21
-1.74646
0
LINE
8
BLACK
6
CONTINUOUS
10
8.15787
20
-1.74646
11
8.15787
21
-1.76614
0
LINE
8
BLACK
6
CONTINUOUS
10
8.15787
20
-1.76614
11
8.15768
21
-1.76806
0
LINE
8
BLACK
6
CONTINUOUS
10
8.15768
20
-1.76806
11
8.15712
21
-1.76991
0
LINE
8
BLACK
6
CONTINUOUS
10
8.15712
20
-1.76991
11
8.15622
21
-1.77161
0
LINE
8
BLACK
6
CONTINUOUS
10
8.15622
20
-1.77161
11
8.15499
21
-1.7731
0
LINE
8
BLACK
6
CONTINUOUS
10
8.15499
20
-1.7731
11
8.1535
21
-1.77433
0
LINE
8
BLACK
6
CONTINUOUS
10
8.1535
20
-1.77433
11
8.1518
21
-1.77524
0
LINE
8
BLACK
6
CONTINUOUS
10
8.1518
20
-1.77524
11
8.14995
21
-1.7758
0
LINE
8
BLACK
6
CONTINUOUS
10
8.14995
20
-1.7758
11
8.14803
21
-1.77598
0
LINE
8
BLACK
6
CONTINUOUS
10
8.14803
20
-1.77598
11
8.11063
21
-1.77598
0
LINE
8
BLACK
6
CONTINUOUS
10
8.11063
20
-1.77598
11
8.10871
21
-1.7758
0
LINE
8
BLACK
6
CONTINUOUS
10
8.10871
20
-1.7758
11
8.10686
21
-1.77524
0
LINE
8
BLACK
6
CONTINUOUS
10
8.10686
20
-1.77524
11
8.10516
21
-1.77433
0
LINE
8
BLACK
6
CONTINUOUS
10
8.10516
20
-1.77433
11
8.10367
21
-1.7731
0
LINE
8
BLACK
6
CONTINUOUS
10
8.10367
20
-1.7731
11
8.10245
21
-1.77161
0
LINE
8
BLACK
6
CONTINUOUS
10
8.10245
20
-1.77161
11
8.10154
21
-1.76991
0
LINE
8
BLACK
6
CONTINUOUS
10
8.10154
20
-1.76991
11
8.10098
21
-1.76806
0
LINE
8
BLACK
6
CONTINUOUS
10
8.10098
20
-1.76806
11
8.10079
21
-1.76614
0
LINE
8
BLACK
6
CONTINUOUS
10
8.10079
20
-1.76614
11
8.10079
21
-1.74646
0
LINE
8
BLACK
6
CONTINUOUS
10
8.10079
20
-1.74646
11
8.10098
21
-1.74454
0
LINE
8
BLACK
6
CONTINUOUS
10
8.10098
20
-1.74454
11
8.10154
21
-1.74269
0
LINE
8
BLACK
6
CONTINUOUS
10
8.10154
20
-1.74269
11
8.10245
21
-1.74099
0
LINE
8
BLACK
6
CONTINUOUS
10
8.10245
20
-1.74099
11
8.10367
21
-1.7395
0
LINE
8
BLACK
6
CONTINUOUS
10
8.10367
20
-1.7395
11
8.10516
21
-1.73827
0
LINE
8
BLACK
6
CONTINUOUS
10
8.10516
20
-1.73827
11
8.10686
21
-1.73736
0
LINE
8
BLACK
6
CONTINUOUS
10
8.10686
20
-1.73736
11
8.10871
21
-1.7368
0
LINE
8
BLACK
6
CONTINUOUS
10
8.10871
20
-1.7368
11
8.11063
21
-1.73661
0
LINE
8
BLACK
6
CONTINUOUS
10
8.11063
20
-1.73661
11
8.14803
21
-1.73661
0
LINE
8
BLACK
6
CONTINUOUS
10
8.14803
20
-1.73661
11
8.14995
21
-1.7368
0
LINE
8
BLACK
6
CONTINUOUS
10
9.74213
20
-1.74921
11
9.64173
21
-1.74921
0
LINE
8
BLACK
6
CONTINUOUS
10
9.64173
20
-1.74921
11
9.64173
21
-1.65079
0
LINE
8
BLACK
6
CONTINUOUS
10
9.64173
20
-1.65079
11
9.74213
21
-1.65079
0
LINE
8
BLACK
6
CONTINUOUS
10
9.74213
20
-1.65079
11
9.74213
21
-1.74921
0
LINE
8
BLACK
6
CONTINUOUS
10
6.94488
20
-1.56969
11
6.84449
21
-1.56969
0
LINE
8
BLACK
6
CONTINUOUS
10
6.84449
20
-1.56969
11
6.84449
21
-1.47126
0
LINE
8
BLACK
6
CONTINUOUS
10
6.84449
20
-1.47126
11
6.94488
21
-1.47126
0
LINE
8
BLACK
6
CONTINUOUS
10
6.94488
20
-1.47126
11
6.94488
21
-1.56969
0
LINE
8
BLACK
6
CONTINUOUS
10
8.07874
20
-1.56575
11
7.97835
21
-1.56575
0
LINE
8
BLACK
6
CONTINUOUS
10
7.97835
20
-1.56575
11
7.97835
21
-1.46732
0
LINE
8
BLACK
6
CONTINUOUS
10
7.97835
20
-1.46732
11
8.07874
21
-1.46732
0
LINE
8
BLACK
6
CONTINUOUS
10
8.07874
20
-1.46732
11
8.07874
21
-1.56575
0
LINE
8
BLACK
6
CONTINUOUS
10
7.49016
20
-1.46969
11
7.38976
21
-1.46969
0
LINE
8
BLACK
6
CONTINUOUS
10
7.38976
20
-1.46969
11
7.38976
21
-1.37126
0
LINE
8
BLACK
6
CONTINUOUS
10
7.38976
20
-1.37126
11
7.49016
21
-1.37126
0
LINE
8
BLACK
6
CONTINUOUS
10
7.49016
20
-1.37126
11
7.49016
21
-1.46969
0
LINE
8
BLACK
6
CONTINUOUS
10
8.62402
20
-1.46575
11
8.52362
21
-1.46575
0
LINE
8
BLACK
6
CONTINUOUS
10
8.52362
20
-1.46575
11
8.52362
21
-1.36732
0
LINE
8
BLACK
6
CONTINUOUS
10
8.52362
20
-1.36732
11
8.62402
21
-1.36732
0
LINE
8
BLACK
6
CONTINUOUS
10
8.62402
20
-1.36732
11
8.62402
21
-1.46575
  0
ENDSEC
  0
EOF
