<?xml version="1.0" encoding="UTF-8" standalone="no"?>
<svg xmlns="http://www.w3.org/2000/svg" width="223mm" height="115.0999984741211mm" viewBox="0 0 223 115.0999984741211">
<desc>Created with Glowforge for Fusion 360. To download visit: https://cam.autodesk.com/hsmposts?p=glowforge</desc>
<!-- CAM Setup Info:
Work Area Width: 223mm
Work Area Height: 115.0999984741211mm
Work Area Too Small?: false
Stock box Upper Right: 109.5,55.54999923706055
Stock box Lower Left: -109.5,-55.54999923706055
Origin: 0,0
Selected Colors: #0000d3, #02abea, #1fb714, #dd0907, #f20884, #fbf305
-->
<g id="global-translation-frame" transform="translate(111.5, 57.55) scale(1, -1)">
<g id="opperation-1">
    <title>2D Profile2 (Op: 1/1)</title>
    <path d="M -96.5 -40.939
             A 1.611 1.611 0 0 1 -98.111 -42.55
             A 1.611 1.611 0 0 1 -96.5 -44.161
             A 1.611 1.611 0 0 1 -94.889 -42.55
             A 1.611 1.611 0 0 1 -96.5 -40.939
             M -92.691 11.479
             L -80.869 11.479
             L -80.869 25.301
             L -94.691 25.301
             L -94.691 11.479
             L -92.691 11.479
             M -91.161 37.826
             L -91.161 36.95
             A 0.411 0.411 0 0 1 -90.75 36.539
             L -88.75 36.539
             A 0.411 0.411 0 0 1 -88.339 36.95
             L -88.339 39.35
             A 0.411 0.411 0 0 1 -88.75 39.761
             L -90.75 39.761
             A 0.411 0.411 0 0 1 -91.161 39.35
             L -91.161 37.826
             M -92.339 38.474
             L -92.339 39.35
             A 0.411 0.411 0 0 1 -92.75 39.761
             L -94.75 39.761
             A 0.411 0.411 0 0 1 -95.161 39.35
             L -95.161 36.95
             A 0.411 0.411 0 0 1 -94.75 36.539
             L -92.75 36.539
             A 0.411 0.411 0 0 1 -92.339 36.95
             L -92.339 38.474
             M -95.563 47.239
             A 1.611 1.611 0 0 1 -95.189 49.487
             A 1.611 1.611 0 0 1 -97.437 49.861
             A 1.611 1.611 0 0 1 -97.811 47.613
             A 1.611 1.611 0 0 1 -95.563 47.239
             M -84.339 39.12
             L -84.339 39.35
             A 0.411 0.411 0 0 1 -84.75 39.761
             L -86.75 39.761
             A 0.411 0.411 0 0 1 -87.161 39.35
             L -87.161 36.95
             A 0.411 0.411 0 0 1 -86.75 36.539
             L -84.75 36.539
             A 0.411 0.411 0 0 1 -84.339 36.95
             L -84.339 39.12
             M -81.626 36.539
             L -80.75 36.539
             A 0.411 0.411 0 0 1 -80.339 36.95
             L -80.339 39.35
             A 0.411 0.411 0 0 1 -80.75 39.761
             L -82.75 39.761
             A 0.411 0.411 0 0 1 -83.161 39.35
             L -83.161 36.95
             A 0.411 0.411 0 0 1 -82.75 36.539
             L -81.626 36.539
             M -54.234 25.301
             L -66.056 25.301
             L -66.056 11.479
             L -52.234 11.479
             L -52.234 25.301
             L -54.234 25.301
             M -36.999 18.101
             L -37.821 18.101
             L -37.821 4.279
             L -23.999 4.279
             L -23.999 18.101
             L -36.999 18.101
             M -2.426 4.101
             L -3.126 4.101
             L -3.126 -9.721
             L 10.696 -9.721
             L 10.696 4.101
             L -2.426 4.101
             M 2.976 12.621
             A 1.611 1.611 0 0 1 3.979 10.576
             A 1.611 1.611 0 0 1 6.024 11.579
             A 1.611 1.611 0 0 1 5.021 13.624
             A 1.611 1.611 0 0 1 2.976 12.621
             M 10.007 21.479
             L 10.696 21.479
             L 10.696 35.301
             L -3.126 35.301
             L -3.126 21.479
             L 10.007 21.479
             M 35.096 19.401
             L 35.096 20.101
             L 21.274 20.101
             L 21.274 6.279
             L 35.096 6.279
             L 35.096 19.401
             M 63.896 15.279
             L 63.896 20.101
             L 50.074 20.101
             L 50.074 6.279
             L 63.896 6.279
             L 63.896 15.279
             M 79.563 13.001
             L 78.874 13.001
             L 78.874 -0.821
             L 92.696 -0.821
             L 92.696 13.001
             L 79.563 13.001
             M 87.474 30.379
             L 92.296 30.379
             L 92.296 44.201
             L 78.474 44.201
             L 78.474 30.379
             L 87.474 30.379
             M 95.189 47.613
             A 1.611 1.611 0 0 1 97.437 47.239
             A 1.611 1.611 0 0 1 97.811 49.487
             A 1.611 1.611 0 0 1 95.563 49.861
             A 1.611 1.611 0 0 1 95.189 47.613
             M 63.896 47.579
             L 63.896 51.401
             L 50.074 51.401
             L 50.074 37.579
             L 63.896 37.579
             L 63.896 47.579
             M 21.274 48.301
             L 21.274 37.479
             L 35.096 37.479
             L 35.096 51.301
             L 21.274 51.301
             L 21.274 48.301
             M 5.437 47.239
             A 1.611 1.611 0 0 1 5.811 49.487
             A 1.611 1.611 0 0 1 3.563 49.861
             A 1.611 1.611 0 0 1 3.189 47.613
             A 1.611 1.611 0 0 1 5.437 47.239
             M -15.199 -30.618
             L -15.199 -29.929
             L -29.021 -29.929
             L -29.021 -43.751
             L -15.199 -43.751
             L -15.199 -30.618
             M 5.021 -41.026
             A 1.611 1.611 0 0 1 2.976 -42.029
             A 1.611 1.611 0 0 1 3.979 -44.074
             A 1.611 1.611 0 0 1 6.024 -43.071
             A 1.611 1.611 0 0 1 5.021 -41.026
             M 94.889 -42.523
             A 1.611 1.611 0 0 1 96.473 -44.161
             A 1.611 1.611 0 0 1 98.111 -42.577
             A 1.611 1.611 0 0 1 96.527 -40.939
             A 1.611 1.611 0 0 1 94.889 -42.523
             M 94.889 -54.639
             L -106.5 -54.639
             A 2.089 2.089 0 0 0 -108.589 -52.55
             L -108.589 52.55
             A 2.089 2.089 0 0 0 -106.5 54.639
             L 106.5 54.639
             A 2.089 2.089 0 0 0 108.589 52.55
             L 108.589 -52.55
             A 2.089 2.089 0 0 0 106.5 -54.639
             L 94.889 -54.639" fill="none" stroke="#0000d3" stroke-width="0.1"/>
</g>
</g>
</svg>
